<?xml version="1.0" standalone="no"?>
<!DOCTYPE svg PUBLIC "-//W3C//DTD SVG 20010904//EN"
 "http://www.w3.org/TR/2001/REC-SVG-20010904/DTD/svg10.dtd">
<svg version="1.0" xmlns="http://www.w3.org/2000/svg"
 width="824.000000pt" height="824.000000pt" viewBox="0 0 824.000000 824.000000"
 preserveAspectRatio="xMidYMid meet">
<metadata>
Created by potrace 1.11, written by Peter Selinger 2001-2013
</metadata>
<g transform="translate(0.000000,824.000000) scale(0.100000,-0.100000)"
fill="#000000" stroke="none">
<path d="M4379 7076 c-2 -2 -32 -7 -67 -10 -34 -3 -84 -11 -110 -17 -26 -6
-60 -13 -77 -16 -55 -9 -268 -84 -339 -120 -70 -35 -184 -104 -220 -133 -233
-186 -354 -379 -402 -640 -12 -67 -11 -229 1 -309 35 -219 106 -365 273 -563
190 -225 430 -403 1037 -769 77 -46 149 -89 160 -96 11 -7 29 -17 40 -22 11
-6 58 -35 105 -65 47 -30 126 -80 175 -111 94 -59 325 -219 390 -270 167 -132
217 -176 340 -299 77 -78 154 -157 170 -176 280 -329 425 -710 421 -1102 -1
-118 0 -127 14 -107 28 43 82 174 102 249 29 113 30 124 34 280 5 236 -26 343
-175 594 -104 177 -315 420 -526 606 -171 151 -489 370 -894 614 -376 227
-451 279 -570 397 -142 140 -193 239 -195 379 -1 97 3 117 35 185 44 94 155
182 274 215 95 27 339 20 515 -15 36 -7 166 -49 230 -75 l55 -22 18 24 c10 13
26 32 35 43 10 11 39 48 65 83 l48 62 -68 31 c-221 100 -500 160 -708 153
-260 -10 -434 -72 -565 -204 -123 -123 -186 -257 -197 -419 l-6 -84 -24 49
c-95 194 -64 461 71 622 74 89 232 193 341 224 22 6 45 13 50 15 6 1 39 10 75
18 323 73 749 9 1102 -165 l97 -48 73 97 c40 53 76 99 81 102 9 7 -94 69 -178
108 -98 45 -111 50 -198 80 -89 31 -255 73 -337 86 -25 4 -52 9 -61 10 -132
25 -458 25 -583 1 -252 -49 -460 -152 -610 -302 -112 -111 -165 -208 -229
-418 -22 -70 -25 -76 -30 -50 -41 212 -17 405 70 553 47 81 177 214 263 270
121 80 244 134 388 171 158 40 243 49 452 45 250 -4 400 -26 635 -92 171 -48
361 -130 510 -218 l74 -43 81 99 c72 88 79 101 66 114 -8 8 -19 15 -24 15 -6
0 -12 3 -14 8 -5 13 -127 81 -243 137 -231 111 -492 187 -755 220 -25 3 -61 8
-80 11 -42 7 -475 15 -481 10z"/>
<path d="M3376 6994 c-326 -121 -592 -391 -689 -699 -35 -112 -38 -131 -42
-300 -4 -146 5 -240 36 -365 34 -137 121 -342 192 -453 21 -32 37 -61 37 -66
0 -5 3 -11 8 -13 4 -1 20 -22 35 -44 148 -218 453 -491 813 -727 82 -53 522
-320 639 -387 406 -232 740 -476 968 -708 203 -205 301 -381 363 -647 23 -100
26 -389 5 -475 -57 -235 -110 -342 -273 -548 -100 -127 -93 -130 47 -23 159
122 290 266 371 408 50 87 99 209 108 265 3 21 10 55 14 76 12 52 7 275 -8
337 -6 28 -14 61 -16 75 -12 58 -58 182 -104 275 -91 184 -225 357 -410 527
-146 136 -151 139 -285 240 -178 135 -318 226 -671 439 -323 193 -541 327
-559 342 -5 4 -37 26 -70 48 -119 79 -205 143 -329 244 -77 62 -63 50 -198
182 -233 229 -372 471 -433 758 -20 93 -28 305 -15 385 5 30 12 69 15 85 2 17
13 60 24 97 66 230 228 457 476 671 37 32 37 32 -49 1z"/>
<path d="M2361 5874 c-35 -132 -46 -226 -46 -389 0 -171 18 -284 67 -429 101
-300 375 -617 813 -946 124 -93 504 -347 607 -405 60 -34 453 -275 503 -309
97 -65 207 -181 245 -259 103 -210 -15 -455 -283 -586 -141 -69 -211 -84 -382
-85 -130 -1 -204 4 -265 19 -14 3 -34 8 -45 10 -168 36 -399 138 -609 270
l-100 63 -20 -27 c-11 -14 -49 -61 -84 -103 l-63 -78 83 -54 c146 -95 272
-162 413 -221 50 -20 99 -41 110 -46 43 -19 236 -68 330 -84 139 -23 345 -24
460 -1 224 45 403 136 541 275 89 89 143 180 183 311 18 58 35 111 37 119 7
23 13 9 40 -95 24 -94 34 -239 19 -264 -3 -6 -8 -18 -10 -27 -33 -143 -148
-293 -307 -399 -186 -124 -428 -188 -713 -188 -162 1 -183 3 -355 34 -159 30
-363 99 -545 186 -102 48 -314 172 -388 225 -22 16 -44 29 -48 29 -7 0 -147
-161 -162 -187 -12 -20 240 -182 435 -279 249 -125 474 -200 728 -244 194 -34
502 -32 682 5 100 20 231 56 242 67 6 4 16 8 23 8 20 0 138 56 213 102 194
118 347 288 411 457 12 31 34 106 49 166 l27 110 16 -55 c51 -171 45 -337 -18
-492 -74 -183 -271 -367 -510 -478 -141 -66 -359 -126 -555 -155 -93 -14 -444
-13 -545 0 -101 14 -143 21 -180 30 -11 2 -52 11 -90 20 -108 23 -345 102
-450 150 -231 104 -385 189 -573 313 -70 47 -85 53 -96 41 -69 -77 -145 -180
-141 -191 6 -13 265 -188 279 -188 4 0 20 -9 36 -20 58 -41 320 -170 455 -223
180 -71 407 -141 490 -152 11 -1 34 -5 50 -9 50 -11 78 -16 125 -22 25 -3 56
-8 70 -11 14 -3 129 -7 255 -8 316 -4 518 23 769 106 451 148 778 438 885 782
30 99 36 147 35 292 -1 184 -36 312 -133 480 -107 187 -323 389 -661 618 -169
114 -188 126 -620 384 -599 358 -842 535 -1116 815 -192 196 -337 404 -426
611 -22 51 -43 101 -48 112 -18 40 -69 212 -85 285 -22 106 -24 118 -31 185
-4 33 -8 62 -10 64 -1 1 -7 -14 -13 -35z"/>
</g>
</svg>
