<?xml version="1.0" standalone="no"?>
<!DOCTYPE svg PUBLIC "-//W3C//DTD SVG 20010904//EN"
 "http://www.w3.org/TR/2001/REC-SVG-20010904/DTD/svg10.dtd">
<svg version="1.0" xmlns="http://www.w3.org/2000/svg"
 width="648.000000pt" height="648.000000pt" viewBox="0 0 648.000000 648.000000"
 preserveAspectRatio="xMidYMid meet">
<metadata>
Created by potrace 1.11, written by Peter Selinger 2001-2013
</metadata>
<g transform="translate(0.000000,648.000000) scale(0.100000,-0.100000)"
fill="#000000" stroke="none">
<path d="M3400 6153 c-86 -9 -303 -57 -385 -84 -310 -105 -557 -295 -704 -539
-11 -19 -24 -42 -27 -50 -3 -8 -12 -28 -19 -45 -71 -168 -91 -405 -50 -592 48
-214 154 -392 355 -594 212 -213 398 -344 1015 -714 292 -175 595 -367 665
-422 8 -6 53 -40 100 -74 185 -135 443 -375 571 -529 183 -221 311 -479 369
-747 26 -122 34 -200 34 -345 l0 -116 19 31 c32 52 78 176 105 281 21 85 25
124 26 246 0 80 -2 159 -6 175 -29 142 -59 221 -130 344 -26 46 -48 87 -48 91
0 4 -9 15 -20 25 -11 10 -20 22 -20 27 0 9 -65 97 -143 193 -50 62 -281 293
-361 360 -208 176 -489 366 -951 644 -66 40 -129 78 -140 84 -211 128 -352
246 -453 379 -62 83 -92 161 -97 252 -9 196 99 345 295 407 159 51 486 22 706
-62 102 -39 107 -41 120 -32 14 11 154 189 154 197 0 11 -125 64 -236 101 -96
32 -242 66 -344 79 -54 8 -280 9 -301 2 -7 -3 -32 -7 -54 -10 -351 -47 -596
-306 -605 -641 l-1 -50 -25 50 c-77 154 -74 355 8 525 37 77 144 187 231 239
116 69 265 116 427 136 63 8 255 9 318 1 23 -3 61 -8 85 -11 159 -19 406 -95
570 -175 l100 -48 51 65 c28 36 63 83 78 103 l28 38 -33 20 c-90 54 -288 146
-337 157 -8 2 -28 8 -43 14 -38 15 -212 59 -262 67 -22 3 -42 7 -45 9 -3 2
-37 7 -75 10 -39 4 -97 10 -130 14 -72 8 -288 6 -365 -3 -244 -30 -485 -134
-651 -281 -57 -51 -135 -147 -167 -206 -24 -46 -77 -175 -86 -214 -25 -97 -29
-108 -38 -86 -8 24 -18 106 -22 196 -3 61 16 182 39 250 42 124 140 251 270
351 124 94 341 190 498 220 12 2 33 6 47 9 67 13 118 17 280 19 200 3 295 -5
497 -43 231 -44 485 -138 684 -250 49 -28 93 -52 98 -53 5 -2 46 42 90 96 l80
100 -47 31 c-262 176 -675 322 -1016 361 -23 2 -54 7 -71 9 -38 7 -458 13
-505 8z"/>
<path d="M2425 6076 c-174 -67 -318 -159 -437 -280 -272 -274 -364 -611 -282
-1026 83 -419 360 -818 804 -1155 36 -28 67 -53 70 -56 19 -23 366 -245 616
-394 618 -367 799 -486 1019 -668 98 -82 317 -307 367 -377 80 -113 173 -320
194 -434 54 -289 35 -501 -64 -736 -43 -104 -81 -164 -187 -300 -108 -139
-108 -140 -29 -85 211 144 383 335 474 530 99 209 117 396 65 660 -13 65 -68
214 -111 299 -85 169 -197 318 -356 472 -269 262 -468 404 -1068 764 -651 390
-864 543 -1130 810 -200 200 -326 420 -397 694 -23 86 -27 123 -27 251 -1 161
3 205 30 312 54 221 178 416 397 628 65 63 117 115 115 114 -2 0 -30 -10 -63
-23z"/>
<path d="M1390 4924 c-53 -254 -51 -513 5 -713 130 -459 551 -880 1415 -1410
200 -123 161 -99 365 -223 264 -160 363 -248 424 -378 22 -47 26 -69 26 -146
0 -84 -3 -95 -37 -165 -151 -304 -568 -432 -1013 -310 -188 52 -410 154 -583
268 -46 30 -87 51 -91 47 -61 -74 -103 -127 -129 -160 l-31 -41 52 -35 c376
-252 763 -387 1107 -389 354 -1 649 126 842 362 50 61 99 164 134 282 28 97
29 98 41 69 23 -56 50 -217 48 -277 -10 -201 -162 -413 -385 -537 -264 -145
-639 -189 -1004 -117 -116 23 -118 24 -286 79 -194 65 -424 181 -642 325 l-66
44 -34 -41 c-18 -23 -54 -67 -80 -97 -26 -31 -48 -60 -48 -64 0 -4 53 -42 117
-84 466 -304 927 -457 1378 -456 85 0 241 10 290 18 307 54 518 143 700 299
105 90 188 192 235 291 29 61 76 211 86 275 10 64 22 53 44 -41 33 -143 21
-346 -27 -434 -6 -11 -12 -24 -13 -30 -17 -84 -178 -264 -321 -360 -124 -83
-354 -184 -479 -209 -14 -3 -36 -7 -50 -10 -80 -18 -189 -37 -252 -43 -97 -10
-374 -10 -468 0 -431 47 -889 224 -1326 514 l-91 60 -40 -51 c-22 -28 -58 -74
-81 -102 l-41 -51 88 -60 c432 -300 910 -493 1396 -564 118 -17 480 -19 605
-4 175 23 192 25 199 29 3 2 24 7 46 10 52 9 158 39 270 78 353 124 645 362
774 631 175 362 106 776 -183 1096 -64 72 -215 204 -330 289 -39 29 -79 60
-88 67 -64 52 -460 304 -608 387 -85 47 -485 291 -570 347 -89 58 -291 200
-300 211 -3 3 -25 21 -50 40 -112 85 -325 288 -436 415 -73 85 -175 226 -212
295 -87 160 -133 264 -175 395 -51 158 -66 228 -90 402 -6 42 -15 34 -27 -23z"/>
</g>
</svg>
