<svg width="803px" height="663px" viewBox="0 0 803 663" version="1.1" xmlns="http://www.w3.org/2000/svg" xmlns:xlink="http://www.w3.org/1999/xlink">
    <g id="Page-1" stroke="none" stroke-width="1" fill="none" fill-rule="evenodd">
        <g id="Primary" transform="translate(-467.000000, 0.000000)">
            <g id="Group-2" transform="translate(467.000000, -362.000000)">
                <g id="chat-story" transform="translate(28.000000, 362.000000)">
                    <g id="object1" transform="translate(72.000000, 537.000000)" fill-rule="nonzero">
                        <polygon id="Path" fill="#CADCED" points="13 125 514 125 459.244523 108.193694 124.781919 99"></polygon>
                        <g id="Group" fill="#EAF4FB">
                            <path d="M222.331072,2.73972603 L12.7892342,124.828767 L35.9106577,124.828767 C35.9106577,124.828767 95.2577445,118.150685 115.103108,117.694064 C155.801853,116.780822 237.010341,124.315068 277.709086,124.828767 C315.509778,125.285388 391.111163,120.148402 428.911855,120.547945 C450.017241,120.776256 513.144398,124.828767 513.144398,124.828767 L667.434223,11.7579909 L542.439934,13.3561644 C534.690792,13.4703196 526.878649,13.2420091 519.129507,12.7853881 L434.518958,7.53424658 C426.832817,7.07762557 419.083675,6.84931507 411.334533,6.96347032 L301.082514,8.33333333 C290.183314,8.44748858 279.347116,8.04794521 268.510917,7.02054795 L222.331072,2.73972603 Z" id="Path" stroke="#EAF4FB"></path>
                            <g transform="translate(0.000000, 110.491382)" id="Path">
                                <path d="M49.581908,1.49491903 C33.579615,1.49491903 17.5773219,1.49491903 1.57502884,1.49491903"></path>
                                <path d="M49.581908,0.0679783923 C33.579615,0.0679783923 17.5773219,0.0679783923 1.57502884,0.0679783923 C-0.441008077,0.0679783923 -0.441008077,2.92185967 1.57502884,2.92185967 C17.5773219,2.92185967 33.579615,2.92185967 49.581908,2.92185967 C51.6609461,2.92185967 51.6609461,0.0679783923 49.581908,0.0679783923 L49.581908,0.0679783923 Z"></path>
                            </g>
                            <g transform="translate(34.386206, 96.792752)" id="Path">
                                <path d="M34.537056,1.43784141 C23.6378564,3.32140305 12.5496533,4.17756743 1.52445141,3.89217931"></path>
                                <path d="M34.0960479,0.0679783923 C23.3228506,1.89446241 12.423651,2.69354917 1.52445141,2.52231629 C-0.491585511,2.46523867 -0.491585511,5.31911994 1.52445141,5.37619757 C12.7386568,5.54743045 23.9528622,4.69126606 34.9780641,2.86478205 C36.9310998,2.46523867 36.0490837,-0.274487361 34.0960479,0.0679783923 L34.0960479,0.0679783923 Z"></path>
                            </g>
                            <g transform="translate(51.660946, 83.664898)" id="Path">
                                <path d="M45.2348284,1.43784141 C31.12257,5.14788707 16.3172988,6.57482771 1.70103115,5.6615857"></path>
                                <path d="M44.8568215,0.0679783923 C30.8075642,3.72094643 16.3172988,5.09080944 1.70103115,4.23464506 C-0.315005769,4.12048981 -0.315005769,6.97437109 1.70103115,7.08852634 C16.5693034,7.94469072 31.3745746,6.51775008 45.6758365,2.80770442 C47.6288723,2.29400579 46.8098573,-0.445720238 44.8568215,0.0679783923 L44.8568215,0.0679783923 Z"></path>
                            </g>
                            <g transform="translate(57.331050, 69.634703)" id="Path">
                                <path d="M57.772058,1.71232877 C39.0607153,1.42694064 20.3493727,1.59817352 1.63803,2.28310502"></path>
                                <path d="M57.772058,0.285388128 C39.0607153,3.60822483e-16 20.3493727,0.171232877 1.63803,0.856164384 C-0.378006923,0.913242009 -0.378006923,3.76712329 1.63803,3.71004566 C20.3493727,3.08219178 39.0607153,2.9109589 57.772058,3.13926941 C59.7880949,3.13926941 59.7880949,0.285388128 57.772058,0.285388128 L57.772058,0.285388128 Z"></path>
                            </g>
                            <g transform="translate(87.307175, 60.502283)" id="Path">
                                <path d="M41.5301841,1.71232877 C28.2369406,1.71232877 14.880696,1.94063927 1.58745256,2.39726027"></path>
                                <path d="M41.5301841,0.285388128 C28.2369406,0.285388128 14.9436972,0.51369863 1.58745256,0.970319635 C-0.428584358,1.02739726 -0.428584358,3.88127854 1.58745256,3.82420091 C14.880696,3.36757991 28.1739395,3.13926941 41.5301841,3.13926941 C43.546221,3.13926941 43.546221,0.285388128 41.5301841,0.285388128 L41.5301841,0.285388128 Z"></path>
                            </g>
                            <g transform="translate(110.252019, 48.276770)" id="Path">
                                <path d="M44.1638088,1.55199666 C30.0515504,1.55199666 15.8762908,1.55199666 1.76403231,1.55199666"></path>
                                <path d="M44.1638088,0.125056018 C30.0515504,0.125056018 15.8762908,0.125056018 1.76403231,0.125056018 C-0.252004615,0.125056018 -0.252004615,2.9789373 1.76403231,2.9789373 C15.8762908,2.9789373 30.0515504,2.9789373 44.1638088,2.9789373 C46.1798457,2.9789373 46.1798457,0.125056018 44.1638088,0.125056018 L44.1638088,0.125056018 Z"></path>
                            </g>
                            <g transform="translate(131.672411, 38.573574)" id="Path">
                                <path d="M48.8888953,2.69354917 C33.0756057,3.2072478 17.2623161,2.86478205 1.51202769,1.66615191"></path>
                                <path d="M48.8888953,1.26660853 C33.0756057,1.78030716 17.2623161,1.43784141 1.51202769,0.239211269 C-0.50400923,0.0679783923 -0.50400923,2.92185967 1.51202769,3.09309255 C17.2623161,4.29172268 33.0756057,4.63418844 48.8888953,4.12048981 C50.9679334,4.06341218 50.9679334,1.2095309 48.8888953,1.26660853 L48.8888953,1.26660853 Z"></path>
                            </g>
                            <g transform="translate(140.858156, 28.870378)" id="Path">
                                <path d="M57.8474829,1.60907428 C39.1361402,1.83738478 20.4247975,2.06569529 1.71345487,2.35108342"></path>
                                <path d="M57.8474829,0.182133643 C39.1361402,0.410444146 20.4247975,0.638754648 1.71345487,0.924142776 C-0.30258205,0.924142776 -0.30258205,3.77802405 1.71345487,3.77802405 C20.4247975,3.54971355 39.1361402,3.32140305 57.8474829,3.03601492 C59.8635198,3.03601492 59.8635198,0.182133643 57.8474829,0.182133643 L57.8474829,0.182133643 Z"></path>
                            </g>
                            <g transform="translate(158.498479, 17.694064)" id="Path">
                                <path d="M58.9185025,4.45205479 C39.7661518,3.53881279 20.6768022,2.62557078 1.52445141,1.71232877"></path>
                                <path d="M58.9185025,3.02511416 C39.7661518,2.11187215 20.6768022,1.19863014 1.52445141,0.285388128 C-0.491585511,0.171232877 -0.491585511,3.02511416 1.52445141,3.13926941 C20.6768022,4.05251142 39.7661518,4.96575342 58.9185025,5.87899543 C60.9345394,5.99315068 60.9345394,3.13926941 58.9185025,3.02511416 L58.9185025,3.02511416 Z"></path>
                            </g>
                            <g transform="translate(175.143208, 8.561644)" id="Path">
                                <path d="M48.5108884,2.34018265 C32.9496034,1.48401826 17.2623161,1.54109589 1.70103115,2.39726027"></path>
                                <path d="M48.5108884,0.913242009 C32.8866023,0.114155251 17.3253173,0.114155251 1.70103115,0.970319635 C-0.315005769,1.08447489 -0.315005769,3.93835616 1.70103115,3.82420091 C17.2623161,2.96803653 32.8866023,2.9109589 48.5108884,3.76712329 C50.5269253,3.88127854 50.5269253,1.02739726 48.5108884,0.913242009 L48.5108884,0.913242009 Z"></path>
                            </g>
                            <g transform="translate(172.623161, 0.000000)" id="Path">
                                <path d="M65.962208,2.96803653 C44.5418157,1.82648402 23.1214234,1.48401826 1.70103115,1.94063927"></path>
                                <path d="M65.962208,1.54109589 C44.5418157,0.399543379 23.1214234,0.0570776256 1.70103115,0.51369863 C-0.315005769,0.570776256 -0.315005769,3.42465753 1.70103115,3.36757991 C23.1214234,2.9109589 44.5418157,3.25342466 65.962208,4.39497717 C67.9782449,4.50913242 67.9782449,1.65525114 65.962208,1.54109589 L65.962208,1.54109589 Z"></path>
                            </g>
                            <g transform="translate(501.489184, 115.296804)" id="Path">
                                <path d="M1.57502884,1.65525114 C24.4444477,1.88356164 47.3138665,2.11187215 70.1832853,2.39726027"></path>
                                <path d="M1.57502884,3.08219178 C24.4444477,3.31050228 47.3138665,3.53881279 70.1832853,3.82420091 C72.1993222,3.82420091 72.1993222,0.970319635 70.1832853,0.970319635 C47.3138665,0.742009132 24.4444477,0.51369863 1.57502884,0.228310502 C-0.441008077,0.228310502 -0.441008077,3.08219178 1.57502884,3.08219178 L1.57502884,3.08219178 Z"></path>
                            </g>
                            <g transform="translate(516.975044, 104.212844)" id="Path">
                                <path d="M1.71345487,1.55199666 C16.2667214,1.55199666 30.8199879,1.55199666 45.3732544,1.55199666"></path>
                                <path d="M1.71345487,2.9789373 C16.2667214,2.9789373 30.8199879,2.9789373 45.3732544,2.9789373 C47.3892914,2.9789373 47.3892914,0.125056018 45.3732544,0.125056018 C30.8199879,0.125056018 16.2667214,0.125056018 1.71345487,0.125056018 C-0.30258205,0.125056018 -0.30258205,2.9789373 1.71345487,2.9789373 L1.71345487,2.9789373 Z"></path>
                            </g>
                            <g transform="translate(536.505402, 91.084990)" id="Path">
                                <path d="M1.52445141,2.23692816 C20.8658056,1.72322953 40.2071598,1.49491903 59.548514,1.66615191"></path>
                                <path d="M1.52445141,3.6638688 C20.8658056,3.15017017 40.2071598,2.9789373 59.548514,3.09309255 C61.564551,3.09309255 61.564551,0.239211269 59.548514,0.239211269 C40.2071598,0.0679783923 20.8658056,0.296288895 1.52445141,0.809987525 C-0.491585511,0.86706515 -0.491585511,3.72094643 1.52445141,3.6638688 L1.52445141,3.6638688 Z"></path>
                            </g>
                            <g transform="translate(557.560211, 81.381793)" id="Path">
                                <path d="M1.63803,3.37848068 C21.1683877,2.80770442 40.6987453,2.17985054 60.2921042,1.60907428"></path>
                                <path d="M1.63803,4.80542131 C21.1683877,4.23464506 40.6987453,3.60679118 60.2921042,3.03601492 C62.3081411,2.9789373 62.3081411,0.125056018 60.2921042,0.182133643 C40.7617465,0.752909899 21.2313888,1.38076378 1.63803,1.95154004 C-0.378006923,2.00861766 -0.378006923,4.86249894 1.63803,4.80542131 L1.63803,4.80542131 Z"></path>
                            </g>
                            <g transform="translate(581.236221, 62.785388)" id="Path">
                                <path d="M1.71345487,1.71232877 C17.337741,1.71232877 32.899026,1.71232877 48.5233121,1.71232877"></path>
                                <path d="M1.71345487,3.13926941 C17.337741,3.13926941 32.899026,3.13926941 48.5233121,3.13926941 C50.5393491,3.13926941 50.5393491,0.285388128 48.5233121,0.285388128 C32.899026,0.285388128 17.337741,0.285388128 1.71345487,0.285388128 C-0.30258205,0.285388128 -0.365583204,3.13926941 1.71345487,3.13926941 L1.71345487,3.13926941 Z"></path>
                            </g>
                            <g transform="translate(592.576429, 49.989099)" id="Path">
                                <path d="M1.58745256,1.49491903 C18.4087606,2.29400579 35.2930698,2.69354917 52.1143779,2.69354917"></path>
                                <path d="M1.58745256,2.92185967 C18.4087606,3.72094643 35.2300687,4.12048981 52.1143779,4.12048981 C54.1304148,4.12048981 54.1304148,1.26660853 52.1143779,1.26660853 C35.2930698,1.26660853 18.4087606,0.86706515 1.58745256,0.0679783923 C-0.428584358,-0.0461768589 -0.428584358,2.80770442 1.58745256,2.92185967 L1.58745256,2.92185967 Z"></path>
                            </g>
                            <g transform="translate(621.191376, 36.290469)" id="Path">
                                <path d="M1.63803,2.12277291 C13.6712504,1.95154004 25.7674719,1.72322953 37.8006923,1.55199666"></path>
                                <path d="M1.63803,3.54971355 C13.6712504,3.37848068 25.7674719,3.15017017 37.8006923,2.9789373 C39.8167292,2.92185967 39.8167292,0.0679783923 37.8006923,0.125056018 C25.7674719,0.296288895 13.6712504,0.524599397 1.63803,0.695832274 C-0.378006923,0.695832274 -0.378006923,3.54971355 1.63803,3.54971355 L1.63803,3.54971355 Z"></path>
                            </g>
                            <g transform="translate(638.201688, 21.689498)" id="Path">
                                <path d="M1.51202769,2.6826484 C13.7342515,1.94063927 26.0194765,1.54109589 38.3047015,1.48401826"></path>
                                <path d="M1.51202769,4.10958904 C13.7342515,3.36757991 26.0194765,2.96803653 38.3047015,2.9109589 C40.3207384,2.9109589 40.3207384,0.0570776256 38.3047015,0.0570776256 C26.0194765,0.114155251 13.7342515,0.51369863 1.51202769,1.25570776 C-0.50400923,1.42694064 -0.50400923,4.28082192 1.51202769,4.10958904 L1.51202769,4.10958904 Z"></path>
                            </g>
                        </g>
                        <ellipse id="Oval" fill="#CADCED" cx="340.5" cy="65" rx="94.5" ry="21"></ellipse>
                    </g>
                    <g id="background">
                        <rect id="Rectangle" fill="#F5F5FF" fill-rule="nonzero" x="207.223232" y="0.192717877" width="376.252763" height="463.390136"></rect>
                        <ellipse id="Oval" fill="#B5B5E2" fill-rule="nonzero" opacity="0.29" cx="399.639454" cy="122.616749" rx="42.657404" ry="42.6388303"></ellipse>
                        <g id="Group" stroke="#F5F5FF">
                            <rect id="Rectangle" stroke-width="3" x="40.1604497" y="111.390933" width="46.1760373" height="18.5490957"></rect>
                            <rect id="Rectangle" stroke-width="3" x="86.336487" y="111.390933" width="46.1760373" height="18.5490957"></rect>
                            <rect id="Rectangle" stroke-width="3" x="132.512524" y="111.390933" width="46.1760373" height="18.5490957"></rect>
                            <polyline id="Path" stroke-width="3" points="263.665966 129.940029 178.736762 129.940029 178.736762 111.390933 224.912799 111.390933"></polyline>
                            <rect id="Rectangle" stroke-width="3" x="69.5145277" y="129.940029" width="46.1760373" height="18.5490957"></rect>
                            <rect id="Rectangle" stroke-width="3" x="115.738765" y="129.940029" width="46.1760373" height="18.5490957"></rect>
                            <rect id="Rectangle" fill="#F5F5FF" fill-rule="nonzero" x="161.914803" y="129.940029" width="46.1760373" height="18.5490957"></rect>
                            <polyline id="Path" stroke-width="3" points="40.1604497 148.489124 86.2882866 148.489124 86.2882866 166.990041 0.00946950102 166.990041"></polyline>
                            <rect id="Rectangle" stroke-width="3" x="86.336487" y="148.489124" width="46.1760373" height="18.5490957"></rect>
                            <rect id="Rectangle" stroke-width="3" x="132.512524" y="148.489124" width="46.1760373" height="18.5490957"></rect>
                            <polyline id="Path" stroke-width="3" points="224.912799 166.990041 178.736762 166.990041 178.736762 148.489124 235.709702 148.489124"></polyline>
                            <polyline id="Path" stroke-width="3" points="40.1604497 166.990041 69.5145277 166.990041 69.5145277 185.539136 40.1604497 185.539136"></polyline>
                            <rect id="Rectangle" stroke-width="3" x="69.5145277" y="166.990041" width="46.1760373" height="18.5490957"></rect>
                            <rect id="Rectangle" stroke-width="3" x="115.738765" y="166.990041" width="46.1760373" height="18.5490957"></rect>
                            <rect id="Rectangle" fill="#F5F5FF" fill-rule="nonzero" x="161.914803" y="166.990041" width="46.1760373" height="18.5490957"></rect>
                            <rect id="Rectangle" stroke-width="3" x="40.1604497" y="185.539136" width="46.1760373" height="18.5490957"></rect>
                            <rect id="Rectangle" fill="#F5F5FF" fill-rule="nonzero" x="86.336487" y="185.539136" width="46.1760373" height="18.5490957"></rect>
                            <rect id="Rectangle" stroke-width="3" x="132.512524" y="185.539136" width="46.1760373" height="18.5490957"></rect>
                            <rect id="Rectangle" stroke-width="3" x="178.736762" y="185.539136" width="46.1760373" height="18.5490957"></rect>
                            <polyline id="Path" stroke-width="3" points="40.1604497 204.088232 69.5145277 204.088232 69.5145277 222.589148 40.1604497 222.589148"></polyline>
                            <rect id="Rectangle" stroke-width="3" x="69.5145277" y="204.088232" width="46.1760373" height="18.5490957"></rect>
                            <rect id="Rectangle" stroke-width="3" x="115.738765" y="204.088232" width="46.1760373" height="18.5490957"></rect>
                            <rect id="Rectangle" stroke-width="3" x="161.914803" y="204.088232" width="46.1760373" height="18.5490957"></rect>
                            <polyline id="Path" stroke-width="3" points="33.0749826 0.240897346 86.2882866 0.240897346 86.2882866 18.7418136 40.1604497 18.7418136"></polyline>
                            <rect id="Rectangle" stroke-width="3" x="132.512524" y="0.240897346" width="46.1760373" height="18.5490957"></rect>
                            <polyline id="Path" stroke-width="3" points="178.736762 18.7418136 178.736762 0.240897346 224.912799 0.240897346"></polyline>
                            <rect id="Rectangle" stroke-width="3" x="40.1604497" y="18.7418136" width="29.354078" height="18.5490957"></rect>
                            <rect id="Rectangle" stroke-width="3" x="69.5145277" y="18.7418136" width="46.1760373" height="18.5490957"></rect>
                            <rect id="Rectangle" stroke-width="3" x="115.738765" y="18.7418136" width="46.1760373" height="18.5490957"></rect>
                            <rect id="Rectangle" stroke-width="3" x="161.914803" y="18.7418136" width="46.1760373" height="18.5490957"></rect>
                            <polyline id="Path" stroke-width="3" points="40.1604497 37.2909092 86.2882866 37.2909092 86.2882866 55.8400049 40.1604497 55.8400049"></polyline>
                            <rect id="Rectangle" fill="#F5F5FF" fill-rule="nonzero" x="86.336487" y="37.2909092" width="46.1760373" height="18.5490957"></rect>
                            <rect id="Rectangle" stroke-width="3" x="132.512524" y="37.2909092" width="46.1760373" height="18.5490957"></rect>
                            <polyline id="Path" points="224.912799 55.8400049 178.736762 55.8400049 178.736762 37.2909092 249.205829 37.2909092"></polyline>
                            <polyline id="Path" stroke-width="3" points="33.9425909 55.8400049 69.5145277 55.8400049 69.5145277 74.3409211 40.1604497 74.3409211"></polyline>
                            <rect id="Rectangle" stroke-width="3" x="69.5145277" y="55.8400049" width="46.1760373" height="18.5490957"></rect>
                            <rect id="Rectangle" stroke-width="3" x="115.738765" y="55.8400049" width="46.1760373" height="18.5490957"></rect>
                            <rect id="Rectangle" fill="#F5F5FF" fill-rule="nonzero" x="161.914803" y="55.8400049" width="46.1760373" height="18.5490957"></rect>
                            <polyline id="Path" stroke-width="3" points="11.4329777 74.3409211 86.2882866 74.3409211 86.2882866 92.8900168 40.1604497 92.8900168"></polyline>
                            <rect id="Rectangle" stroke-width="3" x="86.336487" y="74.3409211" width="46.1760373" height="18.5490957"></rect>
                            <rect id="Rectangle" stroke-width="3" x="132.512524" y="74.3409211" width="46.1760373" height="18.5490957"></rect>
                            <rect id="Rectangle" stroke-width="3" x="178.736762" y="74.3409211" width="46.1760373" height="18.5490957"></rect>
                            <polyline id="Path" stroke-width="3" points="40.1604497 92.8900168 69.5145277 92.8900168 69.5145277 111.390933 40.1604497 111.390933"></polyline>
                            <rect id="Rectangle" stroke-width="3" x="69.5145277" y="92.8900168" width="46.1760373" height="18.5490957"></rect>
                            <rect id="Rectangle" fill="#F5F5FF" fill-rule="nonzero" x="115.738765" y="92.8900168" width="46.1760373" height="18.5490957"></rect>
                            <polyline id="Path" stroke-width="3" points="208.09084 111.390933 161.914803 111.390933 161.914803 92.8900168 208.09084 92.8900168"></polyline>
                        </g>
                        <g id="Group" transform="translate(510.442834, 0.000000)" stroke="#F5F5FF">
                            <rect id="Rectangle" stroke-width="3" x="40.3050511" y="111.390933" width="46.1760373" height="18.5490957"></rect>
                            <rect id="Rectangle" stroke-width="3" x="86.4810884" y="111.390933" width="46.1760373" height="18.5490957"></rect>
                            <rect id="Rectangle" stroke-width="3" x="132.705326" y="111.390933" width="46.1760373" height="18.5490957"></rect>
                            <polyline id="Path" stroke-width="3" points="263.858768 129.940029 178.881363 129.940029 178.881363 111.390933 225.057401 111.390933"></polyline>
                            <rect id="Rectangle" stroke-width="3" x="69.7073296" y="129.940029" width="46.1760373" height="18.5490957"></rect>
                            <rect id="Rectangle" stroke-width="3" x="115.883367" y="129.940029" width="46.1760373" height="18.5490957"></rect>
                            <rect id="Rectangle" fill="#F5F5FF" fill-rule="nonzero" x="162.107605" y="129.940029" width="46.1760373" height="18.5490957"></rect>
                            <polyline id="Path" stroke-width="3" points="40.3050511 148.489124 86.4810884 148.489124 86.4810884 166.990041 0.15407087 166.990041"></polyline>
                            <rect id="Rectangle" stroke-width="3" x="86.4810884" y="148.489124" width="46.1760373" height="18.5490957"></rect>
                            <rect id="Rectangle" stroke-width="3" x="132.705326" y="148.489124" width="46.1760373" height="18.5490957"></rect>
                            <polyline id="Path" stroke-width="3" points="225.057401 166.990041 178.881363 166.990041 178.881363 148.489124 235.854303 148.489124"></polyline>
                            <polyline id="Path" stroke-width="3" points="40.3050511 166.990041 69.6591291 166.990041 69.6591291 185.539136 40.3050511 185.539136"></polyline>
                            <rect id="Rectangle" stroke-width="3" x="69.7073296" y="166.990041" width="46.1760373" height="18.5490957"></rect>
                            <rect id="Rectangle" stroke-width="3" x="115.883367" y="166.990041" width="46.1760373" height="18.5490957"></rect>
                            <rect id="Rectangle" fill="#F5F5FF" fill-rule="nonzero" x="162.107605" y="166.990041" width="46.1760373" height="18.5490957"></rect>
                            <rect id="Rectangle" stroke-width="3" x="40.3050511" y="185.539136" width="46.1760373" height="18.5490957"></rect>
                            <rect id="Rectangle" fill="#F5F5FF" fill-rule="nonzero" x="86.4810884" y="185.539136" width="46.1760373" height="18.5490957"></rect>
                            <rect id="Rectangle" stroke-width="3" x="132.705326" y="185.539136" width="46.1760373" height="18.5490957"></rect>
                            <rect id="Rectangle" stroke-width="3" x="178.881363" y="185.539136" width="46.1760373" height="18.5490957"></rect>
                            <polyline id="Path" stroke-width="3" points="40.3050511 204.088232 69.6591291 204.088232 69.6591291 222.589148 40.3050511 222.589148"></polyline>
                            <rect id="Rectangle" stroke-width="3" x="69.7073296" y="204.088232" width="46.1760373" height="18.5490957"></rect>
                            <rect id="Rectangle" stroke-width="3" x="115.883367" y="204.088232" width="46.1760373" height="18.5490957"></rect>
                            <rect id="Rectangle" stroke-width="3" x="162.107605" y="204.088232" width="46.1760373" height="18.5490957"></rect>
                            <polyline id="Path" stroke-width="3" points="33.219584 0.240897346 86.4810884 0.240897346 86.4810884 18.7418136 40.3050511 18.7418136"></polyline>
                            <rect id="Rectangle" stroke-width="3" x="132.705326" y="0.240897346" width="46.1760373" height="18.5490957"></rect>
                            <polyline id="Path" stroke-width="3" points="178.881363 18.7418136 178.881363 0.240897346 225.057401 0.240897346"></polyline>
                            <rect id="Rectangle" stroke-width="3" x="40.3050511" y="18.7418136" width="29.354078" height="18.5490957"></rect>
                            <rect id="Rectangle" stroke-width="3" x="69.7073296" y="18.7418136" width="46.1760373" height="18.5490957"></rect>
                            <rect id="Rectangle" stroke-width="3" x="115.883367" y="18.7418136" width="46.1760373" height="18.5490957"></rect>
                            <rect id="Rectangle" stroke-width="3" x="162.107605" y="18.7418136" width="46.1760373" height="18.5490957"></rect>
                            <polyline id="Path" stroke-width="3" points="40.3050511 37.2909092 86.4810884 37.2909092 86.4810884 55.8400049 40.3050511 55.8400049"></polyline>
                            <rect id="Rectangle" fill="#F5F5FF" fill-rule="nonzero" x="86.4810884" y="37.2909092" width="46.1760373" height="18.5490957"></rect>
                            <rect id="Rectangle" stroke-width="3" x="132.705326" y="37.2909092" width="46.1760373" height="18.5490957"></rect>
                            <polyline id="Path" points="225.057401 55.8400049 178.881363 55.8400049 178.881363 37.2909092 249.350431 37.2909092"></polyline>
                            <polyline id="Path" stroke-width="3" points="34.0871922 55.8400049 69.6591291 55.8400049 69.6591291 74.3409211 40.3050511 74.3409211"></polyline>
                            <rect id="Rectangle" stroke-width="3" x="69.7073296" y="55.8400049" width="46.1760373" height="18.5490957"></rect>
                            <rect id="Rectangle" stroke-width="3" x="115.883367" y="55.8400049" width="46.1760373" height="18.5490957"></rect>
                            <rect id="Rectangle" fill="#F5F5FF" fill-rule="nonzero" x="162.107605" y="55.8400049" width="46.1760373" height="18.5490957"></rect>
                            <polyline id="Path" stroke-width="3" points="11.5775791 74.3409211 86.4810884 74.3409211 86.4810884 92.8900168 40.3050511 92.8900168"></polyline>
                            <rect id="Rectangle" stroke-width="3" x="86.4810884" y="74.3409211" width="46.1760373" height="18.5490957"></rect>
                            <rect id="Rectangle" stroke-width="3" x="132.705326" y="74.3409211" width="46.1760373" height="18.5490957"></rect>
                            <rect id="Rectangle" stroke-width="3" x="178.881363" y="74.3409211" width="46.1760373" height="18.5490957"></rect>
                            <polyline id="Path" stroke-width="3" points="40.3050511 92.8900168 69.6591291 92.8900168 69.6591291 111.390933 40.3050511 111.390933"></polyline>
                            <rect id="Rectangle" stroke-width="3" x="69.7073296" y="92.8900168" width="46.1760373" height="18.5490957"></rect>
                            <rect id="Rectangle" fill="#F5F5FF" fill-rule="nonzero" x="115.883367" y="92.8900168" width="46.1760373" height="18.5490957"></rect>
                            <polyline id="Path" stroke-width="3" points="208.235441 111.390933 162.107605 111.390933 162.107605 92.8900168 208.235441 92.8900168"></polyline>
                        </g>
                        <g id="Group" transform="translate(510.442834, 222.589148)" stroke="#F5F5FF">
                            <rect id="Rectangle" stroke-width="3" x="40.3050511" y="111.198215" width="46.1760373" height="18.5490957"></rect>
                            <rect id="Rectangle" stroke-width="3" x="86.4810884" y="111.198215" width="46.1760373" height="18.5490957"></rect>
                            <rect id="Rectangle" stroke-width="3" x="132.705326" y="111.198215" width="46.1760373" height="18.5490957"></rect>
                            <polyline id="Path" stroke-width="3" points="263.858768 129.699131 178.881363 129.699131 178.881363 111.198215 225.057401 111.198215"></polyline>
                            <rect id="Rectangle" stroke-width="3" x="69.7073296" y="129.699131" width="46.1760373" height="18.5490957"></rect>
                            <rect id="Rectangle" stroke-width="3" x="115.883367" y="129.699131" width="46.1760373" height="18.5490957"></rect>
                            <rect id="Rectangle" fill="#F5F5FF" fill-rule="nonzero" x="162.107605" y="129.699131" width="46.1760373" height="18.5490957"></rect>
                            <polyline id="Path" stroke-width="3" points="40.3050511 148.248227 86.4810884 148.248227 86.4810884 166.797323 0.15407087 166.797323"></polyline>
                            <rect id="Rectangle" stroke-width="3" x="86.4810884" y="148.248227" width="46.1760373" height="18.5490957"></rect>
                            <rect id="Rectangle" stroke-width="3" x="132.705326" y="148.248227" width="46.1760373" height="18.5490957"></rect>
                            <polyline id="Path" stroke-width="3" points="225.057401 166.797323 178.881363 166.797323 178.881363 148.248227 235.854303 148.248227"></polyline>
                            <polyline id="Path" stroke-width="3" points="40.3050511 166.797323 69.6591291 166.797323 69.6591291 185.298239 40.3050511 185.298239"></polyline>
                            <rect id="Rectangle" stroke-width="3" x="69.7073296" y="166.797323" width="46.1760373" height="18.5490957"></rect>
                            <rect id="Rectangle" stroke-width="3" x="115.883367" y="166.797323" width="46.1760373" height="18.5490957"></rect>
                            <rect id="Rectangle" fill="#F5F5FF" fill-rule="nonzero" x="162.107605" y="166.797323" width="46.1760373" height="18.5490957"></rect>
                            <rect id="Rectangle" stroke-width="3" x="40.3050511" y="185.298239" width="46.1760373" height="18.5490957"></rect>
                            <rect id="Rectangle" fill="#F5F5FF" fill-rule="nonzero" x="86.4810884" y="185.298239" width="46.1760373" height="18.5490957"></rect>
                            <rect id="Rectangle" stroke-width="3" x="132.705326" y="185.298239" width="46.1760373" height="18.5490957"></rect>
                            <rect id="Rectangle" stroke-width="3" x="178.881363" y="185.298239" width="46.1760373" height="18.5490957"></rect>
                            <polyline id="Path" stroke-width="3" points="40.3050511 203.847335 69.6591291 203.847335 69.6591291 222.39643 40.3050511 222.39643"></polyline>
                            <rect id="Rectangle" stroke-width="3" x="69.7073296" y="203.847335" width="46.1760373" height="18.5490957"></rect>
                            <rect id="Rectangle" stroke-width="3" x="115.883367" y="203.847335" width="46.1760373" height="18.5490957"></rect>
                            <rect id="Rectangle" stroke-width="3" x="162.107605" y="203.847335" width="46.1760373" height="18.5490957"></rect>
                            <polyline id="Path" stroke-width="3" points="33.219584 0 86.4810884 0 86.4810884 18.5490957 40.3050511 18.5490957"></polyline>
                            <rect id="Rectangle" stroke-width="3" x="132.705326" y="0" width="46.1760373" height="18.5490957"></rect>
                            <polyline id="Path" stroke-width="3" points="178.881363 18.5490957 178.881363 0 225.057401 0"></polyline>
                            <rect id="Rectangle" stroke-width="3" x="40.3050511" y="18.5490957" width="29.354078" height="18.5490957"></rect>
                            <rect id="Rectangle" stroke-width="3" x="69.7073296" y="18.5490957" width="46.1760373" height="18.5490957"></rect>
                            <rect id="Rectangle" stroke-width="3" x="115.883367" y="18.5490957" width="46.1760373" height="18.5490957"></rect>
                            <rect id="Rectangle" stroke-width="3" x="162.107605" y="18.5490957" width="46.1760373" height="18.5490957"></rect>
                            <polyline id="Path" stroke-width="3" points="40.3050511 37.0500119 86.4810884 37.0500119 86.4810884 55.5991076 40.3050511 55.5991076"></polyline>
                            <rect id="Rectangle" fill="#F5F5FF" fill-rule="nonzero" x="86.4810884" y="37.0500119" width="46.1760373" height="18.5490957"></rect>
                            <rect id="Rectangle" stroke-width="3" x="132.705326" y="37.0500119" width="46.1760373" height="18.5490957"></rect>
                            <polyline id="Path" points="225.057401 55.5991076 178.881363 55.5991076 178.881363 37.0500119 249.350431 37.0500119"></polyline>
                            <polyline id="Path" stroke-width="3" points="34.0871922 55.5991076 69.6591291 55.5991076 69.6591291 74.1482032 40.3050511 74.1482032"></polyline>
                            <rect id="Rectangle" stroke-width="3" x="69.7073296" y="55.5991076" width="46.1760373" height="18.5490957"></rect>
                            <rect id="Rectangle" stroke-width="3" x="115.883367" y="55.5991076" width="46.1760373" height="18.5490957"></rect>
                            <rect id="Rectangle" fill="#F5F5FF" fill-rule="nonzero" x="162.107605" y="55.5991076" width="46.1760373" height="18.5490957"></rect>
                            <polyline id="Path" stroke-width="3" points="11.5775791 74.1482032 86.4810884 74.1482032 86.4810884 92.6491194 40.3050511 92.6491194"></polyline>
                            <rect id="Rectangle" stroke-width="3" x="86.4810884" y="74.1482032" width="46.1760373" height="18.5490957"></rect>
                            <rect id="Rectangle" stroke-width="3" x="132.705326" y="74.1482032" width="46.1760373" height="18.5490957"></rect>
                            <rect id="Rectangle" stroke-width="3" x="178.881363" y="74.1482032" width="46.1760373" height="18.5490957"></rect>
                            <polyline id="Path" stroke-width="3" points="40.3050511 92.6491194 69.6591291 92.6491194 69.6591291 111.198215 40.3050511 111.198215"></polyline>
                            <rect id="Rectangle" stroke-width="3" x="69.7073296" y="92.6491194" width="46.1760373" height="18.5490957"></rect>
                            <rect id="Rectangle" fill="#F5F5FF" fill-rule="nonzero" x="115.883367" y="92.6491194" width="46.1760373" height="18.5490957"></rect>
                            <polyline id="Path" stroke-width="3" points="208.235441 111.198215 162.107605 111.198215 162.107605 92.6491194 208.235441 92.6491194"></polyline>
                        </g>
                        <ellipse id="Oval" fill="#FFFFFF" fill-rule="nonzero" cx="392.602187" cy="120.689571" rx="42.657404" ry="42.6388303"></ellipse>
                        <polyline id="Path" stroke="#EAF4FB" stroke-width="5" stroke-linecap="round" points="392.602187 88.1202493 392.602187 120.689571 419.883646 120.689571"></polyline>
                    </g>
                    <g id="character1" transform="translate(460.000000, 276.000000)">
                        <g id="Group">
                            <g>
                                <path d="M277.193081,200.255247 L170.4771,234.191119 L159.163097,78.2397057 C157.581054,63.8877597 166.929489,51.1678075 180.11318,47.6638207 C182.558155,46.9918232 185.146952,46.7038243 187.78369,46.7518241 L217.938386,47.2318223 L268.707578,47.9998194 L277.193081,200.255247 Z" id="Path" fill="#9594C8" fill-rule="nonzero"></path>
                                <path d="M228.916804,117.02356 C224.266557,144.575456 239.7514,179.375325 208.685832,174.095345 C177.188797,168.719365 189.078089,47.6638207 189.078089,47.6638207 C191.523064,46.9918232 194.01598,46.799824 196.700659,46.8478238 L226.759473,47.327822 C216.88369,55.8717898 225.89654,56.7357866 230.067381,59.5197761 C246.079572,70.0797364 246.271334,79.8236997 241.908731,90.911658 C238.265239,100.175623 231.793245,100.079624 228.916804,117.02356 Z" id="Path" fill="#171338" fill-rule="nonzero" opacity="0.35"></path>
                                <path d="M163.381878,329.51876 C163.381878,329.51876 164.532455,338.206728 163.381878,340.31872 C162.231301,342.430712 149.910544,357.022657 145.212356,362.878635 C143.055025,365.614625 119.659967,367.102619 125.316969,357.742654 C130.92603,348.33469 149.6229,334.366742 149.6229,334.366742 C149.6229,334.366742 159.690445,328.654764 163.381878,329.51876 Z" id="Path" fill="#171338" fill-rule="nonzero"></path>
                                <path d="M150.006425,299.470873 C150.006425,299.470873 152.163756,333.166747 146.027348,338.638726 C139.890939,344.062706 127.090774,354.286667 133.610708,356.11066 C140.130643,357.934654 143.630313,361.390641 149.191433,355.246664 C154.752554,349.102687 155.23196,342.478712 160.409555,336.334735 C165.539209,330.190758 159.163097,313.67882 161.608072,303.886857 C164.148929,294.046894 150.006425,299.470873 150.006425,299.470873 Z" id="Path" fill="#D37477" fill-rule="nonzero"></path>
                                <path d="M67.9319605,285.022928 C67.9319605,285.022928 63.809061,307.150845 53.7894563,313.054822 C44.2492586,318.670801 6.42405272,317.230807 9.68401977,321.69479 C12.9439868,326.158773 17.9777595,327.694767 39.9345964,325.678775 C61.8914333,323.662782 77.5200988,333.694745 74.9792422,321.502791 C72.3904448,309.070837 75.9859967,296.350885 75.9859967,296.350885 L67.9319605,285.022928 Z" id="Path" fill="#D37477" fill-rule="nonzero"></path>
                                <path d="M75.6983526,325.582775 C75.6024712,332.39875 8.2937397,328.318765 0.623228995,327.646768 C-3.25996705,327.310769 13.9028007,315.070815 19.607743,315.502813 C25.3126853,315.886812 20.5186161,324.38278 24.9771005,324.38278 C29.4355848,324.38278 54.6523888,323.134784 63.5214168,323.230784 C72.678089,323.326784 75.8421746,317.854804 75.6983526,325.582775 Z" id="Path" fill="#171338" fill-rule="nonzero"></path>
                                <path d="M179.154366,38.9278536 C179.154366,38.9278536 191.714827,61.2957694 185.482537,66.191751 C179.250247,71.0877326 179.010544,92.3516526 189.030148,94.8476432 C199.049753,97.3436338 224.985667,89.6636627 232.224712,80.1596985 C239.463756,70.6557342 218.22603,38.9278536 218.22603,38.9278536 C218.22603,38.9278536 215.972817,12.7199522 210.028171,12.7199522 C204.035585,12.7199522 179.154366,38.9278536 179.154366,38.9278536 Z" id="Path" fill="#171338" fill-rule="nonzero"></path>
                                <path d="M171.004448,299.662873 L73.9724876,285.022928 L73.9724876,199.34325 C73.9724876,182.399314 87.6835255,168.671366 104.60659,168.671366 L255.236244,181.823316 L255.236244,287.806917 L171.004448,299.662873 Z" id="Path" fill="#5F63AC" fill-rule="nonzero"></path>
                                <path d="M136.055684,189.167288 C136.055684,189.167288 112.181219,295.15089 120.810544,316.46281 C129.439868,337.774729 151.876112,302.110864 164.820099,307.438844 C177.764086,312.766823 182.94168,310.174833 182.606096,284.830929 C182.318451,259.487024 182.606096,182.831312 182.606096,182.831312 L136.055684,189.167288 Z" id="Path" fill="#171338" fill-rule="nonzero"></path>
                                <path d="M203.124712,209.375212 C203.124712,209.375212 126.419605,203.567234 122.440527,215.42319 C118.317628,227.663144 95.2581549,299.038875 86.9164745,303.598858 C78.5747941,308.158841 42.7630972,309.166837 41.2769357,300.046871 C39.7428336,290.926906 74.4998353,220.65517 85.1426689,199.34325 C95.7855025,178.03133 148.568204,173.471347 148.568204,173.471347 L201.398847,181.775316 L203.124712,209.375212 Z" id="Path" fill="#171338" fill-rule="nonzero"></path>
                                <path d="M190.660132,83.1356873 L154.464909,189.311288 C154.464909,189.311288 179.154366,203.711234 185.914003,195.071266 C192.577759,186.431299 190.660132,83.1356873 190.660132,83.1356873 Z" id="Path" fill="#F38A75" fill-rule="nonzero"></path>
                                <path d="M184.571664,85.1036799 C182.414333,74.3997201 187.831631,78.5277046 198.570346,77.5677082 C218.657496,75.7917149 234.238221,71.7597301 239.463756,78.6717041 C247.517792,89.2796642 237.881713,191.855278 233.854695,206.543223 C229.779736,221.231168 207.15173,189.935286 194.01598,192.479276 C188.550741,193.535272 186.489292,179.663324 186.920758,155.807414 C187.016639,151.247431 188.263097,136.223488 186.920758,128.351517 C183.948435,110.831583 186.489292,94.7036438 184.571664,85.1036799 Z" id="Path" fill="#F9B17C" fill-rule="nonzero"></path>
                                <path d="M212.233443,47.2798222 C212.233443,47.2798222 209.740527,74.2557207 213.863427,74.7837187 C217.986326,75.3117167 221.485997,75.0237178 221.485997,75.0237178 C221.485997,75.0237178 208.54201,102.047616 203.891763,89.7116625 C202.549423,86.1596759 201.159143,82.6556891 199.433278,79.2477019 L198.570346,77.5197084 L202.117957,76.8477109 C204.035585,76.4637124 205.282043,74.6397192 204.898517,72.7197265 L201.015321,52.7518016 L212.233443,47.2798222 Z" id="Path" fill="#D37477" fill-rule="nonzero"></path>
                                <path d="M180.16112,16.751937 C180.16112,16.751937 176.949094,26.5439002 178.195552,34.1758714 C179.44201,41.8078427 185.290774,64.2237584 195.933608,63.7437602 C204.754695,63.3117618 212.952554,55.82379 219.280725,43.6798357 C219.280725,43.6798357 229.060626,44.927831 227.910049,34.6558696 C226.759473,24.3839083 200.91944,8.15996931 200.91944,8.15996931 L180.16112,16.751937 Z" id="Path" fill="#E37D80" fill-rule="nonzero"></path>
                                <path d="M190.660132,39.4078518 C191.283361,41.3278445 192.529819,42.6718395 193.488633,42.3838406 C194.447446,42.0958417 194.68715,40.2718485 194.063921,38.3038559 C193.440692,36.3838631 192.194234,35.0398682 191.23542,35.3278671 C190.324547,35.6638658 190.036903,37.487859 190.660132,39.4078518 Z" id="Path" fill="#171338" fill-rule="nonzero"></path>
                                <path d="M180.448764,40.9918458 C181.215815,42.8638388 182.606096,44.0638342 183.516969,43.6798357 C184.427842,43.2958371 184.523723,41.471844 183.756672,39.599851 C182.989621,37.7278581 181.599341,36.5278626 180.688468,36.9118612 C179.729654,37.2478599 179.633773,39.071853 180.448764,40.9918458 Z" id="Path" fill="#171338" fill-rule="nonzero"></path>
                                <path d="M185.866063,40.2718485 C185.866063,40.2718485 183.996376,49.0558155 181.50346,51.6958055 C179.010544,54.3357956 188.838386,54.3357956 189.078089,52.895801 C189.269852,51.4078066 185.866063,40.2718485 185.866063,40.2718485 Z" id="Path" fill="#E85A5B" fill-rule="nonzero"></path>
                                <path d="M192.385997,57.3117844 C192.385997,57.3117844 199.145634,59.6157757 202.213839,50.8318088" id="Path" stroke="#171338" stroke-width="3" stroke-linecap="round"></path>
                                <ellipse id="Oval" fill="#E85A5B" fill-rule="nonzero" transform="translate(196.095628, 46.740122) rotate(-28.384574) translate(-196.095628, -46.740122) " cx="196.095628" cy="46.7401218" rx="4.9393991" ry="2.11146184"></ellipse>
                                <path d="M190.612191,32.5918774 C190.612191,32.5918774 194.495387,30.047887 197.371829,33.4078743" id="Path" stroke="#E85A5B" stroke-width="2" stroke-linecap="round"></path>
                                <path d="M185.530478,32.5438776 C185.530478,32.5438776 182.701977,30.3358859 179.298188,33.8398727" id="Path" stroke="#E85A5B" stroke-width="2" stroke-linecap="round"></path>
                                <path d="M225.129489,87.5036708 C225.129489,87.5036708 228.964745,122.975537 223.835091,130.27151 C218.705437,137.519483 211.99374,155.807414 202.261779,164.92738 C197.036244,169.823361 185.530478,182.831312 179.250247,180.623321 C172.970016,178.415329 196.700659,194.543268 209.117298,197.135258 C221.533937,199.679249 214.870181,194.783267 223.163921,197.375258 C231.457661,199.967248 231.074135,177.791331 245.552224,164.92738 C257.153871,154.655418 244.59341,98.7836284 242.819605,89.4236636 C240.997858,80.1116986 239.895222,85.1516797 225.129489,87.5036708 Z" id="Path" fill="#F38A75" fill-rule="nonzero"></path>
                                <path d="M176.086161,22.0799169 C177.524382,22.9439137 178.7229,24.0959094 179.777595,25.3919045 C181.599341,27.647896 187.543987,24.0479095 197.46771,22.7039146 C204.898517,21.6959184 210.843163,31.4398817 209.357002,37.2958597 C207.87084,43.1518377 202.022076,52.8478012 216.596046,53.8557974 C231.170016,54.8157938 233.567051,74.0157216 221.533937,83.6156855 C209.500824,93.2156494 205.665568,96.1436383 219.61631,96.9116355 C232.895881,97.6316327 228.725041,96.8156358 239.224053,97.5836329 C249.723064,98.3036302 254.517133,102.095616 256.099176,89.1356647 C259.023558,65.1837548 224.937727,52.5118025 231.601483,33.8878725 C238.265239,15.2639426 228.341516,1.53599422 209.357002,3.16798808 C190.372488,4.84798176 190.708072,-4.60798267 185.146952,3.02398862 C180.257002,9.55196407 172.682372,20.1119243 176.086161,22.0799169 Z" id="Path" fill="#282F72" fill-rule="nonzero"></path>
                                <polygon id="Path" fill="#D4C5E2" fill-rule="nonzero" points="167.265074 197.087259 206.432619 192.479276 122.680231 192.479276"></polygon>
                                <polygon id="Path" fill="#5F63AC" fill-rule="nonzero" points="93.7719934 197.087259 97.6072488 199.34325 177.907908 199.34325 198.522405 194.783267 181.071993 194.783267"></polygon>
                                <path d="M174.743822,197.087259 L159.834267,131.471505 C159.067216,128.159518 156.094893,125.807527 152.739044,125.903526 L85.2385502,127.055522 C80.6362438,127.151522 77.2803954,131.519505 78.430972,135.983488 L93.8199341,197.087259 L174.743822,197.087259 Z" id="Path" fill="#B5B5E2" fill-rule="nonzero"></path>
                                <path d="M154.416969,126.095526 L154.416969,126.095526 C156.670181,126.095526 158.63575,127.58352 159.211038,129.743512 L177.38056,197.087259 L174.743822,197.087259" id="Path" fill="#5F63AC" fill-rule="nonzero"></path>
                                <path d="M290.808237,68.2557432 L290.808237,277.294957 C290.808237,288.478915 281.747446,297.550881 270.577265,297.550881 L266.598188,297.982879 L186.105766,296.734884 L167.936244,296.446885 C156.766063,296.446885 147.705272,287.374919 147.705272,276.190961 L147.705272,193.679271 C147.705272,183.791309 154.800494,175.53534 164.19687,173.759346 C165.395387,173.519347 166.689786,173.423348 167.936244,173.423348 L230.067381,173.423348 C241.237562,173.423348 250.298353,164.351382 250.298353,153.167424 L250.298353,68.2557432 C250.298353,62.8797635 252.455684,57.7437828 256.242998,53.9037972 C260.365898,49.7758128 265.447611,47.9038198 270.433443,47.9038198 C280.836573,47.9518196 290.808237,56.0637891 290.808237,68.2557432 Z" id="Path" fill="#D4C5E2" fill-rule="nonzero"></path>
                            </g>
                            <path d="M186.105766,296.830883 L167.936244,296.542885 C156.766063,296.542885 147.705272,287.470919 147.705272,276.286961 L147.705272,193.775271 C147.705272,183.887308 154.800494,175.631339 164.19687,173.855346 L171.435914,174.047345 C171.435914,174.047345 184.715486,176.447336 185.914003,195.119266 C186.681054,207.887218 186.39341,263.27901 186.105766,296.830883 Z" id="Path" fill="#9594C8" fill-rule="nonzero"></path>
                        </g>
                        <path d="M175.558814,20.3519234 C177.332619,27.2158976 184.092257,27.2638974 189.941021,26.7838992 C193.536573,26.4959003 197.323888,26.1119018 200.823558,27.3118973 C202.885008,28.0318946 204.41911,29.2798899 204.850577,31.5838812 C205.138221,33.1678752 205.473806,35.9998646 204.323229,37.2478599 C203.268534,38.3998556 204.994399,40.0798492 206.001153,38.9278536 C207.87084,36.8638613 207.631137,33.503874 207.15173,30.9118837 C206.528501,27.647896 204.131466,25.8239029 201.063262,24.8639065 C197.323888,23.7119108 193.344811,24.0959094 189.509555,24.3839083 C185.00313,24.719907 179.298188,25.1519054 177.859967,19.679926 C177.476442,18.2399314 175.175288,18.863929 175.558814,20.3519234 L175.558814,20.3519234 Z" id="Path" fill="#282F72" fill-rule="nonzero"></path>
                        <path d="M230.307084,27.5038965 C228.581219,31.8718801 226.807414,37.2958597 228.293575,41.999842 C229.635914,46.1278265 233.567051,48.1438189 237.354366,49.5358137 C242.388138,51.4078066 246.990445,53.0398005 251.209226,56.5437873 C255.859473,60.3837729 259.502965,65.3277543 261.852059,70.8957333 C262.427348,72.2877281 264.776442,71.6637304 264.153213,70.2717357 C260.317957,61.1997698 253.174794,53.0878003 243.922241,49.3438144 C239.991104,47.7598203 234.813509,47.0398231 231.889127,43.6318359 C228.293575,39.4558516 230.786491,32.6398772 232.560297,28.175894 C233.183526,26.7358994 230.882372,26.1119018 230.307084,27.5038965 L230.307084,27.5038965 Z" id="Path" fill="#282F72" fill-rule="nonzero"></path>
                        <path d="M210.076112,49.7278129 C214.10313,51.6958055 218.561614,53.8557974 220.958649,57.7917826 C223.978913,62.7837638 222.444811,68.4477425 218.94514,72.6717266 C213.575783,79.1517023 204.562932,83.9516842 204.514992,93.4076486 C204.514992,94.9436429 206.912026,94.9436429 206.912026,93.4076486 C207.007908,82.5596894 220.383361,78.1917059 224.026853,68.8317411 C225.752718,64.5117573 225.129489,59.4717763 222.39687,55.6797906 C219.66425,51.839805 215.349588,49.6318133 211.226689,47.6158209 C209.884349,46.9918232 208.685832,49.0558155 210.076112,49.7278129 L210.076112,49.7278129 Z" id="Path" fill="#282F72" fill-rule="nonzero"></path>
                        <path d="M234.046458,59.6637756 C234.477924,61.0557703 235.340857,61.7757676 236.587315,62.4477651 C238.600824,63.5997608 240.42257,64.7517564 242.148435,66.3357505 C245.216639,69.2157396 248.093081,72.3837277 250.777759,75.5997156 C253.55832,78.959703 256.099176,82.5596894 258.064745,86.4956746 C260.078254,90.6236591 261.947941,95.5196407 260.126194,100.031624 C259.550906,101.471618 261.852059,102.095616 262.427348,100.655621 C265.591433,92.8316508 259.742669,83.4236862 255.188303,77.3277091 C252.599506,73.8717221 249.723064,70.6077344 246.702801,67.4877461 C245.216639,65.9037521 243.682537,64.3677579 241.956672,62.9757631 C241.14168,62.3037656 240.278748,61.7277678 239.367875,61.15177 C238.457002,60.623772 236.683196,60.0477741 236.299671,58.8957785 C235.916145,57.5517835 233.614992,58.1757812 234.046458,59.6637756 L234.046458,59.6637756 Z" id="Path" fill="#282F72" fill-rule="nonzero"></path>
                        <path d="M185.866063,65.7597526 C184.092257,68.2557432 182.126689,70.5597346 180.11318,72.8637259 C178.579077,74.6397192 177.092916,76.2717131 176.229984,78.4797048 C174.6,82.7516887 175.367051,87.5516707 177.38056,91.5356557 C178.099671,92.9276504 180.16112,91.6796551 179.44201,90.3356602 C177.476442,86.4476748 176.853213,81.4076938 179.298188,77.5677082 C181.743163,73.7757225 185.290774,70.6557342 187.879572,66.9597481 C188.838386,65.7117528 186.728995,64.5117573 185.866063,65.7597526 L185.866063,65.7597526 Z" id="Path" fill="#171338" fill-rule="nonzero"></path>
                        <ellipse id="Oval" fill="#EAF4FB" fill-rule="nonzero" transform="translate(119.481120, 162.217924) rotate(-13.420632) translate(-119.481120, -162.217924) " cx="119.48112" cy="162.217924" rx="5.60947807" ry="7.63152492"></ellipse>
                    </g>
                </g>
                <g id="1.-subscribe" transform="translate(92.000000, 0.000000)" fill="#EBF5FC">
                    <ellipse id="Oval" cx="317.5" cy="395.5" rx="317.5" ry="395.5"></ellipse>
                </g>
                <g id="Stats" transform="translate(253.000000, 412.000000)">
                    <g id="g10" transform="translate(160.000000, 162.000000) scale(-1, 1) rotate(-180.000000) translate(-160.000000, -162.000000) translate(-0.000000, -0.000000)">
                        <g id="g12" transform="translate(0.228756, 73.833742)" fill="#B5B5E2" fill-rule="nonzero">
                            <polygon id="path14" points="221.259446 23.655961 221.259446 103.112762 0.161108312 103.112762 0.161108312 0.0118300413 130.725945 0.0118300413 130.725945 23.655961"></polygon>
                        </g>
                        <polygon id="path16" fill="#9594C8" fill-rule="nonzero" points="221.488262 116.21504 106.127758 116.21504 106.127758 73.8454559 221.488262 73.8454559"></polygon>
                        <g id="g18" transform="translate(1.000000, -0.000000)">
                            <g id="g20-Clipped" transform="translate(-0.000000, -0.000000)">
                                <g id="g20" transform="translate(0.889169, 0.893703)">
                                    <g id="g26" transform="translate(0.042076, 76.608236)" fill="#FFFFFF" fill-rule="nonzero">
                                        <path d="M7.55667506,3.49420655 C7.42670025,1.49289975 5.63697733,-0.0276624685 3.55979849,0.0975465995 C1.48231738,0.222755668 -0.0961209068,1.94656423 0.0338539043,3.94787103 C0.163828715,5.94917783 1.95324937,7.46974005 4.03073048,7.34453098 C6.10821159,7.21932191 7.68664987,5.49551335 7.55667506,3.49420655" id="path28"></path>
                                    </g>
                                    <g id="g30" transform="translate(44.964877, 118.570153)" fill="#FFFFFF" fill-rule="nonzero">
                                        <path d="M12.3929471,5.56261164 C12.1810579,2.30164338 9.26539043,-0.176040251 5.88030227,0.0277884641 C2.49521411,0.231908363 -0.0770780856,3.04095924 0.134811083,6.30192751 C0.346700252,9.56260458 3.26267003,12.0405794 6.64775819,11.8364595 C10.0325441,11.6323396 12.6048363,8.8235799 12.3929471,5.56261164" id="path32"></path>
                                    </g>
                                    <g id="g34" transform="translate(75.635244, 82.802708)" fill="#FFFFFF" fill-rule="nonzero">
                                        <path d="M8.16120907,3.78539043 C8.02307305,1.65829219 6.1209068,0.0419304786 3.91284635,0.175001511 C1.70478589,0.308072544 0.0265994962,2.1404927 0.165037783,4.26759093 C0.303173804,6.39468917 2.20534005,8.01105088 4.4134005,7.87797985 C6.62146096,7.74490882 8.29964736,5.91248866 8.16120907,3.78539043" id="path36"></path>
                                    </g>
                                    <g id="g38" transform="translate(95.521088, 105.239814)" fill="#FFFFFF" fill-rule="nonzero">
                                        <path d="M12.3929471,5.56261164 C12.1810579,2.30164338 9.26508816,-0.176040251 5.88030227,0.0280796479 C2.49551637,0.231908363 -0.0770780856,3.04095924 0.134811083,6.30192751 C0.346700252,9.56260458 3.26267003,12.0408706 6.64745592,11.8364595 C10.0325441,11.6323396 12.6048363,8.8235799 12.3929471,5.56261164" id="path40"></path>
                                    </g>
                                    <g id="g42" transform="translate(132.672082, 93.570979)" fill="#FFFFFF" fill-rule="nonzero">
                                        <path d="M6.72260778,3.20302267 C6.60683951,1.42301562 5.01510148,0.0701753149 3.16704102,0.181698741 C1.31928284,0.292930982 -0.0847473881,1.82630529 0.0307186068,3.60631234 C0.146486869,5.38661058 1.7382249,6.73945088 3.58598309,6.62792746 C5.43374128,6.51640403 6.83807377,4.98302972 6.72260778,3.20302267" id="path44"></path>
                                    </g>
                                    <g id="g46" transform="translate(187.943970, 146.802061)" fill="#FFFFFF" fill-rule="nonzero">
                                        <path d="M12.3929471,5.56261164 C12.1813602,2.30193456 9.26508816,-0.176040251 5.88030227,0.0280796479 C2.49551637,0.231908363 -0.0770780856,3.04095924 0.134811083,6.30192751 C0.346700252,9.56260458 3.26267003,12.0408706 6.64745592,11.8364595 C10.0325441,11.6323396 12.6048363,8.8235799 12.3929471,5.56261164" id="path48"></path>
                                    </g>
                                    <g id="g50" transform="translate(3.428101, 80.329217)" fill="#FFFFFF" fill-rule="nonzero">
                                        <polygon id="path52" points="1.20906801 0 0.0411083123 1.18977733 48.7070025 45.5169904 77.0152141 7.7920806 99.204937 31.8683285 133.091184 17.1417038 190.338741 71.1976615 191.528161 70.0285582 133.451184 15.1893159 99.6456423 29.8804161 76.8788917 5.17870529 48.4654912 43.0442569"></polygon>
                                    </g>
                                    <polygon id="path54" fill="#FFFFFF" fill-rule="nonzero" points="21.3820655 162.826531 10.7268514 162.826531 10.7268514 167.820917 21.3820655 167.820917"></polygon>
                                    <g id="g56" transform="translate(10.726791, 152.443147)" stroke="#FFFFFF" stroke-linecap="round" stroke-width="5.3333332">
                                        <path d="M0,0.961053864 L73.1313854,0.961053864" id="path58"></path>
                                    </g>
                                    <g id="g60" transform="translate(10.726791, 146.527047)" stroke="#FFFFFF" stroke-linecap="round" stroke-width="5.3333332">
                                        <path d="M0,0.961053864 L26.1938539,0.961053864" id="path62"></path>
                                    </g>
                                    <g id="g64" transform="translate(21.346277, 217.531712)" stroke="#B5B5E2" stroke-linecap="round" stroke-width="5.3333332">
                                        <path d="M0,0.961053864 L73.1313854,0.961053864" id="path66"></path>
                                    </g>
                                    <g id="g68" transform="translate(21.346277, 211.615613)" stroke="#B5B5E2" stroke-linecap="round" stroke-width="5.3333332">
                                        <path d="M0,0.961053864 L26.1938539,0.961053864" id="path70"></path>
                                    </g>
                                    <g id="g72" transform="translate(21.346277, 192.530694)" stroke="#F5F5FF" stroke-linecap="round" stroke-width="5.3333332">
                                        <path d="M0,0.961053864 L73.1313854,0.961053864" id="path74"></path>
                                    </g>
                                    <g id="g76" transform="translate(21.346277, 186.614594)" stroke="#F5F5FF" stroke-linecap="round" stroke-width="5.3333332">
                                        <path d="M0,0.961053864 L26.1938539,0.961053864" id="path78"></path>
                                    </g>
                                    <g id="g80" transform="translate(10.726791, 139.837069)" stroke="#FFFFFF" stroke-linecap="round" stroke-width="5.3333332">
                                        <path d="M0,0.961053864 L52.7543577,0.961053864" id="path82"></path>
                                    </g>
                                    <g id="g84" transform="translate(135.855446, 202.021911)" fill="#B5B5E2" fill-rule="nonzero">
                                        <path d="M5.74307305,2.69072173 C5.74307305,1.21441946 4.50075567,0.0176537189 2.9679597,0.0176537189 C1.43576826,0.0176537189 0.193450882,1.21441946 0.193450882,2.69072173 C0.193450882,4.167024 1.43576826,5.36378974 2.9679597,5.36378974 C4.50075567,5.36378974 5.74307305,4.167024 5.74307305,2.69072173" id="path86"></path>
                                    </g>
                                    <g id="g88" transform="translate(3.214418, 229.020275)" fill="#F5F5FF" fill-rule="nonzero">
                                        <path d="M81.945622,78.9409492 C73.6100048,86.9691799 62.7489469,91.6828645 51.088695,92.3869472 L51.088695,80.8321885 C69.5179142,79.3229824 84.0361006,64.3919467 84.0361006,46.2538116 C84.0361006,27.1189542 67.8775111,11.5528464 48.0143373,11.5528464 C28.2291484,11.5528464 12.1158991,26.9984041 11.9925741,46.0307648 L0.0303574915,46.0307648 C0.089299557,33.7660998 5.07549603,22.2462832 14.083355,13.5669653 C23.1462265,4.83639904 35.1976119,0.0292443835 48.0143373,0.0292443835 C60.8310628,0.0292443835 72.8809368,4.83639904 81.945622,13.5669653 C91.0084935,22.2992786 95.9986195,33.9070328 95.9986195,46.2538116 C95.9986195,58.6005905 91.0084935,70.2103829 81.945622,78.9409492" id="path90"></path>
                                    </g>
                                    <g id="g92" transform="translate(2.372826, 277.586233)" fill="#B5B5E2" fill-rule="nonzero">
                                        <path d="M48.0604534,32.9037783 C48.3261461,32.9037783 48.5921411,32.8999929 48.8560202,32.8947516 L48.8560202,44.4201008 C48.5921411,44.4256332 48.3261461,44.4273804 48.0604534,44.4273804 C35.243728,44.4273804 23.1920403,39.6187698 14.1291688,30.8882035 C5.55052897,22.6238227 0.619345088,11.7807174 0.118186398,0.172963224 L12.0958186,0.172963224 C13.1588917,18.3949592 28.8846348,32.9037783 48.0604534,32.9037783" id="path94"></path>
                                    </g>
                                    <polygon id="path96" fill="#B5B5E2" fill-rule="nonzero" points="16.5941562 210.561469 1.51858942 210.561469 1.51858942 225.084265 16.5941562 225.084265"></polygon>
                                    <polygon id="path98" fill="#F5F5FF" fill-rule="nonzero" points="16.5941562 186.045825 1.51858942 186.045825 1.51858942 200.568621 16.5941562 200.568621"></polygon>
                                    <polygon id="path100" fill="#F5F5FF" fill-rule="nonzero" points="317.335919 224.013205 130.525844 224.013205 130.525844 178.013205 317.335919 178.013205"></polygon>
                                    <g id="g102" transform="translate(138.823496, 190.712633)" fill="#F5F5FF" fill-rule="nonzero" stroke="#B5B5E2" stroke-width="3.9999999">
                                        <polyline id="path104" points="0 0 43.1202015 20.3936453 45.7462972 13.7732887 72.995063 25.0619053 76.0688161 18.7289471 115.181864 36.2090065"></polyline>
                                    </g>
                                    <g id="g106" transform="translate(245.110831, 219.106297)" fill="#F5F5FF" fill-rule="nonzero" stroke="#B5B5E2" stroke-width="3.9999999">
                                        <polyline id="path108" points="2.27373675e-13 10.8438703 11.6650882 10.8438703 8.0363728 0.0226038448"></polyline>
                                    </g>
                                    <polygon id="path110" fill="#B5B5E2" fill-rule="nonzero" points="241.21995 203.823013 230.564736 203.823013 230.564736 208.817398 241.21995 208.817398"></polygon>
                                    <g id="g112" transform="translate(230.564796, 198.439512)" stroke="#B5B5E2" stroke-width="3.9999999">
                                        <path d="M0,0.961053864 L73.1310831,0.961053864" id="path114"></path>
                                    </g>
                                    <g id="g116" transform="translate(230.564796, 192.523413)" stroke="#B5B5E2" stroke-width="3.9999999">
                                        <path d="M0,0.961053864 L26.1938539,0.961053864" id="path118"></path>
                                    </g>
                                    <g id="g120" transform="translate(230.564796, 185.833434)" stroke="#B5B5E2" stroke-width="3.9999999">
                                        <path d="M0,0.961053864 L52.7543577,0.961053864" id="path122"></path>
                                    </g>
                                    <g id="g124" transform="translate(104.131859, 0.010803)" fill="#F5F5FF" fill-rule="nonzero">
                                        <polygon id="path126" points="115.465995 115.308816 115.465995 72.9389411 0.105793451 72.9389411 0.105793451 0.0358156171 186.114861 0.0358156171 186.114861 115.308816"></polygon>
                                    </g>
                                    <polygon id="path128" fill="#B5B5E2" fill-rule="nonzero" points="151.845945 18.2246166 139.563627 18.2246166 139.563627 48.4652272 151.845945 48.4652272"></polygon>
                                    <polygon id="path130" fill="#B5B5E2" fill-rule="nonzero" points="171.40262 18.2246166 159.120302 18.2246166 159.120302 64.5770136 171.40262 64.5770136"></polygon>
                                    <polygon id="path132" fill="#B5B5E2" fill-rule="nonzero" points="190.958992 18.2246166 178.676675 18.2246166 178.676675 45.98667 190.958992 45.98667"></polygon>
                                    <polygon id="path134" fill="#B5B5E2" fill-rule="nonzero" points="210.515365 18.2246166 198.233048 18.2246166 198.233048 62.2696725 210.515365 62.2696725"></polygon>
                                    <polygon id="path136" fill="#B5B5E2" fill-rule="nonzero" points="230.071738 18.2246166 217.789421 18.2246166 217.789421 41.0944897 230.071738 41.0944897"></polygon>
                                    <polygon id="path138" fill="#B5B5E2" fill-rule="nonzero" points="249.628413 18.2246166 237.346096 18.2246166 237.346096 74.2443184 249.628413 74.2443184"></polygon>
                                    <polygon id="path140" fill="#B5B5E2" fill-rule="nonzero" points="269.184786 18.2246166 256.902469 18.2246166 256.902469 91.2153884 269.184786 91.2153884"></polygon>
                                    <g id="g142" transform="translate(119.228998, 10.579293)" stroke="#B5B5E2" stroke-width="3.9999999">
                                        <path d="M149.955698,0.961053864 L0.00194439325,0.961053864" id="path144"></path>
                                    </g>
                                </g>
                            </g>
                        </g>
                    </g>
                </g>
                <g id="Secondary-Object" transform="translate(0.000000, 750.000000)" fill-rule="nonzero">
                    <g id="Table">
                        <rect id="Rectangle" fill="#5F64AC" x="72.9062914" y="144.022545" width="79.4444507" height="12.3644156"></rect>
                        <rect id="Rectangle" fill="#5F64AC" x="260.613278" y="144.022545" width="79.4444507" height="12.3644156"></rect>
                        <polygon id="Path" fill="#9493C7" points="409.844227 122.155847 70.9331613 122.155847 0.00432489451 148.201259 384.349308 148.201259"></polygon>
                        <path d="M346.496364,266.979789 L47.9825422,266.979789 C28.9781834,266.979789 13.5046891,249.921474 13.5046891,228.970659 L13.5046891,148.201259 L15.0624234,148.201259 L15.0624234,228.970659 C15.0624234,249.005592 29.808975,265.262509 47.9825422,265.262509 L346.496364,265.262509 C364.669931,265.262509 379.416483,249.005592 379.416483,228.970659 L379.416483,143.335633 L380.974217,143.335633 L380.974217,228.970659 C380.974217,249.921474 365.500723,266.979789 346.496364,266.979789 Z" id="Path" fill="#9493C7"></path>
                        <path d="M356.881259,234.065256 L97.7781162,234.065256 C78.7737574,234.065256 63.3002631,217.006942 63.3002631,196.056127 L63.3002631,130.227062 L64.8579974,130.227062 L64.8579974,196.056127 C64.8579974,216.09106 79.6045491,232.347976 97.7781162,232.347976 L356.881259,232.347976 C375.054827,232.347976 389.801378,216.09106 389.801378,196.056127 L389.801378,126.048348 L391.359113,126.048348 L391.359113,196.056127 C391.359113,217.006942 375.937543,234.065256 356.881259,234.065256 Z" id="Path" fill="#9493C7"></path>
                        <path d="M284.446613,136.466513 C284.446613,136.466513 283.511973,139.385889 284.446613,140.015558 C285.381254,140.70247 353.817715,143.335633 353.817715,143.335633 L371.939358,132.345041 L371.939358,130.456033 L284.446613,136.466513 Z" id="Path" fill="#B4B4DA"></path>
                        <path d="M284.446613,136.466513 L313.732019,125.991105 C313.732019,125.991105 328.582419,123.815884 340.213502,129.826364 L319.755258,140.587985 C319.755258,140.587985 292.806454,136.1803 284.446613,136.466513 Z" id="Path" fill="#F4F4F9"></path>
                        <path d="M340.265427,129.826364 C340.265427,129.826364 355.011978,123.3007 371.991282,130.513276 L353.194622,141.847323 C353.194622,141.847323 339.642333,134.978204 319.859107,140.587985" id="Path" fill="#FFFFFF"></path>
                        <g id="Group" transform="translate(184.331895, 0.000000)">
                            <path d="M61.1713595,111.90941 L61.2752085,111.90941 C60.8598126,111.508711 60.6521147,110.936284 60.6521147,110.306615 L60.6521147,95.2517942 C60.6521147,94.2214262 61.2752085,93.3627863 62.1579246,93.1338156 L61.6906043,93.0765729 C60.4963413,92.9048449 59.4578517,93.9352129 59.4578517,95.1945515 L59.4578517,109.734188 C59.5097762,110.879042 60.2367189,111.794924 61.1713595,111.90941 Z" id="Path" fill="#9493C7"></path>
                            <path d="M51.5134067,74.9306482 L51.5134067,125.590407 L75.3986664,129.883606 L75.3986664,74.9306482 L51.5134067,74.9306482 Z M67.3503723,110.19213 C67.3503723,111.451468 66.3638073,112.367351 65.2733932,112.195623 L61.1713595,111.623196 C60.2367189,111.508711 59.5617007,110.592828 59.5617007,109.619703 L59.5617007,95.8242209 C59.5617007,94.5648822 60.5482658,93.6489996 61.6386798,93.8207276 L65.7407135,94.3931542 C66.6753541,94.5076396 67.3503723,95.4235222 67.3503723,96.3966475 L67.3503723,110.19213 Z" id="Shape" fill="#B4B4DA"></path>
                            <polygon id="Path" fill="#B4B4DA" points="44.2439798 124.15934 35.5206676 128.051841 80.2795673 132.402284 86.1470332 128.509782"></polygon>
                            <polygon id="Path" fill="#F4F4F9" points="83.3950359 140.244529 80.9545855 141.56111 79.1372288 142.476993 77.4756455 143.392875 75.6582888 144.366001 73.5813096 145.453611 0.0562493721 137.725851 3.37941594 136.638241 6.07948877 135.779601 8.20839235 135.035446 10.8565407 134.176806 14.4393297 133.031953"></polygon>
                            <path d="M123.117261,13.5665116 L123.117261,88.8406157 C123.117261,92.6186316 120.157566,95.5380075 116.782475,95.1373089 L21.8126055,84.1467172 L17.4509494,83.6315333 L14.7508765,83.3453199 C11.8431058,83.0018639 9.61035325,80.3114587 9.61035325,77.0486268 L9.61035325,2.9193759 C9.61035325,1.25933863 10.8565407,-0.0572426648 12.3623506,0.0572426648 L117.717116,7.21257576 C120.78066,7.44154642 123.117261,10.1891943 123.117261,13.5665116 Z" id="Path" fill="#DBDBEC"></path>
                            <path d="M117.76904,7.26981843 L12.414275,0.11448533 C11.8950303,0.0572426648 11.3757855,0.228970659 10.9603897,0.457941318 L110.966934,7.26981843 C113.978553,7.49878909 116.367079,10.246437 116.367079,13.5665116 L116.367079,88.8406157 C116.367079,91.4737783 114.913194,93.7062423 112.836215,94.6793676 L116.834399,95.1373089 C120.209491,95.5380075 123.169186,92.6186316 123.169186,88.8406157 L123.169186,13.5665116 C123.117261,10.1891943 120.78066,7.44154642 117.76904,7.26981843 Z" id="Path" fill="#B4B4DA"></path>
                            <polygon id="Path" fill="#FFFFFF" points="80.9545855 141.56111 79.1372288 142.476993 8.20839235 135.035446 10.8565407 134.176806"></polygon>
                            <path d="M77.4756455,143.392875 L75.6582888,144.366001 C51.5653311,141.790081 27.4723735,139.214161 3.43134042,136.638241 L6.07948877,135.779601 C29.8608995,138.298278 53.6423103,140.816955 77.4756455,143.392875 Z" id="Path" fill="#FFFFFF"></path>
                            <path d="M57.4847216,19.0045647 C41.543907,30.911039 25.5511679,42.8175133 9.61035325,54.7239875 L9.61035325,51.2894276 C25.1357721,39.7264094 40.6611909,28.1061484 56.1866097,16.5431301 C57.5885705,15.5127622 58.8866825,17.9741967 57.4847216,19.0045647 Z" id="Path" fill="#FFFFFF"></path>
                            <path d="M56.1866097,38.5815561 C40.5573419,49.514905 25.0319231,60.6772247 9.61035325,72.0112723 L9.61035325,68.5767124 C24.5646028,57.5861208 39.6746258,46.7672571 54.8365732,36.1201215 C56.2904586,35.0897535 57.5885705,37.6084308 56.1866097,38.5815561 Z" id="Path" fill="#FFFFFF"></path>
                            <path d="M62.8848673,55.1819289 C49.5402765,65.4283659 35.8322144,75.0451335 21.8126055,84.0894746 L17.4509494,83.5742906 C32.5609723,73.9575229 47.2555995,63.7110859 61.5867553,52.7204943 C62.9367917,51.6901263 64.2349037,54.1515609 62.8848673,55.1819289 Z" id="Path" fill="#FFFFFF"></path>
                        </g>
                        <ellipse id="Oval" fill="#9493C7" cx="299.452787" cy="152.265488" rx="2.44045045" ry="2.69040524"></ellipse>
                        <ellipse id="Oval" fill="#9493C7" cx="112.109272" cy="152.036518" rx="2.59622388" ry="2.86213324"></ellipse>
                    </g>
                </g>
            </g>
        </g>
    </g>
</svg>