<svg xmlns="http://www.w3.org/2000/svg" width="1920" height="1080"><path d="M366,1359L199,1380L739,1349Z" fill="#3a4b7a" stroke="#3a4b7a" stroke-width="1.51"/><path d="M739,1349L199,1380L1207,1378Z" fill="#3a4b7a" stroke="#3a4b7a" stroke-width="1.51"/><path d="M764,-329L1134,-297L1265,-307Z" fill="#1e2a47" stroke="#1e2a47" stroke-width="1.51"/><path d="M1479,1374L1207,1378L1648,1389Z" fill="#485c94" stroke="#485c94" stroke-width="1.51"/><path d="M764,-329L1265,-307L1708,-320Z" fill="#233050" stroke="#233050" stroke-width="1.51"/><path d="M2090,379L1947,457L2093,618Z" fill="#384976" stroke="#384976" stroke-width="1.51"/><path d="M1846,1326L1648,1389L2129,1309Z" fill="#5269a7" stroke="#5269a7" stroke-width="1.51"/><path d="M2102,935L1974,1193L2144,1220Z" fill="#4f65a1" stroke="#4f65a1" stroke-width="1.51"/><path d="M2093,618L1943,671L2150,875Z" fill="#3f5284" stroke="#3f5284" stroke-width="1.51"/><path d="M1943,671L2008,904L2150,875Z" fill="#425589" stroke="#425589" stroke-width="1.51"/><path d="M2102,935L2144,1220L2150,875Z" fill="#4c629c" stroke="#4c629c" stroke-width="1.51"/><path d="M2048,-275L2024,-75L2182,286Z" fill="#394a78" stroke="#394a78" stroke-width="1.51"/><path d="M2016,131L2090,379L2182,286Z" fill="#394b79" stroke="#394b79" stroke-width="1.51"/><path d="M2024,-75L2016,131L2182,286Z" fill="#394a78" stroke="#394a78" stroke-width="1.51"/><path d="M2093,618L2150,875L2182,286Z" fill="#3c4e7f" stroke="#3c4e7f" stroke-width="1.51"/><path d="M2090,379L2093,618L2182,286Z" fill="#3a4b7a" stroke="#3a4b7a" stroke-width="1.51"/><path d="M2150,875L2144,1220L2182,286Z" fill="#44598e" stroke="#44598e" stroke-width="1.51"/><path d="M2008,904L1974,1193L2102,935Z" fill="#495f97" stroke="#495f97" stroke-width="1.51"/><path d="M2008,904L2102,935L2150,875Z" fill="#475c92" stroke="#475c92" stroke-width="1.51"/><path d="M2016,131L1910,360L2090,379Z" fill="#374874" stroke="#374874" stroke-width="1.51"/><path d="M1974,1193L2129,1309L2144,1220Z" fill="#546caa" stroke="#546caa" stroke-width="1.51"/><path d="M1943,671L1888,735L2008,904Z" fill="#3e5082" stroke="#3e5082" stroke-width="1.51"/><path d="M1959,-117L2024,-75L2048,-275Z" fill="#374874" stroke="#374874" stroke-width="1.51"/><path d="M1974,1193L1846,1326L2129,1309Z" fill="#536aa7" stroke="#536aa7" stroke-width="1.51"/><path d="M1708,-320L1859,-212L2048,-275Z" fill="#33436e" stroke="#33436e" stroke-width="1.51"/><path d="M1947,457L1943,671L2093,618Z" fill="#384977" stroke="#384977" stroke-width="1.51"/><path d="M1265,-307L1631,-294L1708,-320Z" fill="#2a395d" stroke="#2a395d" stroke-width="1.51"/><path d="M1910,360L1947,457L2090,379Z" fill="#364773" stroke="#364773" stroke-width="1.51"/><path d="M1735,937L1700,1066L1974,1193Z" fill="#45598f" stroke="#45598f" stroke-width="1.51"/><path d="M1735,937L1974,1193L2008,904Z" fill="#465a90" stroke="#465a90" stroke-width="1.51"/><path d="M1850,166L1910,360L2016,131Z" fill="#354570" stroke="#354570" stroke-width="1.51"/><path d="M1801,-10L2016,131L2024,-75Z" fill="#354672" stroke="#354672" stroke-width="1.51"/><path d="M1959,-117L1801,-10L2024,-75Z" fill="#354571" stroke="#354571" stroke-width="1.51"/><path d="M1859,-212L1959,-117L2048,-275Z" fill="#354672" stroke="#354672" stroke-width="1.51"/><path d="M1801,-10L1850,166L2016,131Z" fill="#34446f" stroke="#34446f" stroke-width="1.51"/><path d="M1888,735L1735,937L2008,904Z" fill="#3f5284" stroke="#3f5284" stroke-width="1.51"/><path d="M1818,1321L1648,1389L1846,1326Z" fill="#4f66a2" stroke="#4f66a2" stroke-width="1.51"/><path d="M1773,506L1759,621L1943,671Z" fill="#344570" stroke="#344570" stroke-width="1.51"/><path d="M1773,506L1943,671L1947,457Z" fill="#34446f" stroke="#34446f" stroke-width="1.51"/><path d="M1818,1321L1846,1326L1974,1193Z" fill="#4f66a3" stroke="#4f66a3" stroke-width="1.51"/><path d="M1700,1066L1818,1321L1974,1193Z" fill="#4b609a" stroke="#4b609a" stroke-width="1.51"/><path d="M1859,-212L1801,-10L1959,-117Z" fill="#33436e" stroke="#33436e" stroke-width="1.51"/><path d="M1910,360L1773,506L1947,457Z" fill="#33436e" stroke="#33436e" stroke-width="1.51"/><path d="M1759,621L1888,735L1943,671Z" fill="#384977" stroke="#384977" stroke-width="1.51"/><path d="M1686,832L1735,937L1888,735Z" fill="#3b4e7d" stroke="#3b4e7d" stroke-width="1.51"/><path d="M1850,166L1676,276L1910,360Z" fill="#32426b" stroke="#32426b" stroke-width="1.51"/><path d="M1676,276L1773,506L1910,360Z" fill="#31416a" stroke="#31416a" stroke-width="1.51"/><path d="M1759,621L1686,832L1888,735Z" fill="#384976" stroke="#384976" stroke-width="1.51"/><path d="M1700,1066L1582,1186L1818,1321Z" fill="#475c93" stroke="#475c93" stroke-width="1.51"/><path d="M1801,-10L1686,77L1850,166Z" fill="#314169" stroke="#314169" stroke-width="1.51"/><path d="M1708,-320L1631,-294L1859,-212Z" fill="#2f3f67" stroke="#2f3f67" stroke-width="1.51"/><path d="M1631,-294L1591,-81L1859,-212Z" fill="#2e3e65" stroke="#2e3e65" stroke-width="1.51"/><path d="M1591,-81L1801,-10L1859,-212Z" fill="#304068" stroke="#304068" stroke-width="1.51"/><path d="M1686,77L1676,276L1850,166Z" fill="#303f67" stroke="#303f67" stroke-width="1.51"/><path d="M1618,162L1676,276L1686,77Z" fill="#2d3d64" stroke="#2d3d64" stroke-width="1.51"/><path d="M1676,276L1618,470L1773,506Z" fill="#2e3d65" stroke="#2e3d65" stroke-width="1.51"/><path d="M1582,1186L1648,1389L1818,1321Z" fill="#4b609a" stroke="#4b609a" stroke-width="1.51"/><path d="M1569,699L1686,832L1759,621Z" fill="#344570" stroke="#344570" stroke-width="1.51"/><path d="M1591,-81L1686,77L1801,-10Z" fill="#2e3e65" stroke="#2e3e65" stroke-width="1.51"/><path d="M485,1343L366,1359L739,1349Z" fill="#394b79" stroke="#394b79" stroke-width="1.51"/><path d="M1618,470L1759,621L1773,506Z" fill="#2f3e66" stroke="#2f3e66" stroke-width="1.51"/><path d="M1618,470L1569,699L1759,621Z" fill="#303f67" stroke="#303f67" stroke-width="1.51"/><path d="M253,-296L405,-285L764,-329Z" fill="#1c2743" stroke="#1c2743" stroke-width="1.51"/><path d="M1686,832L1583,872L1735,937Z" fill="#3a4c7b" stroke="#3a4c7b" stroke-width="1.51"/><path d="M1583,872L1566,992L1735,937Z" fill="#3b4d7d" stroke="#3b4d7d" stroke-width="1.51"/><path d="M1566,992L1700,1066L1735,937Z" fill="#3f5283" stroke="#3f5283" stroke-width="1.51"/><path d="M1569,699L1583,872L1686,832Z" fill="#364773" stroke="#364773" stroke-width="1.51"/><path d="M1566,992L1582,1186L1700,1066Z" fill="#405487" stroke="#405487" stroke-width="1.51"/><path d="M1476,-144L1591,-81L1631,-294Z" fill="#2b395f" stroke="#2b395f" stroke-width="1.51"/><path d="M1582,1186L1479,1374L1648,1389Z" fill="#485d95" stroke="#485d95" stroke-width="1.51"/><path d="M1564,210L1618,470L1676,276Z" fill="#2d3b62" stroke="#2d3b62" stroke-width="1.51"/><path d="M1618,162L1564,210L1676,276Z" fill="#2d3b62" stroke="#2d3b62" stroke-width="1.51"/><path d="M1448,107L1618,162L1686,77Z" fill="#2c3a60" stroke="#2c3a60" stroke-width="1.51"/><path d="M1591,-81L1448,107L1686,77Z" fill="#2c3a60" stroke="#2c3a60" stroke-width="1.51"/><path d="M764,-329L855,-301L1134,-297Z" fill="#1c2743" stroke="#1c2743" stroke-width="1.51"/><path d="M1564,210L1368,227L1618,470Z" fill="#2a385d" stroke="#2a385d" stroke-width="1.51"/><path d="M1368,227L1318,508L1618,470Z" fill="#283659" stroke="#283659" stroke-width="1.51"/><path d="M1318,508L1569,699L1618,470Z" fill="#2a395d" stroke="#2a395d" stroke-width="1.51"/><path d="M1376,-168L1476,-144L1631,-294Z" fill="#29385b" stroke="#29385b" stroke-width="1.51"/><path d="M1265,-307L1376,-168L1631,-294Z" fill="#283559" stroke="#283559" stroke-width="1.51"/><path d="M1318,508L1326,668L1569,699Z" fill="#2a385d" stroke="#2a385d" stroke-width="1.51"/><path d="M1448,107L1564,210L1618,162Z" fill="#2b395e" stroke="#2b395e" stroke-width="1.51"/><path d="M1262,371L1318,508L1368,227Z" fill="#253253" stroke="#253253" stroke-width="1.51"/><path d="M1370,855L1417,892L1569,699Z" fill="#32426c" stroke="#32426c" stroke-width="1.51"/><path d="M1566,992L1372,1195L1582,1186Z" fill="#3f5284" stroke="#3f5284" stroke-width="1.51"/><path d="M1372,1195L1479,1374L1582,1186Z" fill="#43578c" stroke="#43578c" stroke-width="1.51"/><path d="M1569,699L1417,892L1583,872Z" fill="#344470" stroke="#344470" stroke-width="1.51"/><path d="M1417,892L1566,992L1583,872Z" fill="#384976" stroke="#384976" stroke-width="1.51"/><path d="M1476,-144L1448,107L1591,-81Z" fill="#2a385c" stroke="#2a385c" stroke-width="1.51"/><path d="M1417,892L1372,1195L1566,992Z" fill="#3a4c7a" stroke="#3a4c7a" stroke-width="1.51"/><path d="M1326,668L1370,855L1569,699Z" fill="#2e3e65" stroke="#2e3e65" stroke-width="1.51"/><path d="M1448,107L1368,227L1564,210Z" fill="#28365a" stroke="#28365a" stroke-width="1.51"/><path d="M1207,925L1372,1195L1417,892Z" fill="#364773" stroke="#364773" stroke-width="1.51"/><path d="M1305,-125L1263,66L1448,107Z" fill="#253254" stroke="#253254" stroke-width="1.51"/><path d="M1305,-125L1448,107L1476,-144Z" fill="#273558" stroke="#273558" stroke-width="1.51"/><path d="M1376,-168L1305,-125L1476,-144Z" fill="#273457" stroke="#273457" stroke-width="1.51"/><path d="M1372,1195L1207,1378L1479,1374Z" fill="#43568a" stroke="#43568a" stroke-width="1.51"/><path d="M1207,925L1144,1095L1372,1195Z" fill="#364774" stroke="#364774" stroke-width="1.51"/><path d="M1263,66L1368,227L1448,107Z" fill="#263355" stroke="#263355" stroke-width="1.51"/><path d="M1069,1319L739,1349L1207,1378Z" fill="#3a4c7b" stroke="#3a4c7b" stroke-width="1.51"/><path d="M1246,348L1262,371L1368,227Z" fill="#243152" stroke="#243152" stroke-width="1.51"/><path d="M1370,855L1207,925L1417,892Z" fill="#32426b" stroke="#32426b" stroke-width="1.51"/><path d="M1326,668L1162,793L1370,855Z" fill="#2c3b61" stroke="#2c3b61" stroke-width="1.51"/><path d="M1265,-307L1305,-125L1376,-168Z" fill="#253253" stroke="#253253" stroke-width="1.51"/><path d="M1162,793L1207,925L1370,855Z" fill="#2e3e65" stroke="#2e3e65" stroke-width="1.51"/><path d="M1144,1095L1207,1378L1372,1195Z" fill="#3c4e7e" stroke="#3c4e7e" stroke-width="1.51"/><path d="M1318,508L1192,621L1326,668Z" fill="#263355" stroke="#263355" stroke-width="1.51"/><path d="M1263,66L1246,348L1368,227Z" fill="#243152" stroke="#243152" stroke-width="1.51"/><path d="M1144,1095L1069,1319L1207,1378Z" fill="#3b4d7b" stroke="#3b4d7b" stroke-width="1.51"/><path d="M1023,220L1246,348L1263,66Z" fill="#212d4d" stroke="#212d4d" stroke-width="1.51"/><path d="M1092,-38L1263,66L1305,-125Z" fill="#222f4f" stroke="#222f4f" stroke-width="1.51"/><path d="M1265,-307L1134,-297L1305,-125Z" fill="#232f4f" stroke="#232f4f" stroke-width="1.51"/><path d="M1192,621L1162,793L1326,668Z" fill="#283559" stroke="#283559" stroke-width="1.51"/><path d="M1262,371L1192,621L1318,508Z" fill="#233051" stroke="#233051" stroke-width="1.51"/><path d="M1017,472L1192,621L1262,371Z" fill="#212d4c" stroke="#212d4c" stroke-width="1.51"/><path d="M1084,45L1023,220L1263,66Z" fill="#202c4a" stroke="#202c4a" stroke-width="1.51"/><path d="M1134,-297L1092,-38L1305,-125Z" fill="#212d4d" stroke="#212d4d" stroke-width="1.51"/><path d="M1246,348L1017,472L1262,371Z" fill="#212d4d" stroke="#212d4d" stroke-width="1.51"/><path d="M1092,-38L1084,45L1263,66Z" fill="#202c4b" stroke="#202c4b" stroke-width="1.51"/><path d="M1162,793L1121,858L1207,925Z" fill="#2c3b61" stroke="#2c3b61" stroke-width="1.51"/><path d="M1023,220L1017,472L1246,348Z" fill="#1f2b49" stroke="#1f2b49" stroke-width="1.51"/><path d="M971,1195L1069,1319L1144,1095Z" fill="#364774" stroke="#364774" stroke-width="1.51"/><path d="M1017,472L1069,641L1192,621Z" fill="#212c4b" stroke="#212c4b" stroke-width="1.51"/><path d="M1069,641L1162,793L1192,621Z" fill="#253255" stroke="#253255" stroke-width="1.51"/><path d="M1038,936L1144,1095L1207,925Z" fill="#303f68" stroke="#303f68" stroke-width="1.51"/><path d="M1121,858L1038,936L1207,925Z" fill="#2d3c62" stroke="#2d3c62" stroke-width="1.51"/><path d="M917,334L1017,472L1023,220Z" fill="#1d2844" stroke="#1d2844" stroke-width="1.51"/><path d="M855,-301L1092,-38L1134,-297Z" fill="#1d2946" stroke="#1d2946" stroke-width="1.51"/><path d="M1069,641L1121,858L1162,793Z" fill="#283558" stroke="#283558" stroke-width="1.51"/><path d="M1038,936L907,1025L1144,1095Z" fill="#2f3e65" stroke="#2f3e65" stroke-width="1.51"/><path d="M907,1025L971,1195L1144,1095Z" fill="#31416a" stroke="#31416a" stroke-width="1.51"/><path d="M878,1261L739,1349L1069,1319Z" fill="#374976" stroke="#374976" stroke-width="1.51"/><path d="M855,-301L812,-54L1092,-38Z" fill="#1c2743" stroke="#1c2743" stroke-width="1.51"/><path d="M1069,641L833,839L1121,858Z" fill="#253354" stroke="#253354" stroke-width="1.51"/><path d="M833,839L1038,936L1121,858Z" fill="#29365a" stroke="#29365a" stroke-width="1.51"/><path d="M812,644L833,839L1069,641Z" fill="#222e4e" stroke="#222e4e" stroke-width="1.51"/><path d="M885,145L1023,220L1084,45Z" fill="#1d2844" stroke="#1d2844" stroke-width="1.51"/><path d="M812,-54L1084,45L1092,-38Z" fill="#1d2844" stroke="#1d2844" stroke-width="1.51"/><path d="M812,-54L885,145L1084,45Z" fill="#1c2743" stroke="#1c2743" stroke-width="1.51"/><path d="M1017,472L812,644L1069,641Z" fill="#1d2946" stroke="#1d2946" stroke-width="1.51"/><path d="M971,1195L878,1261L1069,1319Z" fill="#364773" stroke="#364773" stroke-width="1.51"/><path d="M833,839L907,1025L1038,936Z" fill="#2a385c" stroke="#2a385c" stroke-width="1.51"/><path d="M917,334L859,379L1017,472Z" fill="#1c2743" stroke="#1c2743" stroke-width="1.51"/><path d="M859,379L812,644L1017,472Z" fill="#1c2743" stroke="#1c2743" stroke-width="1.51"/><path d="M885,145L917,334L1023,220Z" fill="#1c2743" stroke="#1c2743" stroke-width="1.51"/><path d="M907,1025L785,1083L971,1195Z" fill="#303f68" stroke="#303f68" stroke-width="1.51"/><path d="M785,1083L878,1261L971,1195Z" fill="#33436d" stroke="#33436d" stroke-width="1.51"/><path d="M-204,-168L-49,-190L253,-296Z" fill="#1c2743" stroke="#1c2743" stroke-width="1.51"/><path d="M812,644L748,723L833,839Z" fill="#232f4f" stroke="#232f4f" stroke-width="1.51"/><path d="M631,441L812,644L859,379Z" fill="#1c2743" stroke="#1c2743" stroke-width="1.51"/><path d="M812,-54L696,40L885,145Z" fill="#1c2743" stroke="#1c2743" stroke-width="1.51"/><path d="M617,267L859,379L885,145Z" fill="#1c2743" stroke="#1c2743" stroke-width="1.51"/><path d="M833,839L785,1083L907,1025Z" fill="#2c3a60" stroke="#2c3a60" stroke-width="1.51"/><path d="M885,145L859,379L917,334Z" fill="#1c2743" stroke="#1c2743" stroke-width="1.51"/><path d="M764,-329L664,-94L812,-54Z" fill="#1c2743" stroke="#1c2743" stroke-width="1.51"/><path d="M764,-329L812,-54L855,-301Z" fill="#1c2743" stroke="#1c2743" stroke-width="1.51"/><path d="M632,917L785,1083L833,839Z" fill="#2a395d" stroke="#2a395d" stroke-width="1.51"/><path d="M785,1083L624,1233L878,1261Z" fill="#33436e" stroke="#33436e" stroke-width="1.51"/><path d="M696,40L617,267L885,145Z" fill="#1c2743" stroke="#1c2743" stroke-width="1.51"/><path d="M624,1233L739,1349L878,1261Z" fill="#364874" stroke="#364874" stroke-width="1.51"/><path d="M606,-178L664,-94L764,-329Z" fill="#1c2743" stroke="#1c2743" stroke-width="1.51"/><path d="M631,441L703,666L812,644Z" fill="#1d2946" stroke="#1d2946" stroke-width="1.51"/><path d="M617,267L631,441L859,379Z" fill="#1c2743" stroke="#1c2743" stroke-width="1.51"/><path d="M748,723L632,917L833,839Z" fill="#263355" stroke="#263355" stroke-width="1.51"/><path d="M703,666L748,723L812,644Z" fill="#212d4c" stroke="#212d4c" stroke-width="1.51"/><path d="M664,-94L696,40L812,-54Z" fill="#1c2743" stroke="#1c2743" stroke-width="1.51"/><path d="M632,917L591,957L785,1083Z" fill="#2c3a60" stroke="#2c3a60" stroke-width="1.51"/><path d="M591,957L624,1233L785,1083Z" fill="#2f3f67" stroke="#2f3f67" stroke-width="1.51"/><path d="M405,-285L606,-178L764,-329Z" fill="#1c2743" stroke="#1c2743" stroke-width="1.51"/><path d="M594,34L617,267L696,40Z" fill="#1c2743" stroke="#1c2743" stroke-width="1.51"/><path d="M703,666L632,917L748,723Z" fill="#243152" stroke="#243152" stroke-width="1.51"/><path d="M466,848L632,917L703,666Z" fill="#253254" stroke="#253254" stroke-width="1.51"/><path d="M631,441L486,614L703,666Z" fill="#1d2845" stroke="#1d2845" stroke-width="1.51"/><path d="M624,1233L485,1343L739,1349Z" fill="#374976" stroke="#374976" stroke-width="1.51"/><path d="M591,957L442,1144L624,1233Z" fill="#304068" stroke="#304068" stroke-width="1.51"/><path d="M510,477L486,614L631,441Z" fill="#1c2743" stroke="#1c2743" stroke-width="1.51"/><path d="M664,-94L594,34L696,40Z" fill="#1c2743" stroke="#1c2743" stroke-width="1.51"/><path d="M486,614L466,848L703,666Z" fill="#222e4e" stroke="#222e4e" stroke-width="1.51"/><path d="M617,267L435,347L631,441Z" fill="#1c2743" stroke="#1c2743" stroke-width="1.51"/><path d="M606,-178L503,-115L664,-94Z" fill="#1c2743" stroke="#1c2743" stroke-width="1.51"/><path d="M503,-115L594,34L664,-94Z" fill="#1c2743" stroke="#1c2743" stroke-width="1.51"/><path d="M594,34L318,64L617,267Z" fill="#1c2743" stroke="#1c2743" stroke-width="1.51"/><path d="M318,64L435,347L617,267Z" fill="#1c2743" stroke="#1c2743" stroke-width="1.51"/><path d="M435,347L510,477L631,441Z" fill="#1c2743" stroke="#1c2743" stroke-width="1.51"/><path d="M466,848L591,957L632,917Z" fill="#29375b" stroke="#29375b" stroke-width="1.51"/><path d="M442,1144L485,1343L624,1233Z" fill="#354671" stroke="#354671" stroke-width="1.51"/><path d="M410,949L442,1144L591,957Z" fill="#2d3b62" stroke="#2d3b62" stroke-width="1.51"/><path d="M405,-285L503,-115L606,-178Z" fill="#1c2743" stroke="#1c2743" stroke-width="1.51"/><path d="M503,-115L318,64L594,34Z" fill="#1c2743" stroke="#1c2743" stroke-width="1.51"/><path d="M466,848L410,949L591,957Z" fill="#29375b" stroke="#29375b" stroke-width="1.51"/><path d="M229,186L328,349L435,347Z" fill="#1c2743" stroke="#1c2743" stroke-width="1.51"/><path d="M318,64L229,186L435,347Z" fill="#1c2743" stroke="#1c2743" stroke-width="1.51"/><path d="M442,1144L366,1359L485,1343Z" fill="#364874" stroke="#364874" stroke-width="1.51"/><path d="M277,838L466,848L486,614Z" fill="#243151" stroke="#243151" stroke-width="1.51"/><path d="M336,572L277,838L486,614Z" fill="#202c4b" stroke="#202c4b" stroke-width="1.51"/><path d="M399,-146L318,64L503,-115Z" fill="#1c2743" stroke="#1c2743" stroke-width="1.51"/><path d="M405,-285L399,-146L503,-115Z" fill="#1c2743" stroke="#1c2743" stroke-width="1.51"/><path d="M336,572L486,614L510,477Z" fill="#1c2744" stroke="#1c2744" stroke-width="1.51"/><path d="M435,347L336,572L510,477Z" fill="#1c2743" stroke="#1c2743" stroke-width="1.51"/><path d="M328,349L336,572L435,347Z" fill="#1c2743" stroke="#1c2743" stroke-width="1.51"/><path d="M328,349L267,405L336,572Z" fill="#1c2743" stroke="#1c2743" stroke-width="1.51"/><path d="M410,949L298,1131L442,1144Z" fill="#2f3e66" stroke="#2f3e66" stroke-width="1.51"/><path d="M298,1131L366,1359L442,1144Z" fill="#34446f" stroke="#34446f" stroke-width="1.51"/><path d="M277,838L410,949L466,848Z" fill="#283659" stroke="#283659" stroke-width="1.51"/><path d="M219,567L277,838L336,572Z" fill="#202c4a" stroke="#202c4a" stroke-width="1.51"/><path d="M189,1L318,64L399,-146Z" fill="#1c2743" stroke="#1c2743" stroke-width="1.51"/><path d="M253,-296L399,-146L405,-285Z" fill="#1c2743" stroke="#1c2743" stroke-width="1.51"/><path d="M220,900L298,1131L410,949Z" fill="#2c3a60" stroke="#2c3a60" stroke-width="1.51"/><path d="M277,838L220,900L410,949Z" fill="#28365a" stroke="#28365a" stroke-width="1.51"/><path d="M298,1131L199,1380L366,1359Z" fill="#374874" stroke="#374874" stroke-width="1.51"/><path d="M253,-296L189,1L399,-146Z" fill="#1c2743" stroke="#1c2743" stroke-width="1.51"/><path d="M267,405L203,450L336,572Z" fill="#1c2743" stroke="#1c2743" stroke-width="1.51"/><path d="M203,450L219,567L336,572Z" fill="#1c2743" stroke="#1c2743" stroke-width="1.51"/><path d="M219,567L168,862L277,838Z" fill="#233051" stroke="#233051" stroke-width="1.51"/><path d="M220,900L125,1108L298,1131Z" fill="#2e3d64" stroke="#2e3d64" stroke-width="1.51"/><path d="M125,1108L199,1380L298,1131Z" fill="#34446f" stroke="#34446f" stroke-width="1.51"/><path d="M155,228L267,405L328,349Z" fill="#1c2743" stroke="#1c2743" stroke-width="1.51"/><path d="M229,186L155,228L328,349Z" fill="#1c2743" stroke="#1c2743" stroke-width="1.51"/><path d="M189,1L229,186L318,64Z" fill="#1c2743" stroke="#1c2743" stroke-width="1.51"/><path d="M-49,-190L189,1L253,-296Z" fill="#1c2743" stroke="#1c2743" stroke-width="1.51"/><path d="M62,856L168,862L219,567Z" fill="#243051" stroke="#243051" stroke-width="1.51"/><path d="M155,228L203,450L267,405Z" fill="#1c2743" stroke="#1c2743" stroke-width="1.51"/><path d="M168,862L220,900L277,838Z" fill="#273558" stroke="#273558" stroke-width="1.51"/><path d="M72,527L62,856L219,567Z" fill="#202b4a" stroke="#202b4a" stroke-width="1.51"/><path d="M-31,1242L-249,1298L199,1380Z" fill="#374976" stroke="#374976" stroke-width="1.51"/><path d="M125,1108L-31,1242L199,1380Z" fill="#354671" stroke="#354671" stroke-width="1.51"/><path d="M189,1L155,228L229,186Z" fill="#1c2743" stroke="#1c2743" stroke-width="1.51"/><path d="M62,856L125,1108L168,862Z" fill="#2a385d" stroke="#2a385d" stroke-width="1.51"/><path d="M-49,-190L-66,-110L189,1Z" fill="#1c2743" stroke="#1c2743" stroke-width="1.51"/><path d="M-50,149L155,228L189,1Z" fill="#1c2743" stroke="#1c2743" stroke-width="1.51"/><path d="M155,228L-13,332L203,450Z" fill="#1c2743" stroke="#1c2743" stroke-width="1.51"/><path d="M203,450L72,527L219,567Z" fill="#1c2743" stroke="#1c2743" stroke-width="1.51"/><path d="M168,862L125,1108L220,900Z" fill="#2b395e" stroke="#2b395e" stroke-width="1.51"/><path d="M-77,582L62,856L72,527Z" fill="#202c4a" stroke="#202c4a" stroke-width="1.51"/><path d="M-13,332L72,527L203,450Z" fill="#1c2743" stroke="#1c2743" stroke-width="1.51"/><path d="M62,856L-77,1027L125,1108Z" fill="#2c3a61" stroke="#2c3a61" stroke-width="1.51"/><path d="M-66,-110L-50,149L189,1Z" fill="#1c2743" stroke="#1c2743" stroke-width="1.51"/><path d="M-21,1138L-31,1242L125,1108Z" fill="#32426c" stroke="#32426c" stroke-width="1.51"/><path d="M-66,-110L-112,-62L-50,149Z" fill="#1c2743" stroke="#1c2743" stroke-width="1.51"/><path d="M-50,149L-13,332L155,228Z" fill="#1c2743" stroke="#1c2743" stroke-width="1.51"/><path d="M-77,582L-173,749L62,856Z" fill="#222f4f" stroke="#222f4f" stroke-width="1.51"/><path d="M-77,1027L-21,1138L125,1108Z" fill="#2f3f67" stroke="#2f3f67" stroke-width="1.51"/><path d="M-50,149L-114,225L-13,332Z" fill="#1c2743" stroke="#1c2743" stroke-width="1.51"/><path d="M-13,332L-77,582L72,527Z" fill="#1c2743" stroke="#1c2743" stroke-width="1.51"/><path d="M-212,942L-77,1027L62,856Z" fill="#2a385d" stroke="#2a385d" stroke-width="1.51"/><path d="M-173,749L-212,942L62,856Z" fill="#273457" stroke="#273457" stroke-width="1.51"/><path d="M-112,-62L-256,28L-50,149Z" fill="#1c2743" stroke="#1c2743" stroke-width="1.51"/><path d="M-107,1149L-31,1242L-21,1138Z" fill="#33436d" stroke="#33436d" stroke-width="1.51"/><path d="M-77,1027L-107,1149L-21,1138Z" fill="#304068" stroke="#304068" stroke-width="1.51"/><path d="M-114,225L-233,524L-13,332Z" fill="#1c2743" stroke="#1c2743" stroke-width="1.51"/><path d="M-218,541L-77,582L-13,332Z" fill="#1c2743" stroke="#1c2743" stroke-width="1.51"/><path d="M-233,524L-218,541L-13,332Z" fill="#1c2743" stroke="#1c2743" stroke-width="1.51"/><path d="M-107,1149L-249,1298L-31,1242Z" fill="#354570" stroke="#354570" stroke-width="1.51"/><path d="M-256,28L-114,225L-50,149Z" fill="#1c2743" stroke="#1c2743" stroke-width="1.51"/><path d="M-204,-168L-66,-110L-49,-190Z" fill="#1c2743" stroke="#1c2743" stroke-width="1.51"/><path d="M-218,541L-173,749L-77,582Z" fill="#1f2a48" stroke="#1f2a48" stroke-width="1.51"/><path d="M-204,-168L-112,-62L-66,-110Z" fill="#1c2743" stroke="#1c2743" stroke-width="1.51"/><path d="M-212,942L-107,1149L-77,1027Z" fill="#2d3c64" stroke="#2d3c64" stroke-width="1.51"/><path d="M-212,942L-249,1298L-107,1149Z" fill="#31416a" stroke="#31416a" stroke-width="1.51"/><path d="M-256,28L-233,524L-114,225Z" fill="#1c2743" stroke="#1c2743" stroke-width="1.51"/><path d="M-204,-168L-256,28L-112,-62Z" fill="#1c2743" stroke="#1c2743" stroke-width="1.51"/><path d="M-233,524L-212,942L-173,749Z" fill="#232f50" stroke="#232f50" stroke-width="1.51"/><path d="M-218,541L-233,524L-173,749Z" fill="#1e2947" stroke="#1e2947" stroke-width="1.51"/><path d="M-233,524L-249,1298L-212,942Z" fill="#29375b" stroke="#29375b" stroke-width="1.51"/><path d="M-256,28L-249,1298L-233,524Z" fill="#1e2a48" stroke="#1e2a48" stroke-width="1.51"/></svg>