<svg width="413px" height="333px" viewBox="0 0 413 333" version="1.1" xmlns="http://www.w3.org/2000/svg" xmlns:xlink="http://www.w3.org/1999/xlink">
    <!-- Generator: Sketch 60 (88103) - https://sketch.com -->
    <title>settings</title>
    <desc>Created with Sketch.</desc>
    <defs>
        <radialGradient cx="84.6020462%" cy="68.7979081%" fx="84.6020462%" fy="68.7979081%" r="69.4500963%" gradientTransform="translate(0.846020,0.687979),scale(1.000000,0.920312),translate(-0.846020,-0.687979)" id="radialGradient-1">
            <stop stop-color="#FFFFFF" stop-opacity="0.656331949" offset="0%"></stop>
            <stop stop-color="#FFFFFF" stop-opacity="0" offset="100%"></stop>
        </radialGradient>
    </defs>
    <g id="Page-1" stroke="none" stroke-width="1" fill="none" fill-rule="evenodd">
        <g id="Developers" transform="translate(-176.000000, -169.000000)">
            <rect id="Rectangle" fill="#FEEEE0" x="0" y="3" width="1442" height="717"></rect>
            <g id="settings" transform="translate(425.500000, 330.500000) scale(-1, 1) translate(-425.500000, -330.500000) translate(176.000000, 159.000000)" fill-rule="nonzero">
                <g id="Error" transform="translate(165.000000, 242.500000) scale(-1, 1) translate(-165.000000, -242.500000) translate(86.000000, 142.000000)">
                    <g id="Secondary-Object">
                        <path d="M68.5916058,135.961479 L66.2850365,135.806626 L68.2744526,99.4160247 C68.4762774,95.8234206 71.2441606,93.0050847 74.5886861,93.0050847 L85.6025547,93.0050847 L85.6025547,95.4827427 L74.5886861,95.4827427 C72.4551095,95.4827427 70.6963504,97.2790447 70.5810219,99.5399076 L68.5916058,135.961479 Z" id="Path" fill="#4A52A3"></path>
                        <path d="M76.9817518,144.912018 L74.6751825,144.912018 C74.6751825,140.638059 71.4459854,137.138367 67.4383212,137.138367 C63.4306569,137.138367 60.2014599,140.607088 60.2014599,144.912018 L57.8948905,144.912018 C57.8948905,139.275347 62.1620438,134.660709 67.4383212,134.660709 C72.7145985,134.660709 76.9817518,139.244376 76.9817518,144.912018 Z" id="Path" fill="#4A52A3"></path>
                        <path d="M9.88941606,195.332357 C17.2416058,191.925578 25.2281022,196.787982 32.1766423,199.110786 C35.9536496,200.380586 39.7883212,201.061941 43.7383212,200.628351 C48.0631387,200.16379 52.2149635,198.770108 56.4532847,197.810015 C65.8237226,195.704006 75.4248175,196.757011 84.7952555,198.119723 C93.6467153,199.420493 102.440511,200.845146 111.407299,200.876117 C120.691241,200.907088 129.773358,199.172727 138.711314,196.602157 C139.691606,196.323421 139.287956,194.681972 138.278832,194.960709 C130.177007,197.283513 121.959854,198.986903 113.569708,199.172727 C104.314599,199.389522 95.1748175,197.964869 86.0350365,196.633128 C77.0682482,195.301387 67.9572993,194.186441 58.9616788,195.642065 C54.4638686,196.354391 50.110219,197.902928 45.6124088,198.677196 C41.2875912,199.420493 37.1934307,198.986903 33.0127737,197.655162 C25.3145985,195.146533 17.1262774,190.129276 9.05328467,193.876733 C8.15948905,194.310324 8.96678832,195.765948 9.88941606,195.332357 L9.88941606,195.332357 Z" id="Path" fill="#C7DBEE"></path>
                        <g id="Group">
                            <polygon id="Path" fill="#5560A6" points="72.339781 65.688906 127.236131 70.5513097 136.433577 64.1403698 88.0821168 60.7335901"></polygon>
                            <polygon id="Path" fill="#B4B4DA" points="75.9437956 147.668413 72.339781 65.688906 127.236131 70.5513097 131.762774 151.322958"></polygon>
                            <polygon id="Path" fill="#4A52A3" points="139.951095 138.624961 131.762774 151.322958 127.236131 70.5513097 136.433577 64.1403698"></polygon>
                            <polygon id="Path" fill="#C7DBEE" points="81.6813869 84.5191063 85.429562 132.926348 121.325547 135.496918 118.701825 87.9568567"></polygon>
                            <path d="M117.95219,198.893991 C117.779197,198.893991 117.606204,198.893991 117.40438,198.893991 C103.968613,198.553313 101.979197,197.500308 94.5405109,193.536055 C93.560219,193.009553 92.4357664,192.421109 91.1671533,191.770724 C84.1609489,188.147149 75.1364964,191.677812 67.1788321,194.774884 C63.4883212,196.230508 59.999635,197.59322 57.0010949,198.119723 C51.6094891,199.110786 47.4576642,198.924961 44.3149635,197.624191 C40.480292,196.044684 38.029562,192.792758 36.8186131,187.713559 C34.800365,179.134669 32.0324818,173.807704 29.2934307,173.095378 C27.9671533,172.7547 26.5832117,173.436055 25.170438,175.170416 C22.7485401,178.112635 21.3069343,182.324653 20.0383212,186.04114 C18.8562044,189.540832 17.9047445,192.266256 16.4631387,192.947612 C16.0018248,193.164407 15.5116788,193.164407 15.0215328,192.916641 L15.2521898,192.359168 C15.5981752,192.514022 15.9441606,192.544992 16.2613139,192.390139 C17.4722628,191.832666 18.4237226,189.0453 19.5193431,185.824345 C20.730292,182.231741 22.2583942,177.802928 24.7667883,174.736826 C26.3237226,172.816641 27.9094891,172.073344 29.4664234,172.475963 C33.5317518,173.528968 36.1843066,182.355624 37.4240876,187.558706 C39.5576642,196.509245 45.5547445,199.575347 56.9434307,197.500308 C59.8843066,196.973806 63.3441606,195.611094 67.0346715,194.186441 C75.1076642,191.027427 84.2474453,187.465794 91.4554745,191.213251 C92.6952555,191.863636 93.8485401,192.45208 94.8288321,192.978582 C102.181022,196.880894 104.141606,197.933898 117.433212,198.274576 C124.958394,198.460401 131.993431,194.558089 135.856934,188.054237 C139.576277,181.798151 139.806934,174.05547 136.491241,166.839291 C132.916058,159.09661 134.472993,153.614792 136.116423,147.761325 C137.15438,144.044838 138.25,140.204468 138.25,135.373035 C138.25,128.094915 137.067883,126.422496 136.34708,126.050847 C135.741606,125.74114 135.164964,126.267643 135.164964,126.298613 L134.790146,125.834052 C134.818978,125.803082 135.655109,125.028814 136.606569,125.493374 C138.105839,126.205701 138.855474,129.550539 138.855474,135.373035 C138.855474,140.297381 137.759854,144.168721 136.693066,147.947149 C135.020803,153.893529 133.579197,159.034669 137.039051,166.560555 C140.441241,173.962558 140.210584,181.922034 136.375912,188.363945 C132.454745,194.898767 125.44854,198.893991 117.95219,198.893991 Z" id="Path" fill="#5560A6"></path>
                            <polygon id="Rectangle" fill="#5560A6" transform="translate(96.220598, 164.742295) rotate(87.109688) translate(-96.220598, -164.742295) " points="80.3923935 163.245425 112.038032 163.355491 112.048802 166.239166 80.4031632 166.129099"></polygon>
                            <polygon id="Rectangle" fill="#5560A6" transform="translate(117.953262, 166.753043) rotate(85.085590) translate(-117.953262, -166.753043) " points="101.49193 165.213672 134.396341 165.407702 134.414594 168.292415 101.510184 168.098384"></polygon>
                            <path d="M77.529562,184.430663 C77.529562,184.430663 89.0912409,175.944684 98.7788321,180.652234 L77.529562,184.430663 Z" id="Path" fill="#5560A6"></path>
                            <path d="M102.901825,188.085208 C102.901825,188.085208 112.301095,178.515254 122.651825,184.492604 L102.901825,188.085208 Z" id="Path" fill="#5560A6"></path>
                            <path d="M3.54635036,189.602773 C3.54635036,189.602773 14.0124088,186.939291 16.9821168,192.173344 C19.9518248,197.407396 5.42043796,196.571186 3.54635036,195.765948 L3.54635036,189.602773 Z" id="Path" fill="#5560A6"></path>
                            <rect id="Rectangle" fill="#5560A6" x="0.0288321168" y="191.244222" width="5.59343066" height="1"></rect>
                            <rect id="Rectangle" fill="#5560A6" x="0.0288321168" y="193.474114" width="5.59343066" height="1"></rect>
                            <path d="M102.325182,53.2696456 L103.363139,64.8836672 C103.363139,64.8836672 104.487591,66.6799692 107.05365,64.8836672 L106.24635,52.6192604 L102.325182,53.2696456 Z" id="Path" fill="#4A52A3"></path>
                            <polygon id="Path" fill="#B4B4DA" points="81.5372263 5.07919877 81.5372263 53.5793529 122.709489 55.7163328 122.709489 10.9016949"></polygon>
                            <polygon id="Path" fill="#4A52A3" points="129.427372 49.522188 122.709489 55.7163328 122.709489 10.9016949 129.427372 5.07919877"></polygon>
                            <polygon id="Path" fill="#5F64AC" points="129.427372 5.07919877 88.4281022 0 81.5372263 5.07919877 122.709489 10.9016949"></polygon>
                            <path d="M88.0821168,28.524037 C87.9091241,28.524037 87.7361314,28.4001541 87.6784672,28.2453005 C87.5919708,27.9975347 87.7072993,27.7497689 87.9091241,27.6568567 L98.7788321,22.9802773 C99.0094891,22.8873652 99.240146,23.0112481 99.3266423,23.2280431 C99.4131387,23.4758089 99.2978102,23.7235747 99.0959854,23.8164869 L88.2262774,28.4930663 C88.1686131,28.524037 88.139781,28.524037 88.0821168,28.524037 Z" id="Path" fill="#5560A6"></path>
                            <path d="M96.9624088,28.524037 C96.8470803,28.524037 96.7317518,28.4620955 96.6452555,28.3691834 L91.0229927,21.7414484 C90.85,21.555624 90.8788321,21.2459168 91.0518248,21.0910632 C91.2248175,20.9052388 91.5131387,20.9362096 91.6572993,21.1220339 L97.279562,27.7497689 C97.4525547,27.9355932 97.4237226,28.2453005 97.2507299,28.4001541 C97.1642336,28.4930663 97.0777372,28.524037 96.9624088,28.524037 Z" id="Path" fill="#5560A6"></path>
                            <path d="M110.369343,30.8468413 C110.254015,30.8468413 110.138686,30.7848998 110.05219,30.6919877 L105.15073,25.0553159 C104.977737,24.8694915 105.006569,24.5597843 105.179562,24.4049307 C105.352555,24.2191063 105.640876,24.250077 105.785036,24.4359014 L110.686496,30.0725732 C110.859489,30.2583975 110.830657,30.5681048 110.657664,30.7229584 C110.6,30.8158706 110.484672,30.8468413 110.369343,30.8468413 Z" id="Path" fill="#5560A6"></path>
                            <path d="M105.467883,30.8468413 C105.352555,30.8468413 105.237226,30.8158706 105.15073,30.7229584 C104.977737,30.5371341 104.977737,30.2583975 105.15073,30.0725732 L112.589416,22.0821263 C112.762409,21.896302 113.021898,21.896302 113.194891,22.0821263 C113.367883,22.2679507 113.367883,22.5466872 113.194891,22.7325116 L105.756204,30.7229584 C105.69854,30.8158706 105.583212,30.8468413 105.467883,30.8468413 Z" id="Path" fill="#5560A6"></path>
                            <ellipse id="Oval" fill="#5560A6" cx="103.363139" cy="45.4030817" rx="1.0379562" ry="1.11494607"></ellipse>
                        </g>
                        <g id="Group" opacity="0.22" transform="translate(72.289287, 65.657935)" fill="#5560A6">
                            <path d="M59.3293265,83.2802773 C59.3293265,83.2802773 51.7176476,75.2588598 53.79356,62.6847458 C55.8694724,50.1106317 55.1775016,48.5620955 53.79356,39.6115562 C52.4096184,30.6610169 52.8132681,28.8647149 51.804144,21.3697997 C50.7950199,13.8748844 52.9574286,9.26024653 44.8556038,9.04345146 C36.753779,8.82665639 26.5183776,20.8432974 21.8764068,11.675963 C17.2344359,2.50862866 7.89283011,4.24298921 5.24027536,3.80939908 C2.58772062,3.37580894 0.0504943421,0.0309707242 0.0504943421,0.0309707242 L54.9468447,4.8624037 L59.3293265,83.2802773 Z" id="Path"></path>
                        </g>
                        <g id="Group" opacity="0.22" transform="translate(81.515564, 4.955316)" fill="#5560A6">
                            <path d="M0.0216622253,0.123882897 C0.0216622253,0.123882897 0.828961495,6.28705701 12.6212973,8.26918336 C24.413633,10.2822804 27.8446549,3.68551618 33.0632681,10.8397535 C38.2818812,17.9939908 37.4457498,26.3560863 33.0632681,31.4972265 C28.6807863,36.6693374 26.864363,40.0761171 31.3910053,41.5317411 C35.9176476,42.9873652 41.0497644,39.2708783 41.1074286,45.0004622 L41.1650929,5.94637904 L0.0216622253,0.123882897 Z" id="Path"></path>
                        </g>
                        <path d="M147.159124,140.545146 L145.169708,104.154545 C145.05438,101.862712 143.29562,100.097381 141.162044,100.097381 L130.148175,100.097381 L130.148175,97.6197227 L141.162044,97.6197227 C144.506569,97.6197227 147.274453,100.438059 147.476277,104.030663 L149.465693,140.390293 L147.159124,140.545146 Z" id="Path" fill="#4A52A3"></path>
                        <path d="M157.827007,149.464715 L155.520438,149.464715 C155.520438,145.190755 152.291241,141.691063 148.283577,141.691063 C144.275912,141.691063 141.046715,145.159784 141.046715,149.464715 L138.740146,149.464715 C138.740146,143.828043 143.007299,139.213405 148.283577,139.213405 C153.559854,139.213405 157.827007,143.828043 157.827007,149.464715 Z" id="Path" fill="#4A52A3"></path>
                    </g>
                </g>
                <g id="character">
                    <path d="M346.50963,342.833723 C346.50963,342.833723 383.608233,343.1434 399.521978,342.833723 C415.435723,342.524046 424.271114,338.188567 415.561226,337.414374 C406.851337,336.614375 352.684364,331.995026 349.596997,337.414374 C346.50963,342.833723 346.50963,342.833723 346.50963,342.833723 Z" id="Path" fill="#C9DDF2"></path>
                    <path d="M287.372749,332.304703 C285.992219,334.730506 287.673956,337.749858 290.409915,337.775664 C301.604757,337.853084 325.400073,337.982116 337.29773,337.724051 C353.211475,337.414374 362.046866,333.078895 353.336978,332.304703 C344.601989,331.53051 290.435015,326.885354 287.372749,332.304703 L287.372749,332.304703 Z" id="Path" fill="#C9DDF2"></path>
                    <g id="Group" transform="translate(285.465108, 305.970713)">
                        <path d="M39.8847638,0.0114383847 C39.8847638,0.0114383847 41.139791,13.1469074 41.9932095,17.0178708 C42.9219296,21.2243177 45.2060791,28.6049545 40.9891878,28.6823738 C36.7722964,28.7597931 0.55221196,32.5791436 0.502010873,29.8694692 C0.451809785,27.1597949 -0.878519027,24.3727012 2.61045654,23.5727021 C6.0994321,22.772703 18.3484974,21.8436718 22.9167963,20.2178672 C29.3676361,17.9210956 31.9278915,14.4372286 31.5513834,12.4759405 C31.1748752,10.4888459 30.4469594,0.217889765 30.4469594,0.217889765 L39.8847638,0.0114383847 Z" id="Path" fill="#394480"></path>
                        <path d="M0.502010873,29.8694692 C0.502010873,29.8694692 -0.27610598,28.7081802 0.476910329,28.2952775 C1.22992664,27.9081811 9.81431256,30.0243078 16.0392474,29.5339857 C22.2641822,29.0436637 43.2482367,28.2436646 43.3486389,26.4888279 L43.5494432,30.101727 C43.5494432,30.101727 1.83233969,32.4243051 0.527111416,30.9791454 L0.502010873,29.8694692 Z" id="Path" fill="#2D3166"></path>
                        <path d="M19.1266143,21.301737 C21.0844567,19.2372232 24.47303,19.7533516 25.3264485,22.6436709 C25.5523534,23.44367 26.7822801,23.1081865 26.5312746,22.3081874 C25.4017502,18.4888369 20.8836523,17.637225 18.2229947,20.3985122 C17.6707827,20.9920599 18.5493017,21.8952847 19.1266143,21.301737 L19.1266143,21.301737 Z" id="Path" fill="#2D3166"></path>
                        <path d="M11.9227582,22.1275425 C12.2992664,20.9920599 15.1356278,21.2501241 15.9388452,21.5081883 C17.3193751,21.9727039 18.3735979,23.1597994 18.423799,24.6823783 C18.4488996,25.5081838 19.7039268,25.5081838 19.6788262,24.6823783 C19.578424,22.5146388 18.097492,20.7598021 16.0643479,20.1920608 C14.4830137,19.7533516 11.3203452,19.8049645 10.6928316,21.7662526 C10.4669267,22.5920581 11.6717528,22.9275416 11.9227582,22.1275425 L11.9227582,22.1275425 Z" id="Path" fill="#2D3166"></path>
                    </g>
                    <path d="M334.98848,95.0662605 C334.98848,95.0662605 326.906105,97.9049669 326.730402,99.556578 C326.554698,101.208189 326.730402,122.317843 326.730402,122.317843 L336.042703,96.87271 L336.745519,94.730777 L334.98848,95.0662605 Z" id="Path" fill="#F69D79"></path>
                    <path d="M347.463451,94.1372293 C347.463451,94.1372293 339.431277,93.4146494 339.682282,94.4727127 C339.958388,95.5307761 340.410198,97.2856128 340.410198,97.2856128 L344.300782,99.556578 L347.463451,94.1372293 Z" id="Path" fill="#F69D79"></path>
                    <path d="M295.160756,46.4488422 L266.554986,219.158584 L256.603307,225.876245 L85.81498,301.696285 C85.81498,301.696285 13.931103,193.484697 81.2778534,100.036203 C148.624604,6.58770813 295.160756,46.4488422 295.160756,46.4488422 Z" id="Path" fill="url(#radialGradient-1)" transform="translate(173.819683, 169.848506) rotate(-62.000000) translate(-173.819683, -169.848506) "></path>
                    <path d="M341.364019,190.395185 L329.039652,315.943431 C329.039652,315.943431 312.749399,322.317617 309.611831,316.949881 C306.474263,311.582145 325.349872,168.79521 325.349872,168.79521 L341.364019,190.395185 Z" id="Path" fill="#2D3166"></path>
                    <path d="M335.917201,176.691975 C335.917201,176.691975 335.590893,189.233896 337.573836,189.698412 C339.556779,190.162927 345.781714,191.143572 346.308826,189.440348 C346.835937,187.737124 342.844951,176.485524 342.844951,176.485524 L335.917201,176.691975 Z" id="Path" fill="#E57E80"></path>
                    <path d="M377.4586,304.356347 C377.4586,304.356347 363.101089,311.969242 357.102059,310.498276 C354.140195,309.775696 339.406176,279.040247 332.553728,246.420929 C332.302722,245.18222 332.051717,243.969318 331.800711,242.73061 C330.294679,235.040296 329.039652,227.22095 328.03563,219.788701 C327.759524,217.801606 327.508518,215.814511 327.282614,213.904836 C324.672157,192.820989 323.969342,176.15004 323.969342,176.15004 L335.691296,175.556492 L335.691296,175.556492 L343.597967,175.14359 L350.425315,174.7823 C350.425315,174.7823 350.174309,189.93067 351.504638,209.517744 C351.630141,211.246775 351.755644,213.027418 351.906247,214.808061 C352.684364,224.562889 352.935369,222.575794 352.935369,237.362874 C352.935369,237.362874 366.765769,279.840246 372.463592,293.07894 C375.350155,299.840223 377.4586,304.356347 377.4586,304.356347 Z" id="Path" fill="#394480"></path>
                    <path d="M341.288717,84.9243364 C341.288717,84.9243364 339.707383,95.1436797 341.91623,98.8339982 C344.125078,102.49851 336.845921,100.795286 334.913179,100.537222 C332.980437,100.279158 336.444312,90.4985237 337.373032,85.2340135 C338.301752,79.9436969 341.288717,84.9243364 341.288717,84.9243364 Z" id="Path" fill="#D37477"></path>
                    <path d="M335.540692,105.698507 C335.540692,105.698507 331.675209,105.827548 329.742467,112.537209 C327.809725,119.246878 305.620844,177.51778 305.620844,177.51778 C305.620844,177.51778 331.524605,179.143585 335.013581,176.304879 C338.502557,173.466172 341.338918,103.969476 341.338918,103.969476 L339.255573,97.8275477 L335.540692,105.698507 Z" id="Path" fill="#F69D79"></path>
                    <path d="M329.403227,121.643531 L300.330182,115.004974 L290.897568,120.208589 C297.275205,125.441623 302.701755,129.136629 307.177219,131.293608 C311.652683,133.450586 318.969818,135.897481 329.128625,138.634291 L329.403227,121.643531 Z" id="Path" fill="#F69D79" transform="translate(310.150397, 126.819633) rotate(-29.000000) translate(-310.150397, -126.819633) "></path>
                    <path d="M284.436755,128.107489 C285.121939,128.179183 285.837632,127.643523 285.890909,126.52567 C285.920367,125.907589 285.75532,124.992878 285.39577,123.781538 L276.469726,115.925908 L272.770292,113.293943 L271.314851,112.567648 L270.055365,113.712993 L269.21203,115.174297 L269.994079,116.313888 C271.78914,117.785914 272.865888,118.75385 273.224322,119.217694 C273.769166,119.92277 276.099457,121.633292 280.215195,124.349259 C281.34067,125.478425 282.068096,126.272053 282.397475,126.730141 C283.544523,128.325417 283.560657,128.015818 284.436755,128.107489 Z" id="Path" fill="#394480" transform="translate(277.553142, 120.340745) scale(-1, 1) rotate(-45.000000) translate(-277.553142, -120.340745) "></path>
                    <path d="M268.733438,122.924628 C268.204889,123.01609 267.525388,123.085053 266.694936,123.131517 C265.864483,123.177982 264.700543,122.487424 263.203115,121.059843 L270.883697,111.351069 C271.971015,112.600832 272.795418,113.785666 273.356906,114.905572 C273.918394,116.025477 274.040644,117.526516 273.723656,119.408689 C272.8909,120.633864 272.19313,121.44471 271.630346,121.841228 C271.067563,122.237746 270.101927,122.59888 268.733438,122.924628 Z" id="Path" fill="#394480" transform="translate(268.549172, 117.242392) rotate(-45.000000) translate(-268.549172, -117.242392) "></path>
                    <path d="M336.745519,95.7630339 C339.079869,94.5243256 341.89113,98.1888376 344.300782,97.1565807 C346.459429,96.2275495 347.312847,92.2017476 347.789758,95.1952926 C348.467472,99.5307716 347.689356,127.16945 352.257654,145.646849 C356.700451,163.659732 354.667307,181.104873 354.140195,183.066161 C353.788788,184.330676 352.006649,189.620993 344.67729,185.801642 C326.6551,176.459717 312.598796,186.730673 313.552616,181.362937 C319.626948,146.808138 324.948263,101.982382 330.79669,99.556578 C333.13104,98.6017403 335.139084,96.6146458 336.745519,95.7630339 Z" id="Path" fill="#F9B17C"></path>
                    <path d="M335.615883,62.5574506 C335.157387,63.0486115 334.67364,63.5399795 334.190102,64.0056932 C331.365675,66.6710823 322.935987,75.513428 327.299236,82.3012298 C331.064414,88.1191384 341.847447,87.9280706 344.205711,83.5990858 C346.563976,79.270101 352.921482,67.5460088 348.16976,65.0453803 C343.644459,62.6455048 339.768437,58.0341783 335.615883,62.5574506 Z" id="Path" fill="#E57E80" transform="translate(337.978963, 73.706285) rotate(-36.000000) translate(-337.978963, -73.706285) "></path>
                    <path d="M331.926214,66.2146801 C331.926214,66.2146801 326.755502,70.911449 323.768537,71.7888674 C321.358885,72.5114472 326.855904,77.9307959 328.03563,75.8146693 C329.215355,73.6727362 331.926214,66.2146801 331.926214,66.2146801 Z" id="Path" fill="#E9595A"></path>
                    <ellipse id="Oval" fill="#171339" transform="translate(336.265405, 70.067223) rotate(9.964976) translate(-336.265405, -70.067223) " cx="336.265405" cy="70.0672228" rx="1.31051848" ry="3.26517812"></ellipse>
                    <ellipse id="Oval" fill="#171339" cx="331.499505" cy="81.3888565" rx="1.45583153" ry="1.49677251"></ellipse>
                    <path d="M344.827894,66.2662929 C344.827894,66.2662929 340.836907,63.7888764 336.745519,61.3888791 C328.838847,56.7695294 331.876013,54.7824349 335.716396,53.5437266 C350.626119,48.743732 344.702391,51.9953413 349.521695,58.1630763 C354.341,64.3308112 354.140195,67.246937 356.424345,67.1695177 C363.728603,66.9888728 348.618076,75.4533793 350.952426,79.7114391 C352.132152,81.8791786 344.099978,87.1694952 344.275682,83.6856281 C344.451385,80.2017611 348.668277,79.0404721 347.513652,73.3372527 C346.384127,67.6340333 344.827894,66.2662929 344.827894,66.2662929 Z" id="Path" fill="#171338"></path>
                    <path d="M367.443483,296.640227 C367.443483,296.640227 374.471636,307.685376 376.98169,310.704727 C379.692549,313.982143 385.064065,319.427298 381.349185,321.517618 C377.659405,323.607938 347.262646,344.22727 345.982519,341.853079 C344.727491,339.478888 342.292739,337.646632 345.028698,335.272441 C347.764657,332.89825 358.181383,326.240193 361.519755,322.627294 C366.213557,317.517623 366.916372,313.20795 365.661345,311.633758 C364.431418,310.059566 359.160304,301.311189 359.160304,301.311189 L367.443483,296.640227 Z" id="Path" fill="#394480"></path>
                    <path d="M345.982519,341.853079 C345.982519,341.853079 344.777692,341.182112 345.254603,340.485339 C345.731513,339.788565 354.290799,337.569213 359.612114,334.162765 C364.933429,330.756317 383.131323,320.046652 382.428508,318.446654 L384.235747,321.543425 C384.235747,321.543425 348.316869,343.478884 346.50963,342.807917 L345.982519,341.853079 Z" id="Path" fill="#2D3166"></path>
                    <path d="M358.658293,325.388581 C359.46151,322.601488 362.699481,321.517618 364.782826,323.659551 C365.360138,324.253099 366.238657,323.349874 365.661345,322.756326 C362.925386,319.91762 358.53279,321.36278 357.453467,325.053098 C357.202462,325.853097 358.432388,326.188581 358.658293,325.388581 L358.658293,325.388581 Z" id="Path" fill="#2D3166"></path>
                    <path d="M352.659263,329.698254 C352.50866,328.201482 355.319921,327.091805 356.399244,327.040192 C357.704472,326.962773 358.934399,327.582127 359.587013,328.769223 C359.988622,329.491803 361.067945,328.846642 360.666337,328.124062 C359.687415,326.395032 357.754674,325.517614 355.821932,325.827291 C354.190396,326.085355 351.178331,327.63374 351.404236,329.698254 C351.479538,330.52406 352.734565,330.52406 352.659263,329.698254 L352.659263,329.698254 Z" id="Path" fill="#2D3166"></path>
                    <ellipse id="Oval" fill="#E9595A" cx="338.100948" cy="76.9759583" rx="3.18776904" ry="1.47096608"></ellipse>
                    <path d="M281.914066,119.815501 L281.914066,119.480018 C282.54158,119.763888 283.4954,118.938083 283.4954,118.938083 C285.202237,120.460662 286.105857,119.273566 286.105857,119.273566 L285.377941,118.809051 C285.754449,118.680019 285.854851,118.24131 285.854851,118.24131 C285.854851,118.24131 284.624925,116.43486 283.846808,116.43486 C283.721305,116.43486 283.545601,116.43486 283.344797,116.460666 L282.165071,115.015507 C282.165071,115.015507 280.70924,115.196152 279.303609,115.376797 C278.475292,114.70583 277.49637,113.98325 276.969259,113.957443 C276.11584,113.931637 271.49734,116.331634 271.49734,116.79615 C271.49734,117.260665 273.681088,121.183242 273.681088,121.183242 L273.354781,122.757433 L288.54061,128.331621 L291.452273,124.538077 C291.452273,124.538077 287.109879,126.009043 283.846808,123.660658 C282.717283,122.78324 281.914066,121.312274 281.914066,119.815501 Z" id="Path" fill="#E57E80"></path>
                    <polygon id="Path" fill="#F9B17C" points="296.393065 120.438876 291.222353 117.342105 282.587766 127.40661 291.498459 129.084028"></polygon>
                    <path d="M294.677007,132.43396 C297.337665,132.872669 299.998323,133.414604 302.63388,134.059765 C302.784483,134.111378 302.859785,133.853314 302.709181,133.801701 C300.073624,133.15654 297.438067,132.614605 294.752309,132.175896 C294.601706,132.15009 294.526404,132.408154 294.677007,132.43396 L294.677007,132.43396 Z" id="Path" fill="#F69D79"></path>
                    <path d="M296.936056,131.117833 C299.697116,131.917832 302.458176,132.640412 305.269437,133.233959 C305.42004,133.259766 305.495342,133.027508 305.344738,132.975895 C302.533478,132.382347 299.772418,131.659768 297.011358,130.859768 C296.835654,130.833962 296.760352,131.092026 296.936056,131.117833 L296.936056,131.117833 Z" id="Path" fill="#F69D79"></path>
                    <path d="M298.341687,129.98235 C300.500333,130.446866 302.63388,130.962994 304.767426,131.556542 C304.918029,131.608155 304.993331,131.350091 304.842728,131.298478 C302.709181,130.70493 300.575635,130.188802 298.416988,129.724286 C298.266385,129.698479 298.191083,129.956544 298.341687,129.98235 L298.341687,129.98235 Z" id="Path" fill="#F69D79"></path>
                    <path d="M298.391888,127.298482 C301.654958,128.304933 304.96823,129.053319 308.331703,129.569447 C308.482306,129.595254 308.557608,129.33719 308.407005,129.311383 C305.043532,128.795255 301.73026,128.046868 298.467189,127.040418 C298.316586,127.014612 298.241285,127.246869 298.391888,127.298482 L298.391888,127.298482 Z" id="Path" fill="#F69D79"></path>
                    <path d="M301.152948,126.292032 C303.914007,127.16945 306.725268,127.969449 309.56163,128.666223 C309.712233,128.717835 309.787535,128.459771 309.636931,128.408158 C306.80057,127.711385 304.01441,126.911386 301.228249,126.033967 C301.077646,125.982355 301.002344,126.240419 301.152948,126.292032 L301.152948,126.292032 Z" id="Path" fill="#F69D79"></path>
                    <path d="M298.115782,128.408158 C300.927043,129.130738 303.738304,129.775899 306.574665,130.369446 C306.725268,130.395253 306.80057,130.162995 306.649967,130.111382 C303.813605,129.517835 301.002344,128.872674 298.191083,128.150094 C298.01538,128.124288 297.940078,128.356546 298.115782,128.408158 L298.115782,128.408158 Z" id="Path" fill="#F69D79"></path>
                    <path d="M330.947293,104.098508 C330.620986,104.537218 330.545684,105.130765 330.696287,105.646894 C330.82179,106.085603 331.449304,106.317861 331.75051,105.930764 C332.127018,105.440442 332.352923,104.872701 332.302722,104.22754 C332.252521,103.788831 331.800711,103.375929 331.348902,103.659799 C330.947293,103.94367 330.671187,104.30496 330.520584,104.795282 C330.922192,104.846895 331.348902,104.898507 331.75051,104.975927 C331.75051,104.821088 331.75051,104.640443 331.775611,104.485605 C331.775611,104.124315 331.474404,103.840444 331.148097,103.840444 C330.79669,103.840444 330.520584,104.124315 330.520584,104.485605 C330.520584,104.640443 330.520584,104.821088 330.495483,104.975927 C330.470383,105.698507 331.549706,105.853345 331.72541,105.156572 C331.775611,104.975927 331.825812,104.872701 331.976415,104.795282 C331.650108,104.614637 331.348902,104.433992 331.022595,104.22754 C331.047695,104.511411 331.022595,104.795282 330.846891,105.02754 C331.198298,105.130765 331.549706,105.208185 331.901114,105.31141 C331.850912,105.104959 331.876013,104.975927 332.026616,104.769475 C332.227421,104.485605 332.076817,104.046896 331.800711,103.892057 C331.474404,103.659799 331.148097,103.814638 330.947293,104.098508 L330.947293,104.098508 Z" id="Path" fill="#F69D79"></path>
                    <path d="M329.842869,112.201725 C329.340858,112.614628 329.140054,113.414627 329.391059,114.008175 C329.591864,114.47269 330.043673,114.601722 330.445282,114.292045 C330.922192,113.904949 331.223399,113.208175 331.148097,112.588821 C331.047695,111.788822 329.86797,111.401726 329.616964,112.330757 C329.391059,113.130756 330.595885,113.46624 330.82179,112.666241 C330.82179,112.640434 330.82179,112.640434 330.846891,112.614628 C330.79669,112.717853 330.746489,112.795273 330.696287,112.898498 C330.696287,112.898498 330.721388,112.872692 330.721388,112.872692 C330.620986,112.924305 330.545684,112.975918 330.445282,113.027531 C330.445282,113.027531 330.470383,113.027531 330.470383,113.027531 C330.36998,113.027531 330.244478,113.027531 330.144076,113.027531 C330.068774,113.001724 330.018573,112.950111 329.968372,112.872692 C329.918171,112.717853 329.918171,112.692047 329.918171,112.821079 C329.943271,112.769466 329.918171,112.795273 329.918171,112.872692 C329.918171,112.924305 329.89307,112.975918 329.86797,113.027531 C329.817768,113.130756 329.717366,113.259788 329.591864,113.363014 C329.943271,113.46624 330.294679,113.543659 330.646086,113.646885 C330.620986,113.595272 330.620986,113.569465 330.595885,113.517853 C330.570785,113.440433 330.570785,113.414627 330.595885,113.46624 C330.595885,113.363014 330.570785,113.46624 330.595885,113.337208 C330.620986,113.233982 330.671187,113.182369 330.771589,113.079143 C331.022595,112.846886 330.997494,112.408176 330.771589,112.175919 C330.470383,111.917854 330.118975,111.969467 329.842869,112.201725 L329.842869,112.201725 Z" id="Path" fill="#F69D79"></path>
                    <path d="M328.989451,120.201716 C328.48744,120.356555 328.161133,120.82107 328.110931,121.363005 C328.085831,121.672682 328.211334,122.008166 328.462339,122.188811 C328.713345,122.369455 329.140054,122.343649 329.41616,122.214617 C329.692266,122.111391 329.86797,121.90494 329.86797,121.595263 C329.86797,121.440424 329.89307,121.259779 329.89307,121.104941 C329.918171,120.769457 329.591864,120.433974 329.265556,120.45978 C328.914149,120.485587 328.663143,120.743651 328.638043,121.104941 C328.638043,121.259779 328.612942,121.440424 328.612942,121.595263 C328.763546,121.388811 328.914149,121.18236 329.064752,120.975909 C329.039652,121.001715 328.989451,121.001715 328.96435,121.001715 C328.889048,121.027522 328.889048,121.027522 328.939249,121.001715 C328.989451,121.001715 328.989451,121.001715 328.914149,121.001715 C328.989451,121.001715 328.989451,121.001715 328.914149,121.001715 C329.039652,121.104941 329.165154,121.208166 329.290657,121.285586 C329.290657,121.311392 329.340858,121.414618 329.315758,121.337199 C329.365959,121.517844 329.315758,121.414618 329.315758,121.363005 C329.340858,121.311392 329.315758,121.466231 329.315758,121.414618 C329.315758,121.388811 329.315758,121.388811 329.315758,121.363005 C329.340858,121.311392 329.315758,121.337199 329.290657,121.414618 C329.290657,121.414618 329.340858,121.337199 329.340858,121.337199 C329.340858,121.337199 329.240456,121.440424 329.315758,121.363005 C329.391059,121.285586 329.240456,121.414618 329.290657,121.388811 C329.365959,121.363005 329.140054,121.440424 329.265556,121.388811 C329.566763,121.285586 329.817768,120.924296 329.692266,120.588812 C329.667165,120.330748 329.315758,120.09849 328.989451,120.201716 L328.989451,120.201716 Z" id="Path" fill="#F69D79"></path>
                    <path d="M328.136032,128.9759 C328.136032,129.311383 328.136032,129.62106 328.136032,129.956544 C328.136032,130.266221 328.387037,130.550091 328.688244,130.601704 C328.96435,130.653317 329.315758,130.446866 329.365959,130.137189 C329.44126,129.698479 329.391059,129.311383 329.190255,128.924287 C329.039652,128.640416 328.612942,128.511384 328.336836,128.692029 C328.06073,128.872674 327.935228,129.25977 328.110931,129.569447 C328.136032,129.595254 328.161133,129.646867 328.136032,129.569447 C328.161133,129.62106 328.161133,129.672673 328.186233,129.724286 C328.211334,129.801705 328.186233,129.646867 328.186233,129.724286 C328.186233,129.750092 328.161133,129.879124 328.186233,129.775899 C328.587842,129.827512 329.014551,129.879124 329.41616,129.956544 C329.41616,129.62106 329.41616,129.311383 329.41616,128.9759 C329.41616,128.640416 329.114953,128.304933 328.788646,128.330739 C328.437239,128.356546 328.136032,128.61461 328.136032,128.9759 L328.136032,128.9759 Z" id="Path" fill="#F69D79"></path>
                    <path d="M327.508518,137.001697 C327.182211,137.517826 327.10691,138.162986 327.282614,138.730727 C327.383016,139.066211 327.734423,139.298469 328.06073,139.169437 C328.863948,138.911372 329.165154,137.801696 328.537641,137.182342 C327.960328,136.614601 327.056709,137.517826 327.659122,138.085567 C327.759524,138.162986 327.659122,138.05976 327.634021,138.008148 C327.634021,137.930728 327.634021,137.930728 327.634021,137.982341 C327.659122,137.904922 327.659122,137.904922 327.634021,137.956535 C327.634021,138.008148 327.634021,137.982341 327.659122,137.930728 C327.634021,137.982341 327.634021,137.982341 327.659122,137.956535 C327.684222,137.930728 327.684222,137.930728 327.634021,137.982341 C327.659122,137.956535 327.684222,137.930728 327.734423,137.904922 C327.985429,138.05976 328.261535,138.214599 328.51254,138.343631 C328.437239,138.085567 328.462339,137.879115 328.612942,137.595245 C328.788646,137.311374 328.663143,136.872665 328.387037,136.717826 C328.06073,136.588794 327.684222,136.717826 327.508518,137.001697 L327.508518,137.001697 Z" id="Path" fill="#F69D79"></path>
                    <path d="M326.680201,145.646849 C326.680201,146.059751 326.680201,146.446848 326.705301,146.85975 C326.705301,147.169428 326.981407,147.530717 327.332815,147.504911 C327.759524,147.453298 328.136032,147.246847 328.336836,146.85975 C328.537641,146.472654 328.537641,146.008139 328.336836,145.621042 C327.935228,144.898462 326.855904,145.543623 327.257513,146.266203 C327.232412,146.188783 327.232412,146.188783 327.257513,146.266203 C327.257513,146.188783 327.257513,146.188783 327.257513,146.266203 C327.257513,146.240396 327.257513,146.21459 327.257513,146.21459 C327.232412,146.292009 327.232412,146.292009 327.257513,146.21459 C327.232412,146.266203 327.207312,146.266203 327.257513,146.240396 C327.282614,146.21459 327.282614,146.21459 327.232412,146.266203 C327.282614,146.21459 327.282614,146.21459 327.232412,146.266203 C327.257513,146.240396 327.307714,146.240396 327.332815,146.240396 C327.533619,146.446848 327.759524,146.679106 327.960328,146.885557 C327.960328,146.472654 327.960328,146.085558 327.935228,145.672655 C327.935228,144.795237 326.680201,144.795237 326.680201,145.646849 L326.680201,145.646849 Z" id="Path" fill="#F69D79"></path>
                    <path d="M326.303692,156.82103 C326.353893,156.872642 326.328793,156.846836 326.303692,156.82103 C326.278592,156.717804 326.328793,156.769417 326.303692,156.795223 C326.303692,156.769417 326.303692,156.769417 326.303692,156.74361 C326.303692,156.769417 326.303692,156.795223 326.303692,156.82103 C326.278592,156.872642 326.278592,156.898449 326.253491,156.950062 C326.20329,157.208126 326.228391,157.46619 326.353893,157.698448 C326.629999,158.18877 327.232412,158.343608 327.659122,157.930706 C327.910127,157.698448 327.910127,157.233932 327.659122,157.027481 C327.408116,156.769417 327.031608,156.795223 326.780603,157.027481 C327.031608,156.795223 327.483418,156.846836 327.483418,157.182319 C327.483418,157.285545 327.458317,157.259739 327.483418,157.156513 C327.483418,157.1049 327.508518,157.053287 327.508518,157.001675 C327.55872,156.717804 327.55872,156.38232 327.383016,156.150063 C327.182211,155.891998 326.830804,155.711353 326.529597,155.917805 C326.278592,156.09845 326.102888,156.537159 326.303692,156.82103 L326.303692,156.82103 Z" id="Path" fill="#F69D79"></path>
                    <path d="M325.400073,165.646826 C325.324771,166.162955 325.374972,166.62747 325.625978,167.066179 C325.801681,167.427469 326.353893,167.504888 326.604899,167.195211 C326.855904,166.911341 326.956306,166.550051 326.855904,166.188761 C326.755502,165.879084 326.429195,165.62102 326.077787,165.750052 C325.776581,165.853277 325.525575,166.188761 325.651078,166.550051 C325.676179,166.62747 325.676179,166.62747 325.651078,166.524244 C325.651078,166.446825 325.676179,166.369406 325.72638,166.291987 C326.052687,166.343599 326.378994,166.369406 326.705301,166.421019 C326.705301,166.421019 326.629999,166.240374 326.6551,166.343599 C326.629999,166.291987 326.629999,166.214567 326.604899,166.162955 C326.579798,166.033922 326.579798,166.214567 326.604899,166.085535 C326.604899,166.059729 326.604899,165.879084 326.604899,166.008116 C326.6551,165.672632 326.529597,165.311343 326.17819,165.208117 C325.876983,165.130698 325.450274,165.285536 325.400073,165.646826 L325.400073,165.646826 Z" id="Path" fill="#F69D79"></path>
                    <path d="M324.973364,174.472623 C324.973364,174.679074 324.973364,174.911332 324.973364,175.117783 C325.400073,175.117783 325.801681,175.117783 326.228391,175.117783 C326.228391,174.937138 326.228391,174.7823 326.228391,174.601655 C326.228391,174.266171 325.952285,173.930688 325.600877,173.956494 C325.24947,173.982301 324.973364,174.240365 324.973364,174.601655 C324.973364,174.7823 324.973364,174.937138 324.973364,175.117783 C324.973364,175.453267 325.24947,175.78875 325.600877,175.762944 C325.952285,175.737137 326.228391,175.479073 326.228391,175.117783 C326.228391,174.911332 326.228391,174.679074 326.228391,174.472623 C326.228391,174.137139 325.952285,173.801656 325.600877,173.827462 C325.27457,173.853268 324.973364,174.111333 324.973364,174.472623 L324.973364,174.472623 Z" id="Path" fill="#F69D79"></path>
                    <g id="Group" transform="translate(310.063641, 156.098450)">
                        <g transform="translate(26.355571, 51.255695)" fill="#394480">
                            <g id="SVGID_3_-link">
                                <path d="M7.00305167,6.49907902 L3.5642772,4.58940376 C3.48897557,4.53779091 3.41367393,4.46037165 3.3383723,4.35714596 C2.3594511,2.93779272 1.33032881,1.5442459 0.301206524,0.176505507 C0.251005436,0.124892662 0.200804349,0.0732798173 0.125502718,0.0216669722 L3.5642772,1.93134224 C3.63957883,1.95714866 3.68977991,2.00876151 3.739981,2.08618077 C4.76910329,3.45392117 5.77312504,4.84746798 6.77714678,6.26682122 C6.85244841,6.39585333 6.92775004,6.44746618 7.00305167,6.49907902 Z" id="SVGID_3_"></path>
                            </g>
                            <path d="M7.00305167,6.49907902 L3.5642772,4.58940376 C3.48897557,4.53779091 3.41367393,4.46037165 3.3383723,4.35714596 C2.3594511,2.93779272 1.33032881,1.5442459 0.301206524,0.176505507 C0.251005436,0.124892662 0.200804349,0.0732798173 0.125502718,0.0216669722 L3.5642772,1.93134224 C3.63957883,1.95714866 3.68977991,2.00876151 3.739981,2.08618077 C4.76910329,3.45392117 5.77312504,4.84746798 6.77714678,6.26682122 C6.85244841,6.39585333 6.92775004,6.44746618 7.00305167,6.49907902" id="Path"></path>
                        </g>
                        <g transform="translate(40.411875, 9.743389)" fill="#394480">
                            <g id="SVGID_5_-link">
                                <path d="M6.02413047,0.0888576523 L9.46290495,1.99853292 C9.38760332,1.94692007 9.28720115,1.92111365 9.16169843,1.94692007 C9.0863968,1.94692007 8.98599462,1.99853292 8.88559245,2.02433934 C8.45888321,2.23079072 7.98197288,2.33401641 7.53016309,2.46304852 C6.22493482,2.87595128 4.91970655,3.28885404 3.53917665,3.72756323 L0.100402175,1.81788796 C1.48093207,1.37917878 2.78616034,0.966276018 4.09138861,0.553373258 C4.5431984,0.424341145 5.02010873,0.321115455 5.44681797,0.114664075 C5.54722014,0.0630512298 5.64762232,0.0372448072 5.72292395,0.0372448072 C5.84842667,0.0372448072 5.94882884,0.0372448072 6.02413047,0.0888576523 Z" id="SVGID_5_"></path>
                            </g>
                            <g transform="translate(0.000000, 0.063051)" id="Path">
                                <path d="M3.5642772,3.69031842 L0.125502718,1.78064315 C1.50603262,1.34193397 2.81126089,0.929031211 4.11648916,0.51612845 C4.56829894,0.387096338 5.04520927,0.283870648 5.47191851,0.0774192676 C5.57232069,0.0258064225 5.67272286,-2.27373675e-13 5.74802449,-2.27373675e-13 C5.82332612,-2.27373675e-13 5.87352721,-2.27373675e-13 5.94882884,-2.27373675e-13 L9.38760332,1.90967527 C9.33740223,1.88386884 9.2621006,1.88386884 9.18679897,1.90967527 C9.11149734,1.90967527 9.01109517,1.96128811 8.91069299,1.98709453 C8.48398375,2.19354591 8.00707342,2.2967716 7.55526363,2.42580372 C6.25003537,2.83870648 4.9448071,3.25160924 3.5642772,3.69031842"></path>
                                <path d="M9.36250278,1.90967527 L5.9237283,0 C5.94882884,0 5.97392939,0.0258064225 5.99902993,0.0258064225 L9.43780441,1.93548169 C9.43780441,1.93548169 9.38760332,1.90967527 9.36250278,1.90967527"></path>
                                <path d="M9.46290495,1.93548169 L6.02413047,0.0258064225 C6.02413047,0.0258064225 6.02413047,0.0258064225 6.04923102,0.0258064225 L9.46290495,1.93548169 C9.46290495,1.93548169 9.46290495,1.93548169 9.46290495,1.93548169"></path>
                            </g>
                        </g>
                        <g transform="translate(40.315506, 11.354826)" fill="#394480">
                            <g id="SVGID_7_-link">
                                <path d="M3.45984172,2.0645138 L0.0210672459,0.154838535 C0.0963688768,0.20645138 0.171670508,0.20645138 0.221871595,0.232257803 L3.66064607,2.14193307 C3.63554553,2.11612665 3.53514336,2.09032022 3.45984172,2.0645138 Z" id="SVGID_7_"></path>
                            </g>
                            <g id="Path">
                                <path d="M3.45984172,2.0645138 L0.0210672459,0.154838535 C0.0210672459,0.154838535 0.0461677896,0.154838535 0.0461677896,0.154838535 L3.45984172,2.0645138 C3.48494227,2.0645138 3.48494227,2.0645138 3.45984172,2.0645138"></path>
                                <path d="M3.48494227,2.0645138 L0.0461677896,0.154838535 C0.12146942,0.180644958 0.196771051,0.20645138 0.221871595,0.232257803 L3.66064607,2.14193307 C3.63554553,2.11612665 3.5602439,2.11612665 3.48494227,2.0645138"></path>
                            </g>
                        </g>
                        <g transform="translate(19.327419, 39.936904)" fill="#394480">
                            <g id="SVGID_9_-link">
                                <path d="M3.43877448,1.92111365 L0,0.0114383847 C1.68173642,0.966276018 3.68977991,1.35337236 5.84842667,1.06950171 L9.28720115,2.97917697 C7.12855439,3.26304762 5.14561145,2.85014486 3.43877448,1.92111365 Z" id="SVGID_9_"></path>
                            </g>
                            <g id="Path">
                                <path d="M3.43877448,1.92111365 L0,0.0114383847 C0.100402175,0.0630512298 0.225904893,0.140470497 0.326307067,0.192083342 L3.76508155,2.10175861 C3.66467937,2.02433934 3.5642772,1.9727265 3.43877448,1.92111365"></path>
                                <path d="M3.79018209,2.10175861 L0.351407611,0.192083342 C0.903619571,0.47595399 1.48093207,0.68240537 2.08334512,0.863050328 L5.5221196,2.77272559 C4.91970655,2.59208064 4.34239405,2.35982283 3.79018209,2.10175861"></path>
                                <path d="M5.5221196,2.74691917 L2.08334512,0.837243905 C3.26307067,1.14692098 4.51809785,1.22434024 5.84842667,1.04369529 L9.28720115,2.95337055 C7.95687233,3.15982193 6.70184515,3.05659624 5.5221196,2.74691917"></path>
                            </g>
                        </g>
                        <g transform="translate(25.100544, 17.548367)" fill="#394480">
                            <g id="SVGID_11_-link">
                                <path d="M5.99902993,0.051612845 L9.43780441,1.96128811 C12.5502718,3.69031842 14.5834159,7.27741115 14.5583153,11.6903094 C14.5081142,18.2967536 9.53820658,24.4644885 3.51407611,25.3419069 L0.0753016309,23.4322316 C6.0994321,22.5548133 11.0693397,16.3870783 11.1195408,9.78063414 C11.1446414,5.36773588 9.11149734,1.80644958 5.99902993,0.051612845 Z" id="SVGID_11_"></path>
                            </g>
                            <g id="Path">
                                <path d="M3.51407611,25.3419069 L0.0753016309,23.4322316 C1.17972555,23.2773931 2.25904893,22.9419096 3.26307067,22.4515876 L6.70184515,24.3612629 C5.69782341,24.8515849 4.61850003,25.1870684 3.51407611,25.3419069"></path>
                                <path d="M6.70184515,24.3612629 L3.26307067,22.4515876 C3.89058426,22.1419105 4.49299731,21.7806206 5.07030981,21.3935243 L8.50908429,23.3031995 C7.93177179,23.7161023 7.32935874,24.0515858 6.70184515,24.3612629"></path>
                                <path d="M8.50908429,23.3031995 L5.07030981,21.3935243 C5.54722014,21.0580408 5.99902993,20.6967509 6.42573917,20.3096545 L9.86451365,22.2193298 C9.41270386,22.6064261 8.98599462,22.967716 8.50908429,23.3031995"></path>
                                <path d="M9.83941311,22.1935234 L6.40063863,20.2838481 C6.80224733,19.9225582 7.17875548,19.5096554 7.53016309,19.0967527 L10.9689376,21.0064279 C10.6426305,21.4451371 10.2410218,21.8322335 9.83941311,22.1935234"></path>
                                <path d="M10.9940381,21.0322344 L7.55526363,19.1225591 C7.90667125,18.7096563 8.25807886,18.2709471 8.55928538,17.8064315 L11.9980599,19.7161068 C11.6717528,20.1806224 11.3454457,20.5935252 10.9940381,21.0322344"></path>
                                <path d="M11.9980599,19.7161068 L8.55928538,17.8064315 C8.88559245,17.3161095 9.18679897,16.8257875 9.46290495,16.309659 L12.9016794,18.2193343 C12.6255734,18.7354627 12.3243669,19.2257848 11.9980599,19.7161068"></path>
                                <path d="M12.9016794,18.2193343 L9.46290495,16.309659 C9.78921202,15.6903049 10.065318,15.0709508 10.2912229,14.3999838 L13.7299974,16.309659 C13.5040925,16.9548196 13.202886,17.5999802 12.9016794,18.2193343"></path>
                                <path d="M13.7299974,16.309659 L10.2912229,14.3999838 C10.8183343,12.9290177 11.0944403,11.3806323 11.1195408,9.80644056 C11.1446414,5.39354231 9.11149734,1.80644958 5.99902993,0.0774192676 L9.43780441,1.98709453 C12.5502718,3.71612484 14.5834159,7.30321757 14.5583153,11.7161158 C14.5332148,13.2903076 14.2571088,14.8386929 13.7299974,16.309659"></path>
                            </g>
                        </g>
                        <g transform="translate(10.040217, 46.094410)" fill="#394480">
                            <g id="SVGID_13_-link">
                                <path d="M4.79420383,10.5764938 L1.35542936,8.66681852 C1.25502718,8.61520567 1.15462501,8.56359283 1.05422283,8.48617356 C0.803217396,8.33133502 0.702815222,8.17649649 0.753016309,7.81520657 C1.05422283,5.85391846 1.33032881,3.89263035 1.58133425,1.93134224 C1.60643479,1.69908444 1.50603262,1.41521379 1.3805299,1.26037525 C1.12952446,0.950698183 0.778116853,0.770053225 0.55221196,0.434569733 C0.426709242,0.253924775 0.27610598,0.124892662 0.125502718,0.0216669722 L3.5642772,1.93134224 C3.71488046,2.00876151 3.86548372,2.13779362 3.99098644,2.344245 C4.21689133,2.67972849 4.59339949,2.86037345 4.81930438,3.17005052 C4.9448071,3.32488905 5.04520927,3.6087597 5.02010873,3.84101751 C4.76910329,5.80230562 4.49299731,7.76359373 4.19179079,9.72488184 C4.1415897,10.0861718 4.21689133,10.2410103 4.49299731,10.3958488 C4.59339949,10.4732681 4.69380166,10.5248809 4.79420383,10.5764938 Z" id="SVGID_13_"></path>
                            </g>
                            <path d="M4.79420383,10.5764938 L1.35542936,8.66681852 C1.25502718,8.61520567 1.15462501,8.56359283 1.05422283,8.48617356 C0.803217396,8.33133502 0.702815222,8.17649649 0.753016309,7.81520657 C1.05422283,5.85391846 1.33032881,3.89263035 1.58133425,1.93134224 C1.60643479,1.69908444 1.50603262,1.41521379 1.3805299,1.26037525 C1.12952446,0.950698183 0.778116853,0.770053225 0.55221196,0.434569733 C0.426709242,0.253924775 0.27610598,0.124892662 0.125502718,0.0216669722 L3.5642772,1.93134224 C3.71488046,2.00876151 3.86548372,2.13779362 3.99098644,2.344245 C4.21689133,2.67972849 4.59339949,2.86037345 4.81930438,3.17005052 C4.9448071,3.32488905 5.04520927,3.6087597 5.02010873,3.84101751 C4.76910329,5.80230562 4.49299731,7.76359373 4.19179079,9.72488184 C4.1415897,10.0861718 4.21689133,10.2410103 4.49299731,10.3958488 C4.59339949,10.4732681 4.69380166,10.5248809 4.79420383,10.5764938" id="Path"></path>
                        </g>
                        <g transform="translate(24.347527, 0.000000)" fill="#394480">
                            <g id="SVGID_15_-link">
                                <path d="M3.43877448,8.28386163 L0,6.37418636 C0.351407611,6.29676709 0.577312504,6.24515425 0.803217396,6.1935414 C0.953820658,6.16773498 1.10442392,6.16773498 1.25502718,6.16773498 C1.35542936,6.16773498 1.43073099,6.16773498 1.53113316,6.14192856 C2.00804349,6.06450929 2.33435056,5.78063864 2.63555708,5.23870377 C3.53917665,3.664512 4.51809785,2.14193307 5.42171743,0.567741295 C5.59742123,0.283870648 5.74802449,0.154838535 5.97392939,0.129032113 C6.04923102,0.129032113 6.14963319,0.129032113 6.25003537,0.129032113 C9.31230169,0.41290276 12.1737637,1.31612755 14.8093207,2.81290005 L18.2480952,4.72257532 C15.6125381,3.22580282 12.7510762,2.32257803 9.68880984,2.03870738 C9.58840767,2.03870738 9.51310604,2.03870738 9.41270386,2.03870738 C9.18679897,2.0645138 9.03619571,2.19354591 8.8604919,2.47741656 C7.93177179,4.05160834 6.97795113,5.57418726 6.07433156,7.14837904 C5.77312504,7.69031391 5.44681797,7.97418456 4.96990764,8.05160383 C4.89460601,8.05160383 4.79420383,8.07741025 4.69380166,8.07741025 C4.5431984,8.07741025 4.39259514,8.07741025 4.24199187,8.10321667 C4.01608698,8.12903211 3.79018209,8.18063594 3.43877448,8.28386163 Z" id="SVGID_15_"></path>
                            </g>
                            <g id="Path">
                                <path d="M3.43877448,8.28386163 L0,6.37418636 C0.351407611,6.29676709 0.577312504,6.24515425 0.803217396,6.1935414 C0.953820658,6.16773498 1.10442392,6.16773498 1.25502718,6.16773498 C1.35542936,6.16773498 1.43073099,6.16773498 1.53113316,6.14192856 C1.65663588,6.11612214 1.7821386,6.09031571 1.88254077,6.03870287 L5.32131525,7.94837814 C5.22091308,7.99999098 5.09541036,8.0257974 4.96990764,8.05160383 C4.89460601,8.05160383 4.79420383,8.07741025 4.69380166,8.07741025 C4.5431984,8.07741025 4.39259514,8.07741025 4.24199187,8.10321667 C4.01608698,8.12902309 3.79018209,8.18063594 3.43877448,8.28386163"></path>
                                <path d="M5.34641579,7.94837814 L1.90764132,6.03870287 C1.9578424,6.01289645 2.03314403,5.98709002 2.08334512,5.93547718 L5.5221196,7.84515245 C5.44681797,7.89676529 5.39661688,7.92257171 5.34641579,7.94837814"></path>
                                <path d="M5.49701906,7.84515245 L2.05824458,5.93547718 C2.10844567,5.90967076 2.15864675,5.85805791 2.1837473,5.83225149 L5.62252177,7.74192676 C5.59742123,7.76773318 5.54722014,7.81934602 5.49701906,7.84515245"></path>
                                <path d="M5.64762232,7.74192676 L2.20884784,5.83225149 C2.25904893,5.78063864 2.30925001,5.75483222 2.33435056,5.70321938 L5.77312504,7.61289464 C5.72292395,7.63870107 5.69782341,7.69031391 5.64762232,7.74192676"></path>
                                <path d="M5.77312504,7.58708822 L2.33435056,5.67741295 C2.38455165,5.62580011 2.43475273,5.54838084 2.48495382,5.47096157 L5.9237283,7.38063684 C5.87352721,7.45805611 5.82332612,7.53547538 5.77312504,7.58708822"></path>
                                <path d="M5.9237283,7.40644326 L2.48495382,5.496768 C2.53515491,5.41934873 2.58535599,5.34192946 2.63555708,5.26451019 C3.53917665,3.69031842 4.51809785,2.16773949 5.42171743,0.593547718 C5.44681797,0.567741295 5.47191851,0.51612845 5.49701906,0.490322028 L8.93579353,2.39999729 C8.91069299,2.42580372 8.88559245,2.47741656 8.8604919,2.50322298 C7.93177179,4.07741476 6.97795113,5.59999369 6.07433156,7.17418546 C6.02413047,7.25160473 5.97392939,7.329024 5.9237283,7.40644326"></path>
                                <path d="M8.93579353,2.37419087 L5.49701906,0.464515605 C5.5221196,0.41290276 5.54722014,0.387096338 5.57232069,0.361289915 L9.01109517,2.27096518 C8.98599462,2.2967716 8.96089408,2.34838445 8.93579353,2.37419087"></path>
                                <path d="M9.01109517,2.27096518 L5.57232069,0.361289915 C5.59742123,0.335483493 5.62252177,0.30967707 5.64762232,0.283870648 L9.0863968,2.19354591 C9.06129625,2.21935234 9.03619571,2.24515876 9.01109517,2.27096518"></path>
                                <path d="M9.0863968,2.19354591 L5.64762232,0.283870648 C5.67272286,0.258064225 5.69782341,0.258064225 5.72292395,0.232257803 L9.16169843,2.14193307 C9.11149734,2.16773949 9.0863968,2.19354591 9.0863968,2.19354591"></path>
                                <path d="M9.13659788,2.14193307 L5.69782341,0.232257803 C5.72292395,0.20645138 5.74802449,0.20645138 5.77312504,0.180644958 L9.21189951,2.09032022 C9.18679897,2.11612665 9.16169843,2.14193307 9.13659788,2.14193307"></path>
                                <path d="M9.23700006,2.09032022 L5.79822558,0.180644958 C5.84842667,0.154838535 5.9237283,0.129032113 5.97392939,0.129032113 C6.04923102,0.129032113 6.14963319,0.129032113 6.25003537,0.129032113 C7.45486146,0.232257803 8.63458701,0.464515605 9.78921202,0.748386253 L13.2279865,2.65806152 C12.0733615,2.34838445 10.8936359,2.14193307 9.68880984,2.03870738 C9.58840767,2.03870738 9.51310604,2.03870738 9.41270386,2.03870738 C9.33740223,2.0645138 9.28720115,2.0645138 9.23700006,2.09032022"></path>
                                <path d="M13.202886,2.68386794 L9.76411147,0.774192676 C11.1948425,1.16128901 12.5753724,1.67741746 13.8806006,2.34838445 L17.3193751,4.25805972 C16.0141468,3.58709273 14.6336169,3.04515786 13.202886,2.68386794"></path>
                                <path d="M17.3444757,4.25805972 L13.9057012,2.34838445 C14.2069077,2.50322298 14.5081142,2.65806152 14.7842202,2.81290005 L18.2229947,4.72257532 C17.9468887,4.56773679 17.6456822,4.41289825 17.3444757,4.25805972"></path>
                            </g>
                        </g>
                        <g transform="translate(23.845516, 6.193541)" fill="#394480">
                            <g id="SVGID_17_-link">
                                <path d="M3.53917665,2.01290096 L0.100402175,0.10322569 C0.225904893,0.154838535 0.351407611,0.180644958 0.502010873,0.154838535 L3.94078535,2.0645138 C3.79018209,2.11612665 3.63957883,2.09032022 3.53917665,2.01290096 Z" id="SVGID_17_"></path>
                            </g>
                            <g id="Path">
                                <path d="M3.53917665,2.01290096 L0.100402175,0.10322569 C0.100402175,0.10322569 0.125502718,0.10322569 0.125502718,0.10322569 L3.53917665,2.01290096 C3.53917665,2.03870738 3.53917665,2.01290096 3.53917665,2.01290096"></path>
                                <path d="M3.5642772,2.03870738 L0.125502718,0.129032113 C0.150603262,0.154838535 0.200804349,0.154838535 0.225904893,0.180644958 L3.66467937,2.09032022 C3.61447828,2.0645138 3.58937774,2.03870738 3.5642772,2.03870738"></path>
                                <path d="M3.66467937,2.0645138 L0.225904893,0.154838535 C0.301206524,0.180644958 0.401608698,0.180644958 0.502010873,0.154838535 L3.94078535,2.0645138 C3.84038318,2.09032022 3.739981,2.09032022 3.66467937,2.0645138"></path>
                            </g>
                        </g>
                        <g transform="translate(19.829429, 1.548385)" fill="#394480">
                            <g id="SVGID_19_-link">
                                <path d="M0.652614135,0.180644958 L4.09138861,2.09032022 C3.96588589,2.01290096 3.79018209,1.98709453 3.58937774,2.01290096 L0.150603262,0.10322569 C0.351407611,0.0774192676 0.527111416,0.10322569 0.652614135,0.180644958 Z" id="SVGID_19_"></path>
                            </g>
                            <g id="Path">
                                <path d="M3.58937774,2.01290096 L0.150603262,0.10322569 C0.251005436,0.0774192676 0.376508155,0.10322569 0.476910329,0.129032113 L3.91568481,2.03870738 C3.81528263,2.01290096 3.71488046,1.98709453 3.58937774,2.01290096"></path>
                                <path d="M3.91568481,2.03870738 L0.476910329,0.129032113 C0.527111416,0.154838535 0.577312504,0.154838535 0.627513591,0.180644958 L4.06628807,2.09032022 C4.01608698,2.0645138 3.96588589,2.03870738 3.91568481,2.03870738"></path>
                                <path d="M4.06628807,2.09032022 L0.627513591,0.180644958 C0.627513591,0.180644958 0.652614135,0.180644958 0.652614135,0.180644958 L4.06628807,2.09032022 C4.09138861,2.09032022 4.06628807,2.09032022 4.06628807,2.09032022"></path>
                            </g>
                        </g>
                        <g transform="translate(9.538207, 1.548385)" fill="#394480">
                            <g id="SVGID_21_-link">
                                <path d="M3.51407611,16.3612719 L0.0753016309,14.4515966 C0.326307067,14.4257902 0.527111416,14.2967581 0.652614135,14.1419195 C1.10442392,13.6257911 1.53113316,13.0838562 1.9578424,12.5161149 C2.08334512,12.33547 2.1837473,12.0257929 2.13354621,11.8193415 C1.88254077,9.93547267 1.63153534,8.05160383 1.33032881,6.16773498 C1.28012773,5.83225149 1.33032881,5.62580011 1.60643479,5.39354231 C4.31729351,3.04515786 7.25405711,1.2645147 10.4418262,0.0774192676 L13.8806006,1.98709453 C10.7179321,3.17418997 7.75606798,4.95483312 5.04520927,7.30321757 C4.76910329,7.53547538 4.7189022,7.74192676 4.76910329,8.07741927 C5.04520927,9.96127909 5.32131525,11.8451479 5.57232069,13.7290168 C5.59742123,13.9354682 5.5221196,14.2451452 5.39661688,14.4257902 C4.99500818,14.9935315 4.56829894,15.5354664 4.09138861,16.0515948 C3.99098644,16.2064333 3.76508155,16.3354655 3.51407611,16.3612719 Z" id="SVGID_21_"></path>
                            </g>
                            <g id="Path">
                                <path d="M3.51407611,16.3612719 L0.0753016309,14.4515966 C0.175703805,14.4257902 0.27610598,14.3999838 0.376508155,14.3741773 L3.81528263,16.2838526 C3.71488046,16.309659 3.61447828,16.3612719 3.51407611,16.3612719"></path>
                                <path d="M3.81528263,16.2838526 L0.376508155,14.3741773 C0.426709242,14.3483709 0.476910329,14.3225645 0.527111416,14.2967581 L3.96588589,16.2064333 C3.91568481,16.2322398 3.86548372,16.2580462 3.81528263,16.2838526"></path>
                                <path d="M3.96588589,16.1806269 L0.527111416,14.2709517 C0.55221196,14.2451452 0.602413047,14.2193388 0.627513591,14.1935324 L4.06628807,16.1032077 C4.01608698,16.1290141 3.99098644,16.1548205 3.96588589,16.1806269"></path>
                                <path d="M4.06628807,16.1032077 L0.627513591,14.1935324 C0.652614135,14.167726 0.677714678,14.167726 0.677714678,14.1419195 C0.727915765,14.0645003 0.803217396,14.0128874 0.853418484,13.9354682 L4.29219296,15.8451434 C4.24199187,15.9225627 4.16669024,15.9741755 4.11648916,16.0515948 C4.09138861,16.0774012 4.06628807,16.1032077 4.06628807,16.1032077"></path>
                                <path d="M4.29219296,15.8451434 L0.853418484,13.9354682 C1.22992664,13.4709526 1.60643479,13.006437 1.9578424,12.5161149 C1.9578424,12.5161149 1.9578424,12.5161149 1.9578424,12.4903085 L5.39661688,14.3999838 C5.39661688,14.3999838 5.39661688,14.3999838 5.39661688,14.4257902 C5.04520927,14.9161122 4.69380166,15.3806278 4.29219296,15.8451434"></path>
                                <path d="M5.42171743,14.4257902 L1.98294295,12.5161149 C2.00804349,12.4903085 2.00804349,12.4645021 2.03314403,12.4386957 L5.47191851,14.3483709 C5.44681797,14.3741773 5.42171743,14.3999838 5.42171743,14.4257902"></path>
                                <path d="M5.47191851,14.3225645 L2.03314403,12.4128892 C2.05824458,12.3612764 2.08334512,12.3096635 2.08334512,12.2580507 L5.5221196,14.167726 C5.5221196,14.2451452 5.49701906,14.2967581 5.47191851,14.3225645"></path>
                                <path d="M5.5221196,14.1935324 L2.08334512,12.2838571 C2.13354621,12.1290186 2.15864675,11.97418 2.15864675,11.8451479 C1.90764132,9.96127909 1.65663588,8.07741025 1.35542936,6.1935414 C1.33032881,6.01289645 1.33032881,5.88386433 1.3805299,5.75483222 L4.81930438,7.66450749 C4.76910329,7.7935396 4.76910329,7.92257171 4.79420383,8.10321667 C5.07030981,9.98708552 5.34641579,11.8709544 5.59742123,13.7548322 C5.59742123,13.8838553 5.57232069,14.0386939 5.5221196,14.1935324"></path>
                                <path d="M4.81930438,7.66450749 L1.3805299,5.75483222 C1.3805299,5.7290258 1.40563044,5.70321938 1.40563044,5.67741295 L4.84440492,7.58708822 C4.81930438,7.61289464 4.81930438,7.63870107 4.81930438,7.66450749"></path>
                                <path d="M4.84440492,7.58708822 L1.40563044,5.67741295 C1.40563044,5.65160653 1.43073099,5.62580011 1.45583153,5.59999369 L4.89460601,7.50966895 C4.86950547,7.53547538 4.84440492,7.5612818 4.84440492,7.58708822"></path>
                                <path d="M4.86950547,7.53547538 L1.43073099,5.62580011 C1.45583153,5.59999369 1.45583153,5.57418726 1.48093207,5.54838084 L4.91970655,7.45805611 C4.91970655,7.48386253 4.89460601,7.50966895 4.86950547,7.53547538"></path>
                                <path d="M4.9448071,7.45805611 L1.50603262,5.54838084 C1.53113316,5.52257442 1.55623371,5.496768 1.58133425,5.47096157 L5.02010873,7.38063684 C4.99500818,7.40644326 4.96990764,7.43224969 4.9448071,7.45805611"></path>
                                <path d="M5.02010873,7.35483042 L1.58133425,5.44515515 C1.58133425,5.44515515 1.60643479,5.41934873 1.63153534,5.41934873 C2.40965219,4.74838174 3.21286959,4.1290276 4.01608698,3.53547989 L7.45486146,5.44515515 C6.65164406,6.01289645 5.84842667,6.65805701 5.07030981,7.329024 C5.04520927,7.35483042 5.04520927,7.35483042 5.02010873,7.35483042"></path>
                                <path d="M7.42976092,5.44515515 L3.99098644,3.53547989 C5.29621471,2.60644867 6.65164406,1.80644958 8.05727451,1.10967617 L11.496049,3.01935143 C10.1155191,3.71612484 8.76008973,4.51612394 7.42976092,5.44515515"></path>
                                <path d="M11.5211495,3.01935143 L8.08237505,1.10967617 C8.8604919,0.722579831 9.63860876,0.387096338 10.4669267,0.10322569 L13.9057012,2.01290096 C13.0773832,2.32257803 12.2992664,2.65806152 11.5211495,3.01935143"></path>
                            </g>
                        </g>
                        <path d="M53.4390574,32.128996 C53.7151634,32.309641 53.790465,32.5160924 53.7151634,32.8773823 C53.0374487,36.464475 51.8075221,39.8709228 50.050484,43.122532 C49.8998808,43.4064027 49.7492775,43.4838219 49.5484731,43.5096284 C49.4731715,43.5096284 49.3978699,43.5096284 49.3225682,43.5096284 C47.6408318,43.4580155 45.9339949,43.4322091 44.2522584,43.3547898 C44.1769568,43.3547898 44.1016552,43.3547898 44.0263535,43.3547898 C43.8255492,43.3805963 43.6498454,43.4838219 43.4992421,43.7160797 C43.3737394,43.9225311 43.2482367,44.1547889 43.0725329,44.283821 C41.9932095,45.1612394 42.01831,46.1934963 42.2693155,47.3547853 C42.5454215,48.7483321 42.6960247,50.2192982 42.9219296,51.6386515 C42.9721307,51.974135 42.8717285,52.1805863 42.6207231,52.4128441 C39.9349649,54.7354222 37.0233019,56.4902589 33.9108345,57.7031608 C33.8355328,57.7289672 33.7351306,57.7547736 33.6849296,57.78058 C33.4841252,57.8063864 33.3084214,57.7289672 33.1578181,57.4967094 C32.1788969,56.0773561 31.1497747,54.6838093 30.1206524,53.3160689 C29.9700491,53.135424 29.6688426,53.0580047 29.4429377,53.0321983 C29.3927366,53.0321983 29.317435,53.0321983 29.2672339,53.0321983 C29.1919322,53.0321983 29.1166306,53.0580047 29.041329,53.0838111 C28.9660274,53.1096175 28.8907257,53.1096175 28.8154241,53.135424 C28.765223,53.135424 28.6899214,53.135424 28.6397203,53.135424 C28.489117,53.1096175 28.3134132,53.135424 28.1879105,53.135424 C27.4599947,53.2386497 26.9830844,53.806391 26.5312746,54.6321965 C25.7782583,56.0515497 24.8997393,57.3676773 24.0714213,58.7354177 C23.8957175,59.0192883 23.7451143,59.1741268 23.4941088,59.2257397 C23.4188072,59.2257397 23.3435056,59.2257397 23.268204,59.2257397 C20.1557365,58.9160626 17.2440735,58.0128378 14.5583153,56.4644525 C14.3073099,56.3096139 14.2069077,56.1547754 14.2571088,55.7934855 C14.5583153,53.8321974 14.8344213,51.8709093 15.0854267,49.9096212 C15.1105273,49.6773634 15.0101251,49.3934927 14.8846224,49.2386542 C14.6336169,48.9289771 14.2822093,48.7483321 14.0563044,48.4128486 C13.7550979,47.9741395 13.3785898,47.8451074 12.9518805,47.8967202 C12.8012773,47.9225266 12.6255734,47.9741395 12.4498696,48.0257523 C10.9187365,48.5676872 9.36250278,49.0322028 7.83136961,49.5225248 C7.78116853,49.5483312 7.73096744,49.5483312 7.65566581,49.5741377 C7.45486146,49.5999441 7.3042582,49.5225248 7.15365494,49.3160734 C5.39661688,46.5547862 4.19179079,43.4580155 3.53917665,40.0515678 C3.48897557,39.8451164 3.66467937,39.4838265 3.84038318,39.3031815 C5.19581253,37.9612475 6.57634243,36.6709264 7.95687233,35.3547989 C8.2831794,35.0709282 8.43378266,34.7870576 8.35848103,34.3483484 C8.30827994,34.0386713 8.2831794,33.7031878 8.33338049,33.3935107 C8.50908429,32.4386731 8.15767668,31.9225447 7.45486146,31.5096419 C6.19983428,30.7870621 5.02010873,29.9096437 3.79018209,29.1096446 C3.53917665,28.9289996 3.46387502,28.7483547 3.53917665,28.4128712 C4.21689133,24.8257785 5.42171743,21.3935243 7.20385602,18.1677215 C7.35445929,17.9096572 7.479962,17.7806251 7.7058669,17.7548187 C7.75606798,17.7548187 7.83136961,17.7548187 7.90667125,17.7548187 C9.63860876,17.832238 11.3705463,17.8838508 13.1024838,17.9096572 C13.3534892,17.8838508 13.5542936,17.7548187 13.6797963,17.5999802 C14.1316061,17.0838517 14.5583153,16.5419168 14.9850246,15.9741755 C15.1105273,15.7935306 15.2109294,15.4838535 15.1607284,15.2774021 C14.9097229,13.3935333 14.6587175,11.5096644 14.357511,9.6257956 C14.3073099,9.29031211 14.357511,9.08386073 14.6336169,8.85160292 C17.3444757,6.50321848 20.2812393,4.72257532 23.4690083,3.53547989 C23.7200137,3.48386704 23.9961197,3.58709273 24.0965219,3.74193127 C25.1256442,5.10967166 26.1296659,6.50321848 27.1336877,7.92257171 C27.3093915,8.18063594 27.5101958,8.30966805 27.8114023,8.25805521 C28.16281,8.18063594 28.3887149,8.12902309 28.6146197,8.07741025 C28.765223,8.05160383 28.9158263,8.05160383 29.0664295,8.05160383 C29.1668317,8.05160383 29.2421333,8.05160383 29.3425355,8.0257974 C29.8194458,7.94837814 30.1457529,7.66450749 30.4469594,7.12257262 C31.350579,5.54838084 32.3295002,4.02580191 33.2331198,2.45161014 C33.4088236,2.16773949 33.5594268,2.03870738 33.7853317,2.01290096 C33.8606334,2.01290096 33.9610355,2.01290096 34.0614377,2.01290096 C37.123704,2.2967716 39.985166,3.19999639 42.6207231,4.6967689 C42.9721307,4.90322028 43.0976334,5.10967166 43.0223318,5.59999369 C42.7211253,7.53547538 42.4701198,9.47095706 42.1940139,11.4322452 C42.1689133,11.5870837 42.1940139,11.8193415 42.294416,11.9225672 C42.7713264,12.4128892 43.2482367,12.8774048 43.7502476,13.3419204 C43.8255492,13.4193397 43.9761525,13.4451461 44.0263535,13.4709526 C45.4068834,13.0322434 46.7121117,12.6193406 48.01734,12.2064379 C48.4691498,12.0774057 48.9460601,11.97418 49.3727693,11.7677287 C49.4731715,11.7161158 49.5735737,11.6903094 49.6488753,11.6903094 C49.9249813,11.6386966 50.1006851,11.8193415 50.2763889,12.1290186 C51.9581253,14.8128865 53.1127503,17.832238 53.790465,21.13546 C53.8657666,21.49675 53.790465,21.7548142 53.4892585,22.0386848 C52.083628,23.3548124 50.7030981,24.6709399 49.3225682,26.0128739 C49.1468644,26.1935189 49.0464623,26.5548088 48.9711606,26.8386794 C48.9209595,27.0709372 48.9962612,27.303195 48.9711606,27.5354528 C48.7201552,28.8515804 49.2723672,29.4967409 50.2010873,30.0128694 C51.2804107,30.6322235 52.3346335,31.4322226 53.4390574,32.128996 Z M28.6146197,42.8902742 C34.6387502,42.0128559 39.6086579,35.8451209 39.6588589,29.2386767 C39.70906,22.4515876 34.8395546,17.6257866 28.765223,18.4773985 C22.6657909,19.3548169 17.7209838,25.4967455 17.6707827,32.1806089 C17.6205816,38.967698 22.5151876,43.7418862 28.6146197,42.8902742 L28.6146197,42.8902742 Z" id="Shape" fill="#9E9EC5"></path>
                        <g transform="translate(17.068370, 18.322560)" fill="#2D3166" id="Path">
                            <path d="M11.6968533,0.180644958 C5.59742123,1.05806332 0.652614135,7.19999188 0.602413047,13.8838553 C0.602413047,14.8903058 0.702815222,15.8451434 0.903619571,16.7483682 C2.05824458,11.1999874 6.45083971,6.5290249 11.6968533,5.78063864 C16.8675653,5.05805881 21.1597583,8.43870016 22.2892827,13.6515975 C22.4649866,12.7741791 22.5904893,11.8709544 22.5904893,10.9419231 C22.6406904,4.15483403 17.7460844,-0.670966986 11.6968533,0.180644958 Z" opacity="0.46"></path>
                            <path d="M24.749136,40.3870512 C22.2892827,42.3999522 19.6286251,43.9225311 16.8173642,45.0064009 C16.7420626,45.0322073 16.6416604,45.0580137 16.5914593,45.0838201 C16.390655,45.1096266 16.2149512,45.0322073 16.0643479,44.7999495 C15.0854267,43.3805963 14.0563044,41.9870494 13.0271821,40.6451155 C12.8765789,40.4644705 12.5753724,40.3870512 12.3494675,40.3612448 C12.2992664,40.3612448 12.2239648,40.3612448 12.1737637,40.3612448 C12.098462,40.3612448 12.0231604,40.3870512 11.9478588,40.4128577 C11.8725571,40.4386641 11.7972555,40.4386641 11.7219539,40.4644705 C11.6717528,40.4644705 11.5964512,40.4902769 11.5462501,40.4644705 C11.3705463,40.4386641 11.2450435,40.4644705 11.0944403,40.4644705 C10.3665245,40.5676962 9.88961419,41.1354375 9.43780441,41.961243 C8.6847881,43.3805963 7.80626907,44.6967238 6.97795113,46.0902706 C6.80224733,46.3741413 6.65164406,46.5289798 6.40063863,46.5547862 C6.325337,46.5547862 6.25003537,46.5547862 6.17473373,46.5547862 C4.34239405,46.3741413 2.58535599,45.9870449 0.903619571,45.3676908 C0.627513591,43.3805963 0.376508155,41.3935017 0.150603262,39.4838265 C2.05824458,40.2580191 4.06628807,40.7483412 6.19983428,40.9547925 C6.27513591,40.9547925 6.35043754,40.9547925 6.42573917,40.9547925 C6.67674461,40.9289861 6.82734787,40.7741476 7.00305167,40.4902769 C7.80626907,39.1225365 8.70988864,37.7806026 9.46290495,36.3870558 C9.91471474,35.5612502 10.3916251,34.9935089 11.1195408,34.8902832 C11.2701441,34.8644768 11.4207474,34.8644768 11.5713506,34.8902832 C11.6215517,34.8902832 11.6968533,34.8902832 11.7470544,34.8902832 C11.8223561,34.8902832 11.8976577,34.8644768 11.9729593,34.8386704 C12.0482609,34.812864 12.1235626,34.812864 12.1988642,34.7870576 C12.2490653,34.7870576 12.3243669,34.7870576 12.374568,34.7870576 C12.6255734,34.812864 12.92678,34.8902832 13.0522827,35.0709282 C14.081405,36.4386686 15.1105273,37.8322154 16.0894485,39.2515687 C16.2400517,39.4838265 16.4157555,39.5612457 16.6165599,39.5354393 C16.6918615,39.5354393 16.7671631,39.5096329 16.8424648,39.45802 C19.5282229,38.4257631 22.0382773,36.9806035 24.3726279,35.1225411 C24.47303,36.8257649 24.6236333,38.6064081 24.749136,40.3870512 Z"></path>
                        </g>
                        <g transform="translate(0.000000, 15.741918)" fill="#394480">
                            <g id="SVGID_23_-link">
                                <path d="M7.32935874,33.8322199 L3.89058426,31.9225447 C3.81528263,31.8709318 3.739981,31.7935125 3.66467937,31.6902869 C1.90764132,28.9289996 0.702815222,25.8322289 0.0502010873,22.4257812 C-3.81639165e-17,22.2193298 0.175703805,21.8580399 0.351407611,21.6773949 C1.70683697,20.3354609 3.08736687,19.0451398 4.46789677,17.7290123 C4.79420383,17.4451416 4.9448071,17.161271 4.86950547,16.7225618 C4.81930438,16.4128847 4.79420383,16.0774012 4.84440492,15.7677242 C5.02010873,14.8128865 4.66870112,14.2967581 3.96588589,13.8838553 C2.71085871,13.1612755 1.53113316,12.2838571 0.301206524,11.483858 C0.0502010873,11.3032131 -0.0251005436,11.1225681 0.0502010873,10.7870846 C0.727915765,7.19999188 1.93274186,3.76773769 3.71488046,0.541934873 C3.86548372,0.283870648 3.99098644,0.154838535 4.21689133,0.129032113 C4.26709242,0.129032113 4.34239405,0.129032113 4.41769568,0.129032113 C6.14963319,0.20645138 7.8815707,0.258064225 9.61350821,0.283870648 L13.0522827,2.19354591 C11.3203452,2.16773949 9.58840767,2.11612665 7.85647016,2.03870738 C7.78116853,2.03870738 7.73096744,2.03870738 7.65566581,2.03870738 C7.42976092,2.0645138 7.3042582,2.19354591 7.15365494,2.45161014 C5.39661688,5.70321938 4.19179079,9.10966715 3.48897557,12.6967599 C3.41367393,13.0322434 3.48897557,13.2386948 3.739981,13.3935333 C4.96990764,14.1935324 6.14963319,15.0709508 7.40466037,15.7935306 C8.10747559,16.2064333 8.45888321,16.7225618 8.2831794,17.6773994 C8.23297831,17.9870765 8.25807886,18.32256 8.30827994,18.6322371 C8.35848103,19.0451398 8.20787777,19.3548169 7.90667125,19.6386875 C6.52614135,20.9290087 5.14561145,22.2451362 3.79018209,23.5870702 C3.61447828,23.7419087 3.46387502,24.1290051 3.48897557,24.3354564 C4.11648916,27.7677106 5.34641579,30.8386749 7.10345385,33.5999621 C7.17875548,33.7031878 7.25405711,33.7806071 7.32935874,33.8322199 Z" id="SVGID_23_"></path>
                            </g>
                            <g id="Path">
                                <path d="M7.32935874,33.8322199 L3.89058426,31.9225447 C3.81528263,31.8709318 3.739981,31.7935125 3.66467937,31.6902869 C1.90764132,28.9289996 0.702815222,25.8322289 0.0502010873,22.4257812 C0.0251005436,22.3225555 0.0502010873,22.2193298 0.100402175,22.0902977 L3.53917665,23.9999729 C3.48897557,24.1290051 3.46387502,24.2580372 3.48897557,24.3354564 C4.11648916,27.7677106 5.34641579,30.8386749 7.10345385,33.5999621 C7.17875548,33.7031878 7.25405711,33.7806071 7.32935874,33.8322199"></path>
                                <path d="M3.5642772,23.9999729 L0.125502718,22.0902977 C0.150603262,22.0386848 0.175703805,21.987072 0.200804349,21.9096527 L3.63957883,23.819328 C3.61447828,23.8709408 3.58937774,23.9225537 3.5642772,23.9999729"></path>
                                <path d="M3.63957883,23.819328 L0.200804349,21.9096527 C0.225904893,21.8580399 0.251005436,21.8322335 0.27610598,21.7806206 L3.71488046,23.6902959 C3.68977991,23.7419087 3.66467937,23.7935216 3.63957883,23.819328"></path>
                                <path d="M3.71488046,23.7161023 L0.27610598,21.806427 C0.301206524,21.7806206 0.326307067,21.7548142 0.326307067,21.7290078 L3.76508155,23.638683 C3.739981,23.638683 3.71488046,23.6644895 3.71488046,23.7161023"></path>
                                <path d="M3.76508155,23.638683 L0.326307067,21.7290078 C0.326307067,21.7032013 0.351407611,21.7032013 0.351407611,21.7032013 C1.70683697,20.3612674 3.08736687,19.0709462 4.46789677,17.7548187 C4.51809785,17.7032058 4.56829894,17.651593 4.61850003,17.5999802 L8.05727451,19.5096554 C8.00707342,19.5612683 7.95687233,19.6128811 7.90667125,19.664494 C6.52614135,20.9548151 5.14561145,22.2709426 3.79018209,23.6128766 C3.79018209,23.6128766 3.76508155,23.6128766 3.76508155,23.638683"></path>
                                <path d="M8.05727451,19.483849 L4.61850003,17.5741737 C4.64360057,17.5225609 4.69380166,17.4967545 4.7189022,17.4451416 L8.15767668,19.3548169 C8.13257614,19.4064297 8.10747559,19.4580426 8.05727451,19.483849"></path>
                                <path d="M8.15767668,19.3806233 L4.7189022,17.470948 C4.74400275,17.4451416 4.76910329,17.3935288 4.79420383,17.3677224 L8.23297831,19.2773976 C8.20787777,19.303204 8.18277723,19.3290105 8.15767668,19.3806233"></path>
                                <path d="M8.23297831,19.2515912 L4.79420383,17.3419159 C4.81930438,17.2903031 4.84440492,17.2644967 4.84440492,17.2128838 L8.2831794,19.1225591 C8.25807886,19.1741719 8.23297831,19.2257848 8.23297831,19.2515912"></path>
                                <path d="M8.2831794,19.1483655 L4.84440492,17.2386902 C4.89460601,17.0838517 4.91970655,16.9290132 4.89460601,16.7483682 C4.84440492,16.4386911 4.81930438,16.1032077 4.86950547,15.7935306 C5.04520927,14.8386929 4.69380166,14.3225645 3.99098644,13.9096617 C2.73595926,13.1870819 1.55623371,12.3096635 0.326307067,11.5096644 C0.0753016309,11.3290195 -8.32667268e-17,11.1483745 0.0753016309,10.812891 C0.426709242,9.00644146 0.903619571,7.22579831 1.53113316,5.496768 L4.96990764,7.40644326 C4.34239405,9.13547357 3.86548372,10.9161167 3.51407611,12.7225663 C3.43877448,13.0580498 3.51407611,13.2645012 3.76508155,13.4193397 C4.99500818,14.2193388 6.17473373,15.0967572 7.42976092,15.819337 C8.13257614,16.2322398 8.48398375,16.7483682 8.30827994,17.7032058 C8.25807886,18.0128829 8.2831794,18.3483664 8.33338049,18.6580435 C8.33338049,18.8386884 8.33338049,18.993527 8.2831794,19.1483655"></path>
                                <path d="M4.96990764,7.38063684 L1.53113316,5.47096157 C2.08334512,3.94838265 2.73595926,2.45161014 3.48897557,1.00645048 L6.92775004,2.91612574 C6.14963319,4.36128541 5.49701906,5.85805791 4.96990764,7.38063684"></path>
                                <path d="M6.92775004,2.91612574 L3.48897557,1.00645048 C3.5642772,0.851611943 3.66467937,0.696773408 3.739981,0.541934873 C3.76508155,0.490322028 3.79018209,0.438709183 3.81528263,0.41290276 L7.25405711,2.32257803 C7.22895657,2.37419087 7.20385602,2.39999729 7.17875548,2.45161014 C7.07835331,2.60644867 7.00305167,2.76128721 6.92775004,2.91612574"></path>
                                <path d="M7.25405711,2.32257803 L3.81528263,0.41290276 C3.84038318,0.387096338 3.86548372,0.361289915 3.89058426,0.335483493 L7.32935874,2.24515876 C7.3042582,2.24515876 7.27915765,2.27096518 7.25405711,2.32257803"></path>
                                <path d="M7.3042582,2.21935234 L3.86548372,0.30967707 C3.89058426,0.283870648 3.89058426,0.258064225 3.91568481,0.258064225 L7.35445929,2.16773949 C7.35445929,2.19354591 7.32935874,2.21935234 7.3042582,2.21935234"></path>
                                <path d="M7.37955983,2.16773949 L3.94078535,0.258064225 C3.96588589,0.232257803 3.96588589,0.232257803 3.99098644,0.20645138 L7.42976092,2.11612665 C7.40466037,2.14193307 7.37955983,2.14193307 7.37955983,2.16773949"></path>
                                <path d="M7.42976092,2.11612665 L3.99098644,0.20645138 C4.01608698,0.180644958 4.04118753,0.180644958 4.06628807,0.154838535 L7.50506255,2.0645138 C7.479962,2.09032022 7.45486146,2.11612665 7.42976092,2.11612665"></path>
                                <path d="M7.50506255,2.09032022 L4.06628807,0.180644958 C4.11648916,0.154838535 4.16669024,0.129032113 4.24199187,0.129032113 C4.29219296,0.129032113 4.36749459,0.129032113 4.44279622,0.129032113 C6.17473373,0.20645138 7.90667125,0.258064225 9.63860876,0.283870648 L13.0773832,2.19354591 C11.3454457,2.16773949 9.61350821,2.11612665 7.8815707,2.03870738 C7.80626907,2.03870738 7.75606798,2.03870738 7.68076635,2.03870738 C7.60546472,2.03870738 7.55526363,2.0645138 7.50506255,2.09032022"></path>
                            </g>
                        </g>
                    </g>
                    <path d="M356.800853,67.6598397 C351.57994,65.3372617 348.34197,60.0727515 348.618076,54.2146936 C348.643176,53.8792101 348.141165,53.8792101 348.116065,54.2146936 C347.839959,60.2275901 351.153231,65.7243581 356.549847,68.1243554 C356.851054,68.227581 357.102059,67.7888719 356.800853,67.6598397 L356.800853,67.6598397 Z" id="Path" fill="#171338"></path>
                    <path d="M355.370122,67.0920985 C353.989592,65.1050039 352.734565,63.1179094 352.257654,60.6921057 C351.780744,58.3179148 351.956448,55.8663047 352.157252,53.4663074 C352.182353,53.1308239 351.680342,53.1308239 351.655241,53.4663074 C351.454437,55.9179175 351.303834,58.4211405 351.780744,60.8469442 C352.257654,63.3243608 353.537782,65.3372617 354.943413,67.3759691 C355.119116,67.6082269 355.545826,67.3501627 355.370122,67.0920985 L355.370122,67.0920985 Z" id="Path" fill="#171338"></path>
                    <path d="M352.759665,64.2275856 C350.902225,61.1824277 350.073907,57.6727542 350.375114,54.0856615 C350.400214,53.750178 349.898203,53.750178 349.873103,54.0856615 C349.571896,57.7501735 350.400214,61.3630727 352.307856,64.4856498 C352.50866,64.7695204 352.935369,64.5114562 352.759665,64.2275856 L352.759665,64.2275856 Z" id="Path" fill="#171338"></path>
                    <path d="M344.451385,64.0211342 C341.539722,62.9888773 338.602959,61.9824268 335.691296,60.9501699 C334.436268,60.5114607 333.13104,60.1501708 331.976415,59.5050102 C331.449304,59.2211396 330.922192,58.8598497 330.545684,58.3953341 C329.692266,57.3888836 329.391059,55.0146927 331.2736,55.0146927 C331.599907,55.0146927 331.599907,54.4985643 331.2736,54.4985643 C329.968372,54.4985643 329.165154,55.6340469 329.340858,56.924368 C329.516562,58.3179148 330.595885,59.3243653 331.72541,59.9437194 C333.432247,60.8727506 335.390089,61.3888791 337.222429,62.0082332 C339.58188,62.8340387 341.966432,63.6598443 344.325883,64.4856498 C344.627089,64.6404883 344.752592,64.1501663 344.451385,64.0211342 L344.451385,64.0211342 Z" id="Path" fill="#171338"></path>
                    <path d="M335.917201,59.066301 C334.938279,58.8340432 333.909157,58.5501726 333.13104,57.8792056 C332.378024,57.234045 331.449304,55.4792083 332.779633,54.8856606 C333.080839,54.7566285 332.829834,54.3179193 332.528627,54.4469514 C331.374002,54.9372734 331.499505,56.434046 332.051717,57.3888836 C332.854934,58.7308176 334.386067,59.2211396 335.791698,59.5824295 C336.092904,59.6340423 336.218407,59.1437203 335.917201,59.066301 L335.917201,59.066301 Z" id="Path" fill="#171338"></path>
                    <path d="M353.43738,72.4082215 C354.441402,71.2727389 355.74663,70.4469334 356.976557,69.5953214 C358.181383,68.7695159 359.43641,67.9953232 360.766739,67.3759691 C361.067945,67.246937 360.81694,66.7824214 360.515733,66.9372599 C359.059902,67.6082269 357.704472,68.4856453 356.374144,69.3888701 C355.219519,70.1888692 354.039793,70.9630618 353.085972,72.0211252 C352.860068,72.2791894 353.211475,72.6404793 353.43738,72.4082215 L353.43738,72.4082215 Z" id="Path" fill="#171338"></path>
                    <path d="M355.345021,69.8533857 C356.323943,69.4662893 357.327964,69.1049994 358.256684,68.6662902 C359.210505,68.227581 359.737616,67.246937 360.741638,66.8082278 C361.042845,66.6791957 360.917342,66.1888737 360.616136,66.3179058 C359.787818,66.6791957 359.235606,67.1437113 358.608092,67.7888719 C357.804875,68.6146774 356.248641,68.9243545 355.194418,69.3630636 C354.918312,69.4662893 355.043815,69.9824178 355.345021,69.8533857 L355.345021,69.8533857 Z" id="Path" fill="#171338"></path>
                    <path d="M354.893212,70.9888683 C353.286777,71.892093 351.60504,73.8791876 350.927326,75.6340243 C350.550818,76.5888619 350.149209,78.8082143 351.57994,79.0662785 C351.906247,79.1178913 352.03175,78.6275693 351.705443,78.5759565 C350.801823,78.4211179 351.052828,76.8727326 351.228532,76.2533784 C351.454437,75.4533793 351.906247,74.7566059 352.383157,74.1372518 C353.136173,73.1566077 354.039793,72.0469316 355.119116,71.4533839 C355.420323,71.2727389 355.169318,70.8340297 354.893212,70.9888683 L354.893212,70.9888683 Z" id="Path" fill="#171338"></path>
                    <path d="M354.190396,71.8662866 C353.136173,72.8211243 352.433358,74.085639 352.282755,75.5307986 C352.157252,76.5888619 352.282755,77.9049895 353.487581,78.1630537 C353.813888,78.240473 353.939391,77.750151 353.613084,77.6727317 C352.332956,77.3630546 352.734565,75.3759601 353.010671,74.5243481 C353.311877,73.6211233 353.864089,72.8469307 354.541804,72.2275765 C354.792809,71.9953187 354.441402,71.6340288 354.190396,71.8662866 L354.190396,71.8662866 Z" id="Path" fill="#171338"></path>
                    <path d="M347.061842,76.2791849 C347.061842,76.2791849 345.631111,79.6082134 345.1291,80.382406 C344.601989,81.1565987 345.60601,82.1630492 347.990562,80.382406 C350.375114,78.6017629 351.554839,78.0340216 350.65122,76.2791849 C349.7476,74.5243481 347.061842,76.2791849 347.061842,76.2791849 Z" id="Path" fill="#E57E80"></path>
                    <path d="M346.685334,79.0920849 C347.89016,78.6017629 349.019684,77.9824088 350.124108,77.2598289 C350.249611,77.1824097 350.124108,76.9501519 349.998606,77.0275711 C348.919282,77.7243445 347.814858,78.3436987 346.635133,78.8340207 C346.459429,78.91144 346.534731,79.1695042 346.685334,79.0920849 L346.685334,79.0920849 Z" id="Path" fill="#E9595A"></path>
                    <path d="M346.861038,77.9049895 C347.739557,78.2662794 348.618076,78.5243436 349.546796,78.7049886 C349.697399,78.730795 349.772701,78.4985372 349.622097,78.4469244 C348.693377,78.2662794 347.789758,78.0082152 346.936339,77.6469253 C346.785736,77.5953124 346.710434,77.8533766 346.861038,77.9049895 L346.861038,77.9049895 Z" id="Path" fill="#E9595A"></path>
                    <path d="M332.930236,186.059706 C332.930236,186.059706 332.026616,200.330658 332.026616,203.401622 C332.026616,206.472586 333.356945,213.904836 334.561771,214.111288 C335.766597,214.317739 335.314788,213.15645 336.017603,212.79516 C336.720418,212.408064 335.967402,213.208063 337.222429,212.408064 C338.477456,211.608065 337.29773,211.762903 339.004567,211.608065 C340.736505,211.479032 339.657182,211.42742 340.711404,210.808065 C341.740527,210.188711 341.89113,210.085486 341.514622,209.104842 C341.138114,208.124198 340.862008,203.091945 339.431277,200.0984 C338.000546,197.079049 339.481478,187.711317 339.481478,187.711317 L332.930236,186.059706 Z" id="Path" fill="#E57E80"></path>
                    <g id="Group" transform="translate(330.800723, 99.519333)">
                        <path d="M7.25002381,0.656598948 C7.25002381,0.656598948 5.7439912,33.946884 2.05421128,58.4887918 C-0.757049607,77.0952225 0.799184099,91.6500448 0.799184099,91.6500448 C0.799184099,91.6500448 9.659676,94.3855255 11.5171162,92.6564952 C13.3745565,90.9274649 14.9307902,9.61142756 12.5964396,4.60498159 C10.2871896,-0.427270798 8.70585534,-0.504690066 7.25002381,0.656598948 Z" id="Path" fill="#F69D79"></path>
                        <path d="M0.799184099,91.6242383 C0.799184099,91.6242383 -0.78215015,83.0306996 0.59837975,82.0242492 C1.97890965,81.0177987 13.7761652,83.8823116 13.7761652,83.8823116 L11.5171162,92.6306888 C11.5171162,92.6564952 11.8936244,95.3403632 0.799184099,91.6242383 Z" id="Path" fill="#F9B17C"></path>
                        <path d="M2.40561889,79.0307041 C2.179714,82.0242492 2.20481454,85.0436006 2.43071944,88.0371456 C2.45581998,88.3726291 2.95783085,88.3726291 2.93273031,88.0371456 C2.70682542,85.0436006 2.68172487,82.0242492 2.90762976,79.0307041 C2.93273031,78.6952206 2.43071944,78.7210271 2.40561889,79.0307041 L2.40561889,79.0307041 Z" id="Path" fill="#F69D79"></path>
                        <path d="M4.58936619,80.243606 C3.83634988,81.3016693 4.11245586,83.0306996 4.08735532,84.2436015 C4.08735532,86.2048896 4.1375564,88.1661777 4.23795858,90.1274658 C4.26305912,90.4629493 4.76506999,90.4629493 4.73996945,90.1274658 C4.66466782,88.5016612 4.61446673,86.901663 4.58936619,85.2758584 C4.58936619,83.9339244 4.21285803,81.6371528 5.01607543,80.5016702 C5.21687978,80.2177996 4.79017054,79.9597354 4.58936619,80.243606 L4.58936619,80.243606 Z" id="Path" fill="#F69D79"></path>
                        <path d="M5.84439337,80.9661858 C5.7439912,83.3661831 5.64358902,85.7919868 5.54318685,88.1919841 C5.5180863,88.5274676 6.02009718,88.5274676 6.04519772,88.1919841 C6.14559989,85.7919868 6.24600207,83.3661831 6.34640424,80.9661858 C6.37150479,80.6307023 5.86949391,80.6307023 5.84439337,80.9661858 L5.84439337,80.9661858 Z" id="Path" fill="#F69D79"></path>
                        <path d="M8.60545317,81.404895 C8.63055371,84.579085 9.00706187,87.9597263 8.53015154,91.1081099 C8.47995045,91.4435934 8.95686078,91.5726255 9.00706187,91.237142 C9.4839722,88.0371456 9.13256459,84.6306978 9.10746404,81.404895 C9.10746404,81.0694115 8.60545317,81.0694115 8.60545317,81.404895 L8.60545317,81.404895 Z" id="Path" fill="#F69D79"></path>
                        <path d="M10.8645021,81.5339271 C10.814301,83.3661831 10.7640999,85.1726327 10.7138988,87.0048887 C10.7138988,87.3403722 11.2159097,87.3403722 11.2159097,87.0048887 C11.2661108,85.1726327 11.3163119,83.3661831 11.366513,81.5339271 C11.366513,81.2242501 10.8645021,81.2242501 10.8645021,81.5339271 L10.8645021,81.5339271 Z" id="Path" fill="#F69D79"></path>
                    </g>
                    <path d="M377.4586,304.356347 C377.4586,304.356347 363.101089,311.969242 357.102059,310.498276 C354.140195,309.775696 339.406176,279.040247 332.553728,246.420929 C332.302722,245.18222 332.051717,243.969318 331.800711,242.73061 C331.800711,242.73061 344.024676,272.485415 354.215497,280.382181 C360.314929,285.104756 367.242679,288.846687 372.488693,293.07894 C375.350155,299.840223 377.4586,304.356347 377.4586,304.356347 Z" id="Path" fill="#2D3166"></path>
                    <path d="M332.352923,195.530663 C332.352923,195.530663 329.968372,199.891949 329.391059,201.775818 C328.838847,203.659686 327.709323,205.775813 326.956306,206.266135 C326.17819,206.756457 327.608921,208.072585 328.96435,206.756457 C330.319779,205.44033 330.294679,202.808074 331.148097,202.808074 C332.001516,202.808074 332.252521,203.298397 332.327823,204.072589 C332.403124,204.846782 334.009559,203.040332 334.009559,203.040332 L332.352923,195.530663 Z" id="Path" fill="#E57E80"></path>
                </g>
                <g id="object" transform="translate(404.000000, 248.000000)">
                    <polygon id="Path" fill="#9E9EC5" points="0.0610647452 14.9142857 89.044513 14.9142857 89.044513 89.8457143 0.0112280338 89.8457143"></polygon>
                    <polygon id="Path" fill="#C9DDF2" points="0.0610647452 14.9142857 12.4704059 9.9 94.9003266 9.9 89.5428801 15.4285714"></polygon>
                    <polygon id="Path" fill="#394480" points="94.9003266 9.9 94.9003266 83.4171429 88.8451661 89.64 88.8451661 15.4285714"></polygon>
                    <rect id="Rectangle" fill="#394480" x="5.64277642" y="12.8828571" width="86.2424291" height="1"></rect>
                    <polygon id="Path" fill="#9E9EC5" points="35.1461096 11.0828571 35.1461096 0.102857143 63.9268104 0.102857143 63.9268104 11.0828571 61.4848116 11.0828571 61.4848116 2.08285714 37.2392515 2.08285714 37.2392515 11.0828571"></polygon>
                    <polygon id="Path" fill="#394480" points="25.6771344 12.9857143 19.8213208 15.4285714 19.8213208 24.9428571 26.1007465 24.9428571 26.1007465 16.02 33.2772329 13.0114286"></polygon>
                    <polygon id="Path" fill="#394480" points="61.6841584 12.9857143 55.8283448 15.4285714 55.8283448 24.9428571 62.1077705 24.9428571 62.1077705 16.02 69.2842569 13.0114286"></polygon>
                    <ellipse id="Oval" fill="#9E9EC5" cx="22.56234" cy="21.8571429" rx="1.37050956" ry="1.41428571"></ellipse>
                    <ellipse id="Oval" fill="#9E9EC5" cx="58.7936292" cy="21.8571429" rx="1.37050956" ry="1.41428571"></ellipse>
                </g>
            </g>
        </g>
    </g>
</svg>