<?xml version="1.0" encoding="UTF-8"?>
<svg width="422px" height="403px" viewBox="0 0 422 403" version="1.1" xmlns="http://www.w3.org/2000/svg" xmlns:xlink="http://www.w3.org/1999/xlink">
    <!-- Generator: Sketch 60 (88103) - https://sketch.com -->
    <title>Success</title>
    <desc>Created with Sketch.</desc>
    <g id="Page-1" stroke="none" stroke-width="1" fill="none" fill-rule="evenodd">
        <g id="Developers" transform="translate(-521.000000, -1442.000000)">
            <g id="Success" transform="translate(444.000000, 1413.000000)">
                <g id="Background">
                    <g id="Layer_5" transform="translate(93.212393, 225.860465)" fill-rule="nonzero">
                        <rect id="Rectangle" fill="#C8DCF0" x="0.0260422167" y="14.8710497" width="116.995776" height="158.905041"></rect>
                        <polygon id="Path" fill="#EAF4FB" points="117.017459 173.776091 152.388174 158.939837 152.388174 0.034795726 117.017459 14.8710497"></polygon>
                        <polygon id="Path" fill="#EAF4FB" points="152.388174 0.114443746 35.3880393 0.114443746 0.0260422167 14.8710497 117.017459 14.8710497"></polygon>
                        <rect id="Rectangle" fill="#EAF4FB" x="17.1905368" y="42.0998114" width="23.9378884" height="10.6402514"></rect>
                        <rect id="Rectangle" fill="#EAF4FB" x="45.5132605" y="42.1034318" width="23.9378884" height="10.6402514"></rect>
                        <rect id="Rectangle" fill="#EAF4FB" x="17.1905368" y="56.1033815" width="23.9378884" height="10.6402514"></rect>
                        <rect id="Rectangle" fill="#EAF4FB" x="45.5132605" y="56.1033815" width="23.9378884" height="10.6402514"></rect>
                        <rect id="Rectangle" fill="#EAF4FB" x="17.1905368" y="70.1069516" width="23.9378884" height="10.6402514"></rect>
                        <rect id="Rectangle" fill="#EAF4FB" x="45.5132605" y="70.1069516" width="23.9378884" height="10.6402514"></rect>
                        <rect id="Rectangle" fill="#EAF4FB" x="17.1905368" y="84.1069013" width="23.9378884" height="10.6402514"></rect>
                        <rect id="Rectangle" fill="#EAF4FB" x="45.5132605" y="84.1069013" width="23.9378884" height="10.6402514"></rect>
                        <rect id="Rectangle" fill="#EAF4FB" x="17.1905368" y="98.1104714" width="23.9378884" height="10.6402514"></rect>
                        <rect id="Rectangle" fill="#EAF4FB" x="45.5132605" y="98.106851" width="23.9378884" height="10.6402514"></rect>
                        <rect id="Rectangle" fill="#EAF4FB" x="17.1905368" y="112.110421" width="23.9378884" height="10.6402514"></rect>
                        <rect id="Rectangle" fill="#EAF4FB" x="45.5132605" y="112.110421" width="23.9378884" height="10.6402514"></rect>
                        <rect id="Rectangle" fill="#EAF4FB" x="30.3494015" y="126.110371" width="23.9378884" height="10.6402514"></rect>
                        <rect id="Rectangle" fill="#EAF4FB" x="58.6677665" y="126.110371" width="23.9378884" height="10.6402514"></rect>
                        <line x1="81.0147355" y1="10.6750471" x2="81.0147355" y2="134.585644" id="Path" fill="#EAF4FB"></line>
                        <rect id="Rectangle" fill="#EAF4FB" x="80.5788672" y="10.6750471" width="1" height="123.910597"></rect>
                        <line x1="86.1928512" y1="10.6750471" x2="86.1928512" y2="134.585644" id="Path" fill="#EAF4FB"></line>
                        <rect id="Rectangle" fill="#EAF4FB" x="85.7569829" y="10.6750471" width="1" height="123.910597"></rect>
                        <line x1="91.3666082" y1="10.6750471" x2="91.3666082" y2="134.585644" id="Path" fill="#EAF4FB"></line>
                        <rect id="Rectangle" fill="#EAF4FB" x="90.9307399" y="10.6750471" width="1" height="123.910597"></rect>
                        <line x1="96.5447239" y1="10.6750471" x2="96.5447239" y2="134.585644" id="Path" fill="#EAF4FB"></line>
                        <rect id="Rectangle" fill="#EAF4FB" x="96.1088555" y="10.6750471" width="1" height="123.910597"></rect>
                        <line x1="101.718481" y1="10.6750471" x2="101.718481" y2="134.585644" id="Path" fill="#EAF4FB"></line>
                        <rect id="Rectangle" fill="#EAF4FB" x="101.282613" y="10.6750471" width="1" height="123.910597"></rect>
                        <line x1="106.896597" y1="10.6750471" x2="106.896597" y2="134.585644" id="Path" fill="#EAF4FB"></line>
                        <rect id="Rectangle" fill="#EAF4FB" x="106.460728" y="10.6750471" width="1" height="123.910597"></rect>
                        <line x1="112.070354" y1="10.6750471" x2="112.070354" y2="134.585644" id="Path" fill="#EAF4FB"></line>
                        <rect id="Rectangle" fill="#EAF4FB" x="111.634485" y="10.6750471" width="1" height="123.910597"></rect>
                        <polygon id="Path" fill="#FFFFFF" points="39.5680166 66.7436329 41.1284252 64.7741546 41.1284252 66.7436329"></polygon>
                        <polygon id="Path" fill="#FFFFFF" points="17.1905368 98.1104714 25.1930792 98.1104714 17.1905368 107.979585"></polygon>
                        <polygon id="Path" fill="#FFFFFF" points="25.8076536 84.1069013 36.5474491 84.1069013 27.9216149 94.7471527 17.3736015 94.7471527"></polygon>
                        <polygon id="Path" fill="#FFFFFF" points="41.1284252 70.1069516 41.1284252 78.4555123 39.2716261 80.747203 28.470809 80.747203 36.9005024 70.1069516"></polygon>
                        <polygon id="Path" fill="#FFFFFF" points="45.5132605 70.1069516 47.8974602 70.1069516 45.5132605 73.0466876"></polygon>
                        <polygon id="Path" fill="#FFFFFF" points="59.2474714 56.1033815 50.6216373 66.7436329 45.5132605 66.7436329 45.5132605 59.2422376 47.99771 56.1033815"></polygon>
                        <polygon id="Path" fill="#FFFFFF" points="69.4511489 42.1034318 69.4511489 43.5189943 61.9716484 52.7436832 50.6608654 52.7436832 59.0949175 42.1034318"></polygon>
                        <polygon id="Path" fill="#FFFFFF" points="28.457733 112.110421 19.9626594 122.750673 17.1905368 122.750673 17.1905368 122.442942 25.3805026 112.110421"></polygon>
                        <polygon id="Path" fill="#FFFFFF" points="39.6377555 98.1104714 31.1426819 108.750723 28.0436581 108.750723 36.4777101 98.1104714"></polygon>
                        <polygon id="Path" fill="#FFFFFF" points="39.1408656 94.7471527 41.1284252 92.2418605 41.1284252 94.7471527"></polygon>
                        <polygon id="Path" fill="#FFFFFF" points="50.817778 84.1069013 45.5132605 90.7502703 45.5132605 86.7099434 47.5749177 84.1069013"></polygon>
                        <polygon id="Path" fill="#FFFFFF" points="61.9978005 70.1069516 53.5027269 80.747203 50.2380731 80.747203 58.6721252 70.1069516"></polygon>
                        <polygon id="Path" fill="#FFFFFF" points="69.4511489 56.505242 69.4511489 60.7700314 64.6827494 66.7436329 61.3352807 66.7436329"></polygon>
                        <rect id="Rectangle" fill="#C8DCF0" x="276.488603" y="64.0754243" width="78.0901689" height="106.0622"></rect>
                        <polygon id="Path" fill="#EAF4FB" points="378.1854 54.2280327 300.095231 54.2280327 276.488603 64.0754243 354.578772 64.0754243"></polygon>
                        <rect id="Rectangle" fill="#EAF4FB" x="287.947581" y="82.2496543" width="15.9789328" height="7.10315525"></rect>
                        <rect id="Rectangle" fill="#EAF4FB" x="306.85119" y="82.2496543" width="15.9789328" height="7.10315525"></rect>
                        <rect id="Rectangle" fill="#EAF4FB" x="287.947581" y="91.5938152" width="15.9789328" height="7.10315525"></rect>
                        <rect id="Rectangle" fill="#EAF4FB" x="306.85119" y="91.5938152" width="15.9789328" height="7.10315525"></rect>
                        <rect id="Rectangle" fill="#EAF4FB" x="287.947581" y="100.941596" width="15.9789328" height="7.10315525"></rect>
                        <rect id="Rectangle" fill="#EAF4FB" x="306.85119" y="100.941596" width="15.9789328" height="7.10315525"></rect>
                        <rect id="Rectangle" fill="#EAF4FB" x="287.947581" y="110.285757" width="15.9789328" height="7.10315525"></rect>
                        <rect id="Rectangle" fill="#EAF4FB" x="306.85119" y="110.285757" width="15.9789328" height="7.10315525"></rect>
                        <rect id="Rectangle" fill="#EAF4FB" x="287.947581" y="119.633539" width="15.9789328" height="7.10315525"></rect>
                        <rect id="Rectangle" fill="#EAF4FB" x="306.85119" y="119.633539" width="15.9789328" height="7.10315525"></rect>
                        <rect id="Rectangle" fill="#EAF4FB" x="287.947581" y="128.9777" width="15.9789328" height="7.10315525"></rect>
                        <rect id="Rectangle" fill="#EAF4FB" x="306.85119" y="128.9777" width="15.9789328" height="7.10315525"></rect>
                        <line x1="330.549351" y1="61.2732621" x2="330.549351" y2="143.98049" id="Path" fill="#EAF4FB"></line>
                        <rect id="Rectangle" fill="#EAF4FB" x="330.109124" y="61.2732621" width="1" height="82.7036078"></rect>
                        <line x1="334.001428" y1="61.2732621" x2="334.001428" y2="143.98049" id="Path" fill="#EAF4FB"></line>
                        <rect id="Rectangle" fill="#EAF4FB" x="333.56556" y="61.2732621" width="1" height="82.7036078"></rect>
                        <line x1="337.457864" y1="61.2732621" x2="337.457864" y2="143.98049" id="Path" fill="#EAF4FB"></line>
                        <rect id="Rectangle" fill="#EAF4FB" x="337.021996" y="61.2732621" width="1" height="82.7036078"></rect>
                        <line x1="340.909941" y1="61.2732621" x2="340.909941" y2="143.98049" id="Path" fill="#EAF4FB"></line>
                        <rect id="Rectangle" fill="#EAF4FB" x="340.474073" y="61.2732621" width="1" height="82.7036078"></rect>
                        <line x1="344.366377" y1="61.2732621" x2="344.366377" y2="143.98049" id="Path" fill="#EAF4FB"></line>
                        <rect id="Rectangle" fill="#EAF4FB" x="343.930508" y="61.2732621" width="1" height="82.7036078"></rect>
                        <line x1="347.818454" y1="61.2732621" x2="347.818454" y2="143.98049" id="Path" fill="#EAF4FB"></line>
                        <rect id="Rectangle" fill="#EAF4FB" x="347.382586" y="61.2732621" width="1" height="82.7036078"></rect>
                        <polygon id="Path" fill="#FFFFFF" points="302.884788 98.6969705 303.922155 97.3827781 303.922155 98.6969705"></polygon>
                        <polygon id="Path" fill="#FFFFFF" points="287.947581 119.633539 293.286968 119.633539 287.947581 126.218982"></polygon>
                        <polygon id="Path" fill="#FFFFFF" points="293.696684 110.285757 300.866718 110.285757 295.108898 117.388913 288.069624 117.388913"></polygon>
                        <polygon id="Path" fill="#FFFFFF" points="303.922155 100.941596 303.922155 106.513338 302.684289 108.044752 295.475027 108.044752 301.102087 100.941596"></polygon>
                        <polygon id="Path" fill="#FFFFFF" points="306.85119 100.941596 308.44211 100.941596 306.85119 102.903834"></polygon>
                        <polygon id="Path" fill="#FFFFFF" points="316.017501 91.5938152 310.25968 98.6969705 306.85119 98.6969705 306.85119 93.6900063 308.50749 91.5938152"></polygon>
                        <polygon id="Path" fill="#FFFFFF" points="322.830123 82.2496543 322.830123 83.1945695 317.835072 89.3528096 310.285833 89.3528096 315.917251 82.2496543"></polygon>
                        <polygon id="Path" fill="#FFFFFF" points="295.46631 128.9777 289.795663 136.077234 287.947581 136.077234 287.947581 135.874494 293.41337 128.9777"></polygon>
                        <polygon id="Path" fill="#FFFFFF" points="302.928375 119.633539 297.257728 126.736694 295.191713 126.736694 300.818773 119.633539"></polygon>
                        <polygon id="Path" fill="#FFFFFF" points="302.597115 117.388913 303.922155 115.716304 303.922155 117.388913"></polygon>
                        <polygon id="Path" fill="#FFFFFF" points="310.390441 110.285757 306.85119 114.720704 306.85119 112.023532 308.228534 110.285757"></polygon>
                        <polygon id="Path" fill="#FFFFFF" points="317.852507 100.941596 312.18186 108.044752 310.006877 108.044752 315.633937 100.941596"></polygon>
                        <polygon id="Path" fill="#FFFFFF" points="322.830123 91.8617222 322.830123 94.7109491 319.643925 98.6969705 317.41228 98.6969705"></polygon>
                    </g>
                    <g id="Layer_2">
                        <path d="M82.6776473,372.963531 C83.1578708,365.868703 90.472753,360.439219 99.0190605,360.834088 C99.1629417,360.834088 99.3068228,360.859426 99.455064,360.870285 C99.238733,359.745625 99.1671162,358.605052 99.2414223,357.467815 C99.6284125,351.926083 103.393429,346.930977 109.227606,344.218989 C115.061784,341.507002 122.159206,341.452758 128.052537,344.075115 C132.252499,337.464117 140.680336,333.467268 149.67316,333.821671 C158.665984,334.176074 166.599866,338.817731 170.026599,345.729295 C173.789418,342.851853 179.407444,342.423268 183.738911,344.683216 C188.181659,341.979521 193.616493,340.638862 199.116756,340.889824 L199.339118,340.889824 C201.370326,332.558779 210.363836,326.670894 220.59599,326.973344 C230.828144,327.275793 239.294484,333.679768 240.606854,342.109646 C243.341397,340.899726 246.612489,340.864394 249.384023,342.014842 C252.155558,343.165289 254.084166,345.358984 254.558968,347.901084 C265.761765,345.155274 277.618903,350.049472 281.74379,359.121994 C283.029097,358.873835 284.349941,358.776364 285.667822,358.832423 C293.349915,359.169557 299.253804,364.605232 298.865649,370.983583 C298.849304,371.365939 298.80123,371.746905 298.721768,372.123772 C298.721768,372.159969 298.721768,372.196165 298.721768,372.232362 C298.660727,372.529173 298.577887,372.876659 298.464526,373.256722 C298.46298,373.277214 298.46298,373.297765 298.464526,373.318256 C297.086755,377.886253 291.379468,387.572433 267.713195,387.623108 C241.723023,387.681022 136.262484,386.287457 103.025933,385.838621 C99.7384478,386.727721 96.1873589,386.679308 92.9368109,385.701074 L92.9368109,385.701074 C86.5055424,383.800401 82.3361812,378.623817 82.6776473,372.963531 Z" id="Path" fill="#FFFFFF" fill-rule="nonzero"></path>
                        <polygon id="Path" fill="#E6E8F4" fill-rule="nonzero" points="256.629985 399.871999 110.202552 399.871999 77.8205677 385.516472 224.248001 385.516472"></polygon>
                        <polygon id="Path" fill="#9594C8" fill-rule="nonzero" points="256.629985 399.871999 110.202552 399.871999 110.481594 429.227349 256.891587 427.439243"></polygon>
                        <polygon id="Path" fill="#394480" fill-rule="nonzero" points="77.8205677 385.516472 110.202552 399.871999 110.481594 429.227349 78.0821699 413.083716"></polygon>
                        <polygon id="Path" fill="#9594C8" fill-rule="nonzero" points="347.998889 372.24684 201.571456 372.24684 201.850498 427.956852 348.264852 426.168746"></polygon>
                        <polygon id="Path" fill="#E6E8F4" fill-rule="nonzero" points="349.494382 373.07212 203.062588 373.07212 169.189472 357.891314 315.621266 357.891314"></polygon>
                        <polygon id="Path" fill="#394480" fill-rule="nonzero" points="169.189472 357.891314 201.571456 372.24684 202.303942 400.299117 169.455434 385.454938"></polygon>
                        <polygon id="Path" fill="#E6E8F4" fill-rule="nonzero" points="419.573233 344.704934 273.141439 344.704934 240.763816 330.349408 387.191249 330.349408"></polygon>
                        <polygon id="Path" fill="#9594C8" fill-rule="nonzero" points="419.573233 344.704934 273.141439 344.704934 273.420482 427.062799 419.834835 425.274693"></polygon>
                        <polygon id="Path" fill="#394480" fill-rule="nonzero" points="240.763816 330.349408 273.141439 344.704934 273.403042 372.24684 241.025418 357.916651"></polygon>
                        <ellipse id="Oval" fill="#C8DCF0" fill-rule="nonzero" opacity="0.47" cx="345.60087" cy="139.865398" rx="133.935931" ry="110.732291"></ellipse>
                        <path d="M313.258126,98.7172327 C310.390928,98.5930614 307.519122,98.8733323 304.764777,99.5461322 C304.219262,96.6529433 302.021024,94.1577706 298.86514,92.8495792 C295.709256,91.5413878 291.985924,91.5819245 288.872448,92.9583717 C287.434043,83.3190317 277.77441,75.9748685 266.081958,75.6308937 C254.389505,75.2869189 244.127926,82.0450293 241.871265,91.5756659 C241.784064,91.5756659 241.705583,91.5756659 241.618383,91.553948 C237.014515,91.3474795 232.423472,92.1212282 228.281034,93.8017498 C226.596977,91.6995189 225.581507,89.2775161 225.32929,86.7615332 L225.32929,86.7615332 C224.044206,83.1789596 225.318625,79.3013325 228.617351,76.7570647 C231.916078,74.2127969 236.667858,73.4424909 240.877177,74.7696373 C245.98918,65.98949 258.617248,62.2118955 269.300248,66.2670827 C271.765233,54.6021254 284.516228,46.4094318 298.73635,47.3539741 C312.956472,48.2985165 323.976153,58.0701285 324.175655,69.9120689 C331.146982,66.2417395 340.373001,67.8652278 344.951225,73.567914 C351.717148,70.8101148 359.735771,71.2305935 366.029942,74.6732349 C372.324114,78.1158763 375.953945,84.0666014 375.571754,90.3160282 C375.352968,93.5957855 374.026318,96.7581441 371.743643,99.4411624 C371.743643,99.4411624 371.202999,100.407609 369.367424,101.775836 C366.685735,103.98876 363.343784,105.570233 359.683785,106.358311 C354.129099,108.124699 346.115354,109.706486 334.652821,110.339924 C330.556695,103.554337 322.387956,99.11666 313.258126,98.7172327 Z" id="Path" fill="#FFFFFF" fill-rule="nonzero"></path>
                        <path d="M146.103084,131.084131 C146.513036,125.003177 152.782658,120.349175 160.107518,120.6885 C160.233959,120.6885 160.35168,120.710218 160.478121,120.721077 C159.502901,115.501305 162.168229,110.272709 167.360535,107.21979 C172.552841,104.166872 179.378547,103.815026 184.985881,106.311256 C188.586235,100.644562 195.81126,97.2193959 203.519603,97.5249774 C211.227946,97.8305589 218.026967,101.81168 220.960534,107.737397 C224.186817,105.258554 229.018128,104.891631 232.73263,106.843344 C236.536712,104.521839 241.194494,103.370234 245.908658,103.58566 L246.096139,103.603758 C247.791806,96.4303287 255.514058,91.3426223 264.31409,91.601095 C273.114123,91.8595677 280.383968,97.3876186 281.464747,104.642597 C283.807011,103.604187 286.610226,103.572611 288.985565,104.55788 C291.360903,105.543149 293.013726,107.423051 293.419965,109.601516 C303.026457,107.251762 313.1895,111.453012 316.719995,119.233401 C320.375969,118.524718 324.220598,119.282943 327.102068,121.280917 C329.983538,123.278891 331.567137,126.284531 331.378434,129.397374 C331.364274,129.725052 331.323488,130.051563 331.256353,130.37468 C331.256353,130.407256 331.256353,130.436214 331.256353,130.46879 C331.204033,130.722166 331.134272,131.018977 331.033991,131.348365 L331.033991,131.39904 C329.852422,135.31188 324.960462,143.615354 304.677576,143.65879 C282.410875,143.705846 192.027338,142.511361 163.543226,142.127679 C160.727761,142.890317 157.685978,142.849546 154.901636,142.01185 L154.901636,142.01185 C149.381588,140.384367 145.803867,135.940871 146.103084,131.084131 Z" id="Path" fill="#FFFFFF" fill-rule="nonzero"></path>
                        <path d="M396.399555,146.967149 C396.409266,143.288261 400.008153,140.311851 404.439549,140.317854 C405.26484,140.318576 406.085195,140.42354 406.872449,140.629144 C409.934017,134.526113 418.308569,131.572447 425.725243,133.97985 C426.852927,125.992755 435.124106,120.033896 444.807858,120.232039 C454.491609,120.430182 462.399146,126.720078 463.051507,134.743595 C467.607628,132.033339 473.937982,132.845695 477.295743,136.571518 C483.015945,133.879174 490.206921,134.748849 494.764135,138.684141 C499.321349,142.619434 500.085089,148.618897 496.619421,153.258098 L496.619421,153.258098 C496.244976,153.881775 495.736717,154.443558 495.119568,154.915897 C493.402588,156.498113 491.210387,157.673516 488.766997,158.321987 C481.023574,161.217706 465.90733,163.870908 436.773573,161.869242 C426.126366,161.145313 399.150826,162.231207 396.866168,149.233049 L396.866168,149.233049 C396.553122,148.506019 396.395248,147.739225 396.399555,146.967149 L396.399555,146.967149 Z" id="Path" fill="#FFFFFF" fill-rule="nonzero"></path>
                        <polygon id="Path" fill="#9594C8" fill-rule="nonzero" points="201.571456 399.926293 201.571456 372.301135 274.623852 372.301135 274.623852 344.759229 379.661467 344.759229 380.860477 354.695164 306.37363 377.571344 278.10752 388.01403 209.750883 421.014366 110.202552 399.871999"></polygon>
                        <path d="M240.942577,414.632926 C241.504826,406.283257 250.112633,399.892281 260.170334,400.357032 C260.340375,400.357032 260.510417,400.389609 260.680458,400.400467 C260.42474,399.077302 260.339966,397.735248 260.427576,396.397136 C260.875743,389.871624 265.303833,383.987086 272.171278,380.790797 C279.038724,377.594508 287.39601,377.528399 294.335572,380.615468 C299.281087,372.835349 309.202436,368.133493 319.78672,368.55384 C330.371003,368.974186 339.706418,374.440809 343.734775,382.577318 C348.157202,379.183845 354.773597,378.679096 359.866906,381.346637 C365.092389,378.161703 371.488379,376.582815 377.961054,376.879991 L378.222656,376.901709 C380.560686,367.05992 391.159898,360.083486 403.235593,360.438118 C415.311288,360.79275 425.290217,368.373509 426.784732,378.32785 C430.001665,376.903942 433.850003,376.861439 437.111425,378.213798 C440.372847,379.566157 442.643535,382.145932 443.204625,385.136409 C456.396618,381.913085 470.350151,387.683011 475.198566,398.366225 C476.705194,398.075096 478.25351,397.960568 479.798404,398.025978 C484.142879,398.21125 488.22052,399.822452 491.133408,402.504788 C494.046296,405.187124 495.555559,408.720631 495.32885,412.32721 C495.30706,412.776213 495.25026,413.223572 495.158809,413.66648 L495.132648,413.793167 C495.062888,414.155132 494.962607,414.549674 494.827446,415.00213 C494.829421,415.025025 494.829421,415.048008 494.827446,415.070903 C493.205513,420.446082 486.491058,431.847975 458.639151,431.905889 C428.057862,431.971043 303.94509,430.334962 264.831212,429.806493 C260.962561,430.852606 256.783737,430.795274 252.958835,429.643609 L252.958835,429.643609 C245.401608,427.39036 240.518086,421.289876 240.942577,414.632926 Z" id="Path" fill="#FFFFFF" fill-rule="nonzero"></path>
                        <g id="Group" transform="translate(0.072414, 0.052850)"></g>
                        <path d="M346.124074,409.771738 C345.982891,407.462938 346.952316,405.202147 348.819068,403.486759 C350.68582,401.771372 353.296967,400.741917 356.078035,400.624886 C357.15641,400.57925 358.236887,400.66956 359.282661,400.89274 C362.771321,392.735955 373.476561,388.392811 383.371858,391.119688 C384.183713,380.619682 394.496961,372.361904 407.165792,372.067977 C419.834623,371.77405 430.6873,379.540762 432.204256,389.986738 C437.929158,386.190497 446.259307,386.890098 450.952408,391.561285 C458.200628,387.699936 467.681615,388.417494 473.96929,393.303294 C480.256965,398.189093 481.745713,405.9955 477.583505,412.254817 L477.583505,412.254817 C477.583505,412.254817 477.217262,413.15249 475.756651,414.502619 C473.647322,416.666858 470.883242,418.326991 467.747265,419.313132 C457.867425,423.519163 438.343186,427.869981 400.118754,426.914394 C386.166641,426.552429 351.011674,429.545878 346.948121,412.685555 L346.948121,412.685555 C346.470577,411.761687 346.191679,410.775509 346.124074,409.771738 Z" id="Path" fill="#EAF4FB" fill-rule="nonzero"></path>
                    </g>
                </g>
                <g id="Character">
                    <g id="Layer_4" transform="translate(280.249570, 49.873176)" fill-rule="nonzero">
                        <path d="M84.8858358,100.606925 C87.0845968,98.2247365 88.8092112,95.5668104 89.9943823,92.73378 C91.7423879,88.3413177 94.4780168,86.1487047 95.1335189,88.4751901 C95.789021,90.8016755 91.8428983,98.6277842 84.8858358,100.606925 Z" id="Path" fill="#F05D5C"></path>
                        <path d="M105.127741,87.512756 C105.127741,87.512756 113.806589,82.8959669 114.571342,77.7436883 C115.336094,72.5914096 111.459892,72.7650819 111.07533,75.7790202 C110.690769,78.7929585 109.126304,84.484345 105.127741,87.512756 Z" id="Path" fill="#F05D5C"></path>
                        <path d="M106.303275,75.2580032 C106.303275,75.2580032 92.2274595,71.63983 92.2187047,68.4160377 C92.2099794,65.1922453 96.0774419,64.9896276 98.1881587,67.9239661 C100.298876,70.8583046 106.303275,75.2580032 106.303275,75.2580032 Z" id="Path" fill="#F05D5C"></path>
                        <path d="M87.6345747,60.2389662 C87.6345747,60.2389662 81.4247846,51.8050044 75.6039258,52.4924573 C69.783067,53.1799102 74.5070523,54.8587426 76.582809,55.4123231 C78.6585657,55.9659036 85.3927574,58.3828433 87.6345747,60.2389662 Z" id="Path" fill="#F05D5C"></path>
                        <path d="M68.3497024,55.7343405 C68.3497024,55.7343405 51.8965993,58.6940062 51.0225965,56.2806846 C50.1485937,53.8673631 51.9534095,53.0894559 56.0830728,54.1097807 C60.2127362,55.1301056 68.3497024,55.7343405 68.3497024,55.7343405 Z" id="Path" fill="#F05D5C"></path>
                        <path d="M41.0283742,49.1999196 C41.0283742,49.1999196 34.2111522,41.5113015 28.5913141,41.7681918 C22.9714759,42.0250821 24.6189712,44.2683495 27.8047115,44.6301668 C30.9904518,44.9919842 41.0283742,49.1999196 41.0283742,49.1999196 Z" id="Path" fill="#F05D5C"></path>
                        <path d="M7.45355584,42.9332436 C7.45355584,42.9332436 1.44915645,40.1725774 0.234292531,36.9741123 C-0.980571391,33.7756471 3.29330241,30.6097456 4.67859688,33.0701034 C6.06389135,35.5304611 7.04714452,43.3927516 11.2030279,43.8992958 C11.2030279,43.881205 8.85196035,43.6568782 7.45355584,42.9332436 Z" id="Path" fill="#F05D5C"></path>
                        <path d="M40.7705434,50.1080811 C71.5572928,55.9731399 103.388476,62.0480528 106.434375,75.7717838 C107.461329,80.4175183 106.242095,84.7955079 102.807264,88.7972075 C93.8006646,99.2645827 71.4393024,104.984915 58.9760222,107.456127 C57.057586,107.836035 54.0073161,108.367907 54.0073161,108.367907 L54.0073161,108.331725 C53.976726,108.331725 45.4071284,109.847739 43.5717224,110.195084 C37.5848031,111.342045 28.4034035,113.183695 15.7391026,115.90818 L15.9270132,116.834432 C27.944552,114.251056 36.942411,112.434733 42.9424404,111.276918 C46.9803334,110.502629 55.8558321,109.037269 59.4742038,108.335343 C72.0030342,105.896694 94.4343166,100.183599 103.746817,89.3326971 C107.365188,85.1283798 108.649973,80.5079726 107.566209,75.6053479 C104.384839,61.2737637 72.1690947,55.1373419 41.0458543,49.1926833 C29.9066883,47.0688156 18.5970918,44.9160025 8.55042938,42.3796631 L8.98743079,43.4651151 C18.8636627,45.9327092 29.8979483,48.038486 40.7705434,50.1080811 Z" id="Path" fill="#F05D5C"></path>
                        <path d="M95.172849,37.6326198 C95.172849,37.6326198 78.9557267,42.0467911 66.7677573,28.3918054 L73.9258404,22.0527659 L95.6754006,29.1335309 L95.172849,37.6326198 Z" id="Path" fill="#171338"></path>
                        <path d="M66.7852374,28.3918054 C64.8493211,18.0800116 45.4945286,7.54389119 61.0124487,14.0638394 C79.5238285,21.84653 72.3744854,-4.83026127 79.1960774,12.4103342 C86.0176695,29.6509296 102.073101,10.3117937 98.5508699,19.0424457 C95.0286385,27.7730977 122.358707,29.1733308 112.456255,30.8340723 C103.423436,32.3428505 95.172849,37.6326198 95.172849,37.6326198 C95.172849,37.6326198 91.8428983,32.2958143 83.6709719,29.6328388 C74.2579615,26.5682461 66.7852374,28.3918054 66.7852374,28.3918054 Z" id="Path" fill="#394480"></path>
                        <ellipse id="Oval" fill="#F05D5C" cx="119.382727" cy="28.1638604" rx="1.84414595" ry="1.51963276"></ellipse>
                        <ellipse id="Oval" fill="#F05D5C" cx="103.218045" cy="11.1512099" rx="3.31684071" ry="2.73533896"></ellipse>
                        <ellipse id="Oval" fill="#F05D5C" cx="75.1450744" cy="2.01532249" rx="2.32047749" ry="1.91401364"></ellipse>
                        <ellipse id="Oval" fill="#F05D5C" cx="53.2993738" cy="7.54389119" rx="1.41151456" ry="1.16143361"></ellipse>
                        <path d="M74.8610234,11.780772 C74.9659038,11.3393549 75.7830964,11.3683003 75.9928571,11.780772 C77.1815009,14.1832391 80.917863,22.7944914 77.9069233,24.0101976 C74.3453618,25.4574669 72.6978665,23.9486886 73.182938,22.4435286 C73.6680096,20.9383685 74.2885516,14.244748 74.8610234,11.780772 Z" id="Path" fill="#171338"></path>
                        <path d="M86.9790726,26.2353741 C86.804272,26.6659367 86.8785622,27.6030436 87.2762335,27.9142065 C88.2813368,28.7102046 91.2092462,30.327528 91.5501073,29.3614758 C92.6251308,26.4199009 96.3571228,21.4340582 96.8247143,19.6720079 C97.1306153,18.5141924 88.4299172,22.6714735 86.9790726,26.2353741 Z" id="Path" fill="#171338"></path>
                        <path d="M97.7817474,36.1310779 C97.7817474,36.1310779 109.213704,32.3030506 110.100817,31.3152893 C110.90053,30.4252187 103.698747,30.9896537 101.62299,32.3247597 C100.176515,33.251012 97.7424173,34.8357719 97.7817474,36.1310779 Z" id="Path" fill="#171338"></path>
                        <path d="M58.6744912,16.2311251 C58.6744912,16.2311251 65.7058439,19.1437546 66.0816651,22.3820196 C66.4618563,25.7215935 65.8981245,25.6383755 65.8981245,25.6383755 C65.8981245,25.6383755 58.8055916,17.4106496 58.6744912,16.2311251 Z" id="Path" fill="#171338"></path>
                    </g>
                    <g id="Layer_1">
                        <path d="M301.62378,333.44023 C299.993373,332.075105 288.676683,314.719555 289.336714,313.629628 C289.69077,313.046643 294.367811,306.648301 298.664569,300.793111 C302.423685,295.665746 305.889941,290.95842 305.889941,290.95842 L315.729211,295.166045 C315.729211,295.166045 309.137643,300.29341 303.927332,305.141956 C300.373655,308.451569 297.458154,311.634446 297.72916,312.96336 C298.389191,316.222278 305.84623,329.782999 310.287233,331.148124 C314.728236,332.513248 316.918141,331.213302 317.831693,334.218749 C318.745246,337.224196 303.254188,334.805354 301.62378,333.44023 Z" id="Path" fill="#E57E7E" fill-rule="nonzero"></path>
                        <path d="M317.90163,337.072113 C318.56987,336.935621 319.110466,336.529908 319.340221,335.992461 C319.569976,335.455015 319.45809,334.857883 319.042479,334.403421 C317.814209,333.041917 315.6855,331.144503 313.736004,331.506605 C310.76368,332.075105 303.909848,333.58507 302.371233,332.30685 C300.832617,331.02863 291.841334,315.805861 291.841334,315.805861 L292.304667,309.490802 L286.700961,312.840245 C285.617006,313.486295 285.363492,314.735063 286.132722,315.639294 L301.566957,333.838542 C301.566957,333.838542 312.870533,338.035304 317.90163,337.072113 Z" id="Path" fill="#171338" fill-rule="nonzero"></path>
                        <path d="M364.418516,340.066697 C362.106222,340.743828 349.858495,340.341894 344.477712,338.810203 C339.09693,337.278511 332.575299,341.221802 328.51895,338.495174 C326.997819,337.470425 329.729735,334.254959 330.547125,328.606168 C330.971811,325.094863 331.031769,321.559834 330.726338,318.04003 C330.41923,313.900706 329.857547,309.777046 329.043478,305.685109 L339.018251,308.610894 C339.018251,308.610894 338.755987,313.578933 338.7691,318.434722 C338.7691,322.182478 338.957056,325.857813 339.54715,327.12517 C340.90218,330.065439 343.083342,333.378672 348.166892,333.802332 C353.250442,334.225991 367.775494,335.703367 368.042129,337.028661 C368.308765,338.353954 366.73081,339.400429 364.418516,340.066697 Z" id="Path" fill="#E57E7E" fill-rule="nonzero"></path>
                        <path d="M330.866212,325.079294 C330.866212,325.079294 332.820079,336.416708 336.343158,337.115565 C339.267864,337.728583 342.235701,338.190549 345.229536,338.498795 C349.67491,338.94418 357.520973,339.356977 358.823551,337.676823 C360.200437,335.895281 360.060563,332.991223 362.359744,333.918204 C363.107196,334.218749 370.044078,337.698549 370.367537,338.151177 C371.595806,339.892888 366.455432,340.812627 356.694842,340.323789 C346.934251,339.834951 333.869135,339.838572 330.402879,339.371461 C328.330994,339.092642 326.425209,339.346114 327.653479,335.85545 C328.941418,332.310203 330.013679,328.713623 330.866212,325.079294 L330.866212,325.079294 Z" id="Path" fill="#171338" fill-rule="nonzero"></path>
                        <path d="M305.889941,290.95842 L315.729211,295.166045 C315.729211,295.166045 312.4072,297.360384 307.19689,302.20893 C304.875854,300.814837 296.649507,306.630196 295.395011,305.217998 C299.175983,300.105117 305.889941,290.95842 305.889941,290.95842 Z" id="Path" fill="#D37477" fill-rule="nonzero"></path>
                        <path d="M338.7691,318.445585 C336.334416,318.78234 333.960927,323.047901 330.901181,322.548201 C330.433477,315.94346 329.034736,305.695972 329.034736,305.695972 L339.009509,308.621757 C339.009509,308.621757 338.755987,313.589797 338.7691,318.445585 Z" id="Path" fill="#D37477" fill-rule="nonzero"></path>
                        <path d="M342.698688,210.731095 C342.698688,210.731095 338.856521,256.555106 337.772497,261.490557 C336.688472,266.426007 319.134271,300.724311 319.134271,300.724311 C319.134271,300.724311 295.124005,289.955397 294.424635,285.190135 C293.725264,280.424872 325.498543,236.940039 325.498543,236.940039 L321.888043,210.731095 L342.698688,210.731095 Z" id="Path" fill="#171338" fill-rule="nonzero"></path>
                        <path d="M354.015378,311.992927 C352.887643,313.111822 343.214474,313.528239 334.048349,312.355029 C329.401905,311.768423 324.86911,310.776264 321.678232,309.266298 C320.698214,308.804335 320.047233,307.97924 319.929805,307.050234 L312.227987,217.611033 L311.598553,210.282088 L330.861841,209.235613 C330.861841,209.235613 355.820629,310.204143 354.015378,311.992927 Z" id="Path" fill="#394480" fill-rule="nonzero"></path>
                        <g id="Group" opacity="0.29" transform="translate(312.188669, 216.713020)" fill="#171338" fill-rule="nonzero">
                            <path d="M21.8596792,95.6601135 C17.213236,95.0735082 12.6804404,94.0813486 9.4895622,92.5713832 C8.50954461,92.1094196 7.85856317,91.2843252 7.74113577,90.3553188 L0.0393173312,0.916118128 L10.5298759,0.0217261216 L21.8596792,95.6601135 Z" id="Path"></path>
                        </g>
                        <path d="M331.250866,130.409623 C331.04785,130.693424 330.802608,130.954977 330.520898,131.188142 C327.78024,133.48749 312.262955,146.834571 311.629151,155.209991 C310.934151,164.40014 313.766602,177.13889 302.393088,189.200508 C291.019574,201.262127 274.072951,190.13111 278.789331,202.000815 C282.02392,210.162595 305.452834,226.696173 315.353299,214.525924 C316.352816,213.297191 317.359618,211.969484 318.373706,210.542802 C323.138168,203.778736 342.327148,201.721996 353.289781,202.830029 C355.87526,203.101058 358.288832,201.707097 358.876004,199.603699 L371.61329,186.930128 C371.876561,185.969565 371.721751,184.962835 371.176184,184.087628 L357.088238,161.372967 C356.910261,161.083843 356.772421,160.778938 356.677358,160.464091 L350.994972,141.406662 C350.899908,141.091815 350.762068,140.78691 350.584092,140.497786 L345.465573,132.238238 C344.877258,131.291262 343.877668,130.564115 342.668091,130.203225 L337.309164,128.609976 C335.030075,127.941164 332.497587,128.693452 331.250866,130.409623 L331.250866,130.409623 Z" id="Path" fill="#171338" fill-rule="nonzero"></path>
                        <path d="M341.710827,145.476688 C341.710827,145.476688 336.465548,155.358453 338.257685,156.075415 C339.367556,156.515 340.523357,156.870113 341.710827,157.136374 C341.710827,157.136374 334.559763,162.509968 332.059514,157.136374 L330.844357,155.195507 L332.570928,155.391042 C333.017054,155.442433 333.469465,155.343921 333.827421,155.11744 C334.185378,154.890959 334.419161,154.555313 334.476713,154.185242 L335.770549,146.161061 L341.710827,145.476688 Z" id="Path" fill="#D37477" fill-rule="nonzero"></path>
                        <path d="M326.949737,154.590796 L319.427133,191.217416 L324.313984,190.735821 C324.313984,190.735821 308.14104,193.994739 306.82972,192.466668 C305.5184,190.938598 326.949737,154.590796 326.949737,154.590796 Z" id="Path" fill="#F8B07B" fill-rule="nonzero"></path>
                        <path d="M303.210477,164.707927 C303.210477,164.707927 314.876853,156.857555 318.946315,155.416389 C323.015778,153.975223 313.63547,149.13754 309.920064,154.619765 C306.204658,160.101989 303.210477,164.707927 303.210477,164.707927 Z" id="Path" fill="#F05D5C" fill-rule="nonzero"></path>
                        <path d="M352.533587,138.651065 C352.878901,143.463401 353.69192,148.449546 357.678332,152.200923 C361.424335,155.727797 367.154803,157.936619 369.340336,162.495484 C369.593858,163.031395 370.651656,162.796028 370.393763,162.252875 C368.505462,158.320447 364.248044,156.079036 360.602575,153.341544 C355.357296,149.391011 354.045976,144.328825 353.608869,138.651065 C353.565159,138.071702 352.472392,138.068081 352.516103,138.651065 L352.533587,138.651065 Z" id="Path" fill="#171338" fill-rule="nonzero"></path>
                        <path d="M373.405428,186.390596 C375.590961,192.658583 371.342284,198.390658 367.0193,203.253688 C366.582193,203.724421 367.548199,204.173427 367.96345,203.709936 C372.470019,198.640508 376.740551,192.658583 374.458854,186.147988 C374.40654,185.992101 374.257808,185.871177 374.068685,185.830765 C373.879562,185.790353 373.67878,185.836594 373.541972,185.952069 C373.405163,186.067544 373.353113,186.23471 373.405428,186.390596 Z" id="Path" fill="#171338" fill-rule="nonzero"></path>
                        <path d="M303.332867,188.624766 C296.898658,193.415376 288.471243,195.671271 280.240525,192.607888 C279.602349,192.372522 279.047224,193.151041 279.689771,193.390029 C288.383821,196.6236 297.265827,194.356841 304.106546,189.262066 C304.631074,188.870995 303.853024,188.233696 303.332867,188.621145 L303.332867,188.624766 Z" id="Path" fill="#171338" fill-rule="nonzero"></path>
                        <path d="M331.722941,129.888196 C331.722941,129.888196 328.759359,133.176083 328.164894,136.228603 C327.570429,139.281123 326.853574,148.489377 331.762281,149.626378 C335.849228,150.582327 340.73608,148.78268 345.469944,145.002335 C345.469944,145.002335 349.75796,146.707835 350.793903,142.681261 C351.829845,138.654686 342.488877,129.26176 342.488877,129.26176 L331.722941,129.888196 Z" id="Path" fill="#E37D80" fill-rule="nonzero"></path>
                        <path d="M328.339736,128.635323 C327.90263,129.565925 328.059988,132.890022 331.115363,134.153758 C334.170738,135.417494 345.33007,133.668541 346.261107,140.932308 C347.192144,148.196075 353.69192,160.6379 346.331044,163.657831 C337.304793,167.351272 364.283013,185.228249 352.918241,190.265088 C340.57435,195.73645 323.260557,203.840293 323.260557,203.840293 L329.331968,211.158375 C329.331968,211.158375 361.953234,206.27724 369.305368,198.484804 C376.299073,191.083439 379.026619,180.683869 369.305368,168.908311 C359.584117,157.132753 354.609843,156.752546 355.820629,140.957655 C357.031414,125.162765 345.832743,124.663064 338.183377,126.035431 C332.514104,127.042074 332.151306,120.632868 328.339736,128.635323 Z" id="Path" fill="#171338" fill-rule="nonzero"></path>
                        <ellipse id="Oval" fill="#171338" fill-rule="nonzero" transform="translate(334.515536, 139.489379) rotate(-72.000000) translate(-334.515536, -139.489379) " cx="334.515536" cy="139.489379" rx="1.22278373" ry="1"></ellipse>
                        <ellipse id="Oval" fill="#171338" fill-rule="nonzero" transform="translate(329.491225, 138.334952) rotate(-72.000000) translate(-329.491225, -138.334952) " cx="329.491225" cy="138.334952" rx="1.22278373" ry="1"></ellipse>
                        <path d="M362.031914,216.734746 L363.841535,225.446921 L361.153329,230.190458 C361.153329,230.190458 361.188298,231.070366 361.878926,231.095787 C362.569555,231.12106 366.687099,224.639434 366.687099,224.639434 L364.326723,219.740193 L362.031914,216.734746 Z" id="Path" fill="#E57E7E" fill-rule="nonzero"></path>
                        <path d="M363.400057,218.726307 L365.275245,226.779457 L361.940121,230.606875 C361.940121,230.606875 363.360718,231.153649 364.248044,230.342541 C365.135371,229.531432 367.976563,223.600201 367.976563,223.600201 L364.580245,214.522303 L360.209179,214.044328 C360.209179,214.044328 358.4083,218.599572 358.65308,219.899518 C358.897859,221.199464 358.386445,224.244742 358.386445,224.244742 C358.386445,224.244742 359.697764,224.860316 360.432103,224.317163 C361.166443,223.77401 360.672512,219.667773 360.672512,219.667773 L362.202385,222.828923 L360.453959,228.45961 C360.453959,228.45961 360.545751,229.976817 361.179556,229.84284 C361.81336,229.708862 365.262131,223.77401 365.262131,223.77401 L363.037259,219.790887" id="Path" fill="#E57E7E" fill-rule="nonzero"></path>
                        <polygon id="Path" fill="#E57E7E" fill-rule="nonzero" points="364.55839 214.754048 360.169839 214.276074 354.749718 198.332721 351.934751 190.047827 357.99742 190.406308 359.846381 197.271762"></polygon>
                        <path d="M330.73508,139.502005 C330.73508,139.502005 328.549547,142.576251 327.00219,143.260624 C325.454833,143.944997 329.95266,145.187007 330.271747,144.66558 C330.590835,144.144153 330.73508,139.502005 330.73508,139.502005 Z" id="Path" fill="#E85A5B" fill-rule="nonzero"></path>
                        <path d="M333.182877,148.409715 C332.429072,148.409144 331.692558,148.222574 331.067282,147.873804 C331.020166,147.846291 330.98879,147.803931 330.980522,147.756671 C330.972254,147.709411 330.987822,147.661415 331.023571,147.623953 C331.058349,147.585539 331.110124,147.560143 331.167505,147.553353 C331.224887,147.546562 331.283174,147.558933 331.329545,147.587743 C331.434451,147.652922 333.952185,149.162887 336.504888,146.421775 C336.579724,146.342781 336.717692,146.329001 336.813048,146.390996 C336.908404,146.452991 336.925038,146.567285 336.850202,146.646278 C335.547624,148.033129 334.231933,148.409715 333.182877,148.409715 Z" id="Path" fill="#171338" fill-rule="nonzero"></path>
                        <ellipse id="Oval" fill="#E85A5B" fill-rule="nonzero" transform="translate(336.685433, 144.256824) rotate(-9.920000) translate(-336.685433, -144.256824) " cx="336.685433" cy="144.256824" rx="2.37028883" ry="1"></ellipse>
                        <path d="M326.285335,137.456129 C327.870069,137.323431 329.284757,138.279783 329.445616,139.592531 C329.476646,139.871042 329.447036,140.151906 329.358195,140.421744 L329.401905,140.30225 L331.316432,140.751257 C331.802705,139.724405 333.07415,139.106642 334.393365,139.256253 C335.712581,139.405864 336.736822,140.283978 336.872057,141.381315 L336.872057,141.381315 L347.992049,140.874372 L348.180005,141.345104 L336.872057,141.75428 C336.786811,143.002228 335.555138,143.98496 334.046556,144.008701 C332.537975,144.032442 331.262134,143.089171 331.119734,141.844805 C331.096817,141.6394 331.107107,141.43238 331.150332,141.229232 L329.275144,140.642626 L329.275144,140.6209 C328.797747,141.739548 327.401926,142.398666 325.996753,142.168983 C324.591581,141.9393 323.602588,140.890373 323.673887,139.705346 C323.745187,138.520319 324.855186,137.558059 326.280964,137.445265 L326.285335,137.456129 Z" id="Path" fill="#171338" fill-rule="nonzero"></path>
                        <path d="M337.029416,138.527951 C336.939596,138.529064 336.858101,138.484536 336.823976,138.415699 C336.107121,136.967291 334.201336,137.347498 334.131399,137.365603 C334.053317,137.382421 333.970336,137.363453 333.913714,137.315844 C333.857092,137.268236 333.835431,137.199219 333.85689,137.134793 C333.87835,137.070367 333.93967,137.020319 334.017751,137.003501 C334.043978,137.003501 336.369385,136.511042 337.230485,138.267237 C337.275564,138.361223 337.221003,138.467763 337.108095,138.506224 C337.083518,138.517057 337.056923,138.524401 337.029416,138.527951 L337.029416,138.527951 Z" id="Path" fill="#E85A5B" fill-rule="nonzero"></path>
                        <path d="M331.762281,136.706577 C331.688812,136.707275 331.619837,136.677345 331.578696,136.626915 C331.543728,136.583463 330.704483,135.594924 328.803069,136.391549 C328.732874,136.426539 328.644952,136.42607 328.575306,136.390335 C328.505661,136.3546 328.465988,136.289599 328.472533,136.221951 C328.479079,136.154302 328.530743,136.095367 328.606371,136.069278 C330.853099,135.12057 331.932753,136.413275 331.941495,136.43138 C331.974518,136.471574 331.986639,136.521081 331.975129,136.568757 C331.963618,136.616434 331.929444,136.658271 331.8803,136.684851 C331.844689,136.702177 331.803398,136.709778 331.762281,136.706577 L331.762281,136.706577 Z" id="Path" fill="#E85A5B" fill-rule="nonzero"></path>
                        <g id="Group" transform="translate(323.234331, 137.598770)" fill="#394480" fill-rule="nonzero">
                            <polygon id="Path" points="13.1219404 1.9828972 7.31716462 5.28888871 7.75864229 5.75600032 13.7907135 2.19291638"></polygon>
                            <polygon id="Path" points="13.8868769 2.43914575 8.10832758 5.81755767 8.12581185 6.17603867 14.157883 2.61657575"></polygon>
                            <polygon id="Path" points="5.83100215 0.0746195176 0.0218553304 3.37699 0.463333005 3.84410162 6.49977526 0.284638693"></polygon>
                            <polygon id="Path" points="6.59156765 0.530868072 0.813018291 3.90927998 0.830502555 4.26776099 6.86694481 0.704677045"></polygon>
                        </g>
                        <path d="M359.846381,197.268141 C358.061233,197.220614 356.295689,197.588143 354.749718,198.3291 L351.943493,190.044206 L358.006162,190.406308 L359.846381,197.268141 Z" id="Path" fill="#D37477" fill-rule="nonzero"></path>
                        <path d="M345.933277,155.709692 C345.933277,155.709692 366.577822,188.899964 364.772572,191.876442 C362.967322,194.852921 352.572927,191.000155 343.424285,196.145625 L335.333442,171.566139 L345.933277,155.709692 Z" id="Path" fill="#F8B07B" fill-rule="nonzero"></path>
                        <path d="M356.192169,224.194048 C355.24125,224.504759 354.270944,224.773098 353.28541,224.997915 L353.071228,225.048609 L352.861417,225.095682 C352.570013,225.160861 352.278608,225.222418 351.987204,225.280354 C350.122563,225.650339 348.236128,225.940406 346.335415,226.149399 L346.112491,226.174746 L345.893938,226.196472 C343.64721,226.442702 341.273721,226.61289 338.839037,226.732383 L338.616113,226.732383 L338.40193,226.732383 C335.508285,226.86274 332.531589,226.913434 329.581119,226.909993 L329.144012,226.909993 C326.084266,226.909993 323.085715,226.830151 320.209553,226.725141 L319.986629,226.725141 L319.776818,226.725141 C317.106096,226.623753 314.566507,226.493396 312.249842,226.363039 L312.031289,226.363039 L311.812735,226.363039 C308.197864,226.142157 305.155602,225.90317 303.048748,225.722119 L302.834566,225.700393 L302.598528,225.700393 C300.88507,225.54831 299.905951,225.446921 299.905951,225.446921 C304.631074,216.513864 309.421762,204.937462 313.631099,193.726784 C313.736004,193.451586 313.836539,193.176388 313.941445,192.904812 L313.941445,192.904812 C314.033237,192.662204 314.120658,192.423216 314.212451,192.180608 C314.531539,191.318805 314.846255,190.464244 315.156601,189.609683 C316.935625,184.724927 318.583517,180.017601 320.034711,175.708587 L320.471817,174.448472 C320.616062,174.01757 320.760308,173.59029 320.908924,173.170251 C324.633072,162.111656 327.028416,154.192484 327.028416,154.192484 L332.216872,154.192484 C332.216872,154.192484 331.954608,157.0893 334.402405,157.661422 L334.612216,157.708495 L334.826398,157.737463 C334.994409,157.756752 335.163825,157.766431 335.333442,157.766431 C336.441812,157.81153 337.5313,157.516271 338.393188,156.937218 C338.471867,156.882902 338.546176,156.824966 338.616113,156.76703 C338.68605,156.709093 338.786584,156.62581 338.865263,156.553389 C339.490326,155.992131 339.905577,155.365695 340.508784,154.99273 L343.463625,155.394663 L343.682178,155.423631 L343.89636,155.452599 L345.928906,155.720555 C341.177557,186.470259 356.192169,224.194048 356.192169,224.194048 Z" id="Path" fill="#F48A77" fill-rule="nonzero"></path>
                        <g id="Group" transform="translate(0.072674, 0.052893)"></g>
                        <path d="M317.600027,191.916273 C315.414494,205.17645 313.228961,218.668371 312.031289,226.315966 L311.812735,226.315966 C308.197864,226.095084 305.155602,225.856096 303.048748,225.675045 L302.834566,225.653319 C306.466922,218.501804 312.861791,204.517424 313.941445,192.839634 L313.941445,192.839634 C314.033237,192.597025 314.120658,192.358038 314.212451,192.11543 C314.531539,191.253627 314.846255,190.399066 315.156601,189.544505 L317.412071,191.717117 L317.600027,191.916273 Z" id="Path" fill="#F48A77" fill-rule="nonzero"></path>
                        <path d="M329.353824,226.920676 L329.144012,226.920676 C326.084266,226.920676 323.085715,226.841014 320.209553,226.736004 L319.986629,226.736004 C320.301346,220.410082 320.957006,208.721428 322.027917,196.218045 L322.237728,196.424444 L328.829296,202.819165 L329.025994,203.01108 C328.824925,212.385901 328.864264,221.022034 329.353824,226.920676 Z" id="Path" fill="#F48A77" fill-rule="nonzero"></path>
                        <path d="M328.182378,154.192484 C325.371782,163.422465 323.374205,180.459365 322.027917,196.196319 L321.83559,196.011647 L317.792354,192.090082 L317.600027,191.90541 C318.59663,185.840201 319.588862,179.825687 320.480559,174.437609 C320.624805,174.006707 320.76905,173.579427 320.917666,173.159388 C324.641814,162.100793 327.037159,154.181621 327.037159,154.181621 L328.182378,154.192484 Z" id="Path" fill="#F48A77" fill-rule="nonzero"></path>
                        <path d="M336.181429,209.938091 L335.945391,209.713588 L329.253289,203.217478 L329.025994,203.000216 C329.428132,184.685096 330.743823,163.505748 331.364514,154.192484 L332.199388,154.192484 C332.199388,154.192484 331.937124,157.0893 334.384921,157.661422 L334.594732,157.708495 C331.967721,170.21912 334.022122,193.114831 336.181429,209.938091 Z" id="Path" fill="#F48A77" fill-rule="nonzero"></path>
                        <path d="M346.10812,226.167504 L345.889567,226.18923 C343.642839,226.43546 341.26935,226.605648 338.834666,226.725141 L338.611742,226.725141 C338.012906,223.02808 337.086239,217.017186 336.181429,209.927228 L336.443693,210.184321 L342.764254,216.314708 L343.057116,216.597148 C343.918216,219.812614 344.949787,223.017217 346.10812,226.167504 Z" id="Path" fill="#F48A77" fill-rule="nonzero"></path>
                        <path d="M353.071228,225.041367 L352.861417,225.08844 C352.570013,225.153618 352.278608,225.215176 351.987204,225.273112 L343.36309,216.904934 L343.048374,216.597148 C336.286334,191.79678 337.755013,166.13823 338.624855,156.76703 C338.712276,156.69823 338.795326,156.62581 338.874006,156.553389 C339.499068,155.992131 339.914319,155.365695 340.517526,154.99273 L343.463625,155.394663 L343.682178,155.423631 C337.571428,174.426746 350.094532,215.749829 353.071228,225.041367 Z" id="Path" fill="#F48A77" fill-rule="nonzero"></path>
                        <path d="M314.212451,192.11543 C313.338237,203.887366 306.781638,218.338858 303.048748,225.678666 L302.834566,225.65694 L302.598528,225.65694 C306.13035,218.690097 312.332892,205.147481 313.631099,193.683331 C313.736004,193.408134 313.836539,193.132936 313.941445,192.86136 L313.941445,192.86136 C314.033237,192.593404 314.120658,192.354417 314.212451,192.11543 Z" id="Path" fill="#F05D5C" fill-rule="nonzero"></path>
                        <path d="M320.908924,173.170251 C319.956032,178.927674 318.872007,185.48172 317.787983,192.100945 C315.60245,205.299564 313.416917,218.708202 312.245471,226.344934 L312.026918,226.344934 L311.808364,226.344934 C313.010408,218.646645 315.222167,205.067819 317.4077,191.753327 C318.316882,186.220409 319.221692,180.734563 320.03034,175.733934 L320.467446,174.473819 C320.624805,174.01757 320.76905,173.59029 320.908924,173.170251 Z" id="Path" fill="#F05D5C" fill-rule="nonzero"></path>
                        <path d="M328.414044,154.192484 C325.599078,163.411602 323.605872,180.578859 322.237728,196.413581 C321.17993,208.837301 320.52427,220.43905 320.209553,226.732383 L319.986629,226.732383 L319.776818,226.732383 C320.091535,220.373872 320.755937,208.605556 321.83559,196.036994 C323.181878,180.347114 325.175084,163.411602 327.955082,154.206968 L328.414044,154.192484 Z" id="Path" fill="#F05D5C" fill-rule="nonzero"></path>
                        <path d="M329.576748,226.920676 L329.139641,226.920676 C328.650082,220.974961 328.615113,212.266407 328.824925,202.811923 C329.227063,184.543876 330.525269,163.484022 331.14159,154.196105 L331.578696,154.196105 C330.958005,163.541959 329.642314,184.866147 329.248918,203.221099 C329.056591,212.534363 329.09156,221.083592 329.576748,226.920676 Z" id="Path" fill="#F05D5C" fill-rule="nonzero"></path>
                        <path d="M336.443693,210.195184 C337.339761,217.169269 338.244572,223.075153 338.834666,226.725141 L338.611742,226.725141 L338.397559,226.725141 C337.789981,222.977385 336.858944,216.879587 335.945391,209.706346 C333.80794,192.879465 331.788507,170.099626 334.393663,157.65418 L334.603474,157.701253 L334.817656,157.730221 C332.195017,170.258951 334.288757,193.342955 336.443693,210.195184 Z" id="Path" fill="#F05D5C" fill-rule="nonzero"></path>
                        <path d="M346.331044,226.142157 L346.10812,226.167504 L345.889567,226.18923 C344.683152,222.930312 343.642839,219.638805 342.751141,216.314708 C336.194542,191.847474 337.54083,166.449638 338.380075,156.929976 C338.458754,156.87566 338.533062,156.817724 338.602999,156.759788 C338.672936,156.701851 338.773471,156.618568 338.85215,156.546147 C337.977937,165.779749 336.47429,191.909031 343.341235,216.897692 C344.215448,220.01177 345.198938,223.107742 346.331044,226.142157 Z" id="Path" fill="#F05D5C" fill-rule="nonzero"></path>
                        <path d="M353.28541,224.990673 L353.071228,225.041367 L352.861417,225.08844 C349.902205,215.786039 337.418441,174.394156 343.463625,155.3838 L343.682178,155.412768 L343.89636,155.441736 C337.838063,174.303631 350.317457,215.68465 353.28541,224.990673 Z" id="Path" fill="#F05D5C" fill-rule="nonzero"></path>
                    </g>
                    <g id="Layer_3" transform="translate(262.733972, 165.623608)" fill="#F05D5C" fill-rule="nonzero">
                        <path d="M76.7384308,75.2208895 C76.7384308,75.2208895 67.9750566,62.9008825 61.0639609,60.9876579 C54.1528652,59.0744333 50.8109005,62.6870942 58.5127094,65.0206484 C66.2145183,67.3542027 76.7384308,75.2208895 76.7384308,75.2208895 Z" id="Path"></path>
                        <path d="M51.2477586,65.9990019 C51.2477586,65.9990019 28.9679937,67.3795674 25.1323792,63.0168356 C21.2967648,58.6541037 26.4167421,59.0635627 29.2432143,60.4513753 C32.0696864,61.8391878 44.2405541,65.7054959 51.2477586,65.9990019 Z" id="Path"></path>
                        <path d="M26.648277,52.7803592 C26.648277,52.7803592 26.4167421,40.2900463 21.0259127,34.8402549 C15.6350833,29.3904636 14.8618444,35.3258082 17.683948,38.931222 C20.5060516,42.5366358 24.3154545,49.0807336 26.648277,52.7803592 Z" id="Path"></path>
                        <path d="M14.2589802,41.4568234 C14.2589802,41.4568234 -2.5644266,33.919878 0.480474607,23.8899429 C2.18858992,18.2662221 8.48371566,19.6757758 6.12905031,23.8899429 C4.93642759,26.0242029 6.72754595,35.9273144 14.2589802,41.4568234 Z" id="Path"></path>
                        <path d="M14.8312644,10.4321471 C14.8312644,10.4321471 31.4012935,-0.550776781 35.8266664,5.13454407 C38.8540933,9.02259333 35.778612,7.19633347 29.1339997,8.16381637 C22.4893875,9.13129927 14.8312644,10.4321471 14.8312644,10.4321471 Z" id="Path"></path>
                        <ellipse id="Oval" cx="131.817505" cy="173.853416" rx="8.30030458" ry="1.23924776"></ellipse>
                        <path d="M132.145148,120.022232 C132.145148,120.022232 115.007204,116.989337 111.669607,111.481569 C108.332011,105.973801 125.400059,110.115497 132.145148,120.022232 Z" id="Path"></path>
                        <path d="M120.262607,101.390034 C120.262607,101.390034 118.982613,83.2723764 111.241486,81.7758579 C103.50036,80.2793394 107.475769,84.5333653 111.241486,89.2004739 C115.007204,93.8675824 120.262607,101.390034 120.262607,101.390034 Z" id="Path"></path>
                        <path d="M108.755764,91.4325692 C108.755764,91.4325692 87.5812498,90.0483802 85.4974365,86.2328016 C83.4136231,82.417223 99.6909573,86.2328016 104.225545,88.8308736" id="Path"></path>
                        <path d="M137.295706,134.559841 C133.521251,114.876818 119.14425,88.240238 72.1077346,73.1482295 C15.189488,54.8892545 7.90269434,34.8330079 8.62351026,24.5168138 C9.46664646,12.4214658 21.7554658,3.54019023 33.4501581,1.02183587 L33.4807382,1.02183587 L33.1705689,0.119576538 L33.1705689,0.119576538 C21.0739671,2.72489565 8.37450112,11.925042 7.49641627,24.4660844 C6.75812602,35.0467962 14.114817,55.5596078 71.7145623,74.0359947 C118.213742,88.9468266 132.433475,115.242794 136.17298,134.67217 C140.231392,155.764747 133.180502,173.563533 133.114973,173.741086 L134.189644,174.038216 C134.255173,173.860663 141.384698,155.873453 137.295706,134.559841 Z" id="Path"></path>
                    </g>
                </g>
            </g>
        </g>
    </g>
</svg>