<?xml version="1.0" encoding="UTF-8"?>
<svg width="704px" height="653px" viewBox="0 0 704 653" version="1.1" xmlns="http://www.w3.org/2000/svg" xmlns:xlink="http://www.w3.org/1999/xlink">
    <!-- Generator: Sketch 60 (88103) - https://sketch.com -->
    <title>Group 4</title>
    <desc>Created with Sketch.</desc>
    <g id="Page-1" stroke="none" stroke-width="1" fill="none" fill-rule="evenodd">
        <g id="Stakeholders" transform="translate(0.000000, -1357.000000)">
            <g id="Group-4" transform="translate(-20.000000, 1357.000000)">
                <g id="1.-subscribe">
                    <ellipse id="Oval" fill="#EBF5FC" cx="347.5" cy="326.5" rx="347.5" ry="326.5"></ellipse>
                    <g id="BG" transform="translate(136.000000, 187.000000)" fill-rule="nonzero">
                        <path d="M439.230218,143.498278 C430.60673,202.424187 353.042184,219.861772 372.473776,266.357997 C375.531388,273.679701 380.990801,281.721967 389.507826,290.777022 C391.884076,293.304324 394.50732,295.910354 397.377557,298.595113 C397.850252,299.039459 398.335722,299.487808 398.825451,299.94016 C401.817766,302.688969 404.591477,305.479143 407.146585,308.310682 C410.706108,312.227576 413.969035,316.374304 416.911354,320.72035 C421.726378,327.80445 425.518427,335.458712 428.187895,343.482084 C429.206714,346.562512 430.042671,349.693773 430.6919,352.861391 C429.894273,352.183133 429.058396,351.545716 428.187895,350.951903 C424.820417,348.629438 420.982778,346.97964 416.911354,346.104126 C413.710142,345.42161 410.41206,345.233673 407.146585,345.547693 C406.524842,345.60774 405.903099,345.683799 405.281356,345.779874 C398.469863,346.827374 392.239504,350.020403 387.612788,354.834929 C384.356901,358.219467 381.973098,362.26284 380.645861,366.652135 C379.775708,366.034277 378.836049,365.508053 377.84376,365.082913 C375.167735,363.922947 372.18325,363.543675 369.275633,363.994064 C368.871074,364.054111 368.470774,364.134174 368.078991,364.226245 C365.984971,364.720155 364.030466,365.63675 362.351292,366.912338 C361.053365,366.193547 359.702872,365.562141 358.309964,365.022866 C355.199469,363.817857 351.901812,363.094595 348.545194,362.881197 C346.152077,362.734294 343.748944,362.844424 341.382376,363.209453 C341.284431,363.209453 341.195002,363.253487 341.097056,363.2695 C339.110043,357.119191 334.81551,351.85604 329.011398,348.45796 C325.313763,346.290765 321.119377,344.984262 316.776691,344.646991 C316.146432,344.598954 315.499138,344.570932 314.877395,344.566929 C314.136414,344.566929 313.386915,344.566929 312.637417,344.626976 C311.785715,344.683019 310.934012,344.776425 310.08231,344.907194 C304.278475,345.798121 298.932611,348.418104 294.832577,352.381017 C289.750299,357.287869 286.868758,363.843277 286.783988,370.691282 C283.740714,369.51485 280.326521,369.51485 277.283247,370.691282 C272.652577,372.509296 269.566518,376.689706 269.375189,381.403628 C266.080203,380.831774 262.705168,380.796568 259.397494,381.299547 C258.677806,381.411634 257.970893,381.543737 257.268238,381.699859 C253.498299,382.552426 249.945146,384.097969 246.81359,386.247402 L246.81359,388.200924 C246.451616,387.800612 246.089643,387.4003 245.736186,387.032013 C243.419555,384.510048 241.222163,382.044127 239.118458,379.63425 C223.655799,361.932458 213.299097,347.3531 199.241747,337.317281 C196.298122,335.203509 193.181089,333.312131 189.919863,331.660874 C177.96196,325.604155 162.908119,322.257548 141.057691,322.225523 C133.083853,322.15228 125.15639,321.075202 117.486825,319.023028 C39.6114069,298.839303 -43.4295864,189.345997 26.0224936,161.700459 C91.6035857,135.604128 49.7381495,114.463657 73.9903781,100.969144 C82.3839062,96.3055103 92.7661596,96.2654791 101.389647,100.54081 C118.721793,109.139509 164.709469,121.75734 265.252949,94.848375 C384.60202,62.9154964 425.202678,47.6516044 436.598457,100.612866 C438.276311,108.402935 439.319646,117.666152 439.886029,128.574651 C440.159737,133.557549 439.940189,138.553577 439.230218,143.498278 Z" id="Path" fill="#EAF4FB"></path>
                        <path d="M91.0245368,235.63758 C91.5761362,226.411094 99.9999362,219.349415 109.842724,219.862277 C110.008168,219.862277 110.173612,219.898066 110.339056,219.909996 C109.025917,211.988266 112.606858,204.051994 119.585352,199.417865 C126.563846,194.783737 135.738513,194.249537 143.275126,198.038515 C148.114773,189.436191 157.828009,184.236681 168.190855,184.70109 C178.5537,185.165498 187.693508,191.209902 191.635662,200.20578 C195.966031,196.455968 202.442522,195.898266 207.429195,198.845772 C212.542063,195.325152 218.801704,193.580544 225.135938,193.91077 C225.225024,193.91077 225.305625,193.91077 225.390468,193.93463 C227.69873,183.077109 238.065549,175.390783 249.868268,175.785925 C261.670986,176.181068 271.426457,184.541065 272.902573,195.525283 C276.050966,193.957465 279.813604,193.912844 283.003299,195.405501 C286.192994,196.898158 288.416347,199.743996 288.971846,203.045096 C301.881556,199.486453 315.534718,205.860611 320.283172,217.663199 C325.196417,216.588125 330.363026,217.739189 334.234912,220.771495 C338.106799,223.8038 340.234129,228.365056 339.979485,233.088558 C339.958464,233.58581 339.903201,234.081269 339.814041,234.571842 L339.788588,234.711024 C339.716471,235.108687 339.623144,235.546117 339.491637,236.047173 C339.482589,236.071834 339.4755,236.097088 339.470426,236.122729 C337.883861,242.059842 331.308525,254.657815 304.052697,254.725418 C274.128555,254.796997 152.671494,252.987629 114.394554,252.403064 C110.610576,253.563312 106.520801,253.500303 102.779541,252.224116 L102.779541,252.224116 C95.3891648,249.728841 90.6140069,242.991001 91.0245368,235.63758 Z" id="Path" fill="#FFFFFF"></path>
                        <path d="M292.018904,128.78005 C292.429386,121.975417 298.688621,116.767931 306.001419,117.14704 C306.125196,117.14704 306.244705,117.17087 306.37275,117.182785 C305.398881,111.341103 308.059781,105.489438 313.24383,102.072387 C318.427879,98.6553355 325.243019,98.2608956 330.842151,101.053849 C334.436687,94.7111616 341.650442,90.8765847 349.347675,91.2169683 C357.044907,91.5573519 363.835366,96.0112169 366.767312,102.642515 C369.986629,99.8814115 374.795364,99.4712187 378.500503,101.641655 C382.300858,99.0457351 386.952033,97.7584052 391.659262,97.9996373 L391.847061,98.0194957 C393.550769,90.0001185 401.257714,84.3171074 410.037056,84.6064054 C418.816399,84.8957034 426.072037,91.0717634 427.161874,99.1831938 C429.503453,98.0162516 432.308084,97.9796563 434.683905,99.0850449 C437.059725,100.190434 438.711042,102.30023 439.112742,104.743526 C448.698763,102.134053 458.826712,106.837588 462.348643,115.534543 C466.000082,114.738317 469.841344,115.586267 472.71935,117.823855 C475.597355,120.061443 477.177032,123.428157 476.984187,126.913367 C476.969748,127.279637 476.928392,127.644559 476.86041,128.005575 C476.86041,128.037349 476.86041,128.073094 476.86041,128.108838 C476.809192,128.394798 476.736634,128.724447 476.638466,129.093812 C476.639862,129.112323 476.639862,129.130903 476.638466,129.149415 C475.460452,133.518248 470.577669,142.81989 450.325216,142.871522 C428.088067,142.923153 337.837677,141.588673 309.39888,141.159734 C306.585485,142.014589 303.545314,141.967043 300.764379,141.024697 L300.764379,141.024697 C295.262868,139.188524 291.707782,134.211005 292.018904,128.78005 L292.018904,128.78005 Z" id="Path" fill="#FFFFFF"></path>
                        <polygon id="Path" fill="#FFFFFF" points="197.366224 332.743649 87 332.743649 128.736802 316.913193 238 316.764434"></polygon>
                        <path d="M200,332.743649 L200,389.121213 C195.717917,384.784227 189.751446,382.182011 183.398913,381.880816 C182.518072,381.835569 181.635182,381.835569 180.754341,381.880816 L180.754341,391.854552 L162.412955,391.15057 C160.386604,393.746889 158.995347,396.717679 158.335196,399.857924 C158.245621,399.857924 158.164578,399.857924 158.079269,399.834327 C151.709287,399.510437 145.414909,401.235532 140.271063,404.715008 C135.258341,401.800581 128.747867,402.352159 124.3951,406.060046 C121.515402,399.602472 115.814349,394.564908 108.694574,392.186751 C101.5748,389.808593 93.697234,390.310606 87,393.569279 L87,332.743649 L200,332.743649 Z" id="Path" fill="#EAF4FB"></path>
                        <path d="M240,316.764434 L240,394.443608 C238.311664,396.963149 237.054813,399.714746 236.275096,402.59846 C230.913328,401.964544 225.525619,403.574607 221.546348,407 C220.320109,404.33024 217.955519,402.26408 215.027158,401.303585 C212.098797,400.34309 208.874737,400.576186 206.138402,401.946232 C205.531288,397.280111 203.3855,392.907585 200,389.437856 L200,332.097798 L240,316.764434 Z" id="Path" fill="#C8DCF0"></path>
                        <polygon id="Path" fill="#FFFFFF" points="129 367.52194 97 366.295829 97 356.242494 129 357.468605"></polygon>
                        <polygon id="Path" fill="#FFFFFF" points="179 368.461894 147 367.235783 147 357.182448 179 358.408559"></polygon>
                        <polygon id="Path" fill="#FFFFFF" points="129 390.080831 97 388.85084 97 378.801386 129 380.027497"></polygon>
                        <polygon id="Path" fill="#FFFFFF" points="179 381.907404 179 391.960739 160.855975 391.266201 147 390.734628 147 380.681293"></polygon>
                        <path d="M129,403.442702 L129,404.170739 C126.635322,404.478111 124.453862,405.129401 122.671875,406.060046 C121.950039,405.07205 121.054949,404.127384 120,403.240185 L129,403.442702 Z" id="Path" fill="#FFFFFF"></path>
                        <polygon id="Path" fill="#FFFFFF" points="315.658063 313.004619 246 313.004619 272.341937 297.965358 342 297.965358"></polygon>
                        <path d="M317,313.004619 L317,344.577984 C316.369485,344.529786 315.721928,344.501671 315.099933,344.497654 C314.358651,344.497654 313.608849,344.497654 312.859047,344.557901 C312.006999,344.614132 311.154951,344.707849 310.302903,344.839053 C304.496714,345.732949 299.148682,348.361661 295.046984,352.337778 C289.962645,357.260979 287.079935,363.838228 286.995131,370.70905 C283.950622,369.528698 280.535045,369.528698 277.490536,370.70905 C272.853294,372.531303 269.762015,376.728084 269.57075,381.461104 C266.274428,380.887344 262.898024,380.852021 259.589009,381.356676 C258.869028,381.469137 258.161828,381.60168 257.458889,381.758322 C253.68742,382.613729 250.132826,384.164422 247,386.321016 L247,313.020685 L317,313.004619 Z" id="Path" fill="#C8DCF0"></path>
                        <path d="M276,328.04388 L276,370.68328 C271.597065,372.483462 268.661082,376.639533 268.480765,381.327237 C265.3562,380.75967 262.155726,380.724728 259.019129,381.223936 C258.336663,381.335183 257.666312,381.466296 257,381.621247 L257,328.04388 L276,328.04388 Z" id="Path" fill="#FFFFFF"></path>
                        <path d="M314,328.983834 L314,345.68216 C313.297642,345.68216 312.587211,345.68216 311.876779,345.741641 C311.069471,345.797156 310.262163,345.889683 309.454854,346.019219 C303.953539,346.901753 298.886324,349.497054 295,353.422633 L295,328.99573 L314,328.983834 Z" id="Path" fill="#FFFFFF"></path>
                        <polygon id="Path" fill="#FFFFFF" points="426.691713 289.505774 312 289.505774 353.303481 265.066975 466 265.066975"></polygon>
                        <path d="M428,289.505774 L428,350.427707 C424.619422,348.077034 420.766853,346.407199 416.67959,345.521052 C413.465925,344.830246 410.155012,344.640026 406.876833,344.95786 C406.252672,345.018636 405.62851,345.095619 405.004349,345.192861 C398.166357,346.253084 391.91176,349.484893 387.267045,354.357893 C383.998492,357.783537 381.605415,361.876019 380.273015,366.318623 C379.399477,365.693261 378.456163,365.160646 377.460013,364.730342 C374.773577,363.556288 371.777482,363.172409 368.858554,363.628269 C368.452421,363.689045 368.050564,363.77008 367.657257,363.86327 C365.55509,364.363179 363.592982,365.290906 361.907275,366.581986 C360.604299,365.854465 359.248552,365.21539 357.850225,364.669566 C354.727629,363.449921 351.417144,362.717875 348.047468,362.501886 C345.645041,362.353199 343.232559,362.464666 340.856785,362.834128 C340.758458,362.834128 340.668681,362.878698 340.570355,362.894905 C338.575611,356.669898 334.264371,351.342825 328.43768,347.903474 C324.72566,345.709957 320.514957,344.387586 316.155377,344.046219 C315.522665,343.997598 314.872853,343.969236 314.248692,343.965184 C313.504828,343.965184 312.752414,343.965184 312,344.025961 L312.235129,326.915471 L312.436058,312.195507 L312.436058,311.575591 L312.641262,296.669247 L312.739589,289.509825 L428,289.505774 Z" id="Path" fill="#EAF4FB"></path>
                        <path d="M466,266.006928 L466,360.002309 C456.977607,352.582512 443.641731,351.854726 433.741098,358.241826 C432.270026,356.176215 430.524564,354.290008 428.54573,352.627528 C427.734812,351.948068 426.885007,351.309521 426,350.714656 L426,290.453186 L466,266.006928 Z" id="Path" fill="#C8DCF0"></path>
                        <rect id="Rectangle" fill="#FFFFFF" x="329" y="293.265589" width="2" height="57.3371824"></rect>
                        <rect id="Rectangle" fill="#FFFFFF" x="338" y="290.445727" width="2" height="66.7367206"></rect>
                        <rect id="Rectangle" fill="#FFFFFF" x="347" y="288.56582" width="2" height="72.3764434"></rect>
                        <rect id="Rectangle" fill="#FFFFFF" x="358" y="289.505774" width="2" height="73.3163972"></rect>
                        <rect id="Rectangle" fill="#FFFFFF" x="365" y="293.265589" width="2" height="73.3163972"></rect>
                        <rect id="Rectangle" fill="#FFFFFF" x="377" y="293.265589" width="2" height="73.3163972"></rect>
                        <rect id="Rectangle" fill="#FFFFFF" x="388" y="289.505774" width="2" height="64.8568129"></rect>
                        <rect id="Rectangle" fill="#FFFFFF" x="397" y="291.385681" width="2" height="57.3371824"></rect>
                        <rect id="Rectangle" fill="#FFFFFF" x="406" y="290.445727" width="2" height="53.5773672"></rect>
                        <rect id="Rectangle" fill="#FFFFFF" x="416" y="292.325635" width="2" height="55.4572748"></rect>
                        <path d="M179,381.621247 L179,391.960739 L161,391.230653 C165.194949,385.534711 171.815277,382.000409 179,381.621247 Z" id="Path" fill="#FFFFFF"></path>
                        <path d="M246,388.586151 C246.328063,388.4571 246.660079,388.331901 247,388.200924 L247,389.140878 C246.664032,388.971378 246.328063,388.778764 246,388.586151 Z" id="Path" fill="#FFFFFF"></path>
                        <path d="M98.0491727,60.8635515 C97.6696867,56.5991202 99.5028129,52.4212258 102.989553,49.6038862 C106.476294,46.7865466 111.203265,45.6637814 115.729013,46.5779697 C120.073738,33.8613336 134.626592,26.6841625 148.485053,30.4233575 C149.026323,14.2532712 162.783833,1.11101981 180.263195,0.0663866794 C197.742556,-0.978246455 213.219131,10.4168648 216.012163,26.3876806 C223.710923,20.2707241 235.291218,20.9582628 242.078649,27.9352853 C251.874698,21.6570892 265.034532,22.3195908 274.033724,29.5439903 C283.032917,36.7683897 285.576257,48.7121296 280.209533,58.5461127 L280.209533,58.5461127 C280.209533,58.5461127 279.779889,59.9468934 277.820713,62.1175082 C275.03265,65.5508579 271.306392,68.23785 267.023766,69.9031503 C253.601695,76.8435621 226.834889,84.4625391 173.855517,84.7919011 C154.495769,84.9109476 106.019064,91.1410486 99.3638826,65.3476369 L99.3638826,65.3476369 C98.6442479,63.9357428 98.1992254,62.4179034 98.0491727,60.8635515 Z" id="Path" fill="#EAF4FB"></path>
                    </g>
                    <g id="object3" transform="translate(423.000000, 446.000000)" fill-rule="nonzero">
                        <g id="XMLID_667_" transform="translate(0.000000, 23.308495)">
                            <g id="XMLID_680_">
                                <g id="XMLID_685_" fill="#EAF4FB">
                                    <path d="M41.8302038,36.3256723 C37.1209896,37.4733641 9.59530046,35.6194005 2.23300771,32.992952 C1.26021227,32.6398161 0.64116063,32.2866802 0.464288732,31.9114732 C0.442179745,31.8894022 0.442179745,31.8452603 0.420070757,31.8231893 C-1.10544936,28.0269781 3.13947619,0.0188849021 3.13947619,0.0188849021 L50.8727796,7.43473935 C51.3591773,10.9219566 44.7043722,30.3665036 42.6703453,35.5752585 L42.6703453,35.5752585 C42.6040184,35.7297554 42.5598004,35.8621814 42.5155824,35.9946074 C42.4492555,36.1049624 42.2060566,36.2373883 41.8302038,36.3256723 Z" id="Path"></path>
                                </g>
                                <g id="XMLID_684_" transform="translate(3.095258, 0.000000)" fill="#9CCBF0">
                                    <path d="M0.0221089872,0.0188849021 C0.0221089872,0.0188849021 18.3725684,27.0337833 22.0205513,26.4820084 C25.6685342,25.9081625 47.7554124,7.43473935 47.7554124,7.43473935 C47.7554124,7.43473935 27.0392914,1.21071865 0.0221089872,0.0188849021 Z" id="Path"></path>
                                </g>
                                <g id="XMLID_683_" transform="translate(3.095258, 0.000000)" fill="#C8DCF0">
                                    <path d="M0.0221089872,0.0188849021 C0.0221089872,0.0188849021 18.8810751,25.1136067 22.529058,24.5397608 C26.1770409,23.9659149 47.7775214,7.43473935 47.7775214,7.43473935 C47.7775214,7.43473935 27.0392914,1.21071865 0.0221089872,0.0188849021 Z" id="Path"></path>
                                </g>
                                <g id="XMLID_682_" transform="translate(32.942391, 20.746736)" fill="#9CCBF0">
                                    <path d="M8.88781287,15.5789367 L0.0442179745,0.857582727 L0.707487591,0.0188849021 L9.72795438,14.8064518 L9.72795438,14.8064518 C9.66162742,14.9609488 9.61740944,15.0933748 9.57319147,15.2258007 C9.50686451,15.3582267 9.26366565,15.4906527 8.88781287,15.5789367 Z" id="Path"></path>
                                </g>
                                <g id="XMLID_681_" transform="translate(0.387053, 19.971065)" fill="#9CCBF0">
                                    <path d="M19.2899455,0.926981806 L1.82384561,13.0218873 C0.851050171,12.6687514 0.231998528,12.3156154 0.0551266304,11.9404085 C0.0330176432,11.9183375 0.0330176432,11.8741955 0.010908656,11.8521245 L18.7593298,0.110354977 L19.2899455,0.926981806 Z" id="Path"></path>
                                </g>
                            </g>
                            <g id="XMLID_678_" transform="translate(45.677495, 17.215376)" fill="#EBF5FC">
                                <path d="M0.264980652,0.614801778 C16.7140671,2.84397231 33.1631536,5.05107185 49.6122401,7.28024239 C50.0102019,7.32438438 50.1649648,6.7284675 49.7670031,6.68432551 C33.3179166,4.45515498 16.8688301,2.24805544 0.419743563,0.0188849021 C0.0217817929,-0.0252570887 -0.132981118,0.570659787 0.264980652,0.614801778 L0.264980652,0.614801778 Z" id="Path"></path>
                            </g>
                            <g id="XMLID_676_" transform="translate(42.228166, 21.188156)" fill="#EBF5FC">
                                <path d="M0.221089872,0.614801778 C8.68883198,2.77775933 17.311337,4.322729 26.000169,5.20556882 C26.3981307,5.24971081 26.3981307,4.63172294 26.000169,4.58758095 C17.355555,3.70474113 8.79937692,2.18184245 0.375852783,0.0188849021 C3.11408885e-14,-0.0693990795 -0.154762911,0.504446801 0.221089872,0.614801778 L0.221089872,0.614801778 Z" id="Path"></path>
                            </g>
                            <g id="XMLID_674_" transform="translate(74.009981, 25.930233)" fill="#EBF5FC">
                                <path d="M0.254107515,0.684200857 C6.06877116,1.78775063 11.9276528,2.49402248 17.8307524,2.84715841 C18.2287141,2.8692294 18.2287141,2.25124153 17.8307524,2.22917053 C11.9718707,1.8981056 6.15720711,1.16976276 0.408870426,0.0882839816 C0.0330176432,0.0220709954 -0.143854255,0.595916876 0.254107515,0.684200857 L0.254107515,0.684200857 Z" id="Path"></path>
                            </g>
                            <g id="XMLID_672_" transform="translate(97.942813, 28.302865)" fill="#EBF5FC">
                                <path d="M0.243198859,0.651094364 C3.42689302,1.20286925 6.65480516,1.40150821 9.90482628,1.26908223 C10.302788,1.24701124 10.302788,0.629023369 9.90482628,0.651094364 C6.72113212,0.783520336 3.55954694,0.606952373 0.420070757,0.0551774885 C0.0221089872,-0.0110354977 -0.154762911,0.584881378 0.243198859,0.651094364 L0.243198859,0.651094364 Z" id="Path"></path>
                            </g>
                            <g id="XMLID_670_" transform="translate(42.449255, 29.682303)" fill="#EBF5FC">
                                <path d="M0.265307847,0.617987871 C10.6786408,2.4057385 21.1361918,3.8403532 31.6379607,4.89976098 C32.0359225,4.94390297 32.0359225,4.3259151 31.6379607,4.28177311 C21.1804098,3.22236533 10.7670768,1.80982162 0.420070757,0.0220709954 C0.0442179745,-0.0441419908 -0.110544936,0.551774885 0.265307847,0.617987871 L0.265307847,0.617987871 Z" id="Path"></path>
                            </g>
                            <g id="XMLID_668_" transform="translate(46.782944, 12.025506)" fill="#EBF5FC">
                                <path d="M0.242871665,0.640058866 C6.25651619,1.63325366 12.2480517,2.60437746 18.2616963,3.59757225 C18.659658,3.66378523 18.8144209,3.06786836 18.4164592,3.00165537 C12.4028146,2.00846058 6.4112791,1.03733678 0.397634576,0.0441419908 C0.0217817929,-0.0220709954 -0.132981118,0.57384588 0.242871665,0.640058866 L0.242871665,0.640058866 Z" id="Path"></path>
                            </g>
                        </g>
                        <g id="XMLID_648_" transform="translate(60.357535, 0.000000)">
                            <g id="XMLID_661_">
                                <g id="XMLID_666_" fill="#EAF4FB">
                                    <path d="M25.0494825,23.0862612 C22.1753142,23.6380361 5.63779174,21.6737175 1.28232126,19.8638959 C0.707487591,19.6211149 0.353743796,19.378334 0.243198859,19.157624 C0.243198859,19.135553 0.221089872,19.113482 0.221089872,19.091411 C-0.596942655,16.7518855 2.82995037,0 2.82995037,0 L31.3947619,5.95916876 C31.5716338,8.07798431 26.9729644,19.5990439 25.5800982,22.6669123 L25.5800982,22.6669123 C25.5358802,22.7551962 25.4916623,22.8434802 25.4695533,22.9096932 C25.4253353,22.9979772 25.2705724,23.0421192 25.0494825,23.0862612 Z" id="Path"></path>
                                </g>
                                <g id="XMLID_665_" transform="translate(2.819042, 0.000000)" fill="#9CCBF0">
                                    <path d="M0.010908656,0.0220709954 C0.010908656,0.0220709954 10.2473697,16.8843115 12.4582685,16.6415305 C14.6691672,16.4208206 28.5536112,5.95916876 28.5536112,5.95916876 C28.5536112,5.95916876 16.2610143,1.56704067 0.010908656,0.0220709954 Z" id="Path"></path>
                                </g>
                                <g id="XMLID_664_" transform="translate(2.819042, 0.000000)" fill="#C8DCF0">
                                    <path d="M0.010908656,0.0220709954 C0.010908656,0.0220709954 10.6011135,15.7366197 12.8341212,15.4938388 C15.04502,15.2731288 28.5757202,5.95916876 28.5757202,5.95916876 C28.5757202,5.95916876 16.2610143,1.56704067 0.010908656,0.0220709954 Z" id="Path"></path>
                                </g>
                                <g id="XMLID_663_" transform="translate(20.119178, 13.463307)" fill="#9CCBF0">
                                    <path d="M4.93030415,9.62295399 L0.0442179745,0.485561899 L0.486397719,-2.27373675e-13 L5.46091985,9.18153408 L5.46091985,9.18153408 C5.41670187,9.26981806 5.3724839,9.35810205 5.35037491,9.42431503 C5.30615693,9.53467001 5.15139402,9.578812 4.93030415,9.62295399 Z" id="Path"></path>
                                </g>
                                <g id="XMLID_662_" transform="translate(0.165963, 12.580467)" fill="#9CCBF0">
                                    <path d="M11.9939797,0.529703889 L1.09424903,7.28342848 C0.519415362,7.04064753 0.165671567,6.79786658 0.0551266304,6.57715663 C0.0551266304,6.55508563 0.0330176432,6.53301464 0.0330176432,6.51094364 L11.7065629,0 L11.9939797,0.529703889 Z" id="Path"></path>
                                </g>
                            </g>
                            <g id="XMLID_659_" transform="translate(27.857324, 11.697628)" fill="#EBF5FC">
                                <path d="M0.243198859,0.375206922 C10.1038072,2.22917053 19.9423065,4.06106315 29.8029148,5.91502676 C30.0461136,5.95916876 30.1345496,5.60603283 29.8913507,5.56189084 C20.0307424,3.70792723 10.1922431,1.87603461 0.331634808,0.0220709954 C0.110544936,-0.0220709954 1.52655666e-16,0.331064931 0.243198859,0.375206922 L0.243198859,0.375206922 Z" id="Path"></path>
                            </g>
                            <g id="XMLID_657_" transform="translate(25.646425, 13.904727)" fill="#EBF5FC">
                                <path d="M0.221089872,0.463490903 C5.23982997,2.03053158 10.369115,3.20029433 15.586836,4.01692116 C15.8300349,4.06106315 15.9184708,3.68585623 15.6752719,3.66378523 C10.4796599,2.8692294 5.35037491,1.67739565 0.309525821,0.110354977 C0.0884359489,0.0220709954 -3.05311332e-16,0.375206922 0.221089872,0.463490903 L0.221089872,0.463490903 Z" id="Path"></path>
                            </g>
                            <g id="XMLID_655_" transform="translate(44.773983, 17.822329)" fill="#EBF5FC">
                                <path d="M0.129369914,0.408313415 C3.60048091,1.24701124 7.11580988,1.86499911 10.6753568,2.24020603 C10.9185557,2.26227703 10.9185557,1.88707011 10.6753568,1.86499911 C7.16002785,1.46772119 3.68891686,0.871804318 0.23991485,0.0331064931 C-0.0032840097,-0.0110354977 -0.0917199586,0.364171424 0.129369914,0.408313415 L0.129369914,0.408313415 Z" id="Path"></path>
                            </g>
                            <g id="XMLID_653_" transform="translate(59.030996, 19.977437)" fill="#EBF5FC">
                                <path d="M0.221089872,0.497447981 C2.14457176,1.02677708 4.06805365,1.30537134 6.03575351,1.33323077 C6.27895237,1.33323077 6.27895237,0.859620523 6.03575351,0.859620523 C4.11227162,0.831761096 2.21089872,0.553166834 0.331634808,0.0238377349 C0.0884359489,-0.0040216914 -6.2783112e-14,0.441729129 0.221089872,0.497447981 L0.221089872,0.497447981 Z" id="Path"></path>
                            </g>
                            <g id="XMLID_651_" transform="translate(25.591299, 19.113572)" fill="#EBF5FC">
                                <path d="M0.187780554,0.375116467 C6.40040596,1.76558918 12.6351404,2.95742293 18.9140927,3.90647573 C19.1572916,3.95061772 19.2457275,3.5754108 19.0025287,3.5533398 C12.7235763,2.58221601 6.46673293,1.41245325 0.276216503,0.0219805405 C0.0551266304,-0.0442324457 -0.0554183057,0.330974476 0.187780554,0.375116467 L0.187780554,0.375116467 Z" id="Path"></path>
                            </g>
                            <g id="XMLID_649_" transform="translate(28.741683, 8.607688)" fill="#EBF5FC">
                                <path d="M0.176871898,0.397277917 C3.75852783,1.16976276 7.36229275,1.94224759 10.9439487,2.73680343 C11.1871475,2.78094542 11.2755835,2.42780949 11.0323846,2.3836675 C7.4507287,1.61118266 3.84696378,0.838697825 0.265307847,0.0441419908 C0.0442179745,-0.0220709954 -0.0663269617,0.331064931 0.176871898,0.397277917 L0.176871898,0.397277917 Z" id="Path"></path>
                            </g>
                        </g>
                    </g>
                </g>
                <g id="Idea" transform="translate(104.000000, 26.000000)" fill-rule="nonzero">
                    <g id="Background" transform="translate(12.000000, 261.000000)">
                        <path d="M486.99852,126.452887 C477.438185,178.516729 391.447096,193.923665 412.989719,235.005291 C416.379507,241.474365 422.432026,248.580089 431.874333,256.58066 C434.508736,258.813652 437.416967,261.116204 440.599024,263.488315 C441.123072,263.880916 441.661284,264.277054 442.204216,264.676729 C445.521614,267.105432 448.596658,269.570683 451.42935,272.072483 C455.375577,275.533245 458.992985,279.197076 462.254955,283.037015 C467.59308,289.296154 471.797093,296.059058 474.75657,303.148089 C475.886072,305.869793 476.812847,308.636412 477.532608,311.435153 C476.648328,310.83588 475.721642,310.272691 474.75657,309.74803 C471.023252,307.696021 466.768695,306.238346 462.254955,305.464788 C458.705967,304.861752 455.049584,304.695701 451.42935,304.973153 C450.740062,305.026207 450.050773,305.093409 449.361485,305.178296 C441.809997,306.103812 434.902778,308.925005 429.773419,313.178867 C426.163815,316.169267 423.521039,319.74178 422.049612,323.619931 C421.084926,323.074024 420.043184,322.60908 418.943093,322.233448 C415.976347,321.208563 412.66763,320.873458 409.444133,321.271399 C408.995623,321.324453 408.551835,321.395192 408.117488,321.476542 C405.795975,321.912935 403.629135,322.72279 401.767537,323.849833 C400.328605,323.214747 398.831395,322.656869 397.287162,322.180394 C393.838746,321.115711 390.182835,320.476675 386.461557,320.288128 C383.808454,320.158332 381.144247,320.255637 378.520577,320.578158 C378.411991,320.578158 378.312847,320.617064 378.20426,320.631212 C376.001379,315.197121 371.240292,310.546877 364.805627,307.544512 C360.706284,305.629692 356.056223,304.475335 351.241753,304.17734 C350.543022,304.134897 349.825407,304.110138 349.136118,304.106601 C348.314637,304.106601 347.483714,304.106601 346.652791,304.159655 C345.708561,304.209172 344.76433,304.291701 343.820099,304.407241 C337.385741,305.194418 331.459108,307.509297 326.913649,311.010719 C321.279237,315.346157 318.084648,321.138171 317.990669,327.188709 C314.616776,326.149275 310.831668,326.149275 307.457775,327.188709 C302.324033,328.795011 298.902709,332.488602 298.690593,336.653576 C295.037643,336.148316 291.295948,336.11721 287.628931,336.561616 C286.831056,336.66065 286.047344,336.777369 285.268354,336.91531 C281.088852,337.668594 277.149688,339.034155 273.677922,340.933281 L273.677922,342.65931 C273.276624,342.305616 272.875326,341.951921 272.483471,341.626522 C269.915163,339.398246 267.479048,337.219488 265.146798,335.090246 C248.00429,319.449872 236.522445,306.568315 220.937917,297.701192 C217.674499,295.833574 214.218834,294.162452 210.603312,292.703488 C197.346313,287.352089 180.657036,284.395202 156.432797,284.366906 C147.592689,284.302193 138.803993,283.350543 130.301213,281.53735 C43.9654794,263.704069 -48.0970132,166.961527 28.9002786,142.535379 C101.606042,119.47803 55.1923823,100.799419 82.0793513,88.8763744 C91.3847448,84.7558325 102.894917,84.7204631 112.455253,88.4979212 C131.670347,96.0952808 182.654084,107.243734 294.120517,83.4683842 C426.435564,55.2541675 471.447041,41.7677931 484.080848,88.5615862 C485.940982,95.4444828 487.097665,103.628975 487.725578,113.267153 C488.029022,117.66978 487.785623,122.084009 486.99852,126.452887 Z" id="Path" fill="#EAF4FB"></path>
                        <path d="M100.619321,208.456975 C101.233204,200.250641 110.608175,193.969755 121.562358,194.425911 C121.746483,194.425911 121.930608,194.457744 122.114733,194.468355 C120.653321,187.422511 124.638603,180.363735 132.405071,176.241991 C140.171539,172.120247 150.38216,171.645113 158.769768,175.015153 C164.155882,167.363968 174.965885,162.739356 186.498848,163.152416 C198.031811,163.565475 208.203636,168.941563 212.590918,176.942788 C217.410249,173.607584 224.618031,173.111546 230.167772,175.733153 C235.857957,172.6018 242.824404,171.050089 249.873867,171.343803 C249.973011,171.343803 250.062713,171.343803 250.157136,171.365025 C252.726035,161.707995 264.26342,154.871528 277.398838,155.22298 C290.534256,155.574433 301.391264,163.010085 303.034055,172.779803 C306.537948,171.385334 310.725442,171.345648 314.275301,172.673265 C317.825159,174.000882 320.299561,176.532062 320.917784,179.468167 C335.28519,176.302996 350.479994,181.972377 355.764618,192.46998 C361.23264,191.513775 366.982635,192.537569 371.291714,195.234599 C375.600794,197.93163 377.968331,201.988558 377.684933,206.189793 C377.661539,206.632065 377.600036,207.072742 377.500808,207.509074 L377.472481,207.632867 C377.392222,207.986562 377.288356,208.375626 377.142001,208.821281 C377.131931,208.843215 377.124041,208.865677 377.118395,208.888483 C375.352683,214.169143 368.034895,225.374187 337.701484,225.434315 C304.398468,225.49798 169.227123,223.88867 126.628155,223.368739 C122.416911,224.400701 117.865341,224.344658 113.701637,223.209576 L113.701637,223.209576 C105.476779,220.990198 100.162436,214.997346 100.619321,208.456975 Z" id="Path" fill="#FFFFFF"></path>
                        <path d="M324.274524,113.949783 C324.72857,107.889954 331.652107,103.252455 339.741023,103.590069 C339.877936,103.590069 340.010129,103.611291 340.151763,103.621901 C339.074536,98.4196229 342.017841,93.2084546 347.752081,90.1654181 C353.48632,87.1223816 361.02476,86.7711154 367.218136,89.2583645 C371.194165,83.6099189 379.173526,80.1950572 387.687676,80.498184 C396.201827,80.8013107 403.712967,84.7676761 406.956085,90.6731429 C410.517072,88.214257 415.836165,87.8489621 419.934536,89.7818325 C424.138227,87.4700499 429.283038,86.3236252 434.489852,86.5384532 L434.697582,86.5561379 C436.582108,79.414525 445.107001,74.3535502 454.818107,74.6111829 C464.529213,74.8688157 472.554903,80.3688726 473.760406,87.5924631 C476.3505,86.553249 479.45279,86.5206592 482.08076,87.505057 C484.70873,88.4894549 486.535303,90.3683227 486.979636,92.5441872 C497.583035,90.2203345 508.785877,94.409042 512.681595,102.154069 C516.720567,101.444993 520.969508,102.200131 524.15296,104.192803 C527.336412,106.185475 529.083742,109.183683 528.870431,112.287419 C528.854459,112.613599 528.808714,112.938578 528.733517,113.260079 C528.733517,113.288374 528.733517,113.320207 528.733517,113.352039 C528.676863,113.6067 528.596604,113.900266 528.488017,114.229202 C528.489561,114.245687 528.489561,114.262234 528.488017,114.278719 C527.184979,118.16936 521.783979,126.452887 499.382106,126.498867 C474.784896,126.544847 374.956106,125.356433 343.499061,124.974443 C340.387076,125.73573 337.024248,125.693388 333.948167,124.854187 L333.948167,124.854187 C327.862773,123.218994 323.930382,118.786291 324.274524,113.949783 L324.274524,113.949783 Z" id="Path" fill="#FFFFFF"></path>
                        <polygon id="Path" fill="#FFFFFF" points="219.932311 292.813133 97.1115039 292.813133 143.558212 279.263094 265.151519 279.135764"></polygon>
                        <path d="M220.942638,292.68934 L220.942638,343.391458 C216.203062,339.49107 209.59914,337.150815 202.567909,336.879941 C201.59296,336.839249 200.615743,336.839249 199.640794,336.879941 L199.640794,345.849635 L179.339834,345.216522 C177.096989,347.551474 175.557092,350.223199 174.826411,353.04732 C174.727267,353.04732 174.637565,353.04732 174.543142,353.026099 C167.492598,352.734814 160.525736,354.286246 154.832326,357.415448 C149.284051,354.794412 142.078004,355.290464 137.260193,358.625084 C134.072831,352.817584 127.762683,348.287144 119.88224,346.148392 C112.001796,344.00964 103.2826,344.461117 95.8698405,347.391744 L95.8698405,292.68934 L220.942638,292.68934 Z" id="Path" fill="#EAF4FB"></path>
                        <path d="M265.151519,279.135764 L265.151519,347.798493 C263.285533,350.025584 261.896434,352.457795 261.034673,355.006788 C255.108729,354.446452 249.154114,355.869631 244.756136,358.897429 C243.40087,356.537555 240.787473,354.711221 237.550984,353.862213 C234.314495,353.013205 230.751192,353.219245 227.726936,354.430266 C227.05594,350.305755 224.684367,346.44076 220.942638,343.373773 L220.942638,292.68934 L265.151519,279.135764 Z" id="Path" fill="#C8DCF0"></path>
                        <polygon id="Path" fill="#FFFFFF" points="143.855644 323.496138 108.055138 322.378463 108.055138 313.214236 143.855644 314.331911"></polygon>
                        <polygon id="Path" fill="#FFFFFF" points="199.645515 325.50866 163.845008 324.390985 163.845008 315.226759 199.645515 316.344433"></polygon>
                        <polygon id="Path" fill="#FFFFFF" points="143.855644 343.837113 108.055138 342.715901 108.055138 333.555212 143.855644 334.672887"></polygon>
                        <polygon id="Path" fill="#FFFFFF" points="199.645515 336.681872 199.645515 345.846099 179.349276 345.212985 163.849729 344.728424 163.849729 335.564197"></polygon>
                        <path d="M143.855644,355.010325 L143.855644,356.014818 C141.394601,356.438907 139.124242,357.33751 137.269635,358.621547 C136.518383,357.258381 135.586816,355.954999 134.488876,354.730906 L143.855644,355.010325 Z" id="Path" fill="#FFFFFF"></path>
                        <polygon id="Path" fill="#FFFFFF" points="349.867897 276.369872 273.687365 276.369872 302.495843 262.816296 378.676375 262.816296"></polygon>
                        <path d="M351.251195,276.369872 L351.251195,304.173803 C350.552464,304.13136 349.834849,304.106601 349.14556,304.103064 C348.32408,304.103064 347.493157,304.103064 346.662234,304.156118 C345.718003,304.205635 344.773772,304.288164 343.829542,304.403704 C337.395183,305.190881 331.46855,307.50576 326.923091,311.007182 C321.288679,315.34262 318.09409,321.134634 318.000111,327.185172 C314.626218,326.145738 310.841111,326.145738 307.467218,327.185172 C302.328275,328.789874 298.902551,332.485615 298.690593,336.653576 C295.037643,336.148316 291.295948,336.11721 287.628931,336.561616 C286.831056,336.66065 286.047344,336.777369 285.268354,336.91531 C281.088852,337.668594 277.149688,339.034155 273.677922,340.933281 L273.677922,276.38402 L351.251195,276.369872 Z" id="Path" fill="#C8DCF0"></path>
                        <path d="M307.481381,289.219596 L307.481381,327.178099 C302.33388,328.780659 298.901403,332.480482 298.690593,336.653576 C295.037643,336.148316 291.295948,336.11721 287.628931,336.561616 C286.831056,336.66065 286.047344,336.777369 285.268354,336.91531 L285.268354,289.219596 L307.481381,289.219596 Z" id="Path" fill="#FFFFFF"></path>
                        <path d="M349.14556,289.219596 L349.14556,304.113675 C348.32408,304.113675 347.493157,304.113675 346.662234,304.166729 C345.718003,304.216246 344.773772,304.298775 343.829542,304.414315 C337.395183,305.201492 331.46855,307.516371 326.923091,311.017793 L326.923091,289.230207 L349.14556,289.219596 Z" id="Path" fill="#FFFFFF"></path>
                        <polygon id="Path" fill="#FFFFFF" points="474.770733 256.566512 347.488436 256.566512 393.326115 235.005291 518.394191 235.005291"></polygon>
                        <path d="M474.766012,256.566512 L474.766012,309.74803 C471.032694,307.696021 466.778138,306.238346 462.264397,305.464788 C458.715409,304.861752 455.059026,304.695701 451.438793,304.973153 C450.749504,305.026207 450.060216,305.093409 449.370927,305.178296 C441.81944,306.103812 434.91222,308.925005 429.782862,313.178867 C426.173258,316.169267 423.530481,319.74178 422.059055,323.619931 C421.094368,323.074024 420.052626,322.60908 418.952536,322.233448 C415.985789,321.208563 412.677073,320.873458 409.453575,321.271399 C409.005065,321.324453 408.561277,321.395192 408.126931,321.476542 C405.805418,321.912935 403.638577,322.72279 401.776979,323.849833 C400.338047,323.214747 398.840837,322.656869 397.296605,322.180394 C393.848188,321.115711 390.192277,320.476675 386.471,320.288128 C383.817896,320.158332 381.153689,320.255637 378.53002,320.578158 C378.421433,320.578158 378.322289,320.617064 378.213702,320.631212 C376.010821,315.197121 371.249734,310.546877 364.815069,307.544512 C360.715727,305.629692 356.065666,304.475335 351.251195,304.17734 C350.552464,304.134897 349.834849,304.110138 349.14556,304.106601 C348.32408,304.106601 347.493157,304.106601 346.662234,304.159655 L346.921897,289.223133 L347.143791,276.373409 L347.143791,275.832256 L347.370407,262.819833 L347.478993,256.570049 L474.766012,256.566512 Z" id="Path" fill="#EAF4FB"></path>
                        <path d="M518.38947,235.005291 L518.38947,317.907764 C508.550836,311.363617 494.008484,310.721721 483.212155,316.355044 C481.607998,314.533208 479.704627,312.869602 477.546771,311.40332 C476.662491,310.804047 475.735805,310.240858 474.770733,309.716197 L474.770733,256.566512 L518.38947,235.005291 Z" id="Path" fill="#C8DCF0"></path>
                        <rect id="Rectangle" fill="#FFFFFF" x="363.167386" y="256.566512" width="3.30480743" height="50.9744631"></rect>
                        <rect id="Rectangle" fill="#FFFFFF" x="373.992991" y="256.566512" width="3.30480743" height="59.5161872"></rect>
                        <rect id="Rectangle" fill="#FFFFFF" x="384.818596" y="256.566512" width="3.30480743" height="63.7216158"></rect>
                        <rect id="Rectangle" fill="#FFFFFF" x="395.648922" y="256.566512" width="3.30480743" height="65.6138818"></rect>
                        <rect id="Rectangle" fill="#FFFFFF" x="406.474527" y="256.566512" width="3.30480743" height="64.9100296"></rect>
                        <rect id="Rectangle" fill="#FFFFFF" x="417.304853" y="256.566512" width="3.30480743" height="65.666936"></rect>
                        <rect id="Rectangle" fill="#FFFFFF" x="428.130458" y="256.566512" width="3.30480743" height="56.6123547"></rect>
                        <rect id="Rectangle" fill="#FFFFFF" x="438.960784" y="256.566512" width="3.30480743" height="50.6313793"></rect>
                        <rect id="Rectangle" fill="#FFFFFF" x="449.79111" y="256.566512" width="3.30480743" height="48.4066404"></rect>
                        <rect id="Rectangle" fill="#FFFFFF" x="460.611994" y="256.566512" width="3.30480743" height="48.8982759"></rect>
                        <path d="M199.640794,336.883478 L199.640794,345.849635 L179.339834,345.216522 C184.071028,340.277139 191.53764,337.212278 199.640794,336.883478 Z" id="Path" fill="#FFFFFF"></path>
                        <path d="M272.488192,341.6053 C272.880047,341.368325 273.276624,341.138424 273.682643,340.897911 L273.682643,342.623941 C273.281345,342.31269 272.880047,341.958995 272.488192,341.6053 Z" id="Path" fill="#FFFFFF"></path>
                        <path d="M110.510137,54.3487094 C110.093138,50.5477423 112.107474,46.8239074 115.93889,44.3127601 C119.770305,41.8016129 124.964552,40.8008715 129.937684,41.6157044 C134.711898,30.2811301 150.703346,23.8839839 165.931758,27.216798 C166.526534,12.8040992 181.644015,1.09016601 200.851265,0.159065062 C220.058515,-0.772035889 237.064996,9.38463884 240.134127,23.6197241 C248.593933,18.1675669 261.318976,18.780383 268.777365,24.999133 C279.541783,19.4032599 294.002506,19.99376 303.891296,26.4330016 C313.780087,32.8722433 316.574843,43.5179209 310.677602,52.283133 L310.677602,52.283133 C310.677602,52.283133 310.205487,53.5316749 308.052641,55.4663842 C304.988969,58.5265928 300.894358,60.9215588 296.188382,62.4058719 C281.439499,68.5919901 252.026713,75.3829261 193.810169,75.6764926 C172.536652,75.782601 119.267877,81.3356059 111.95481,58.3454581 L111.95481,58.3454581 C111.164038,57.0870107 110.675023,55.7341321 110.510137,54.3487094 Z" id="Path" fill="#EAF4FB"></path>
                    </g>
                    <g id="Primary-Object" transform="translate(272.000000, 141.000000)">
                        <path d="M53.7021154,80.0856618 C53.2592308,80.9844669 50.7526923,83.1854779 47.1577885,86.0340533 C35.1527885,95.545818 11.0108654,112.311719 11.0108654,112.311719 C11.0108654,112.311719 6.03548077,97.9025276 8.05201923,95.9350643 C9.46548077,94.565625 25.5129808,75.2165441 37.8901923,63.9496324 C43.2801923,59.0415901 47.9728846,55.6657629 50.4511538,55.9806985 C58.6209615,57.0139706 55.6197115,76.1790441 53.7021154,80.0856618 Z" id="Path" fill="#5F63AC"></path>
                        <path d="M149.991827,327.550781 C149.991827,327.550781 155.796442,331.25216 156.993173,332.731296 C158.189904,334.210432 165.789615,357.536903 168.150096,361.577987 C170.510577,365.619072 169.290288,373.011213 165.638846,377.855561 C161.987404,382.699908 151.136731,384.083502 150.170865,382.080653 C149.205,380.077803 139.541635,336.666222 142.067019,332.069577 C143.164808,330.08796 149.991827,327.550781 149.991827,327.550781 Z" id="Path" fill="#D32B3E"></path>
                        <path d="M75.1961538,340.654228 C75.1961538,340.654228 69.2643269,349.380423 64.2936538,347.28557 C59.3229808,345.190717 69.9946154,329.355469 69.2643269,323.315074 C67.9121154,312.161397 64.9202885,291.697656 61.9520192,272.005331 C58.0131731,245.911673 54.1120192,221.162684 54.1120192,221.162684 L56.4677885,212.539108 L64.3172115,183.550873 C64.3172115,183.550873 69.4999038,197.524816 73.4010577,210.713189 C75.2856731,217.061443 76.8781731,223.229228 77.4576923,227.564017 C79.2339423,240.901011 79.5401923,250.501241 79.8935577,258.770956 C80.2469231,267.040671 75.1961538,340.654228 75.1961538,340.654228 Z" id="Path" fill="#E57E80"></path>
                        <path d="M151.655,331.12477 C154.175673,335.838189 162.562212,354.15046 163.608173,358.793107 C164.654135,363.435754 152.823462,371.709007 149.643173,368.61273 C146.462885,365.516452 143.763173,330.693061 139.028077,322.816131 C135.037404,316.177711 108.71875,279.142693 96.2049038,259.963465 C92.3555769,254.071691 89.8160577,249.864292 89.60875,248.742555 C89.1658654,246.109835 85.9761538,227.256158 83.2104808,210.900735 C80.9630769,197.64159 79.0030769,186.031434 79.0030769,186.031434 L108.068558,187.829044 C108.068558,187.829044 107.964904,194.580699 107.776442,203.462592 C107.451346,218.568888 106.867115,239.835892 106.075577,244.482077 C105.387692,248.530239 112.610481,248.264844 120.836827,256.485018 C127.621442,263.261443 135.089231,275.798713 139.372019,301.269577 C139.386154,301.269577 149.129615,326.407812 151.655,331.12477 Z" id="Path" fill="#E57E80"></path>
                        <path d="M77.4341346,227.556939 C79.2103846,240.893934 79.5166346,250.494164 79.87,258.763879 C73.3068269,259.238051 66.8897115,265.529687 61.9661538,271.998254 C58.0273077,245.904596 54.1261538,221.155607 54.1261538,221.155607 L56.4819231,212.532031 L73.4151923,210.706112 C75.2668269,217.054366 76.8546154,223.222151 77.4341346,227.556939 Z" id="Path" fill="#D37477"></path>
                        <path d="M120.850962,256.485018 C109.727019,258.96204 102.984808,259.085892 96.2049038,259.963465 C92.3555769,254.071691 89.8160577,249.864292 89.60875,248.742555 C89.1658654,246.109835 85.9761538,227.256158 83.2104808,210.900735 L107.776442,203.469669 C107.451346,218.575965 106.867115,239.842969 106.075577,244.489154 C105.387692,248.530239 112.624615,248.264844 120.850962,256.485018 Z" id="Path" fill="#D37477"></path>
                        <path d="M65.4244231,12.8238971 C65.4244231,12.8238971 65.0050962,10.4530331 60.0155769,11.3412224 C57.2102295,11.863014 54.7435242,13.1173268 53.0566346,14.8798254 L51.0965172,16.8932904 C51.0965172,16.8932904 50.9270192,6.44379596 63.4832692,4.15431985 C76.0395192,1.86484375 160.804808,95.5068934 160.804808,95.5068934 C160.804808,95.5068934 134.995,152.86057 123.654327,148.363006 C112.313654,143.865441 66.0840385,62.0529412 59.4973077,49.7456801 C52.9105769,37.4384191 54.5407692,17.2436121 54.5407692,17.2436121" id="Path" fill="#171338"></path>
                        <path d="M76.0536538,327.872794 C76.0536538,327.872794 80.2516346,339.093704 79.8888462,342.92955 C79.5260577,346.765395 71.0170192,348.046369 70.6777885,353.163189 C70.3385577,358.280009 69.1182692,366.723116 67.0027885,370.5625 C64.8873077,374.401884 56.6374038,378.492509 54.1120192,378.492509 C51.5866346,378.492509 41.0422115,372.862592 46.48875,371.061443 C51.9352885,369.260294 59.3889423,352.901333 62.0368269,345.477344 C64.6847115,338.053355 76.0536538,327.872794 76.0536538,327.872794 Z" id="Path" fill="#E57E80"></path>
                        <path d="M49.0706731,369.345221 C49.0706731,369.345221 63.2759615,376.447197 66.3855769,371.468382 C69.4951923,366.489568 67.4032692,357.773989 68.5434615,354.203539 C69.6836538,350.633088 74.0653846,346.914017 75.7756731,342.197059 C77.4859615,337.480101 78.4565385,335.119853 78.4565385,335.119853 C78.4565385,335.119853 80.9159615,342.197059 81.2834615,346.478768 C81.6509615,350.760478 73.8627885,352.766866 73.4811538,356.195772 C73.0995192,359.624678 71.5352885,371.631158 66.9933654,376.48966 C62.4514423,381.348162 46.2625962,385.208778 42.6535577,384.922151 C39.0445192,384.635524 31.6191346,380.608594 32.9525,378.478355 C34.2858654,376.348116 49.0706731,369.345221 49.0706731,369.345221 Z" id="Path" fill="#D32B3E"></path>
                        <path d="M105.703365,161.045358 C105.703365,161.045358 105.152115,167.892555 105.976635,170.274035 C106.801154,172.655515 109.383077,178.204044 111.531538,182.659145 C112.945,185.557261 112.751827,193.628814 109.015577,197.061259 C106.956635,198.954412 103.898846,202.468244 102.320481,200.468934 C100.742115,198.469623 103.503077,182.956388 100.812788,181.049081 C98.5276923,179.428401 102.697404,189.658502 100.515962,191.102252 C96.2001923,193.933134 96.46875,182.761765 97.6183654,178.954228 C98.7679808,175.146691 97.2367308,161.866314 97.2367308,161.866314 L105.703365,161.045358 Z" id="Path" fill="#D37477"></path>
                        <path d="M70.8992308,37.5056526 C68.1439866,37.7761213 66.0588346,39.5101814 65.9803846,41.5962776 C65.7919231,47.0138787 65.2548077,56.8511949 63.8460577,57.6509191 C62.9761877,58.0329207 62.0163258,58.2852374 61.0191346,58.3940257 C59.3080363,58.6567945 57.8546765,59.498739 57.0817352,60.674997 C56.3087939,61.8512549 56.3030426,63.2297779 57.0661538,64.4096507 L61.9802885,71.8902574 C62.8755062,73.2446629 64.6621684,74.1393411 66.6710989,74.2391994 C68.6800295,74.3390577 70.6081007,73.6290285 71.7331731,72.375046 L77.6744231,65.7153952 C79.9076923,63.2100643 89.3354808,61.0196691 85.4107692,60.3827206 C84.0491346,60.1633272 78.9889423,58.3374081 78.4989423,58.0224724 C73.1607692,54.5581801 74.4423077,38.98125 78.6261538,37.3216452 C80.8876923,36.4263787 73.68375,37.243796 70.8992308,37.5056526 Z" id="Path" fill="#D37477"></path>
                        <path d="M57.8011538,10.9979779 C51.5586928,15.2265694 47.2506592,20.8259415 45.4899038,26.9995404 C43.7513462,33.0965533 43.2095192,40.3542279 48.2225962,44.5863971 C58.0602885,52.8985754 74.6496154,43.0612592 77.5990385,41.2141085 C80.5484615,39.3669577 86.5886538,21.8756434 86.5886538,21.8756434 L63.5021154,7.15505515 L57.8011538,10.9979779 Z" id="Path" fill="#E57E80"></path>
                        <path d="M57.8011538,10.9979779 C56.3876923,12.2683364 54.2298077,13.181296 53.0566346,14.8904412 C49.2214423,20.4212776 62.7435577,18.7369026 67.7566346,22.9726103 C77.5943269,31.2847886 76.7509615,41.8298254 79.7050962,39.9826746 C82.6592308,38.1355239 86.5886538,21.8756434 86.5886538,21.8756434 L63.5021154,7.15505515 L57.8011538,10.9979779 Z" id="Path" fill="#D37477"></path>
                        <path d="M54.7056731,24.8622243 C54.7056731,24.8622243 49.8103846,31.6881893 47.6100962,32.7533088 C45.4098077,33.8184283 51.4311538,36.8403952 53.6926923,35.5841912 C55.9542308,34.3279871 54.7056731,24.8622243 54.7056731,24.8622243 Z" id="Path" fill="#E95A5A"></path>
                        <ellipse id="Oval" fill="#171338" transform="translate(61.624586, 26.400887) rotate(-77.130000) translate(-61.624586, -26.400887) " cx="61.6245863" cy="26.4008869" rx="2.99031578" ry="1.65639281"></ellipse>
                        <ellipse id="Oval" fill="#171338" transform="translate(49.898123, 24.390102) rotate(-77.130000) translate(-49.898123, -24.390102) " cx="49.8981234" cy="24.3901022" rx="2.90754953" ry="1.60948729"></ellipse>
                        <path d="M58.3571154,43.6451287 C57.8465752,43.6523249 57.3372876,43.6046613 56.8447115,43.5035846 C56.4935343,43.4049711 56.3060018,43.1175589 56.4174035,42.8486923 C56.5288052,42.5798257 56.9003675,42.4230843 57.2640385,42.4915441 C57.5043269,42.5446232 62.9178846,43.6522059 67.5823077,36.6776195 C67.7566491,36.4147639 68.1816988,36.3078246 68.5316827,36.4387638 C68.8816666,36.569703 69.024053,36.8889367 68.8497115,37.1517923 C65.0804808,42.813557 60.6280769,43.6451287 58.3571154,43.6451287 Z" id="Path" fill="#171338"></path>
                        <ellipse id="Oval" fill="#E95A5A" transform="translate(67.284060, 31.448621) rotate(-16.630000) translate(-67.284060, -31.448621) " cx="67.2840595" cy="31.4486214" rx="6.72172842" ry="1.72974027"></ellipse>
                        <path d="M50.4511538,55.9806985 C50.4511538,55.9806985 56.4630769,86.6497702 52.8870192,126.168888 C50.8799038,148.338235 49.9140385,157.711994 39.3601923,175.482858 C17.5175,212.241866 18.6576923,212.521415 0.150769231,225.17546 C0.150769231,225.17546 35.1904808,261.417831 58.0084615,232.960386 C76.2609615,210.207169 121.345673,233.190395 139.254231,211.47045 C139.254231,211.47045 114.641154,210.9892 117.359712,180.719991 C118.678942,166.045404 107.135673,155.355285 107.135673,137.743658 C107.135673,102.439017 101.98125,106.826884 88.2424038,66.9715993 C85.5097115,59.0309743 83.0597115,59.6891544 83.0597115,59.6891544 C83.0597115,59.6891544 78.8193269,61.2319853 74.9370192,60.9064338 C71.0547115,60.5808824 70.9039423,64.7988971 63.8601923,57.9127757 L50.4511538,55.9806985 Z" id="Path" fill="#F9B17C"></path>
                        <path d="M42.63,40.1631434 C42.2483654,39.979136 35.5909615,39.4837316 34.0785577,40.3117647 L34.0267308,40.3436121 C34.0026632,40.3558347 33.9805326,40.3700814 33.9607692,40.3860754 C33.9251554,40.4125909 33.8920917,40.440971 33.8618269,40.4710018 C33.5697115,40.8248621 30.7899038,43.9671415 29.3905769,45.5630515 C29.075377,45.8413644 28.8049537,46.1466106 28.5849038,46.4724724 L28.5849038,46.4724724 C26.3422115,49.5121324 21.5694231,58.5568015 21.5694231,61.4266085 C21.5694231,64.986443 27.1761538,66.4266544 27.1761538,66.4266544 C27.1761538,66.4266544 34.5732692,60.7648897 35.9443269,56.0160846 L35.9443269,56.0160846 L38.22,54.3387868 C37.6970192,55.0783548 37.3248077,55.7789982 37.4708654,56.1399357 C37.8525,57.1024357 39.0115385,57.1590533 40.5427885,55.9913143 C42.0740385,54.8235754 44.0434615,51.3592831 44.0434615,51.3592831 L42.7242308,49.5899816 C44.1,49.0238051 41.1741346,46.9891085 41.1741346,46.9891085 C41.2683654,46.3521599 41.0704808,46.253079 39.9114423,45.3613511 C39.0256731,44.6819393 35.1245192,47.3146599 33.3435577,48.588557 C33.0373077,48.2630055 32.7263462,47.9622243 32.40125,47.6826746 C34.1916346,46.3486213 37.2541346,43.8786765 37.7158654,42.332307 C38.8518803,42.3452687 39.9878921,42.3062719 41.1175962,42.2155331 C41.1175962,42.2155331 44.3497115,43.2169577 45.2307692,43.277114 C46.1130723,43.3392971 47.0029941,43.2914706 47.8645192,43.1355699 C48.1142308,43.0506434 43.0304808,40.3577665 42.63,40.1631434 Z" id="Path" fill="#E57E80"></path>
                        <path d="M15.6375962,60.2624081 C15.6375962,60.2624081 7.30759615,83.0262408 6.47365385,85.1847886 C4.2875,90.8465533 2.59605769,98.0723805 3.69384615,103.259972 C4.55605769,107.347059 8.085,112.938051 12.5703846,111.996783 C18.1865385,110.81489 33.075,63.6240809 33.075,63.6240809 L15.6375962,60.2624081 Z" id="Path" fill="#5F63AC"></path>
                        <path d="M134.929038,171.615165 L141.666538,186.551608 L138.184712,195.521967 C138.184712,195.521967 138.580481,197.068336 139.927981,196.937408 C141.275481,196.80648 146.849231,184.485064 146.849231,184.485064 L140.460385,176.392279 L134.929038,171.615165 Z" id="Path" fill="#E57E7E"></path>
                        <path d="M138.316635,174.810524 L144.912788,188.572151 L139.838462,196.077528 C139.838462,196.077528 142.797308,196.714476 144.220192,195.08318 C145.643077,193.451884 148.997692,182.34421 148.997692,182.34421 L139.056346,167.128217 L130.358846,167.312224 C130.358846,167.312224 128.521346,175.744715 129.477788,177.984651 C130.434231,180.224586 130.556731,185.691728 130.556731,185.691728 C130.556731,185.691728 133.383654,186.473759 134.556827,185.337868 C135.73,184.201976 133.317692,177.089384 133.317692,177.089384 L137.454423,182.308824 L136.149327,192.630928 C136.149327,192.630928 136.879615,195.281342 138.062212,194.902711 C139.244808,194.524081 143.767885,183.278401 143.767885,183.278401 L137.986827,176.788603" id="Path" fill="#E57E7E"></path>
                        <polygon id="Path" fill="#E57E7E" points="140.088173 170.288189 130.89125 169.378768 120.229038 140.946094 114.692981 126.172426 126.617885 126.809375 130.255192 139.052941"></polygon>
                        <path d="M84.9113462,16.7835937 C88.50625,22.0171875 92.2236538,27.3994026 96.9728846,32.1198989 C100.968269,36.0866728 106.532596,39.1086397 112.021538,41.8369026 C121.977019,46.7909467 133.623942,49.7704504 145.548846,48.089614 C152.470096,47.1129596 159.1275,45.1879596 165.808462,43.570818 C166.887404,43.3125 166.425673,42.0279871 165.337308,42.2933824 C155.047308,44.7704044 144.220192,48.3408548 133.181058,47.0244945 C126.768654,46.2601562 120.704904,44.1582261 115.131154,41.7165901 C112.348538,40.4418403 109.67356,39.0390552 107.121538,37.5162684 C104.398269,35.9628217 101.773942,34.4376838 99.5830769,32.4525276 C94.2166346,27.6081801 90.2730769,21.673943 86.4520192,16.1006434 C85.93375,15.3433824 84.4072115,16.0121783 84.9254808,16.7729779 L84.9113462,16.7835937 Z" id="Path" fill="#171338"></path>
                        <path d="M113.3125,45.977068 C118.627115,49.515671 114.862596,55.5631434 114.518654,60.0217831 C114.386731,61.7450827 114.740096,63.5851562 116.648269,64.7175092 C119.004038,66.1329504 122.415192,65.9914062 125.180865,65.5384651 C129.143269,64.8944393 132.870096,63.5002298 136.545096,62.2581801 C140.220096,61.0161305 144.380385,59.4272978 148.554808,59.3919118 C151.080192,59.3600643 153.643269,59.7705423 156.163942,59.9227022 C159.033269,60.0890165 161.912019,60.1880974 164.790769,60.1845588 C168.939798,60.1984703 173.083599,59.9618008 177.182115,59.4768382 C183.702885,58.6664982 190.002212,56.9998162 195.495865,54.2184743 C196.438173,53.7407629 195.552404,52.5907169 194.605385,53.0719669 C182.181058,59.381296 166.194808,59.5122243 151.815192,58.2984835 C143.6925,57.6119945 137.035096,60.9028952 129.732212,63.0685202 C126.500096,64.0274816 122.292692,65.2235294 118.848558,64.1654871 C116.021635,63.3056066 116.101731,61.0267463 116.403269,59.0911305 C117.133558,54.4909467 120.021731,48.7053309 114.561058,45.0570312 C113.712981,44.4908548 112.459712,45.4108915 113.3125,45.994761 L113.3125,45.977068 Z" id="Path" fill="#171338"></path>
                        <path d="M105.576154,45.4179687 C127.861731,54.6961857 154.265192,59.3423713 178.369423,51.0797335 C179.40125,50.7258732 178.506058,49.5793658 177.478942,49.9332261 C153.991923,58.0047794 128.139712,53.3125919 106.471346,44.2714614 C105.477212,43.8574449 104.586731,45.0039522 105.576154,45.4179687 L105.576154,45.4179687 Z" id="Path" fill="#171338"></path>
                        <path d="M59.1627885,17.7956342 C61.8530769,24.4623621 64.0156731,31.468796 67.9026923,37.813511 C71.60125,43.8503676 76.9347115,49.2042739 82.2116346,54.4980239 C82.8853846,55.1738971 84.4213462,54.4980239 83.7381731,53.8292279 C78.6261538,48.6982537 73.4623077,43.517739 69.7778846,37.7038143 C65.7353846,31.334329 63.5869231,24.1863511 60.8636538,17.4417739 C60.5338462,16.6278952 58.8282692,16.9746783 59.1627885,17.7956342 Z" id="Path" fill="#171338"></path>
                        <path d="M83.0455769,59.6820772 C83.0455769,59.6820772 87.6016346,57.2545956 94.0093269,67.3077665 C109.189904,91.0977941 135.221154,144.134375 138.123462,149.102574 C142.260192,156.179779 130.693365,164.573346 122.3775,164.10625 C114.061635,163.639154 83.0455769,59.6820772 83.0455769,59.6820772 Z" id="Path" fill="#5F63AC"></path>
                        <path d="M54.2816346,13.6660846 C54.2816346,13.6660846 70.6966346,24.2181985 71.9122115,32.4206801 C75.2102885,54.8341912 102.537212,100.259237 123.098365,123.362776 C143.659519,146.466314 174.407019,142.697702 170.251442,129.166085 C166.095865,115.634467 156.206346,113.801471 166.981635,96.9117187 C177.756923,80.0219669 197.446442,77.222932 192.994038,64.8909007 C188.541635,52.5588695 157.280577,71.7380974 119.277308,45.665671 C91.0975962,26.3342831 106.947212,14.3419577 81.3965385,6.80473346 C58.065,-0.0636948529 49.9140385,-6.47918199 54.2816346,13.6660846 Z" id="Path" fill="#171338"></path>
                        <path d="M83.1916346,28.2769761 C88.4073077,32.6153033 91.20125,38.0824449 93.5570192,43.5602022 C95.9599038,49.1016544 98.2073077,54.6289522 101.802212,59.8165441 C108.935481,70.1103401 119.706058,78.925 132.427212,85.4891085 C139.437108,89.0864543 147.039079,91.9851966 155.042596,94.1126838 C156.456058,94.4983915 157.092115,92.7892463 155.669231,92.4070772 C141.202288,88.5313518 128.188903,82.0988855 117.727212,73.6524816 C112.334756,69.3034868 107.72668,64.4410982 104.021346,59.1902114 C100.365192,53.9707721 98.1413462,48.3939338 95.7054808,42.8170956 C93.2225,37.1270221 90.2589423,31.521875 84.8689423,27.0172335 C83.8465385,26.1715074 82.1880769,27.4277114 83.2010577,28.2698989 L83.1916346,28.2769761 Z" id="Path" fill="#5F63AC"></path>
                        <path d="M126.42,64.6573529 C140.534691,71.1333807 156.492319,75.0042768 172.984135,75.9525735 C174.491827,76.0410386 174.487115,74.2717371 172.984135,74.1832721 C156.907934,73.2432505 141.3573,69.4548416 127.607308,63.1286765 C126.311635,62.5341912 125.124327,64.0628676 126.42,64.6573529 Z" id="Path" fill="#5F63AC"></path>
                        <path d="M58.5691346,233.537178 C62.8519231,231.060156 67.0499038,228.342509 71.7614423,226.353814 C76.4729808,224.365119 81.7875962,223.62909 87.1493269,223.406158 C96.9917308,222.99568 107.159231,223.990028 116.544615,221.187454 C117.958077,220.773437 117.331442,219.064292 115.917981,219.481847 C105.9625,222.454274 95.1872115,221.042371 84.7794231,221.767785 C80.0961538,222.093336 75.4929808,222.864752 71.3091346,224.520818 C66.2772115,226.51659 61.8860577,229.421783 57.3724038,232.008502 C56.1850962,232.691452 57.3724038,234.230744 58.5597115,233.537178 L58.5691346,233.537178 Z" id="Path" fill="#F5F5FF"></path>
                    </g>
                    <g id="Secondary-Object">
                        <g id="laptop" transform="translate(71.200361, 164.674107)">
                            <path d="M18.1429377,4.7719286 L0.505019339,64.8366754 L89.0485969,63.5952736 L106.134298,5.43330218 C106.496718,4.21505361 106.092606,2.93956379 105.038097,1.97339357 C103.983589,1.00722335 102.395459,0.457365291 100.730119,0.481842164 L23.3252857,1.57116337 C20.818616,1.61308816 18.6764761,2.93613461 18.1429377,4.7719286 L18.1429377,4.7719286 Z" id="Path" fill="#F5F5FF"></path>
                            <path d="M23.4715997,9.00189015 L10.1570245,54.3325066 C9.74630137,55.7294894 10.2122665,57.190482 11.4215576,58.2973391 C12.6308487,59.4041961 14.4501813,60.0349231 16.3588507,60.0090019 L78.8915724,59.1389596 C81.7737112,59.0985288 84.243725,57.5838992 84.866848,55.4748792 L98.3466165,9.5677713 C98.6419201,8.53518719 98.2922285,7.45806664 97.3969245,6.64252843 C96.5016204,5.82699021 95.1585902,5.36219969 93.7495246,5.37974383 L27.8798994,6.28566066 C25.7506979,6.32159939 23.9300745,7.44339949 23.4715997,9.00189015 Z" id="Path" fill="#FFFFFF"></path>
                            <polygon id="Path" fill="#9594C8" points="85.1547562 79.333843 0.500299532 64.8402121 89.0438771 63.5952736 173.698334 78.0924412"></polygon>
                            <polygon id="Path" fill="#F5F5FF" points="23.8586239 66.5520026 90.3559834 65.9649009 122.974569 71.5494405 61.0176637 72.9181655"></polygon>
                            <polygon id="Path" fill="#F5F5FF" points="99.2009015 75.1074182 117.419356 74.9447273 127.84069 76.7307897 109.9951 76.9571422"></polygon>
                            <ellipse id="Oval" fill="#9594C8" cx="59.1061419" cy="3.4916225" rx="1.5716957" ry="1.17774013"></ellipse>
                            <path d="M32.9017739,15.223046 C34.4215518,15.223046 34.4215518,13.4546674 32.9017739,13.4546674 C31.3819961,13.4546674 31.3819961,15.223046 32.9017739,15.223046 Z" id="Path" fill="#9594C8"></path>
                            <path d="M38.6080205,15.5307439 C40.1277983,15.5307439 40.1277983,13.7623653 38.6080205,13.7623653 C37.0882427,13.7623653 37.0882427,15.5307439 38.6080205,15.5307439 Z" id="Path" fill="#9594C8"></path>
                            <path d="M42.9832815,15.1098698 C44.5030593,15.1098698 44.5030593,13.3414912 42.9832815,13.3414912 C41.4635037,13.3414912 41.4635037,15.1098698 42.9832815,15.1098698 Z" id="Path" fill="#9594C8"></path>
                            <path d="M31.7548609,28.6167453 C44.8995231,28.1887977 58.0064269,30.0314482 71.1416495,29.1189649 C72.6425481,29.0163989 72.6567075,27.2480203 71.1416495,27.3505863 C58.0064269,28.2489226 44.8995231,26.4204192 31.7548609,26.8483668 C30.2398028,26.8978814 30.235083,28.6662599 31.7548609,28.6167453 Z" id="Path" fill="#9594C8"></path>
                            <path d="M34.1525228,36.369317 C37.15432,36.9245879 40.4345858,36.4400522 43.4977404,36.4471257 C47.2435301,36.4575424 50.9834443,36.6702993 54.6884026,37.083742 C56.170422,37.2499696 56.8123157,35.5452526 55.3161369,35.379025 C52.0127956,35.0042788 48.6825638,34.7775236 45.3431849,34.6999677 C41.9638032,34.6327693 38.0652427,35.2693856 34.7802571,34.6646001 C33.3076773,34.3922698 32.679943,36.0969867 34.1525228,36.369317 L34.1525228,36.369317 Z" id="Path" fill="#9594C8"></path>
                            <path d="M29.8055806,45.136938 C45.5651231,45.842521 61.3668221,45.842521 77.1263646,45.136938 C78.6367029,45.0697396 78.6461425,43.3013611 77.1263646,43.3685594 C61.3668221,44.0741424 45.5651231,44.0741424 29.8055806,43.3685594 C28.2905226,43.3013611 28.2952424,45.0697396 29.8055806,45.136938 Z" id="Path" fill="#9594C8"></path>
                            <polygon id="Path" fill="#394480" points="0.500299532 64.8402121 5.68434189e-14 66.4777307 84.2202344 80.9006264 173.424585 78.9907775 173.698334 78.0924412 85.1547562 79.333843"></polygon>
                            <polygon id="Path" fill="#394480" points="8.66862138e-13 66.4777307 18.1476576 4.77546535 2.51565708 66.9056783"></polygon>
                            <path d="M33.3265566,65.8163571 L53.3668567,69.5440992 C59.8282723,70.7430598 66.3699247,71.8111605 72.6803065,73.434532 C73.256123,73.5795391 73.5015529,72.8969449 72.9304563,72.7519379 C66.6200745,71.1462502 60.0784221,70.0781495 53.6170064,68.861505 L33.5767063,65.1514468 C32.9867305,65.0418073 32.7318609,65.7244014 33.3265566,65.8340409 L33.3265566,65.8163571 Z" id="Path" fill="#9594C8"></path>
                            <path d="M46.8488033,65.5228063 L84.7582924,73.303672 L84.7582924,72.6210779 L84.32879,72.7165703 C84.0772456,72.7683327 83.9293265,72.9630983 83.9984035,73.1515915 C84.0674804,73.3400846 84.3273954,73.4509268 84.5789397,73.3991645 L84.9895629,73.2859882 C85.1951059,73.2441309 85.3377668,73.1042997 85.3377668,72.9446912 C85.3377668,72.7850826 85.1951059,72.6452514 84.9895629,72.6033941 L47.0800739,64.8225284 C46.8285295,64.770766 46.5686147,64.8816083 46.4995378,65.0701014 C46.4304608,65.2585945 46.5783798,65.4533601 46.8299241,65.5051225 L46.8488033,65.5228063 Z" id="Path" fill="#9594C8"></path>
                            <path d="M59.7716347,64.9922927 L95.8451188,73.667958 C96.4256551,73.8058915 96.671085,73.1232974 96.0952686,72.9853639 L60.0217844,64.3096986 C59.4412482,64.171765 59.1958182,64.8543592 59.7716347,64.9922927 Z" id="Path" fill="#9594C8"></path>
                            <path d="M76.4467124,65.4520711 C87.2692297,68.4618515 98.6675634,70.2302301 109.197453,73.8377223 C109.74495,74.0251705 110.221651,73.4133115 109.669433,73.2258634 C99.0687469,69.590077 87.5996162,67.8040146 76.6968622,64.769477 C76.1255806,64.6103229 75.8803356,65.2929171 76.4467124,65.4520711 Z" id="Path" fill="#9594C8"></path>
                            <path d="M103.283535,1.21748765 C100.649882,-0.409420639 96.7796406,0.0538945481 93.5984907,0.0821886053 C88.9070027,0.119914015 84.2155146,0.227195649 79.5240266,0.404033507 C78.9198913,0.42525405 78.9151715,1.13260548 79.5240266,1.11138494 C83.2998721,0.974630328 87.0835839,0.876780047 90.8751622,0.817834094 C94.2309449,0.771856251 99.8427953,0.00437994786 102.618042,1.71970717 C103.090022,2.0061845 103.750795,1.50750174 103.283535,1.21748765 L103.283535,1.21748765 Z" id="Path" fill="#9594C8"></path>
                            <path d="M35.0776049,71.0083166 C40.1907291,71.861854 45.325879,72.6092887 50.4830547,73.2506207 C50.7804025,73.2859882 50.9078373,72.9464595 50.6104894,72.8969449 C45.4470207,72.2579708 40.3118708,71.5117151 35.2050397,70.6581777 C34.9076919,70.6086631 34.7849769,70.9481918 35.0776049,71.0118534 L35.0776049,71.0083166 Z" id="Path" fill="#FFFFFF"></path>
                            <path d="M79.1747608,78.2374483 C81.3128334,78.591124 83.4509059,79.0084613 85.6031378,79.3267695 C87.5807369,79.6238571 89.6102539,79.2949386 91.5925728,79.1357846 C91.8946405,79.1110273 91.8946405,78.7573516 91.5925728,78.7821089 C89.4875389,78.9518732 87.4061041,79.2595711 85.3152296,78.9165056 C83.3045919,78.5875872 81.3033938,78.2374483 79.3021956,77.8943828 C79.0048478,77.8448682 78.877413,78.1843969 79.1747608,78.2480585 L79.1747608,78.2374483 Z" id="Path" fill="#FFFFFF"></path>
                        </g>
                        <g id="Light-Bulb" transform="translate(379.882806, 0.013832)">
                            <path d="M148.586607,137.813595 C143.276825,139.514775 137.664974,140.367133 132.010645,141.078022 C127.290839,141.66866 122.519114,142.160269 117.851225,142.970187 C111.243495,144.116096 101.954915,145.385792 96.0362772,148.759858 L72.4372427,134.259154 C73.2630307,132.688438 73.9736348,131.085074 74.5658756,129.456237 C77.9452574,121.204983 73.6643925,112.833479 72.7581896,104.571614 C71.8850253,96.6103738 73.2301703,88.581935 78.2426052,81.4412223 C84.1518035,73.0626446 93.7849293,66.066939 105.457012,62.3215131 C133.222943,53.5799493 165.199116,63.269576 177.051355,84.0164941 C188.903594,104.763412 176.188279,128.789225 148.581888,137.810058 L148.586607,137.813595 Z" id="Path" fill="#F9B17C"></path>
                            <path d="M89.7400548,144.968454 L88.6309002,144.123169 C88.6733785,144.091339 92.9164849,140.982529 107.94907,130.078707 C113.813719,125.753538 120.507954,122.109343 127.810017,119.26684 C127.301781,118.781365 126.867981,118.254618 126.51679,117.69652 C124.392877,114.311843 124.907336,109.611493 126.427114,105.381532 C122.018587,105.87913 117.579545,106.210822 113.126698,106.37536 C108.118983,106.569882 104.494171,105.827163 101.874678,104.667107 C96.0032386,120.296036 80.1918855,138.655343 80.0266922,138.846328 L78.7051463,138.209711 C78.8750593,138.018727 94.8185671,119.496729 100.505934,103.970365 C98.8492721,103.009522 97.5090458,101.776545 96.5884947,100.36641 C93.5300598,95.7403315 94.8846444,89.6783297 97.1218328,87.7012825 C98.6416107,86.353778 100.510654,85.8692423 101.997393,86.4351234 C105.381495,87.7295766 105.575007,93.5369318 102.544891,102.796162 C102.474094,103.018978 102.398577,103.24533 102.31834,103.468146 C105.060548,104.780283 108.67592,105.370921 113.051181,105.19762 C117.697038,105.030336 122.327548,104.67615 126.922694,104.136593 C128.192322,101.080835 129.929211,98.3822891 131.463148,96.7730646 C134.672617,93.4060718 139.316907,91.5598846 143.290984,92.0797879 C145.967114,92.4334636 147.888076,93.7951151 148.699883,95.9348532 C149.129789,97.0515459 148.819121,98.2549907 147.864477,99.170986 C145.391298,101.766966 138.25023,103.892557 128.168723,105.183473 C126.582868,109.310869 125.931534,113.979388 127.956331,117.208447 C128.303333,117.763421 128.746058,118.281859 129.273157,118.750474 C136.215993,116.274744 141.9128,115.422385 145.070351,115.645201 C148.157105,115.860943 150.521728,117.413579 150.337656,119.107686 C150.23382,120.04139 148.921714,123.037023 136.451984,122.37565 C133.305446,122.208243 130.803948,121.486745 128.947491,120.211154 C121.633393,123.011653 114.926287,126.624597 109.053505,130.927528 C94.0209197,141.831351 89.7778133,144.92955 89.7400548,144.968454 Z M130.519186,119.620516 C132.076723,120.522389 134.0968,121.035219 136.565259,121.173152 C145.948235,121.675372 148.643245,120.034316 148.76124,118.990973 C148.860356,118.0891 147.30754,116.967948 144.924037,116.80172 C141.889201,116.593052 136.711573,117.459557 130.519186,119.620516 Z M141.959998,93.1584625 C138.849646,93.1584625 135.272032,94.7924806 132.746935,97.4379749 C131.41595,98.8526778 129.882013,101.194011 128.692621,103.892557 C137.872646,102.658229 144.419018,100.730696 146.580689,98.4600978 C147.247471,97.8357289 147.470729,97.0084676 147.180105,96.2390143 C146.533491,94.5342973 145.09395,93.4944907 143.021955,93.2256972 C142.671299,93.1799175 142.315934,93.1574307 141.959998,93.1584625 Z M100.675847,87.3723616 C99.8593208,87.3723616 98.9672773,87.8851939 98.315944,88.451075 C96.5743352,89.9966379 95.1253545,95.485685 97.9949971,99.825286 C98.7083684,100.918533 99.7084196,101.89285 100.935437,102.690059 C100.935437,102.626398 100.977915,102.562736 101.001514,102.499074 C104.248741,92.5749339 103.177345,88.2070388 101.270543,87.4784668 C101.086286,87.4083795 100.882484,87.3720179 100.675847,87.3723616 Z" id="Shape" fill="#FFFFFF"></path>
                            <path d="M108.638162,155.790931 C114.261025,166.165419 120.310244,176.40551 126.785819,186.511204 C127.083167,186.970982 127.98937,186.571329 127.696742,186.115087 C121.262072,176.07777 115.247465,165.900162 109.65292,155.582263 C109.40277,155.115411 108.378572,155.320543 108.638162,155.790931 L108.638162,155.790931 Z" id="Path" fill="#F9B17C"></path>
                            <path d="M172.681222,144.508676 C184.26776,155.030259 198.734432,163.564687 215.102846,169.53477 C215.706981,169.757585 216.245039,169.074991 215.631464,168.852175 C199.345085,162.912818 184.952034,154.420356 173.426951,143.949868 C172.992729,143.557288 172.251719,144.116096 172.681222,144.508676 L172.681222,144.508676 Z" id="Path" fill="#F9B17C"></path>
                            <path d="M138.042559,47.3539569 C136.427535,30.7580073 129.892376,14.6410217 118.913181,0.177153138 C118.758138,0.00205831383 118.447614,-0.0518458447 118.205618,0.0543263999 C117.963621,0.160498644 117.874375,0.389796119 118.002259,0.576806696 C128.894577,14.9172 135.381321,30.8975481 136.990042,47.3539569 C137.03724,47.8597131 138.094477,47.8632499 138.042559,47.3539569 L138.042559,47.3539569 Z" id="Path" fill="#F9B17C"></path>
                            <path d="M103.257582,48.5953586 L76.6237114,25.7938852 C76.1517307,25.4083787 75.4343201,25.9707231 75.8779819,26.3526929 L102.511852,49.1541662 C102.960234,49.536136 103.705963,48.9773284 103.257582,48.5953586 L103.257582,48.5953586 Z" id="Path" fill="#F9B17C"></path>
                            <path d="M69.9499045,67.1208926 C56.1988715,62.0121893 43.3292061,55.667708 31.6250724,48.2275359 C31.1106135,47.8986175 30.3601642,48.4574251 30.8793429,48.7863435 C42.6447502,56.2742022 55.5824374,62.6613749 69.4071267,67.8070235 C70.011262,68.0333759 70.54932,67.3507818 69.9404649,67.1244294 L69.9499045,67.1208926 Z" id="Path" fill="#F9B17C"></path>
                            <path d="M51.0329184,87.9064144 C45.9815165,88.0584119 40.9224358,87.8356912 35.9295363,87.2415041 C35.2687633,87.1636954 34.9855749,87.9240982 35.6510677,88.0054436 C40.7354383,88.6149859 45.8878281,88.8460008 51.0329184,88.6951113 C51.7078508,88.6738907 51.7125706,87.8851939 51.0329184,87.9064144 Z" id="Path" fill="#F9B17C"></path>
                            <path d="M55.6772084,108.324113 C38.2894398,114.152689 19.2450189,115.857406 0.502665667,117.466631 C-0.162827106,117.526756 -0.17226672,118.315452 0.502665667,118.258864 C19.4432508,116.631956 38.6387055,114.895408 56.1963872,109.006708 C56.8146819,108.798039 56.2813437,108.118982 55.663049,108.324113 L55.6772084,108.324113 Z" id="Path" fill="#F9B17C"></path>
                            <polygon id="Path" fill="#FFFFFF" points="96.0457169 148.759858 99.9206783 151.140096 85.9500499 161.881227 56.493735 146.284128 68.958745 132.130026 72.4419625 134.266227"></polygon>
                            <path d="M86.044446,162.65224 L55.4128992,146.436209 L68.7793924,131.256447 L72.9422621,133.802912 L101.086471,151.090581 L86.044446,162.65224 Z M57.5745708,146.128511 L85.8556537,161.103141 L98.7501662,151.20022 L69.1333779,133.017752 L57.5745708,146.128511 Z" id="Shape" fill="#F9B17C"></path>
                            <path d="M96.7300889,153.61583 C96.6157693,153.614809 96.5049111,153.586292 96.4138618,153.53448 L65.4377691,135.878988 C65.2298733,135.741834 65.1985153,135.507685 65.3658953,135.34231 C65.5332753,135.176934 65.8426275,135.136418 66.074943,135.249446 L97.0510357,152.904937 C97.2806357,153.038797 97.3247324,153.285837 97.1501517,153.460208 C97.0506174,153.558729 96.89499,153.616383 96.7300889,153.61583 Z" id="Path" fill="#F9B17C"></path>
                            <path d="M93.0958375,156.890871 C92.9811606,156.891439 92.8696367,156.862751 92.7796105,156.809517 L61.8035178,139.154026 C61.595622,139.016871 61.564264,138.782722 61.731644,138.617347 C61.899024,138.451971 62.2083762,138.411456 62.4406917,138.524483 L93.4167844,156.179975 C93.592926,156.283868 93.6624697,156.459712 93.5903114,156.618746 C93.5181531,156.777779 93.3199848,156.885417 93.0958375,156.887326 L93.0958375,156.890871 Z" id="Path" fill="#F9B17C"></path>
                            <path d="M89.6079002,160.894472 C89.4916699,160.895571 89.378429,160.86687 89.2869534,160.813126 L58.3108606,143.161171 C58.143104,143.080346 58.050334,142.935651 58.0709667,142.787003 C58.0915994,142.638356 58.2221221,142.511064 58.4084854,142.457839 C58.5948486,142.404613 58.8053243,142.434517 58.9527544,142.535165 L89.9241273,160.190657 C90.1056413,160.292025 90.1797371,160.46929 90.1078284,160.630139 C90.0359197,160.790987 89.8342735,160.899033 89.6079002,160.898016 L89.6079002,160.894472 Z" id="Path" fill="#F9B17C"></path>
                            <path d="M167.701825,61.6070882 C172.157323,59.2622182 175.593342,55.8740048 179.218154,52.8677613 L191.54629,42.6500698 C192.01827,42.2751736 191.253662,41.7128292 190.80056,42.0912622 L179.175676,51.7253887 C175.39983,54.851882 171.808057,58.4841316 167.173207,60.9209573 C166.62099,61.2109714 167.144888,61.8971023 167.701825,61.6035514 L167.701825,61.6070882 Z" id="Path" fill="#F9B17C"></path>
                            <path d="M187.067193,83.149476 C190.965754,83.0433733 194.46313,81.9611256 198.045464,80.8965617 C202.140693,79.6789086 206.31514,78.6165366 210.552952,77.7134803 C219.150138,75.8999772 227.974161,74.7562601 236.884755,74.3005096 C237.559687,74.2651421 237.564407,73.4729085 236.884755,73.508276 C228.53172,73.9347543 220.251933,74.9567817 212.157687,76.5604974 C208.067187,77.3810251 204.030179,78.3512755 200.046662,79.4712486 C195.798836,80.6702093 191.683164,82.2263824 187.067193,82.3572424 C186.387541,82.3749262 186.387541,83.1671598 187.067193,83.1459393 L187.067193,83.149476 Z" id="Path" fill="#F9B17C"></path>
                            <path d="M194.010029,101.505246 C197.276135,103.917314 203.076778,103.775844 207.338764,104.104762 C213.554749,104.578688 219.789614,104.840408 226.029199,104.91468 C226.300602,104.895398 226.507923,104.724617 226.507923,104.520331 C226.507923,104.316045 226.300602,104.145264 226.029199,104.125983 C220.799653,104.062321 215.574827,103.871336 210.36416,103.528271 C207.843783,103.362043 205.323406,103.174595 202.812469,102.930559 C199.980585,102.665302 196.90799,102.534442 194.755758,100.946438 C194.283778,100.592762 193.523889,101.148033 194.010029,101.505246 L194.010029,101.505246 Z" id="Path" fill="#F9B17C"></path>
                            <path d="M188.502014,123.288133 C204.260437,132.85389 221.188332,141.283983 239.060586,148.466307 C239.660001,148.70327 240.19334,148.024213 239.593924,147.783713 C221.798487,140.643135 204.941741,132.260426 189.247744,122.747009 C188.723845,122.432238 187.973396,122.987509 188.502014,123.305817 L188.502014,123.288133 Z" id="Path" fill="#F9B17C"></path>
                            <path d="M57.8247205,154.125119 C60.9681119,155.698976 64.0171072,157.407229 67.5003247,158.535455 C70.6027927,159.492502 73.4297031,160.889109 75.8260641,162.648703 C79.2668033,165.223463 84.6096247,161.234001 81.1641657,158.645094 C78.5357169,156.649069 75.4379131,155.033978 72.0266195,153.881082 C68.2790928,152.636144 65.0413053,150.942037 61.6430443,149.240857 C57.5887302,147.210758 53.8034451,152.112704 57.8294403,154.125119 L57.8247205,154.125119 Z" id="Path" fill="#F9B17C"></path>
                        </g>
                        <g id="Coffee-mug" transform="translate(0.095518, 292.974654)">
                            <path d="M24.7940978,50.7981415 C24.7940978,50.7981415 29.6224602,64.0680544 38.1417117,67.6543261 C46.6609632,71.2405979 63.3124419,66.2679173 65.0823695,58.7876759 C66.8522971,51.3074346 61.9153791,41.9774692 61.9153791,41.9774692 L24.7940978,50.7981415 Z" id="Path" fill="#9594C8"></path>
                            <path d="M24.7940978,50.7981415 C24.7940978,50.7981415 40.5960113,38.7448731 61.9153791,41.9774692 C61.9153791,41.9774692 39.3452625,53.6063267 24.7940978,50.7981415 Z" id="Path" fill="#394480"></path>
                            <path d="M61.7360264,46.4408567 C58.1975787,48.2964745 57.3362735,51.9501169 59.8121617,54.6018587 C62.2880499,57.2536005 67.1637341,57.8994643 70.702792,56.0445001 C74.2418499,54.1895358 75.1043568,50.5360526 72.6293408,47.8838536 C70.1519458,45.2325121 65.2763166,44.5866556 61.7360264,46.4408567 Z M68.9714904,54.1934284 C66.7966545,55.3323183 63.8015538,54.9346435 62.2813271,53.3051414 C60.7611004,51.6756393 61.2912791,49.4312109 63.4655884,48.2917565 C65.6398977,47.1523021 68.635182,47.5491994 70.1561619,49.1783067 C70.8881485,49.9606901 71.17462,50.9291684 70.9523662,51.8700452 C70.7301124,52.810922 70.0174,53.6468674 68.9714904,54.1934284 L68.9714904,54.1934284 Z" id="Shape" fill="#9594C8"></path>
                            <path d="M46.2786588,44.6335738 C46.2786588,44.6335738 9.15265768,30.9781544 20.1026097,18.8152466 C31.0525617,6.6523387 49.1624608,17.1282134 56.9171036,16.3395165 C64.6717463,15.5508197 87.6855248,2.89983935 68.3767947,0.501918001 C49.0680647,-1.89600335 59.6781906,4.74602659 34.4366633,10.9282781 C9.19513594,17.1105296 -7.60265683,23.0876492 3.47001017,32.4635924 C9.31313112,37.4150524 25.3085567,38.4760796 33.3511077,41.2595075 C40.553533,43.7599948 39.7275668,48.4957126 46.2786588,44.6335738 Z" id="Path" fill="#394480"></path>
                            <path d="M55.416205,23.7985374 C56.3035287,23.5686482 58.0923355,24.7428516 58.9135819,24.9727408 C59.8391515,25.2430423 60.8391092,25.3389834 61.8257027,25.2521446 C63.4205086,25.1162143 64.8052234,24.3668169 65.4788333,23.2750973 C65.6557399,23.0367135 65.6791676,22.7511414 65.5425586,22.4983154 C65.4059497,22.2454894 65.1239823,22.0525749 64.7755821,21.9735707 C63.0296845,21.6497111 61.2273874,21.5304055 59.4327606,21.619895 C59.0138302,21.6261748 58.629944,21.7965353 58.4212227,22.068794 C58.2125015,22.3410527 58.2094881,22.6753691 58.4132824,22.9497157 L59.2298089,24.0744044 L59.9330602,22.7764146 L59.8858621,22.7764146 L59.6026737,24.3927126 L60.9902969,24.1592866 C61.6096374,24.0221899 61.9727543,23.5421065 61.8115433,23.0735022 C61.2593259,21.1671901 56.6952726,21.517329 54.8167895,21.5774539 C53.3064513,21.6305053 53.2970117,23.3988838 54.8167895,23.3458325 C55.2226929,23.3458325 59.4374805,23.2078989 59.5365964,23.5438909 L60.3625626,22.4545697 L58.9749394,22.6879956 C57.8941036,22.871907 57.9365819,23.8904931 58.691751,24.3042937 C59.2267399,24.6243517 59.9560093,24.6926609 60.5796737,24.4811315 C60.928074,24.4021273 61.2100413,24.2092128 61.3466503,23.9563868 C61.4832593,23.7035608 61.4598316,23.4179887 61.282925,23.1796049 L60.4711182,22.0549161 L59.4516399,23.3882736 C61.0366702,23.3078652 62.6287612,23.4116583 64.1714468,23.6959714 L63.4634757,22.3979816 C61.575553,25.4961808 57.6109152,21.386469 54.8120697,22.1115042 C53.3961276,22.4651799 54.0002629,24.1875807 55.439804,23.8162212 L55.416205,23.7985374 Z" id="Path" fill="#394480"></path>
                            <path d="M79.1615535,13.8107352 C81.4317806,13.1564351 90.0737471,10.7125359 91.4708099,13.3403465 L91.7728776,12.4809145 C89.9557519,14.1785579 87.9592736,14.0158671 85.3539402,13.6657281 C83.2253073,13.3757141 81.0211574,13.9486687 78.9680414,13.4181551 L78.9680414,15.1264088 C82.8616227,14.2503306 86.830872,13.5755815 90.8477954,13.1069205 L89.9557519,11.4764755 L86.0571914,12.8275167 C85.0660319,13.1811924 85.4624957,14.220999 86.3403798,14.440278 C87.2150115,14.6682682 88.1381445,14.7737681 89.0637084,14.7515126 L88.7522011,13.0149648 C86.5574909,13.2554643 84.2919836,12.1909004 82.0123169,12.2863928 C80.2925205,12.3770578 78.6216871,12.755325 77.1225969,13.3933978 C75.9568046,13.8673233 76.7497322,15.2997099 78.0335197,15.0061591 L81.1013941,14.2988077 C82.5503749,13.9663525 81.9320802,12.2580988 80.4736598,12.590554 L77.4057853,13.2979054 L78.3167081,14.9142034 C80.2507993,14.0906929 82.5309824,13.8503956 84.6931672,14.2422196 C86.3545392,14.5393072 87.6383267,14.9071299 89.3799355,14.716145 C90.710921,14.571138 90.3710949,12.9477664 89.0637084,12.9795972 C88.3480948,13.0427067 87.6231043,12.9570565 86.9681141,12.7320242 L87.2465827,14.3483223 L91.1451432,13.0008178 C92.4572496,12.5445761 91.4472109,11.2324392 90.2389403,11.3845198 C86.2225519,11.85368 82.2534544,12.5272216 78.3591863,13.4004714 C77.8605479,13.5171474 77.5209984,13.8631538 77.5209984,14.2545982 C77.5209984,14.6460426 77.8605479,14.992049 78.3591863,15.1087251 C79.8317661,15.4871581 81.0872347,15.3669083 82.6070126,15.313857 C84.3155827,15.2537321 85.8306407,15.6675327 87.5061721,15.7524149 C89.8149478,15.8422739 92.0368379,15.0817533 93.4578486,13.7152427 C93.7555119,13.4880268 93.8704312,13.159717 93.7599163,12.852274 C91.5463268,8.68951082 82.4654183,10.9565722 78.5479786,12.0883344 C77.1320365,12.4950615 77.7550511,14.2103887 79.1757129,13.7930514 L79.1615535,13.8107352 Z" id="Path" fill="#394480"></path>
                            <path d="M90.9893896,3.23229453 C92.6525341,3.08499597 94.3293464,3.04358562 96.0018246,3.10850803 C96.9457859,3.14033884 97.969984,3.13680208 98.8337087,3.46218374 C99.2443319,3.62841133 99.5133609,3.9113519 99.9664624,4.0351384 C101.410723,4.42064493 103.567675,3.10850803 103.798946,2.03687061 C104.577714,-1.59891575 93.7551965,1.18451213 92.20238,1.62307002 C91.003549,1.97674573 91.1121046,3.34547075 92.5186071,3.35961778 L100.594197,3.45157347 L100.27797,1.71502571 C99.6442268,1.78719141 99.0342257,1.94795638 98.4797232,2.18895116 C97.5027231,2.54262688 97.8803077,3.56828646 98.7629116,3.80524918 C99.6651776,4.07465877 100.682346,4.01993609 101.523999,3.65670538 C102.902182,3.18277993 101.703351,1.65843759 100.334607,2.13236305 L99.3906459,2.10053224 L99.6738343,3.71683026 L100.905704,3.41974265 C102.241409,3.22522101 101.887424,1.69734192 100.594197,1.68319489 L92.5186071,1.5912392 L92.8301143,3.32778697 C94.6071724,2.81199395 96.4449556,2.4224186 98.3192497,2.16419386 C98.9753029,2.07931169 100.178854,1.86710626 100.919863,1.94845168 C100.872331,2.08900157 100.839196,2.23206698 100.820747,2.37639929 C100.655554,2.27383334 100.480921,2.17834089 100.306288,2.08638521 C99.0413802,1.75393003 98.1021386,1.41440135 96.7192352,1.3436662 C94.8122112,1.24455952 92.8969744,1.28008354 90.9988292,1.44976892 C89.5120901,1.58770245 89.4932108,3.35608103 90.9988292,3.2181475 L90.9893896,3.23229453 Z" id="Path" fill="#394480"></path>
                        </g>
                    </g>
                </g>
            </g>
        </g>
    </g>
</svg>