<?xml version="1.0" encoding="UTF-8"?>
<svg width="1227px" height="686px" viewBox="0 0 1227 686" version="1.1" xmlns="http://www.w3.org/2000/svg" xmlns:xlink="http://www.w3.org/1999/xlink">
    <!-- Generator: Sketch 60 (88103) - https://sketch.com -->
    <title>Hologram</title>
    <desc>Created with Sketch.</desc>
    <defs>
        <linearGradient x1="49.9988022%" y1="94.3495439%" x2="49.9988022%" y2="1.49914546%" id="linearGradient-1">
            <stop stop-color="#D8EAF9" offset="0%"></stop>
            <stop stop-color="#E9F3FB" stop-opacity="0" offset="100%"></stop>
        </linearGradient>
    </defs>
    <g id="Page-1" stroke="none" stroke-width="1" fill="none" fill-rule="evenodd">
        <g id="Stakeholders" transform="translate(-43.000000, -729.000000)">
            <g id="Hologram" transform="translate(41.000000, 720.000000)">
                <ellipse id="Oval" fill="#9493C7" fill-rule="nonzero" cx="210.5" cy="626" rx="83.5" ry="13"></ellipse>
                <ellipse id="Oval" fill="#E9F3FB" fill-rule="nonzero" cx="210.5" cy="682" rx="83.5" ry="13"></ellipse>
                <rect id="Rectangle" fill="#9493C7" fill-rule="nonzero" x="127" y="616" width="167" height="9"></rect>
                <polygon id="Path" fill="url(#linearGradient-1)" fill-rule="nonzero" points="293.064422 616 454 0 0 0.828036486 127.646164 616"></polygon>
                <path d="M254.670132,319 C254.670132,319 266.431001,323.087033 271.763568,325.771055 C277.023087,328.455077 292.363351,335.348134 292.655546,336.568144 C293.020791,337.788154 292.290302,338.642161 290.171885,338.52016 C288.053467,338.398159 271.03308,329.187083 271.03308,329.187083 C271.03308,329.187083 290.975422,338.947163 292.655546,340.777178 C294.408719,342.546193 289.80664,344.193206 271.03308,332.542111 C271.03308,332.542111 289.222249,341.143181 288.491761,342.973196 C287.834321,344.68121 278.77626,342.973196 270.886982,334.982131 C270.886982,334.982131 278.045772,341.204182 280.529433,342.424192 C283.013095,343.644202 279.579798,344.62021 276.950038,343.522201 C274.320279,342.424192 247,324.063041 247,324.063041 L254.670132,319 Z" id="Path" fill="#9493C7" fill-rule="nonzero"></path>
                <path d="M199.786765,189.553718 C199.786765,189.553718 194.477941,198.184411 197.481618,204.107436 C200.485294,210.030461 184,200.158753 184,200.158753 L186.654412,175 L203,178.610225 L199.786765,189.553718 Z" id="Path" fill="#9493C7" fill-rule="nonzero"></path>
                <path d="M200.416489,194 C200.416489,194 191.179345,188.437955 192.059073,183.047931 C192.938801,177.657908 202,179.206106 202,179.206106 L201.296218,192.050417 L200.416489,194 Z" id="Path" fill="#5F64AC" fill-rule="nonzero"></path>
                <path d="M183.231209,506.426823 C183.231209,506.426823 179.49167,532.796985 188.070613,545.769892 C195.769664,557.469757 213.587467,563.531864 225.319354,563.350001 C237.051242,563.168137 243.430455,570.563907 227.372435,570.988254 C211.314414,571.412602 188.657207,560.197705 168.346377,560.197705 C168.346377,560.197705 171.279349,527.522953 169.006296,513.09514 C166.733243,498.667327 166,496 166,496 L183.231209,506.426823 Z" id="Path" fill="#9493C7" fill-rule="nonzero"></path>
                <path d="M213,501.723814 C213,501.723814 214.605117,539.36298 213.802559,545.664819 C213,551.966658 232.626204,544.232582 270.419415,548.930317 C270.419415,548.930317 284.427709,549.67508 283.98995,546.295003 C283.479231,542.914925 273.629649,541.883715 267.57398,541.711847 C261.518311,541.539979 233.136923,543.258662 229.051171,531.514326 C224.965418,519.769989 228.321572,498 228.321572,498 L213,501.723814 Z" id="Path" fill="#9493C7" fill-rule="nonzero"></path>
                <path d="M172.239076,543 C172.239076,543 175.640933,551.356784 180.460231,557.685819 C185.208657,563.953406 194.705508,561.495529 208.312937,565.858262 C221.920366,570.282441 222.203854,558.914757 228.794953,560.942506 C235.386051,562.970255 241.339301,566.349837 240.984941,568.930609 C240.630581,571.51138 228.157104,571.818615 209.80125,569.053502 C191.445395,566.226943 174.15262,561.741317 168.766346,561.495529 C163.3092,561.249741 172.239076,543 172.239076,543 Z" id="Path" fill="#5F64AC" fill-rule="nonzero"></path>
                <path d="M212.91498,531 C212.91498,531 207.934379,548.622283 210.993891,550.065746 C214.053403,551.50921 242.01592,551.028055 250.056033,550.787478 C258.024994,550.546901 283.141453,553.674405 283.924119,550.727334 C284.706784,547.780263 279.299275,542.246986 273.962917,541.46511 C268.69771,540.62309 260.088386,548.141129 256.886571,547.960696 C253.684756,547.720118 227.145269,548.682427 221.666608,544.051315 C216.187947,539.420203 212.91498,531 212.91498,531 Z" id="Path" fill="#5F64AC" fill-rule="nonzero"></path>
                <path d="M171.899936,548.925964 C175.91684,547.668292 180.922521,546.873973 184.321439,544.160049 C185.928201,542.902376 184.383238,540.056066 182.776476,541.313738 C179.562953,543.762889 174.804467,544.557208 171.096555,545.748687 C169.180801,546.344427 169.984182,549.521704 171.899936,548.925964 L171.899936,548.925964 Z" id="Path" fill="#5F64AC" fill-rule="nonzero"></path>
                <path d="M214.209314,534.911693 C218.377284,533.680088 223.407593,532.772591 226.497639,529.790812 C228.078593,528.235101 225.563439,525.966357 223.982485,527.522067 C221.395469,530.050097 216.724468,530.763131 213.275114,531.800272 C211.047406,532.448484 211.981606,535.559905 214.209314,534.911693 L214.209314,534.911693 Z" id="Path" fill="#5F64AC" fill-rule="nonzero"></path>
                <path d="M209.575184,524 C209.575184,524 234.07872,523.940843 231.85764,516.546191 C226.770648,499.627229 227.128887,358.655592 222.185191,332.981361 C217.241495,307.307131 220.322349,306.301459 220.322349,306.301459 L192.451368,305 L185,452.360616 C185,452.360616 204.55984,521.633712 209.575184,524 Z" id="Path" fill="#5560A6" fill-rule="nonzero"></path>
                <path d="M169.770309,302.207645 C169.770309,302.207645 215.929096,306.240444 217.814667,302.207645 C219.700238,298.174846 206.576662,240.955857 206.576662,240.955857 L159.889915,225 C159.889915,225 154.610315,261.353637 169.770309,302.207645 Z" id="Path" fill="#B4B4DA" fill-rule="nonzero"></path>
                <path d="M221.400891,158.109158 C221.400891,158.109158 227.407078,160.678119 226.978065,170.668523 C226.549051,180.658927 214.036161,200.582647 203.811342,195.045108 C193.658025,189.50757 200.593741,182.828272 195.016567,182.485744 C189.439393,182.143215 186.221793,169.583851 192.22798,168.099562 C198.234168,166.615274 196.37511,159.993063 201.952284,158.109158 C207.529458,156.225254 213.535645,152.172004 221.400891,158.109158 Z" id="Path" fill="#9493C7" fill-rule="nonzero"></path>
                <path d="M222.962796,176 C222.962796,176 223.682669,184.424175 227.362019,186.419375 C230.961382,188.414574 218.163644,188.636263 218.003673,186.419375 C217.843701,184.202487 222.962796,176 222.962796,176 Z" id="Path" fill="#5F64AC" fill-rule="nonzero"></path>
                <path d="M218,188.679448 C218,188.679448 211.571429,190.366507 208,186" id="Path" stroke="#5F64AC"></path>
                <path d="M162.105336,529.563703 C162.105336,529.563703 155.018123,423.794538 157.544258,371.560661 C159.579201,328.969051 172.280049,303 172.280049,303 L207.435437,308.205641 C207.435437,308.205641 209.891402,346.715555 204.558449,397.529712 C199.225496,448.343869 188.138567,522.405946 186.454477,526.960882 C184.770387,531.574973 162.105336,529.563703 162.105336,529.563703 Z" id="Path" fill="#5F64AC" fill-rule="nonzero"></path>
                <path d="M182.895532,239.590009 C182.895532,239.590009 194.15801,255.80333 216.317301,278.490102 C220.851545,283.122479 220.924678,293.515634 226.921582,298.029232 C229.993167,300.345421 236.428869,303.493062 243.157102,306.462535 C253.322586,310.976133 264,315.014616 264,315.014616 L244.619762,332 C244.619762,332 228.384242,324.516929 211.271126,320.419056 C186.844712,314.5395 194.011744,305.452914 183.992526,300.107863 C174.046442,294.703423 177.995622,280.568733 172.510649,271.422757 C161.46757,252.952636 153.715475,236.858094 154.008007,229.196855 C154.373672,219.753932 175.070303,229.196855 175.070303,229.196855 L182.895532,239.590009 Z" id="Path" fill="#F4F4F9" fill-rule="nonzero"></path>
                <path d="M229.728266,256.027676 C226.526407,256.503723 225.071016,259.479016 226.890254,261.680732 L226.963024,261.740238 C233.948898,269.773528 218.740067,275.248066 202.148616,272.094256 C192.397499,270.249575 178.061903,262.751838 169.038481,252.39782 C166.564318,249.541539 161.033834,251.088691 161.252142,254.599536 C161.252142,254.659042 161.252142,254.718548 161.252142,254.778054 C162.270916,269.356987 145.242847,262.632826 132.580949,258.586428 C119.919052,254.54003 125.085688,227.702892 151.937643,212.350382 C167.510321,203.424504 172.968036,189.262112 174.787274,178.9676 C176.097125,171.469863 175.514969,165.995324 175.514969,165.995324 C175.514969,165.995324 175.514969,165.995324 175.514969,165.995324 C175.296661,163.496079 175.151122,161.056339 175.296661,158.795117 C176.024356,147.727028 193.052425,137.134987 210.517111,140.705338 C212.336349,141.062373 214.010048,141.597926 215.465439,142.311996 C218.37622,143.621125 220.704845,145.4063 222.596852,147.369993 C228.855032,154.094154 229.655496,163.139044 229.655496,163.139044 C208.552334,163.496079 192.32473,174.504661 192.470269,184.382632 C192.688577,201.401306 206.442018,205.447703 216.338673,207.887443 C235.477058,212.5289 246.246948,218.062944 246.246948,227.464868 C246.246948,229.488067 245.883101,231.094725 245.155405,232.344348 C244.282171,233.831994 244.791558,235.498158 246.101409,236.747781 C246.174179,236.807287 246.246948,236.866793 246.246948,236.926298 C248.502803,239.544556 252.359588,252.695349 229.728266,256.027676 Z" id="Path" fill="#5F64AC" fill-rule="nonzero"></path>
                <path d="M164.361797,515.59581 C172.896479,467.632047 176.737086,419.075407 175.883618,370.578055 C175.883618,369.807315 174.461171,369.807315 174.461171,370.578055 C175.385762,418.956832 171.545155,467.394896 163.010473,515.240084 C162.868228,516.010824 164.219553,516.307263 164.361797,515.59581 L164.361797,515.59581 Z" id="Path" fill="#B4B4DA" fill-rule="nonzero"></path>
                <ellipse id="Oval" fill="#5F64AC" fill-rule="nonzero" transform="translate(215.702791, 176.377460) rotate(14.353076) translate(-215.702791, -176.377460) " cx="215.702791" cy="176.37746" rx="1.70001458" ry="5.10588638"></ellipse>
                <polygon id="Path" stroke="#B4B4DA" points="236 328.811634 246.130653 333 264 316.188366 253.869347 312"></polygon>
                <line x1="249" y1="329" x2="238" y2="325" id="Path" stroke="#B4B4DA"></line>
                <line x1="250" y1="329" x2="239" y2="325" id="Path" stroke="#B4B4DA"></line>
                <line x1="254" y1="325" x2="243" y2="321" id="Path" stroke="#B4B4DA"></line>
                <line x1="255" y1="322" x2="244" y2="318" id="Path" stroke="#B4B4DA"></line>
                <line x1="259" y1="321" x2="248" y2="317" id="Path" stroke="#B4B4DA"></line>
                <line x1="251" y1="315" x2="262" y2="319" id="Path" stroke="#B4B4DA"></line>
                <line x1="265" y1="315" x2="254" y2="311" id="Path" stroke="#B4B4DA"></line>
                <path d="M171.699525,208.485876 C159.701312,229.436367 169.748009,252.655002 169.748009,252.655002 C167.290543,249.789977 161.797385,251.341866 162.01422,254.863458 C162.01422,254.923146 162.01422,254.982834 162.01422,255.042522 C163.026118,269.666084 146.112974,262.921339 133.536533,258.862555 C120.960093,254.80377 126.091859,227.884478 152.762586,212.484972 C168.230162,203.531771 173.651042,189.326025 175.458002,179 C177.554075,185.923809 178.493694,196.548274 171.699525,208.485876 Z" id="Path" fill="#5560A6" fill-rule="nonzero"></path>
                <path d="M180.598779,148.252495 C170.647758,159.346793 173.964765,174.220468 166.519928,186.229131 C159.812202,197.018641 146.986442,204.760267 132.539034,206.832828 C131.580788,206.954743 132.023056,208.112939 132.907591,207.991024 C146.691597,205.97942 158.927667,198.969287 166.225082,189.094142 C175.291568,176.719733 171.31116,160.565947 181.851871,148.862072 C182.441561,148.252495 181.114758,147.642918 180.598779,148.252495 L180.598779,148.252495 Z" id="Path" fill="#5F64AC" fill-rule="nonzero"></path>
                <path d="M171.533749,191.549409 C170.94831,197.691525 164.215765,203.77729 158.946817,208.116216 C153.23879,212.79324 145.189008,215.328975 137.944205,218.259159 C131.723919,220.794894 124.625475,223.105231 120.015145,227.387807 C115.770715,231.332285 113.794859,236.403756 112.038543,241.306179 C111.745824,241.982375 113.209421,242.320473 113.42896,241.587927 C115.697535,235.502161 118.18565,229.360046 124.918194,225.359219 C131.504379,221.414741 139.700521,218.822656 147.091684,215.779773 C153.970589,212.962289 159.166357,210.032105 163.923046,205.242382 C168.021117,201.128855 172.485087,196.84628 172.997346,191.549409 C173.070525,190.816864 171.606929,190.816864 171.533749,191.549409 L171.533749,191.549409 Z" id="Path" fill="#5560A6" fill-rule="nonzero"></path>
                <path d="M147.862545,216.171538 C145.035903,218.783703 142.007358,221.158399 138.642308,223.236257 C135.546462,225.076646 132.248714,226.620198 129.422072,228.876159 C124.643701,232.675671 121.817059,237.840634 121.009447,243.421168 C120.874845,244.192944 122.220865,244.192944 122.355467,243.421168 C123.364982,236.712653 127.537644,231.072752 133.863938,227.391974 C139.248017,224.245503 144.295592,221.277133 148.804759,217.062049 C149.410468,216.468375 148.468254,215.637232 147.862545,216.171538 L147.862545,216.171538 Z" id="Path" fill="#5560A6" fill-rule="nonzero"></path>
                <path d="M204.497382,207.282792 C208.507645,208.660735 212.661132,209.64498 216.957843,210.038678 C221.827448,210.497993 226.768665,209.776213 231.63827,210.235527 C240.732974,211.022924 248.610277,216.337848 252.692152,223.686878 C253.121823,224.408658 254.339224,223.752495 253.909553,223.030715 C250.257349,216.46908 243.740672,211.482238 235.934981,209.64498 C231.351823,208.529502 226.697053,208.923201 222.042283,208.923201 C216.0985,208.988817 210.297941,208.004572 204.783829,206.036081 C203.996099,205.773616 203.63804,207.020327 204.497382,207.282792 L204.497382,207.282792 Z" id="Path" fill="#5F64AC" fill-rule="nonzero"></path>
                <path d="M172.002686,250.572141 C172.817117,258.200684 177.555624,265.183734 185.107621,269.995584 C194.28848,275.863694 204.950123,276.333143 216.278118,275.863694 C217.240627,275.805013 217.240627,274.631391 216.278118,274.690072 C205.394358,275.10084 194.954833,274.748753 186.14417,269.174049 C178.962369,264.596923 174.2979,257.848597 173.483469,250.572141 C173.40943,249.809286 171.928646,249.809286 172.002686,250.572141 L172.002686,250.572141 Z" id="Path" fill="#5F64AC" fill-rule="nonzero"></path>
                <path d="M263,321 C263,321 281.7338,326.928223 284.644629,326.998797 C287.555459,327.069371 285.390996,329.257167 281.808436,328.974871 C278.225877,328.692575 267.179653,325.446167 267.179653,325.446167 L263,321 Z" id="Path" fill="#9493C7" fill-rule="nonzero"></path>
                <path d="M1227,130 C1229.66667,130 1229.66667,127 1227,127 C1224.33333,127 1224.33333,130 1227,130 L1227,130 Z" id="Path" fill="#B4B4DA" fill-rule="nonzero"></path>
                <ellipse id="Oval" fill="#9493C7" fill-rule="nonzero" cx="578" cy="472" rx="4" ry="3"></ellipse>
                <ellipse id="Oval" fill="#C7DBEE" fill-rule="nonzero" cx="210.5" cy="615" rx="83.5" ry="13"></ellipse>
                <ellipse id="Oval" fill="#FFFFFF" fill-rule="nonzero" cx="212" cy="615.5" rx="58" ry="9.5"></ellipse>
                <ellipse id="Oval" fill="#2C2A5C" fill-rule="nonzero" transform="translate(196.336118, 175.006893) rotate(17.001630) translate(-196.336118, -175.006893) " cx="196.336118" cy="175.006893" rx="6.25465462" ry="8.46465273"></ellipse>
                <path d="M224,148.995851 C223.790698,148.879668 220.023256,147.311203 220.023256,147.311203 C217.023256,145.278008 214.232558,149.751037 212.906977,151.435685 C211.511628,153.294606 209.837209,155.037344 208.232558,156.780083 C204.395349,160.904564 200.488372,165.145228 200.488372,170.605809 C200.488372,172.46473 197,172.46473 197,170.605809 C197,162.879668 203.55814,157.593361 208.511628,151.66805 C210.534884,149.286307 213.534884,144.929461 217.162791,144 C220.023256,145.278008 222.255814,147.020747 224,148.995851 Z" id="Path" fill="#2C2A5C" fill-rule="nonzero"></path>
                <path d="M192.324963,181.065253 C195.615947,184.788277 198.37119,189.526671 204.64702,190.936907 C207.01959,191.444592 208.014539,188.736938 205.641969,188.229253 C200.74376,187.157474 198.218121,182.644718 195.615947,179.655017 C194.314861,178.131962 190.947342,179.542198 192.324963,181.065253 L192.324963,181.065253 Z" id="Path" fill="#2C2A5C" fill-rule="nonzero"></path>
                <ellipse id="Oval" fill="#4A52A3" fill-rule="nonzero" transform="translate(193.687983, 174.349293) rotate(17.001630) translate(-193.687983, -174.349293) " cx="193.687983" cy="174.349293" rx="6.25465462" ry="8.46465273"></ellipse>
                <path d="M223.018468,145.879417 C223.018468,145.879417 223.018468,145.821756 222.948715,145.821756 C222.948715,145.821756 222.948715,145.821756 222.948715,145.821756 C222.948715,145.821756 222.948715,145.821756 222.948715,145.821756 C222.878962,145.764094 222.809209,145.648772 222.739456,145.59111 C216.60118,140.689897 211.439449,148.358854 208.509818,151.818534 C203.487593,157.69999 196.930799,162.88951 197.000552,170.616128 C197.000552,172.461291 200.488208,172.461291 200.488208,170.616128 C200.488208,165.195963 204.394383,160.986686 208.230805,156.892731 C209.835127,155.162891 211.509202,153.433051 212.904265,151.587889 C214.159821,149.91571 217.019699,145.475788 220.019084,147.493934 C220.019084,147.493934 223.646246,150.088694 223.646246,150.088694 C224.62279,148.243532 223.297481,146.283046 223.018468,145.879417 Z" id="Path" fill="#4A52A3" fill-rule="nonzero"></path>
            </g>
        </g>
    </g>
</svg>