<?xml version="1.0" encoding="UTF-8"?>
<svg width="450px" height="368px" viewBox="0 0 450 368" version="1.1" xmlns="http://www.w3.org/2000/svg" xmlns:xlink="http://www.w3.org/1999/xlink">
    <!-- Generator: Sketch 60 (88103) - https://sketch.com -->
    <title>Bottom illustration</title>
    <desc>Created with Sketch.</desc>
    <g id="Page-1" stroke="none" stroke-width="1" fill="none" fill-rule="evenodd">
        <g id="Stakeholders" transform="translate(-98.000000, -3417.000000)" fill-rule="nonzero">
            <g id="Bottom-illustration" transform="translate(-29.000000, 3376.000000)">
                <path d="M574.650966,211.493346 C564.738045,288.409637 508.598203,274.630065 423.787657,288.375946 C339.010488,302.121828 370.918746,355.757717 337.909053,410.235879 C304.865983,464.71404 248.726141,409.12408 235.508913,371.322906 C222.291685,333.555424 192.552922,350.198721 165.017031,351.411593 C137.481139,352.624465 141.886882,328.501791 141.886882,328.501791 C148.328612,305.154007 168.421468,292.991598 190.850703,269.980723 C191.41811,269.407978 191.952139,268.835233 192.519545,268.228797 C215.649694,244.072432 176.398532,221.870139 141.619867,183.462529 C141.419606,183.226693 141.219345,183.024548 141.019084,182.788712 C122.962214,162.237272 124.197157,134.543364 134.310339,109.814254 C134.310339,109.814254 134.310339,109.814254 134.310339,109.814254 C140.818823,93.8784652 150.998759,79.1555483 162.046492,68.3744649 C172.193051,58.4693446 183.0739,51.8659311 192.519545,50.6530592 C198.427246,49.9118598 205.569889,50.4509139 213.613707,51.9333129 C220.088814,53.1461848 227.09795,54.9318017 234.540985,57.189091 C236.376711,57.7281452 238.212437,58.3345811 240.114917,58.9073262 C279.099064,71.5077173 327.128334,94.1143014 359.336983,102.368568 C375.558126,106.512547 389.576398,101.458914 403.49454,92.7666659 C407.766775,90.105086 412.03901,87.0729063 416.377999,83.8722722 C425.122731,77.4036222 434.1011,70.1600819 443.780384,63.5229774 C448.186126,60.4907978 452.758753,57.5596907 457.531641,54.8981108 C468.612751,48.6989879 480.76192,43.8138095 494.613308,41.8260473 C496.315527,41.5902111 498.051123,41.3880658 499.786718,41.2196113 C509.198986,40.4110301 517.676703,41.8597382 525.286622,45.1614449 C526.354681,45.6331173 527.42274,46.1384806 528.457422,46.6775348 C532.295759,48.6989879 535.86708,51.1921134 539.238141,54.1232204 C544.444928,58.7051808 549.084308,64.3315587 553.189659,70.7665178 C556.327082,75.7527688 559.164113,81.2106923 561.667376,87.0729063 C562.702058,89.4986501 563.669986,91.9917756 564.604538,94.5522829 C576.820461,128.344241 579.657492,172.715137 574.650966,211.493346 Z" id="Path" fill-opacity="0.0945968094" fill="#EBF5FC"></path>
                <path d="M383.465844,310.36526 C383.465844,310.36526 394.297589,357.352759 400.575078,367.204145 C406.852567,377.05553 439.409346,419.349437 441.624931,420.896775 C443.840515,422.444113 418.73056,428.53031 413.191599,426.879816 C407.652639,425.229322 377.065267,383.502772 375.034315,377.003952 C373.003363,370.505133 366.66433,314.233605 366.66433,314.233605 L383.465844,310.36526 Z" id="Path" fill="#4A52A3"></path>
                <path d="M313.736484,201.94844 C313.736484,201.94844 309.05914,192.20021 308.135979,187.558196 C307.212819,182.916182 305.304955,184.824566 305.304955,186.21717 C305.304955,187.609774 306.166571,193.386503 307.335907,194.882263 C308.505243,196.274867 313.736484,201.94844 313.736484,201.94844 Z" id="Path" fill="#D37477"></path>
                <path d="M308.874508,209.94302 C308.874508,209.94302 293.119242,201.123193 293.488506,197.564316 C293.85777,194.005438 299.581362,186.836105 301.550771,187.609774 C303.520179,188.383443 314.659644,200.45268 315.151996,205.919941 C315.644348,211.387202 308.874508,209.94302 308.874508,209.94302 Z" id="Path" fill="#D37477"></path>
                <path d="M308.812963,199.266387 C308.812963,199.266387 301.058419,185.495079 299.027466,181.729889 C296.750338,177.552077 292.688434,171.775348 292.380714,173.528998 C292.01145,175.282648 296.93497,188.022398 299.827538,190.446561 C302.720107,192.870723 308.812963,199.266387 308.812963,199.266387 Z" id="Path" fill="#D37477"></path>
                <path d="M362.540882,234.494117 C362.540882,234.494117 348.631936,248.935939 345.30856,249.967498 C343.462239,250.534855 331.091894,246.40862 320.629413,230.986818 C314.413468,221.857523 304.012531,215.977638 302.227755,214.223989 C297.488866,209.633552 314.90582,198.69903 317.613756,200.246368 C318.906181,200.968459 322.168013,207.983059 328.630134,212.676651 C336.200047,218.247068 339.338791,225.416401 340.446583,225.416401 C342.539079,225.416401 351.955312,196.223289 355.278689,189.621314 C358.602065,183.019338 365.248818,188.589755 365.248818,188.589755 L362.540882,234.494117 Z" id="Path" fill="#2C2A5C"></path>
                <path d="M370.35697,177.861544 C370.35697,177.861544 355.094057,181.162532 354.540161,184.515098 C353.986265,187.867664 354.970969,196.996958 354.970969,196.996958 C354.970969,196.996958 349.432008,258.787325 338.723351,284.060513 C328.014694,309.333701 313.551852,326.61231 318.106109,327.85018 C322.660365,329.088051 351.339872,335.122669 351.339872,335.122669 L371.649395,257.497876 L373.187995,205.45574 L370.35697,177.861544 Z" id="Path" fill="#17132C"></path>
                <path d="M360.756105,297.470776 C360.756105,297.470776 341.308199,417.080008 342.600623,467.523229 C342.600623,467.523229 353.063105,470.824217 363.833306,469.225301 C374.665051,467.626385 388.573997,326.509154 388.573997,326.509154 L360.756105,297.470776 Z" id="Path" fill="#5F64AC"></path>
                <path d="M367.156682,163.883924 C367.156682,163.883924 369.864618,173.993199 366.418154,177.861544 C366.418154,177.861544 372.572555,181.523578 375.465123,178.841525 C378.357691,176.21105 377.926883,164.193391 379.834748,162.23343 C381.742612,160.273468 367.156682,163.883924 367.156682,163.883924 Z" id="Path" fill="#D37477"></path>
                <path d="M384.389004,188.331865 L376.819091,241.818184 L363.648674,270.289204 C363.648674,270.289204 356.201849,234.545695 360.571473,197.20327 C361.310001,190.96234 362.233162,187.300306 363.402498,183.070916 C365.248818,176.107895 364.694922,169.144873 364.694922,169.144873 C365.12573,169.248029 365.74117,169.351185 366.541242,169.505919 C366.725874,169.557497 366.910506,169.557497 367.156682,169.609075 C367.772122,169.763808 368.51065,169.918542 369.249178,170.073276 L369.864618,170.22801 C370.726235,170.434322 371.587851,170.589055 372.511011,170.795367 C372.695643,170.846945 372.880275,170.898523 373.126451,170.950101 C374.541963,171.259569 376.019019,171.569036 377.372987,171.878504 L377.988427,172.033238 C378.603867,172.187971 379.219308,172.291127 379.71166,172.445861 C379.896292,172.497439 380.080924,172.549017 380.3271,172.600595 C381.927244,172.96164 382.973492,173.21953 382.973492,173.21953 C382.973492,173.21953 381.004084,176.159472 379.957836,178.532057 C378.911587,180.904642 381.496436,188.641333 381.496436,188.641333 L384.389004,188.331865 Z" id="Path" fill="#F38A75"></path>
                <path d="M379.588572,185.495079 C381.55798,186.062436 384.01974,181.833045 378.665411,184.308786 C373.311083,186.784527 363.956394,186.939261 364.51029,191.529697 C365.064186,196.120133 353.309281,322.950276 342.846799,355.031752 C342.846799,355.031752 401.005886,351.214985 405.37551,340.899398 C409.745135,330.583811 398.667214,310.468416 396.513173,289.424618 C394.297589,268.380821 385.189076,194.985419 385.55834,189.002378 C385.742972,185.495079 392.512813,183.638273 382.78886,179.821506 L379.034675,178.377324 C379.034675,178.377324 378.480779,179.512038 378.726955,180.698331 C378.850043,182.039357 378.542323,185.185611 379.588572,185.495079 Z" id="Path" fill="#171338"></path>
                <path d="M370.726235,136.650774 C370.726235,136.650774 354.417073,153.104135 357.617361,159.499799 C361.433089,167.081756 370.972411,166.153353 377.803795,163.368144 C384.63518,160.531358 389.743333,149.081056 389.558701,145.212711 C389.312525,141.344366 370.726235,136.650774 370.726235,136.650774 Z" id="Path" fill="#D37477"></path>
                <path d="M365.248818,142.788548 C365.248818,142.788548 355.524865,147.378985 354.663249,147.843186 C353.801633,148.307387 357.740449,152.382044 360.140665,152.124155 C362.540882,151.866265 365.248818,142.788548 365.248818,142.788548 Z" id="Path" fill="#E85A5B"></path>
                <path d="M365.987346,160.118735 C363.58713,160.118735 361.617722,159.24191 360.633017,158.571397 C360.263753,158.313507 360.202209,157.797727 360.509929,157.48826 C360.817649,157.178792 361.433089,157.127214 361.802354,157.385104 C361.925442,157.48826 365.43345,159.912423 369.679986,157.591416 C370.110794,157.385104 370.664691,157.48826 370.972411,157.797727 C371.218587,158.158773 371.095499,158.622974 370.726235,158.880864 C369.064546,159.809267 367.464402,160.118735 365.987346,160.118735 Z" id="Path" fill="#171338"></path>
                <path d="M386.296868,151.556797 C386.296868,151.556797 392.882077,149.596836 391.281933,155.73461 C389.743333,161.872384 381.681068,163.213411 379.40394,161.769228 C377.065267,160.376624 386.296868,151.556797 386.296868,151.556797 Z" id="Path" fill="#E85A5B"></path>
                <path d="M387.09694,137.218131 C387.09694,137.218131 377.249899,143.098016 371.526307,136.805508 C365.802714,130.513 365.864258,121.847907 371.464763,122.363686 C377.065267,122.879465 379.034675,123.549978 378.726955,126.180453 C378.419235,128.810928 375.772843,130.306688 376.019019,128.707772 C376.265195,127.057278 381.188716,123.292089 386.358412,126.232031 C391.589653,129.171973 403.036838,139.178093 401.621326,144.49062 C400.205814,149.854725 390.604949,154.909363 385.065988,158.210351 C380.573276,160.892404 391.466565,147.327407 389.066349,144.23273 C386.666132,141.138054 376.696003,138.352846 376.696003,138.352846 L387.09694,137.218131 Z" id="Path" fill="#171338"></path>
                <ellipse id="Oval" fill="#171338" transform="translate(370.775433, 145.740106) rotate(31.439343) translate(-370.775433, -145.740106) " cx="370.775433" cy="145.740106" rx="1.20283445" ry="3.04154699"></ellipse>
                <path d="M399.651918,293.757165 C399.651918,293.757165 407.344919,303.402239 407.221831,306.187447 C407.098743,308.972656 391.466565,312.841001 391.466565,308.302143 C391.405021,302.267524 391.466565,294.582412 391.466565,294.582412 L399.651918,293.757165 Z" id="Path" fill="#D37477"></path>
                <path d="M406.914111,304.640109 C406.914111,304.640109 411.406823,312.583111 412.206895,314.955696 C413.006967,317.328281 412.883879,318.566152 411.529911,318.566152 C410.175943,318.566152 404.513894,306.084291 404.513894,306.084291 L406.914111,304.640109 Z" id="Path" fill="#D37477"></path>
                <path d="M403.959998,304.640109 C403.959998,304.640109 413.930127,319.907178 412.637703,320.474535 C411.345279,321.041893 409.252783,322.743965 408.575799,320.474535 C407.837271,318.205106 400.575078,305.826402 400.575078,305.826402 L403.959998,304.640109 Z" id="Path" fill="#D37477"></path>
                <path d="M400.575078,304.640109 C400.575078,304.640109 411.222191,321.815562 410.545207,322.743965 C409.868223,323.620789 407.221831,323.775523 407.221831,323.775523 L398.174862,306.754805 L400.575078,304.175908 L400.575078,304.640109 Z" id="Path" fill="#D37477"></path>
                <path d="M399.83655,307.837941 C399.83655,307.837941 406.421759,322.434497 405.37551,322.692387 C404.390806,322.950276 402.113678,322.898698 401.436694,322.692387 C400.75971,322.486075 396.574717,307.837941 396.574717,307.837941 L399.83655,307.837941 Z" id="Path" fill="#D37477"></path>
                <path d="M393.312885,297.470776 C393.312885,297.470776 390.051053,315.058852 390.912669,315.316742 C391.774285,315.574632 395.097661,314.543073 395.220749,312.634689 C395.343837,310.726306 395.220749,298.141289 395.220749,298.141289 L393.312885,297.470776 Z" id="Path" fill="#D37477"></path>
                <path d="M385.86606,195.191731 C385.86606,195.191731 372.634099,199.833745 371.957115,205.971519 C371.526307,209.581975 377.311443,239.9098 377.680707,266.678749 C377.865339,284.318403 382.296508,298.811803 383.958196,299.276004 C387.897012,300.307563 408.637343,295.201347 408.637343,292.106671 C408.637343,290.817223 398.174862,274.931219 397.559422,255.331603 C396.574717,224.642732 385.86606,195.191731 385.86606,195.191731 Z" id="Path" fill="#2C2A5C"></path>
                <path d="M367.033594,173.167952 C367.033594,174.302667 366.910506,175.488959 366.848962,176.623674 C366.602786,178.944681 366.233522,181.265688 365.618082,183.535117 C365.556538,183.844585 364.941098,183.741429 365.002642,183.380383 C365.618082,180.801487 366.110434,178.22259 366.295066,175.592115 C366.418154,174.457401 366.418154,173.271108 366.418154,172.136393 C366.418154,171.207991 366.295066,170.331166 366.479698,169.454341 C366.66433,169.505919 366.848962,169.505919 367.095138,169.557497 C366.848962,170.743789 367.095138,171.98166 367.033594,173.167952 Z" id="Path" fill="#F9B17C"></path>
                <path d="M369.187634,170.021698 C369.187634,174.405823 369.187634,178.789947 369.12609,183.122494 C369.12609,183.431961 369.74153,183.431961 369.74153,183.122494 C369.74153,178.789947 369.74153,174.457401 369.803074,170.124854 L369.187634,170.021698 Z" id="Path" fill="#F9B17C"></path>
                <path d="M373.864979,183.22565 C373.926523,183.535117 373.311083,183.689851 373.249539,183.380383 C372.757187,180.440441 372.449467,177.500499 372.387923,174.560556 C372.387923,173.322686 372.264835,171.98166 372.387923,170.743789 C372.572555,170.795367 372.757187,170.846945 373.003363,170.898523 C372.634099,173.890043 373.680347,182.297247 373.864979,183.22565 Z" id="Path" fill="#F9B17C"></path>
                <path d="M377.249899,171.826926 C376.880635,173.425842 376.880635,174.97318 376.757547,176.675252 C376.572915,179.254149 375.772843,181.678312 374.480419,183.999319 C374.295787,184.308786 374.849683,184.566676 375.034315,184.257208 C376.142107,182.297247 376.880635,180.234129 377.188355,178.067856 C377.496075,176.004739 377.372987,173.941621 377.865339,171.98166 L377.249899,171.826926 Z" id="Path" fill="#F9B17C"></path>
                <path d="M380.142468,172.497439 C379.650116,174.354245 379.096219,176.159472 378.419235,177.9647 C378.296147,178.274168 377.680707,178.119434 377.803795,177.809966 C378.480779,176.004739 379.096219,174.199511 379.527028,172.342705 C379.773204,172.394283 379.957836,172.445861 380.142468,172.497439 Z" id="Path" fill="#F9B17C"></path>
                <path d="M349.062744,351.472874 C352.38612,351.57603 355.586409,350.957095 358.540521,349.719225 C358.909785,349.564491 358.602065,349.100289 358.232801,349.255023 C355.340233,350.441316 352.263032,351.008673 349.062744,350.905517 C348.69348,350.957095 348.69348,351.472874 349.062744,351.472874 L349.062744,351.472874 Z" id="Path" fill="#2C2A5C"></path>
                <path d="M364.941098,349.358179 C367.956754,349.100289 370.849323,348.481354 373.618803,347.449796 C373.988067,347.295062 373.680347,346.882438 373.311083,346.985594 C370.603147,347.965575 367.833666,348.58451 364.941098,348.8424 C364.51029,348.893978 364.51029,349.409757 364.941098,349.358179 L364.941098,349.358179 Z" id="Path" fill="#2C2A5C"></path>
                <path d="M381.188716,346.108769 C383.09658,345.438256 385.065988,344.819321 386.973852,344.148808 C387.343116,344.045652 387.158484,343.529872 386.78922,343.633028 C384.881356,344.303541 382.911948,344.922477 381.004084,345.59299 C380.696364,345.696146 380.880996,346.211925 381.188716,346.108769 L381.188716,346.108769 Z" id="Path" fill="#2C2A5C"></path>
                <path d="M392.820533,343.529872 C395.220749,343.014093 397.436334,342.137268 399.52883,340.950976 C399.83655,340.744664 399.52883,340.33204 399.22111,340.486774 C397.190158,341.621489 395.036117,342.498314 392.697445,343.014093 C392.266637,343.117249 392.451269,343.58145 392.820533,343.529872 L392.820533,343.529872 Z" id="Path" fill="#2C2A5C"></path>
                <path d="M319.213901,324.446036 C322.044925,324.807082 324.875949,325.11655 327.706974,325.477595 C328.076238,325.529173 328.26087,325.013394 327.891606,324.961816 C325.060581,324.60077 322.229557,324.291303 319.398533,323.930257 C318.967725,323.878679 318.844637,324.394458 319.213901,324.446036 L319.213901,324.446036 Z" id="Path" fill="#2C2A5C"></path>
                <path d="M334.784534,326.715466 C336.384679,326.61231 337.861735,326.818621 339.338791,327.334401 C339.708055,327.437557 339.892687,326.973355 339.523423,326.818621 C337.984823,326.302842 336.446223,326.09653 334.784534,326.199686 C334.353726,326.199686 334.353726,326.715466 334.784534,326.715466 L334.784534,326.715466 Z" id="Path" fill="#2C2A5C"></path>
                <path d="M385.004444,298.605491 C386.112236,298.450757 387.158484,298.296023 388.266277,298.141289 C388.635541,298.089711 388.512453,297.573932 388.081645,297.62551 C386.973852,297.780244 385.927604,297.934978 384.819812,298.089711 C384.450548,298.192867 384.573636,298.708647 385.004444,298.605491 L385.004444,298.605491 Z" id="Path" fill="#2C2A5C"></path>
                <path d="M385.55834,298.192867 C388.204733,297.62551 390.851125,297.058153 393.559061,296.490795 C393.928325,296.38764 393.805237,295.923438 393.374429,295.975016 C390.728037,296.542373 388.081645,297.109731 385.373708,297.677088 C385.004444,297.780244 385.189076,298.244445 385.55834,298.192867 L385.55834,298.192867 Z" id="Path" fill="#2C2A5C"></path>
                <path d="M385.373708,298.141289 C387.71238,297.831822 390.051053,297.470776 392.328181,297.006575 C392.697445,296.954997 392.574357,296.439218 392.143549,296.490795 C389.866421,296.954997 387.527748,297.316042 385.189076,297.62551 C384.819812,297.728666 385.004444,298.192867 385.373708,298.141289 L385.373708,298.141289 Z" id="Path" fill="#2C2A5C"></path>
                <path d="M382.050332,298.605491 C383.588932,298.760225 385.065988,298.708647 386.543044,298.296023 C386.912308,298.192867 386.78922,297.677088 386.358412,297.780244 C385.004444,298.141289 383.588932,298.244445 382.17342,298.089711 C381.804156,298.038134 381.681068,298.553913 382.050332,298.605491 L382.050332,298.605491 Z" id="Path" fill="#171338"></path>
                <path d="M389.250981,297.831822 C390.543405,297.728666 391.835829,297.522354 393.128253,297.212887 C393.497517,297.109731 393.374429,296.645529 392.943621,296.697107 C391.712741,296.954997 390.481861,297.161309 389.250981,297.316042 C388.881717,297.316042 388.881717,297.831822 389.250981,297.831822 L389.250981,297.831822 Z" id="Path" fill="#171338"></path>
                <path d="M395.774645,296.490795 C397.251702,296.181328 398.728758,295.768704 400.082726,295.201347 C400.45199,295.046613 400.14427,294.63399 399.775006,294.737146 C398.421038,295.304503 397.06707,295.717126 395.590013,295.975016 C395.220749,296.078172 395.343837,296.542373 395.774645,296.490795 L395.774645,296.490795 Z" id="Path" fill="#171338"></path>
                <path d="M402.790662,294.530834 C403.52919,294.11821 404.267718,293.705587 405.006246,293.292963 C405.313966,293.086652 405.006246,292.674028 404.698526,292.828762 C403.959998,293.241386 403.22147,293.654009 402.482942,294.066632 C402.175222,294.272944 402.482942,294.737146 402.790662,294.530834 L402.790662,294.530834 Z" id="Path" fill="#171338"></path>
                <path d="M303.027827,212.831384 C302.904739,211.748248 303.643267,210.871423 304.320251,210.046176 C304.566427,209.788286 304.012531,209.530397 303.766355,209.788286 C303.027827,210.716689 302.227755,211.69667 302.350843,212.831384 C302.412387,213.19243 303.027827,213.19243 303.027827,212.831384 L303.027827,212.831384 Z" id="Path" fill="#171338"></path>
                <path d="M306.289659,208.395682 C307.212819,207.312545 308.320611,206.332565 309.489948,205.45574 C309.797668,205.249428 309.36686,204.888382 309.05914,205.094694 C307.828259,206.023097 306.720467,207.003078 305.735763,208.137792 C305.551131,208.395682 306.043483,208.653572 306.289659,208.395682 L306.289659,208.395682 Z" id="Path" fill="#171338"></path>
                <path d="M311.890164,204.063135 C313.182588,203.341044 314.536556,202.670531 315.952068,202.103174 C316.321332,201.94844 316.013612,201.535817 315.644348,201.638972 C314.228836,202.20633 312.874868,202.825265 311.582444,203.598934 C311.274724,203.805246 311.582444,204.217869 311.890164,204.063135 L311.890164,204.063135 Z" id="Path" fill="#171338"></path>
                <path d="M373.803435,137.424443 C372.387923,137.114975 371.095499,136.702352 369.864618,136.083417 C369.187634,135.722371 366.110434,134.123455 366.479698,133.143474 C366.602786,132.834007 365.987346,132.679273 365.864258,132.988741 C365.43345,134.123455 367.402858,135.25817 368.326018,135.825527 C369.926162,136.857086 371.710939,137.527599 373.618803,137.940222 C374.049611,137.9918 374.234243,137.476021 373.803435,137.424443 L373.803435,137.424443 Z" id="Path" fill="#171338"></path>
                <path d="M369.310722,126.593077 C369.064546,125.974141 368.81837,125.303628 368.572194,124.684693 C368.141386,123.549978 368.633738,122.673154 369.679986,122.00264 C370.35697,121.538439 371.218587,121.02266 372.080203,120.867926 C372.511011,120.816348 373.372627,120.76477 373.741891,121.074238 C374.788139,121.951062 373.557259,121.796329 373.126451,121.847907 C372.757187,121.847907 372.757187,122.363686 373.126451,122.363686 C373.680347,122.363686 374.295787,122.363686 374.849683,122.157374 C374.972771,122.105796 374.972771,122.00264 374.972771,121.951062 C375.034315,121.280549 374.357331,120.713192 373.680347,120.455302 C372.511011,120.042679 371.341675,120.455302 370.35697,120.971082 C369.43381,121.486861 368.264474,122.105796 367.89521,123.034199 C367.402858,124.220492 368.326018,125.613096 368.756826,126.696233 C368.879914,127.057278 369.43381,126.954122 369.310722,126.593077 L369.310722,126.593077 Z" id="Path" fill="#171338"></path>
                <path d="M401.805958,143.871685 C401.99059,142.479081 401.68287,141.086476 400.821254,139.848606 C400.267358,139.126515 399.036478,138.146534 399.159566,137.218131 C399.282654,136.444462 399.959638,135.877105 400.882798,135.773949 C401.37515,135.722371 401.805958,135.773949 402.236766,135.928683 C402.482942,137.063397 402.113678,137.476021 401.190518,137.114975 C400.821254,137.01182 400.636622,137.527599 401.005886,137.630755 C402.052134,137.888644 403.590734,137.733911 403.344558,136.49604 C403.098382,135.309748 401.252062,135.103436 400.082726,135.412904 C398.667214,135.773949 398.174862,136.908664 398.60567,138.043378 C398.91339,138.868625 399.651918,139.48756 400.14427,140.158074 C401.005886,141.344366 401.252062,142.582237 401.06743,143.923263 C401.128974,144.181153 401.744414,144.181153 401.805958,143.871685 L401.805958,143.871685 Z" id="Path" fill="#171338"></path>
                <path d="M401.252062,143.459061 C401.621326,144.23273 401.005886,145.212711 401.68287,145.934802 C402.236766,146.553738 403.283014,146.399004 404.021542,146.037958 C405.621687,145.264289 405.190878,142.73697 403.098382,142.99486 C402.729118,143.046438 402.852206,143.562217 403.283014,143.510639 C404.14463,143.407484 404.513894,144.23273 404.390806,144.851666 C404.267718,145.419023 403.590734,145.831646 402.91375,145.831646 C402.052134,145.831646 401.99059,145.161133 402.052134,144.593776 C402.113678,144.129575 402.113678,143.716951 401.929046,143.304328 C401.744414,143.046438 401.128974,143.149594 401.252062,143.459061 L401.252062,143.459061 Z" id="Path" fill="#171338"></path>
                <path d="M361.802354,258.013656 C361.248457,259.40626 360.633017,261.469377 361.617722,262.861982 C362.110074,263.584073 363.094778,263.945118 364.079482,263.687229 C365.064186,263.480917 365.618082,262.707248 365.987346,261.933579 C366.66433,260.64413 367.525946,258.374701 365.679626,257.497876 C364.879554,257.085253 363.833306,257.239987 363.094778,257.704188 C362.725514,257.9105 362.479338,258.219967 362.233162,258.581013 C362.04853,258.890481 362.04853,259.354682 361.802354,259.612572 C360.509929,260.850442 362.66397,262.707248 363.956394,261.417799 C364.325658,261.108332 364.51029,260.798864 364.694922,260.386241 C364.756466,260.231507 364.879554,260.076773 364.879554,259.922039 C364.941098,259.457838 365.248818,260.128351 364.448746,259.870461 C364.20257,259.767306 364.017938,259.66415 363.771762,259.560994 C363.58713,259.40626 363.710218,259.40626 363.648674,259.715728 C363.58713,259.922039 363.525586,260.179929 363.464042,260.386241 C363.402498,260.540975 363.340954,260.695708 363.27941,260.850442 C363.217866,260.953598 363.156322,261.108332 363.033234,261.211488 C362.848602,261.417799 362.97169,261.417799 363.27941,261.211488 C363.525586,261.263066 363.771762,261.314644 364.079482,261.366222 C364.387202,261.520955 364.141026,261.520955 364.20257,261.417799 C364.264114,261.263066 364.20257,260.695708 364.264114,260.489397 C364.325658,259.870461 364.51029,259.303104 364.756466,258.735747 C365.371906,257.136831 362.417794,256.466318 361.802354,258.013656 L361.802354,258.013656 Z" id="Path" fill="#F38A75"></path>
                <path d="M361.925442,276.788024 C359.894489,277.303804 359.586769,278.851142 359.586769,280.39848 C359.586769,281.739506 358.971329,284.008935 360.879193,284.576292 C362.725514,285.14365 364.20257,283.286844 364.941098,282.152129 C365.864258,280.759525 366.110434,279.160609 365.187274,277.716427 C364.694922,276.942758 363.464042,276.942758 362.787058,277.458537 C361.802354,278.12905 361.002281,278.954297 360.263753,279.831122 C359.155961,281.223727 361.802354,282.513175 362.910146,281.120571 C363.464042,280.39848 364.141026,279.831122 364.941098,279.315343 C364.141026,279.212187 363.340954,279.160609 362.540882,279.057453 C362.910146,279.624811 362.725514,280.192168 362.417794,280.707947 C362.233162,281.068993 361.617722,282.100552 361.125369,282.203707 C361.494633,282.255285 361.925442,282.306863 362.294706,282.358441 C362.602426,283.028954 362.725514,283.13211 362.66397,282.719487 C362.66397,282.513175 362.66397,282.306863 362.66397,282.100552 C362.66397,281.739506 362.66397,281.430038 362.66397,281.068993 C362.66397,280.862681 362.540882,279.366921 362.787058,279.315343 C364.633378,278.799564 363.833306,276.323823 361.925442,276.788024 L361.925442,276.788024 Z" id="Path" fill="#F38A75"></path>
                <path d="M357.986625,299.998095 C357.186553,301.390699 356.263393,303.969596 357.740449,305.259044 C358.478977,305.929558 359.709857,305.929558 360.509929,305.310622 C361.248457,304.691687 361.74081,303.711706 362.233162,302.938037 C363.094778,301.648589 363.648674,299.224426 361.125369,298.914958 C358.848241,298.657069 357.925081,301.906479 357.678905,303.247505 C357.555817,303.918018 357.863537,304.640109 358.725153,304.846421 C359.463681,305.001155 360.509929,304.640109 360.633017,303.969596 C360.694561,303.453817 360.817649,302.938037 361.063825,302.473836 C361.186913,302.215946 361.433089,301.442277 361.74081,301.339121 C361.248457,301.339121 360.694561,301.339121 360.202209,301.339121 C360.202209,301.184388 360.140665,301.081232 360.017577,301.029654 C360.017577,301.13281 359.956033,301.184388 359.956033,301.287543 C359.709857,301.493855 359.586769,301.854901 359.402137,302.11279 C359.217505,302.422258 359.032873,302.680148 358.848241,302.938037 C358.725153,303.092771 358.663609,303.195927 358.540521,303.350661 C358.232801,303.711706 358.294345,303.711706 358.602065,303.402239 C358.848241,303.350661 359.094417,303.299083 359.402137,303.247505 C359.340593,303.247505 359.279049,303.247505 359.155961,303.247505 C359.525225,303.350661 359.894489,303.505395 360.263753,303.608551 C360.448385,303.711706 360.263753,303.453817 360.325297,303.350661 C360.325297,303.092771 360.325297,302.834881 360.386841,302.576992 C360.448385,302.11279 360.633017,301.700167 360.879193,301.287543 C361.494633,299.791783 358.848241,298.502335 357.986625,299.998095 L357.986625,299.998095 Z" id="Path" fill="#F38A75"></path>
                <path d="M354.047809,467.523229 L353.432369,467.471651 C353.555457,466.646404 366.97205,385.308 368.879914,368.751483 L369.495354,368.803061 C367.525946,385.359578 354.170897,466.697982 354.047809,467.523229 Z" id="Path" fill="#2C2A5C"></path>
                <ellipse id="Oval" fill="#E85A5B" cx="372.264835" cy="151.659953" rx="4.24653648" ry="1.95996154"></ellipse>
                <path d="M373.249539,140.622275 C374.418875,140.828587 375.218947,141.550678 375.834387,142.375925 C376.080563,142.73697 376.388283,143.201172 376.449827,143.613795 C376.511371,144.026419 376.142107,144.284308 376.142107,144.696932 C376.142107,144.800088 376.265195,144.903244 376.388283,144.954822 C376.388283,144.954822 376.449827,144.954822 376.449827,144.954822 C376.572915,144.954822 376.696003,144.954822 376.757547,144.903244 C376.757547,144.903244 376.819091,144.851666 376.819091,144.851666 C376.942179,144.696932 376.942179,144.542198 376.757547,144.439042 C376.757547,144.439042 376.757547,144.439042 376.696003,144.439042 C376.388283,144.23273 376.080563,144.696932 376.388283,144.903244 C376.388283,144.903244 376.388283,144.903244 376.449827,144.903244 C376.449827,144.74851 376.388283,144.645354 376.388283,144.49062 C376.449827,144.49062 376.511371,144.49062 376.572915,144.49062 C376.634459,144.593776 376.696003,144.645354 376.819091,144.74851 C376.819091,144.593776 377.126811,144.335886 377.126811,144.181153 C377.188355,143.974841 377.126811,143.768529 377.126811,143.562217 C377.003723,143.046438 376.696003,142.479081 376.326739,142.014879 C375.649755,141.086476 374.788139,140.312807 373.434171,140.106496 C373.064907,140.106496 372.880275,140.570697 373.249539,140.622275 L373.249539,140.622275 Z" id="Path" fill="#171338"></path>
                <polygon id="Path" fill="#B4B4DA" points="305.797307 155.270409 281.056616 170.795367 175.077836 175.127914 160.061099 117.102737 276.071552 128.75935 276.071552 158.829286"></polygon>
                <path d="M179.478919,135.027795 C197.472432,135.513897 215.527568,135.878474 233.521081,136 C235.492973,136 235.492973,133.974572 233.521081,133.974572 C215.465946,133.812538 197.472432,133.488469 179.478919,133.002367 C177.507027,132.92135 177.507027,134.946777 179.478919,135.027795 L179.478919,135.027795 Z" id="Path" fill="#FFFFFF"></path>
                <path d="M181.523468,149 C200.543729,149 219.502437,149 238.522698,149 C240.492434,149 240.492434,147 238.522698,147 C219.502437,147 200.543729,147 181.523468,147 C179.492177,147 179.492177,149 181.523468,149 L181.523468,149 Z" id="Path" fill="#FFFFFF"></path>
                <path d="M183.478673,160.459148 C199.805687,160.655821 216.194313,160.803326 232.521327,161 C234.492891,161 234.492891,158.54158 232.521327,158.54158 C216.194313,158.344907 199.805687,158.197401 183.478673,158.000728 C181.507109,157.951559 181.507109,160.409979 183.478673,160.459148 L183.478673,160.459148 Z" id="Path" fill="#FFFFFF"></path>
                <path d="M254.10856,142.679298 C255.109406,139.759275 259.488106,138.171192 262.365537,140.630159 C263.929358,141.962099 264.492334,144.472295 263.178724,145.957921 C262.177879,147.136176 260.739163,147.187404 259.175341,147.648461 C255.42217,148.724259 252.294527,151.746739 253.858349,155.127819 C254.608983,156.664673 257.61152,155.998703 256.860886,154.461848 C254.796642,150.158656 262.553196,150.261113 265.05531,148.365659 C267.619977,146.418977 267.432318,142.474384 265.743391,140.169103 C261.99022,134.995026 252.920056,136.53188 251.04347,142.064556 C250.6056,143.601411 253.608137,144.267381 254.10856,142.679298 L254.10856,142.679298 Z" id="Path" fill="#FFFFFF"></path>
                <path d="M257.523077,166 C259.492308,166 259.492308,164 257.523077,164 C255.492308,164 255.492308,166 257.523077,166 L257.523077,166 Z" id="Path" fill="#FFFFFF"></path>
                <g id="object" transform="translate(363.000000, 318.000000)">
                    <polygon id="Path" fill="#9E9EC5" points="0.0552796641 13.2571429 80.608717 13.2571429 80.608717 79.8628571 0.0101643253 79.8628571"></polygon>
                    <polygon id="Path" fill="#C9DDF2" points="0.0552796641 13.2571429 11.288999 8.8 85.9097693 8.8 81.0598704 13.7142857"></polygon>
                    <polygon id="Path" fill="#394480" points="85.9097693 8.8 85.9097693 74.1485714 80.4282557 79.68 80.4282557 13.7142857"></polygon>
                    <rect id="Rectangle" fill="#394480" x="5.10819761" y="11.4514286" width="78.0720937" height="1"></rect>
                    <polygon id="Path" fill="#9E9EC5" points="31.8164782 9.85142857 31.8164782 0.0914285714 57.8705863 0.0914285714 57.8705863 9.85142857 55.6599347 9.85142857 55.6599347 1.85142857 33.7113224 1.85142857 33.7113224 9.85142857"></polygon>
                    <polygon id="Path" fill="#394480" points="23.2445638 11.5428571 17.9435115 13.7142857 17.9435115 22.1714286 23.6280442 22.1714286 23.6280442 14.24 30.1246529 11.5657143"></polygon>
                    <polygon id="Path" fill="#394480" points="55.840396 11.5428571 50.5393437 13.7142857 50.5393437 22.1714286 56.2238764 22.1714286 56.2238764 14.24 62.7204852 11.5657143"></polygon>
                    <ellipse id="Oval" fill="#9E9EC5" cx="20.4248551" cy="19.4285714" rx="1.24067182" ry="1.25714286"></ellipse>
                    <ellipse id="Oval" fill="#9E9EC5" cx="53.2237064" cy="19.4285714" rx="1.24067182" ry="1.25714286"></ellipse>
                </g>
                <path d="M407.914111,308.359997 C407.914111,308.359997 412.406823,315.783169 413.206895,318.000481 C414.006967,320.217792 413.883879,321.37465 412.529911,321.37465 C411.175943,321.37465 405.513894,309.709665 405.513894,309.709665 L407.914111,308.359997 Z" id="Path" fill="#D37477"></path>
                <path d="M404.959998,308.359997 C404.959998,308.359997 414.930127,322.627912 413.637703,323.158139 C412.345279,323.688366 410.252783,325.279045 409.575799,323.158139 C408.837271,321.037233 401.575078,309.468653 401.575078,309.468653 L404.959998,308.359997 Z" id="Path" fill="#D37477"></path>
                <path d="M401.575078,308.359997 C401.575078,308.359997 412.222191,324.411402 411.545207,325.279045 C410.868223,326.098486 408.221831,326.243094 408.221831,326.243094 L399.174862,310.336296 L401.575078,307.926176 L401.575078,308.359997 Z" id="Path" fill="#D37477"></path>
                <path d="M400.83655,311.348547 C400.83655,311.348547 407.421759,324.989831 406.37551,325.230843 C405.390806,325.471855 403.113678,325.423653 402.436694,325.230843 C401.75971,325.038033 397.574717,311.348547 397.574717,311.348547 L400.83655,311.348547 Z" id="Path" fill="#D37477"></path>
            </g>
        </g>
    </g>
</svg>