<?xml version="1.0" encoding="UTF-8"?>
<svg width="676px" height="610px" viewBox="0 0 676 610" version="1.1" xmlns="http://www.w3.org/2000/svg" xmlns:xlink="http://www.w3.org/1999/xlink">
    <!-- Generator: Sketch 60 (88103) - https://sketch.com -->
    <title>Data</title>
    <desc>Created with Sketch.</desc>
    <g id="Page-1" stroke="none" stroke-width="1" fill="none" fill-rule="evenodd">
        <g id="Stakeholders" transform="translate(-733.000000, -2004.000000)">
            <g id="Data" transform="translate(734.000000, 2004.000000)">
                <g id="Background" transform="translate(0.000000, 488.000000)">
                    <path d="M121.7944,41.5636364 C121.7944,41.5636364 101.616602,72.1090909 148.387321,74.3272727 C195.158041,76.5454545 233.499587,86.4 253.379008,102.145455 C273.258429,117.890909 340.729108,119.963636 379.779302,95.2 C418.829496,70.4363636 430.839202,74.3272727 457.096448,70.5090909 C483.353694,66.6909091 421.738679,22.4 366.016626,35.0181818 C310.294573,47.6363636 231.522835,21.3818182 200.566138,25.9636364 C169.609442,30.5454545 121.7944,41.5636364 121.7944,41.5636364 Z" id="Path" fill="#EAF4FB" fill-rule="nonzero"></path>
                    <g id="Group" stroke="#C8DCF0" stroke-width="3">
                        <line x1="236.55796" y1="0.218181818" x2="0.391934279" y2="58.1090909" id="Path"></line>
                        <line x1="303.282694" y1="12.6181818" x2="66.8928856" y2="70.5454545" id="Path"></line>
                        <line x1="370.865265" y1="24.7636364" x2="133.878701" y2="82.8727273" id="Path"></line>
                        <line x1="436.769461" y1="37.3454545" x2="200.603435" y2="95.2363636" id="Path"></line>
                        <line x1="503.494196" y1="49.7090909" x2="267.32817" y2="107.6" id="Path"></line>
                        <line x1="575.962703" y1="60.6909091" x2="334.052905" y2="119.963636" id="Path"></line>
                        <line x1="0.0189620343" y1="58.0363636" x2="334.052905" y2="119.963636" id="Path"></line>
                        <line x1="58.9112795" y1="43.5636364" x2="391.154955" y2="105.127273" id="Path"></line>
                        <line x1="118.474947" y1="29.1636364" x2="454.560237" y2="91.4909091" id="Path"></line>
                        <line x1="177.516453" y1="14.6909091" x2="511.028235" y2="76.5454545" id="Path"></line>
                        <line x1="236.55796" y1="0.218181818" x2="570.21893" y2="62.1090909" id="Path"></line>
                    </g>
                </g>
                <g id="Secondary-Object" transform="translate(181.000000, 0.000000)">
                    <g id="Group">
                        <polygon id="Path" fill="#B5B5E2" fill-rule="nonzero" points="273.879147 257.826096 273.879147 166.979432 0 166.979432 0 284.857057 161.744076 284.857057 161.744076 257.826096"></polygon>
                        <rect id="Rectangle" fill="#9594C8" fill-rule="nonzero" x="131.005213" y="236.421037" width="142.911374" height="48.4360193"></rect>
                        <ellipse id="Oval" fill="#FFFFFF" fill-rule="nonzero" cx="6.62701422" cy="276.434848" rx="4.68009479" ry="4.16117004"></ellipse>
                        <ellipse id="Oval" fill="#FFFFFF" fill-rule="nonzero" cx="65.3341232" cy="225.934889" rx="7.60047393" ry="6.75774015"></ellipse>
                        <ellipse id="Oval" fill="#FFFFFF" fill-rule="nonzero" cx="100.71564" cy="269.011321" rx="4.97962085" ry="4.42748493"></ellipse>
                        <ellipse id="Oval" fill="#FFFFFF" fill-rule="nonzero" cx="127.935071" cy="241.181416" rx="7.60047393" ry="6.75774015"></ellipse>
                        <ellipse id="Oval" fill="#FFFFFF" fill-rule="nonzero" cx="170.392891" cy="257.393334" rx="4.15592417" ry="3.695119"></ellipse>
                        <ellipse id="Oval" fill="#FFFFFF" fill-rule="nonzero" cx="242.42891" cy="193.644209" rx="7.60047393" ry="6.75774015"></ellipse>
                        <polygon id="Path" fill="#FFFFFF" fill-rule="nonzero" points="7.60047393 276.434848 6.17772512 275.069985 66.457346 224.403578 101.501896 267.5133 128.983412 239.982999 170.991943 256.827415 241.867299 195.042362 243.364929 196.373937 171.403791 259.057802 129.545024 242.279965 101.352133 270.509342 66.1578199 227.233174"></polygon>
                        <rect id="Rectangle" fill="#FFFFFF" fill-rule="nonzero" x="15.1635071" y="176.400321" width="13.2165877" height="5.72576998"></rect>
                        <line x1="15.1635071" y1="193.644209" x2="105.732701" y2="193.644209" id="Path" stroke="#FFFFFF" stroke-width="4" stroke-linecap="round"></line>
                        <line x1="15.1635071" y1="200.401949" x2="47.5872038" y2="200.401949" id="Path" stroke="#FFFFFF" stroke-width="4" stroke-linecap="round"></line>
                        <line x1="28.3052133" y1="119.242489" x2="118.911848" y2="119.242489" id="Path" stroke="#B5B5E2" stroke-width="4" stroke-linecap="round"></line>
                        <line x1="28.3052133" y1="126.000229" x2="60.7663507" y2="126.000229" id="Path" stroke="#B5B5E2" stroke-width="4" stroke-linecap="round"></line>
                        <line x1="28.3052133" y1="147.838049" x2="118.911848" y2="147.838049" id="Path" stroke="#F5F5FF" stroke-width="4" stroke-linecap="round"></line>
                        <line x1="28.3052133" y1="154.595789" x2="60.7663507" y2="154.595789" id="Path" stroke="#F5F5FF" stroke-width="4" stroke-linecap="round"></line>
                        <line x1="15.1635071" y1="208.058502" x2="80.4976303" y2="208.058502" id="Path" stroke="#FFFFFF" stroke-width="4" stroke-linecap="round"></line>
                        <ellipse id="Oval" fill="#B5B5E2" fill-rule="nonzero" cx="173.837441" cy="134.222701" rx="3.44454976" ry="3.06262115"></ellipse>
                        <path d="M107.342654,16.1786291 C97.0090047,6.99076568 83.5677725,1.5978893 69.1156398,0.798944649 L69.1156398,14.0148207 C91.9545024,15.7458674 109.926066,32.8233093 109.926066,53.5625808 C109.926066,75.4336906 89.8952607,93.2434984 65.2966825,93.2434984 C40.7729858,93.2434984 20.8170616,75.6001374 20.6672986,53.8288957 L5.84075829,53.8288957 C5.91563981,67.8437164 12.0933649,81.0263031 23.2507109,90.9465325 C34.4829384,100.933341 49.4218009,106.426085 65.2966825,106.426085 C81.171564,106.426085 96.1104265,100.933341 107.342654,90.9465325 C118.574882,80.9597244 124.752607,67.6772696 124.752607,53.5625808 C124.752607,39.447892 118.574882,26.1654372 107.342654,16.1786291 Z" id="Path" fill="#F5F5FF" fill-rule="nonzero"></path>
                        <path d="M64.3232227,13.2824548 C64.6601896,13.2824548 64.9971564,13.2824548 65.2966825,13.2824548 L65.2966825,0.0998680811 C64.9597156,0.0998680811 64.6227488,0.0998680811 64.3232227,0.0998680811 C48.4483412,0.0998680811 33.5094787,5.59261254 22.2772512,15.5794206 C11.6440758,25.033599 5.54123223,37.417241 4.90473934,50.6996958 L19.7312796,50.6996958 C21.1165877,29.8938456 40.585782,13.2824548 64.3232227,13.2824548 Z" id="Path" fill="#B5B5E2" fill-rule="nonzero"></path>
                        <rect id="Rectangle" fill="#B5B5E2" fill-rule="nonzero" x="3.74407583" y="110.953438" width="18.6829384" height="16.6113908"></rect>
                        <rect id="Rectangle" fill="#F5F5FF" fill-rule="nonzero" x="3.74407583" y="138.94979" width="18.6829384" height="16.6113908"></rect>
                        <rect id="Rectangle" fill="#F5F5FF" fill-rule="nonzero" x="163.541232" y="83.7227413" width="231.383886" height="67.2777973"></rect>
                        <polyline id="Path" stroke="#B5B5E2" stroke-width="3" fill="#F5F5FF" fill-rule="nonzero" points="173.837441 134.222701 227.227962 110.920149 230.485308 118.476834 264.256872 105.560562 268.038389 112.817642 316.48673 92.844026"></polyline>
                        <polyline id="Path" stroke="#B5B5E2" stroke-width="3" fill="#F5F5FF" fill-rule="nonzero" points="306.527488 89.981141 320.979621 89.981141 316.48673 102.364783"></polyline>
                        <rect id="Rectangle" fill="#B5B5E2" fill-rule="nonzero" x="287.470142" y="113.516719" width="13.2165877" height="5.72576998"></rect>
                        <line x1="287.470142" y1="130.793897" x2="378.039336" y2="130.793897" id="Path" stroke="#B5B5E2" stroke-width="3"></line>
                        <line x1="287.470142" y1="137.551637" x2="319.893839" y2="137.551637" id="Path" stroke="#B5B5E2" stroke-width="3"></line>
                        <line x1="287.470142" y1="145.174901" x2="352.804265" y2="145.174901" id="Path" stroke="#B5B5E2" stroke-width="3"></line>
                        <polygon id="Path" fill="#F5F5FF" fill-rule="nonzero" points="405.873934 264.29805 405.873934 312.734069 263 312.734069 263 396.090628 493.372986 396.090628 493.372986 264.29805"></polygon>
                        <rect id="Rectangle" fill="#B5B5E2" fill-rule="nonzero" x="306.730806" y="340.730422" width="15.2009479" height="34.5876454"></rect>
                        <rect id="Rectangle" fill="#B5B5E2" fill-rule="nonzero" x="330.954976" y="322.321405" width="15.2009479" height="52.9966617"></rect>
                        <rect id="Rectangle" fill="#B5B5E2" fill-rule="nonzero" x="355.179147" y="343.560017" width="15.2009479" height="31.7247604"></rect>
                        <rect id="Rectangle" fill="#B5B5E2" fill-rule="nonzero" x="379.403318" y="324.951265" width="15.2009479" height="50.3668022"></rect>
                        <rect id="Rectangle" fill="#B5B5E2" fill-rule="nonzero" x="403.627488" y="349.15263" width="15.2009479" height="26.1321479"></rect>
                        <rect id="Rectangle" fill="#B5B5E2" fill-rule="nonzero" x="427.851659" y="311.269338" width="15.2009479" height="64.0487293"></rect>
                        <rect id="Rectangle" fill="#B5B5E2" fill-rule="nonzero" x="452.075829" y="291.861641" width="15.2009479" height="83.4564264"></rect>
                        <line x1="467.314218" y1="383.706986" x2="281.570616" y2="383.706986" id="Path" stroke="#B5B5E2" stroke-width="3"></line>
                    </g>
                </g>
                <g id="Primary-Object" transform="translate(156.000000, 181.000000)">
                    <g id="Group" transform="translate(0.915511, 234.844069)" fill="#E57E7E" fill-rule="nonzero">
                        <path d="M4.45385341,4.81400422 L7.70909223,18.2787378 L13.882821,23.8890435 C13.882821,23.8890435 14.369236,25.1920822 13.5834887,25.5540374 C12.7603249,25.9159926 3.81777227,18.4597154 3.81777227,18.4597154 L3.59327304,10.2433323 L4.45385341,4.81400422 Z" id="Path"></path>
                        <path d="M4.0422715,8.3249697 L6.81109532,20.8848153 L13.1719068,24.8663225 C13.1719068,24.8663225 11.8249114,26.3141433 10.2534168,25.5540374 C8.68192222,24.7939315 1.61019652,17.5548274 1.61019652,17.5548274 L0.0387019157,2.82325059 L4.97768495,0.0723910408 C4.97768495,0.0723910408 9.95408452,5.82747879 10.4779161,7.81823241 C11.0017476,9.80898603 13.5086556,13.9714709 13.5086556,13.9714709 C13.5086556,13.9714709 12.3113264,15.4916827 11.1139972,15.0573365 C9.91666798,14.6229903 7.93359146,8.43355626 7.93359146,8.43355626 L8.08325761,13.7181022 L13.6583218,21.0657929 C13.6583218,21.0657929 14.4814856,23.3099152 13.6583218,23.4185017 C12.835158,23.5270883 5.01510149,16.5413528 5.01510149,16.5413528 L5.20218418,9.73659499" id="Path"></path>
                    </g>
                    <path d="M102.053699,387.010036 C101.679533,382.413205 99.7712898,364.025881 96.7031337,351.140276 C95.543221,346.181489 95.1690556,339.593905 95.1690556,333.295884 C95.1690556,323.197334 96.1044691,313.931281 96.1044691,313.931281 L106.843016,316.826922 C106.843016,316.826922 106.955265,324.066026 107.067515,333.875012 C107.366847,354.035917 107.815846,385.091674 108.040345,387.010036 C108.339677,389.869482 102.427864,391.606867 102.053699,387.010036 Z" id="Path" fill="#E57E80" fill-rule="nonzero"></path>
                    <path d="M107.55393,383.535266 C107.55393,383.535266 108.676426,385.417433 114.288907,384.548741 C119.901387,383.680048 121.510298,382.087446 121.510298,382.087446 L125.888033,382.449401 L126.973113,384.548741 L123.11921,387.661556 L107.55393,390.919153 L104.747689,386.503299 L107.55393,383.535266 Z" id="Path" fill="#D67776" fill-rule="nonzero"></path>
                    <path d="M108.227427,378.214525 C108.227427,378.214525 106.281767,388.892203 113.241244,387.408187 C120.350386,385.85178 123.11921,385.453629 123.418542,384.331568 C123.755291,383.245702 121.884464,382.77516 120.537468,382.268423 C119.190473,381.797881 126.524115,380.531038 128.095609,381.472122 C129.629687,382.413205 129.218105,384.440154 126.0377,386.720472 C122.857294,389.00079 114.438573,391.063935 109.349924,392.222191 C104.52319,393.308057 101.043452,394.828269 99.509374,392.403169 C98.2372117,390.37622 99.2848748,385.996562 99.0977921,378.648871 L108.227427,378.214525 Z" id="Path" fill="#171338" fill-rule="nonzero"></path>
                    <path d="M127.908526,385.308847 C127.908526,385.308847 137.711659,384.80211 142.949975,383.824831 C151.181613,382.304619 151.817694,386.24993 150.059117,387.95112 C148.30054,389.652309 129.105856,394.393923 124.615871,393.452839 C120.125887,392.511755 122.071547,394.683487 121.323216,385.308847" id="Path" fill="#D67776" fill-rule="nonzero"></path>
                    <path d="M127.908526,310.854661 L127.908526,385.308847 L121.360632,385.308847 C121.360632,385.308847 119.302723,356.67819 116.908064,347.231159 C116.19715,344.407909 115.935234,340.715966 115.860401,336.915436 C115.748152,327.902752 116.908064,318.310939 116.908064,318.310939 L127.908526,310.854661 Z" id="Path" fill="#E57E80" fill-rule="nonzero"></path>
                    <path d="M142.239061,383.933417 C142.239061,383.933417 151.256446,381.616904 152.827941,382.811356 C154.698768,384.222981 154.811017,388.457857 148.936621,390.37622 C143.062224,392.294582 124.391372,396.348481 121.92188,396.819022 C116.346816,397.868692 119.789138,383.173311 119.751721,381.435926 C119.714305,380.350061 130.639934,378.685067 129.292938,382.087446 C128.469775,384.186786 128.73169,391.787845 131.163765,392.005018 C137.674243,392.547951 142.949975,389.905678 143.660889,389.32655 C146.130381,387.335796 149.348203,383.788635 142.239061,383.933417 Z" id="Path" fill="#171338" fill-rule="nonzero"></path>
                    <path d="M106.843016,316.863118 C106.843016,316.863118 106.955265,324.102222 107.067515,333.911208 C102.914279,333.042515 98.6113771,333.042515 95.1316391,333.33208 C95.1316391,323.233529 96.0670525,313.967476 96.0670525,313.967476 L106.843016,316.863118 Z" id="Path" fill="#D37477" fill-rule="nonzero"></path>
                    <path d="M127.908526,310.854661 L127.908526,340.426402 C124.204289,339.811078 120.013637,338.435648 115.860401,336.879241 C115.748152,327.866556 116.908064,318.274743 116.908064,318.274743 L127.908526,310.854661 Z" id="Path" fill="#D37477" fill-rule="nonzero"></path>
                    <path d="M125.326785,239.042749 C125.326785,239.042749 127.422111,242.372737 130.228352,243.205234 C133.034592,244.037731 138.048408,238.101665 138.048408,238.101665 L125.326785,239.042749 Z" id="Path" fill="#D37477" fill-rule="nonzero"></path>
                    <path d="M139.694736,316.863118 C139.881819,318.890067 125.027453,324.355591 117.207397,324.934719 C109.38734,325.513847 104.111608,318.636698 98.6862102,319.794955 C93.2608122,320.953212 92.8492303,326.853081 84.1311769,326.853081 C75.4131235,326.853081 72.5694666,324.572764 72.2327177,322.545814 C72.1953012,322.220055 72.6442997,319.360609 73.4674635,314.799973 C77.8077819,290.548974 92.138316,217.94076 92.138316,217.94076 L115.897818,218.556084 C115.897818,218.556084 139.507653,314.799973 139.694736,316.863118 Z" id="Path" fill="#F9B17C" fill-rule="nonzero"></path>
                    <path d="M21.1591432,122.456978 C21.1591432,122.456978 23.1422197,131.505858 21.1591432,138.383007 C20.2611463,141.568212 26.2103758,142.907447 27.5199547,137.55051 C28.8295335,132.193573 29.5778643,121.769263 29.5778643,121.769263 L21.1591432,122.456978 Z" id="Path" fill="#D37477" fill-rule="nonzero"></path>
                    <path d="M24.0776332,137.007577 L21.5707251,137.079968 L10.1960975,142.835056 L8.25043755,147.468082 L17.4174894,150.327528 L21.6829747,150.327528 C21.6829747,150.327528 27.2580389,167.665183 27.7070374,167.665183 C28.1560358,167.665183 29.9520297,162.634005 29.9520297,162.416832 C29.9894462,162.163464 29.278532,150.906657 29.278532,150.906657 L33.1324354,135.740734 C33.1324354,135.740734 30.251362,135.559756 30.5506943,135.52356 C32.3841046,135.306387 24.900797,136.681817 24.900797,136.681817 L24.0776332,137.007577 Z" id="Path" fill="#D37477" fill-rule="nonzero"></path>
                    <ellipse id="Oval" fill="#171338" fill-rule="nonzero" cx="25.5742947" cy="171.176148" rx="1" ry="1"></ellipse>
                    <ellipse id="Oval" fill="#171338" fill-rule="nonzero" cx="24.9382136" cy="161.367162" rx="1" ry="1"></ellipse>
                    <ellipse id="Oval" fill="#171338" fill-rule="nonzero" cx="24.4517986" cy="151.992522" rx="1" ry="1"></ellipse>
                    <path d="M461.065382,2.72219605 C462.262711,2.72219605 462.262711,0.912420026 461.065382,0.912420026 C459.868053,0.912420026 459.868053,2.72219605 461.065382,2.72219605 L461.065382,2.72219605 Z" id="Path" fill="#FFFFFF" fill-rule="nonzero"></path>
                    <path d="M121.098717,240.128614 C121.098717,240.128614 89.5939914,256.308012 82.5970988,266.877104 C82.5970988,266.877104 86.0768369,247.222936 87.4238322,242.046977 C88.7334111,236.834822 121.098717,240.128614 121.098717,240.128614 Z" id="Path" fill="#F48A77" fill-rule="nonzero"></path>
                    <path d="M98.4991275,160.788034 C98.4991275,160.788034 100.893786,167.194641 100.295121,170.416042 C99.6964567,173.637443 105.720519,175.664393 105.720519,172.153427 C105.720519,168.642462 105.720519,160.788034 105.720519,160.788034 L98.4991275,160.788034 L98.4991275,160.788034 Z" id="Path" fill="#D37477" fill-rule="nonzero"></path>
                    <path d="M82.2229334,177.112213 C82.2229334,177.112213 79.828275,227.206814 79.828275,231.586472 C79.828275,235.96613 88.5463284,233.613421 88.5463284,233.613421 C88.5463284,233.613421 93.0737295,184.677077 82.2229334,177.112213 Z" id="Path" fill="#F48A77" fill-rule="nonzero"></path>
                    <path d="M85.5530053,159.629777 C85.5530053,159.629777 106.618516,169.54735 121.098717,159.629777 C121.098717,159.629777 119.00339,127.886306 111.145917,122.927519 C103.288444,117.968733 91.577068,123.796212 89.144993,131.071511 C86.7503345,138.346811 85.5530053,159.629777 85.5530053,159.629777 Z" id="Path" fill="#171338" fill-rule="nonzero"></path>
                    <path d="M82.2229334,177.112213 C82.2229334,177.112213 121.360632,163.176938 123.493375,164.045631 C125.626118,164.914323 123.306292,188.405216 123.11921,196.549208 C122.932127,207.226886 124.690704,235.96613 121.0613,239.187531 C117.431896,242.408932 85.8149211,242.408932 83.4202626,241.793608 C81.0256042,241.178285 89.7810741,198.648548 82.2229334,177.112213 Z" id="Path" fill="#5F63AC" fill-rule="nonzero"></path>
                    <path d="M99.8835394,220.908793 C104.747689,213.561103 108.564176,205.598088 111.183334,197.236923 C115.261737,184.278926 122.071547,163.430307 123.493375,164.009435 C125.588701,164.841932 123.306292,188.36902 123.11921,196.513012 C122.932127,207.190691 124.690704,235.929934 121.0613,239.151335 C117.431896,242.372737 85.8149211,242.372737 83.4202626,241.757413 C81.4746027,241.286871 88.5463284,237.920688 99.8835394,220.908793 Z" id="Path" fill="#171338" fill-rule="nonzero" opacity="0.29"></path>
                    <path d="M84.6550084,172.117232 C84.6550084,172.117232 94.9071399,203.136793 86.9000007,244.544468 C78.8928615,285.952143 89.9681568,246.173266 89.9681568,246.173266 C89.9681568,246.173266 97.488881,208.276557 89.4817418,172.153427 C81.4746027,135.994102 93.1485626,170.162674 93.1485626,170.162674 C93.1485626,170.162674 98.2372117,199.11909 94.6078075,245.919898 C90.9409868,292.720706 100.407371,246.173266 100.407371,246.173266 C100.407371,246.173266 105.49602,201.688972 96.6657171,164.009435 C87.8354141,126.329898 103.288444,165.348669 103.288444,165.348669 C103.288444,165.348669 109.125424,207.806015 105.907602,248.417389 C102.68978,289.028763 111.669749,245.195987 111.669749,245.195987 C111.669749,245.195987 115.523652,210.050137 108.863509,158.543911 C102.203365,107.037686 117.581562,160.824229 117.581562,160.824229 C117.581562,160.824229 120.911634,227.134423 117.581562,247.946847" id="Path" stroke="#FFFFFF" opacity="0.42"></path>
                    <path d="M158.77717,228.835612 C158.328172,231.007343 108.339677,243.856753 105.720519,243.205234 C103.063945,242.553714 95.3187218,216.637722 94.6452241,211.208394 C94.4955579,210.013942 95.543221,208.855685 97.2269652,207.733624 C103.325861,203.788312 117.880894,200.711693 117.880894,200.711693 L133.221675,196.983554 C133.221675,196.983554 149.984284,192.278136 151.10678,192.712483 C152.266693,193.110633 159.226169,226.627685 158.77717,228.835612 Z" id="Path" fill="#171338" fill-rule="nonzero"></path>
                    <path d="M124.09204,165.312474 C124.09204,165.312474 143.548639,237.558733 141.266231,239.187531 C140.218568,239.947637 139.058655,240.454374 133.259091,239.332313 C129.741937,238.644598 125.962866,241.069698 124.653288,240.599156 C122.221213,239.730464 121.098717,232.672337 121.772214,204.6932 C122.445712,176.750258 124.09204,165.312474 124.09204,165.312474 Z" id="Path" fill="#F48A77" fill-rule="nonzero"></path>
                    <path d="M95.0193895,125.171642 C93.4478949,126.655658 92.4002318,128.682607 91.3899853,130.564774 C90.192656,132.881287 89.1075764,135.233996 88.0973299,137.622901 C87.4238322,139.215504 86.712918,140.808106 86.1890865,142.4731 C84.9917572,146.237435 82.6345153,149.784596 80.7636884,153.295561 C80.5391892,153.693712 81.1752704,154.091862 81.3997696,153.657516 C83.2705965,150.182746 85.6278384,146.635585 86.8625842,142.907447 C87.3115826,141.532017 87.8354141,140.192783 88.3966622,138.853548 C89.4069087,136.356057 90.5294049,133.894762 91.7267341,131.505858 C92.7369806,129.515104 93.8220602,127.307177 95.5058045,125.714574 C95.8799698,125.352619 95.3561383,124.845882 95.0193895,125.171642 L95.0193895,125.171642 Z" id="Path" fill="#171338" fill-rule="nonzero"></path>
                    <path d="M89.144993,141.42343 C87.9850803,146.020261 86.3387526,150.436115 84.2434265,154.670991 C84.0189273,155.105337 84.6924249,155.467292 84.8795076,155.032946 C87.0122503,150.725679 88.6959945,146.237435 89.8559072,141.604408 C90.0055734,141.170062 89.2572426,140.952889 89.144993,141.42343 L89.144993,141.42343 Z" id="Path" fill="#171338" fill-rule="nonzero"></path>
                    <path d="M113.503159,129.334126 C114.064407,130.239014 114.588239,131.180098 115.149487,132.084986 C115.860401,133.279438 116.047484,134.292913 116.234567,135.668343 C116.421649,137.22475 117.207397,138.455398 117.768645,139.903218 C119.00339,143.197011 120.612302,145.911675 122.745044,148.734925 C123.044377,149.096881 123.680458,148.734925 123.381125,148.37297 C122.258629,146.925149 121.136133,145.441133 120.238136,143.84853 C119.377556,142.328318 118.928557,140.69952 118.25506,139.143113 C117.918311,138.346811 117.394479,137.55051 117.16998,136.718013 C116.908064,135.813125 117.020314,134.908237 116.833231,134.003349 C116.459066,132.193573 115.074654,130.528579 114.13924,128.935976 C113.914741,128.574021 113.27866,128.935976 113.503159,129.334126 L113.503159,129.334126 Z" id="Path" fill="#171338" fill-rule="nonzero"></path>
                    <path d="M115.972651,144.282876 C118.329893,149.02449 120.312969,154.417622 123.86754,158.47152 C124.166873,158.833476 124.690704,158.326738 124.391372,157.964783 C120.874217,153.983276 118.928557,148.626339 116.608732,143.920921 C116.421649,143.486575 115.785568,143.84853 115.972651,144.282876 L115.972651,144.282876 Z" id="Path" fill="#171338" fill-rule="nonzero"></path>
                    <path d="M105.720519,243.205234 C103.063945,242.553714 95.3187218,216.637722 94.6452241,211.208394 C94.4955579,210.013942 95.543221,208.855685 97.2269652,207.733624 C99.8835394,212.149477 105.720519,243.205234 105.720519,243.205234 Z" id="Path" fill="#394480" fill-rule="nonzero"></path>
                    <path d="M139.694736,316.863118 C139.881819,318.890067 125.027453,324.355591 117.207397,324.934719 C109.38734,325.513847 104.111608,318.636698 98.6862102,319.794955 C93.2608122,320.953212 92.8492303,326.853081 84.1311769,326.853081 C75.4131235,326.853081 72.5694666,324.572764 72.2327177,322.545814 C72.1953012,322.220055 72.6442997,319.360609 73.4674635,314.799973 C78.6683623,317.225073 85.4781722,319.396804 89.5191584,316.645945 C96.7031337,311.759549 104.785106,316.899313 109.574423,319.10724 C114.36374,321.278971 128.881356,324.645155 139.694736,316.863118 Z" id="Path" fill="#F48A77" fill-rule="nonzero"></path>
                    <path d="M147.514792,203.064402 C149.647535,208.566121 151.817694,214.140231 152.491192,220.003905 C152.640858,221.162162 154.511685,221.162162 154.362019,220.003905 C153.651105,213.959253 151.518362,208.240361 149.310786,202.59386 C148.899204,201.507994 147.065794,201.978536 147.514792,203.064402 L147.514792,203.064402 Z" id="Path" fill="#394480" fill-rule="nonzero"></path>
                    <path d="M145.569132,211.244589 C146.616796,214.06784 147.439959,216.927286 148.001207,219.859123 C148.225707,221.01738 150.021701,220.510642 149.797201,219.388581 C149.198537,216.456744 148.412789,213.597298 147.365126,210.774047 C146.990961,209.688182 145.157551,210.158724 145.569132,211.244589 L145.569132,211.244589 Z" id="Path" fill="#394480" fill-rule="nonzero"></path>
                    <path d="M137.973575,203.860703 C140.255984,209.869159 141.939728,216.022398 143.062224,222.356614 C143.249307,223.514871 145.082717,223.008133 144.858218,221.886072 C143.735722,215.588052 142.051978,209.398618 139.769569,203.390161 C139.357987,202.2681 137.561993,202.738642 137.973575,203.860703 L137.973575,203.860703 Z" id="Path" fill="#394480" fill-rule="nonzero"></path>
                    <rect id="Rectangle" fill="#EAF4FB" fill-rule="nonzero" x="192.302389" y="227.279205" width="135.709784" height="48.2124332"></rect>
                    <polygon id="Path" fill="#EAF4FB" fill-rule="nonzero" points="213.667232 231.586472 178.869851 211.425567 196.268542 251.385421"></polygon>
                    <g id="Group" transform="translate(212.020904, 239.187531)" fill="#FFFFFF" fill-rule="nonzero">
                        <path d="M2.88107344,2.75085955 C17.9973548,2.75085955 33.1510528,2.75085955 48.2673342,2.75085955" id="Path"></path>
                        <path d="M2.88107344,5.46552358 C17.9973548,5.46552358 33.1510528,5.46552358 48.2673342,5.46552358 C51.8967384,5.46552358 51.8967384,0.0361955204 48.2673342,0.0361955204 C33.1510528,0.0361955204 17.9973548,0.0361955204 2.88107344,0.0361955204 C-0.748330763,0.0361955204 -0.748330763,5.46552358 2.88107344,5.46552358 L2.88107344,5.46552358 Z" id="Path"></path>
                    </g>
                    <g id="Group" transform="translate(212.020904, 250.046187)" fill="#FFFFFF" fill-rule="nonzero">
                        <path d="M2.88107344,2.89564163 C21.5893425,2.89564163 40.2976116,2.89564163 59.0058806,2.89564163" id="Path"></path>
                        <path d="M2.88107344,5.61030567 C21.5893425,5.61030567 40.2976116,5.61030567 59.0058806,5.61030567 C62.6352848,5.61030567 62.6352848,0.180977602 59.0058806,0.180977602 C40.2976116,0.180977602 21.5893425,0.180977602 2.88107344,0.180977602 C-0.748330763,0.180977602 -0.748330763,5.61030567 2.88107344,5.61030567 L2.88107344,5.61030567 Z" id="Path"></path>
                    </g>
                    <g id="Group" transform="translate(212.020904, 261.193304)" fill="#FFFFFF" fill-rule="nonzero">
                        <path d="M2.88107344,2.71576771 C27.2766563,2.71576771 51.6348226,2.71576771 76.0304055,2.71576771" id="Path"></path>
                        <path d="M2.88107344,5.43043174 C27.2766563,5.43043174 51.6348226,5.43043174 76.0304055,5.43043174 C79.6598097,5.43043174 79.6598097,0.00110367491 76.0304055,0.00110367491 C51.6348226,0.00110367491 27.2766563,0.00110367491 2.88107344,0.00110367491 C-0.748330763,0.00110367491 -0.748330763,5.43043174 2.88107344,5.43043174 L2.88107344,5.43043174 Z" id="Path"></path>
                    </g>
                    <g id="Group-3" transform="translate(309.954475, 208.111241) scale(-1, 1) rotate(-359.000000) translate(-309.954475, -208.111241) translate(217.454475, 39.611241)">
                        <path d="M137.187186,323.531435 C137.187186,323.531435 137.187186,316.657877 139.020566,313.014891 C140.853946,309.371906 138.234831,306.65685 138.234831,306.65685 L150.357592,307.27547 C150.357592,307.27547 150.806583,316.107993 153.388282,316.657877 C155.969981,317.207762 167.494086,321.263161 170.075785,321.572471 C172.657484,321.881781 179.729094,321.538103 182.722368,321.847414 C185.753058,322.191091 184.256421,324.69994 184.256421,326.383962 C184.256421,328.067984 165.847785,328.239823 158.663927,328.308558 C151.480069,328.377294 136.625947,327.174421 136.625947,327.174421 L137.187186,323.531435 Z" id="Path" fill="#394480" fill-rule="nonzero"></path>
                        <path d="M112.905167,331.04085 C112.905167,331.04085 112.120648,324.185596 113.913834,320.588284 C115.707019,316.990973 113.951192,314.377831 113.951192,314.377831 L126.055194,314.988695 C126.055194,314.988695 126.503491,323.710479 129.081195,324.25347 C131.658899,324.79646 143.165173,328.801015 145.742877,329.106447 C148.320581,329.411879 155.381249,329.07251 158.369892,329.377942 C161.358534,329.683374 160.648732,332.4662 160.68609,334.129108 C160.68609,335.792016 142.305938,335.961701 135.133196,336.029575 C127.960454,336.097449 113.129315,334.909657 113.129315,334.909657 L112.905167,331.04085 Z" id="Path" fill="#394480" fill-rule="nonzero"></path>
                        <path d="M139.701082,182.150064 C139.701082,182.150064 164.594898,253.674192 160.146904,260.771213 C155.69891,267.868234 144.709748,266.933505 143.850052,266.621928 C142.990355,266.310352 128.973567,204.271999 128.973567,204.271999 C128.973567,204.271999 127.14204,311.800528 126.95515,318.274396 C126.768259,324.748264 102.173469,323.501958 101.687553,320.178475 C101.388528,318.239776 109.163174,290.370985 107.331647,262.155998 C106.023413,242.388197 105.201095,222.516537 105.948657,211.36902 C107.817562,184.36572 107.817562,184.36572 107.817562,184.36572 L139.701082,182.150064 Z" id="Path" fill="#171338" fill-rule="nonzero"></path>
                        <path d="M161.183119,260.310124 L152.037354,315.011875 C152.037354,315.011875 129.490245,317.860209 130.199508,315.904124 C130.908771,313.913722 141.211755,264.737053 144.459435,259.72673 C147.707115,254.716406 161.183119,260.310124 161.183119,260.310124 Z" id="Path" fill="#171338" fill-rule="nonzero"></path>
                        <path d="M129.337588,66.8217374 C129.337588,66.8217374 140.199604,78.618869 137.864085,87.4752663 C135.639782,95.8529394 131.117031,96.6052203 124.44412,95.0322694 C122.182745,94.5193507 122.034458,92.6044539 121.626669,92.5018702 C120.811091,92.2283135 120.736947,93.8012644 119.773082,93.3909294 C112.395809,90.3134168 101.978653,83.9190295 107.984273,78.0375611 C114.842543,71.3354225 129.337588,66.8217374 129.337588,66.8217374 Z" id="Path" fill="#E57E80" fill-rule="nonzero"></path>
                        <path d="M115.395959,87.9277171 C113.802554,86.5151771 112.876156,84.5169497 113.061436,82.4842702 C113.172604,80.8994693 113.913722,79.0735029 116.359413,78.0399371 C123.214757,75.1459527 117.285811,70.1159322 121.399017,68.4277746 C125.54928,66.7396171 128.810201,67.5664698 129.032536,65.1892683 C129.254872,62.8120668 129.032536,61.4684312 128.36553,58.5055424 C127.661467,55.4392971 124.104099,53.303261 120.657899,53.8544961 C115.062456,54.7847054 114.358393,56.128341 118.397488,57.4375244 C126.586846,60.1247956 99.3136908,63.9489893 98.4614048,68.3933224 C97.6091187,72.8376556 97.8314542,80.0381644 105.094414,86.859699 C112.357374,93.6812337 110.912193,97.0230966 114.099002,98.1255668 C117.285811,99.2280371 125.104609,94.09466 124.178211,93.0610941 C123.770596,92.6132156 122.770086,88.099978 120.435563,89.0301873 C118.805103,89.7192312 116.359413,88.7545697 115.395959,87.9277171 Z" id="Path" fill="#171338" fill-rule="nonzero"></path>
                        <ellipse id="Oval" fill="#171338" fill-rule="nonzero" transform="translate(127.574351, 73.858506) rotate(149.999272) translate(-127.574351, -73.858506) " cx="127.574351" cy="73.8585065" rx="1.0297036" ry="1.76511816"></ellipse>
                        <path d="M133.138511,72.522502 C133.138511,72.522502 139.197026,79.1359473 140.82055,79.9397915 C142.444074,80.7436357 137.375512,82.3147856 136.306362,82.1320938 C135.237213,81.9494019 133.138511,72.522502 133.138511,72.522502 Z" id="Path" fill="#E95A5A" fill-rule="nonzero"></path>
                        <path d="M134.296725,88.0239971 C134.296725,88.0239971 130.284677,91.9340398 125.296725,87.1146849" id="Path" stroke="#171338" stroke-width="3" stroke-linecap="round"></path>
                        <path d="M114.984398,82.8863036 C114.593787,83.5381122 114.246577,84.2242265 114.246577,84.9446464 C114.289978,85.6650664 114.637188,86.3854864 114.940997,87.0716007 C115.244806,87.6891035 116.503443,87.4146578 116.199634,86.797155 C115.982627,86.2825693 115.678818,85.7679836 115.592016,85.2190921 C115.461812,84.5672836 115.765621,83.9840865 116.112831,83.4008893 C116.460041,82.7833865 115.331608,82.2688008 114.984398,82.8863036 L114.984398,82.8863036 Z" id="Path" fill="#E95A5A" fill-rule="nonzero"></path>
                        <path d="M114.784843,85.1732847 C115.35152,85.1732847 115.84264,85.6306453 116.258202,86.0422699 C116.824879,86.5911026 117.618226,85.6306453 117.05155,85.0818126 C116.371538,84.3957716 115.653747,83.8012028 114.784843,83.8012028 C114.067053,83.7554668 114.067053,85.1275486 114.784843,85.1732847 L114.784843,85.1732847 Z" id="Path" fill="#E95A5A" fill-rule="nonzero"></path>
                        <path d="M126.50917,69.1558703 C125.760023,69.1558703 125.117897,69.3697423 124.689813,70.0113585 C124.261729,70.6529746 124.083361,71.5084628 124.047687,72.257015 C123.97634,72.9342765 125.04655,72.9342765 125.117897,72.257015 C125.153571,71.7579802 125.260592,71.2589454 125.474634,70.795556 C125.688676,70.3321665 126.009739,70.2252305 126.50917,70.2252305 C127.222643,70.2252305 127.222643,69.1558703 126.50917,69.1558703 L126.50917,69.1558703 Z" id="Path" fill="#E95A5A" fill-rule="nonzero"></path>
                        <ellipse id="Oval" fill="#E95A5A" fill-rule="nonzero" transform="translate(128.626683, 81.162600) rotate(11.606566) translate(-128.626683, -81.162600) " cx="128.626683" cy="81.1626004" rx="4.4766603" ry="2.53441554"></ellipse>
                        <polygon id="Rectangle" fill="#EAF4FB" fill-rule="nonzero" transform="translate(45.201232, 28.028159) rotate(359.000000) translate(-45.201232, -28.028159) " points="2.00723821 1.125325 89.2604039 2.75516763 88.3952267 54.9309934 1.142061 53.3011507"></polygon>
                        <polygon id="Path" fill="#EAF4FB" fill-rule="nonzero" transform="translate(74.067848, 50.980452) rotate(359.000000) translate(-74.067848, -50.980452) " points="89.5859929 37.1846283 89.1190273 64.7762748 58.5497037 52.6188648"></polygon>
                        <g id="Group" transform="translate(28.066376, 19.299271) rotate(359.000000) translate(-28.066376, -19.299271) translate(9.066376, 16.299271)" fill="#FFFFFF" fill-rule="nonzero">
                            <path d="M2.06479365,3.36288729 C13.3290072,3.29949702 24.6211025,3.23594984 35.8853161,3.17255956" id="Path" transform="translate(18.975055, 3.267723) rotate(359.000000) translate(-18.975055, -3.267723) "></path>
                            <path d="M2.05526612,5.58652811 C13.3194842,5.52309884 24.6115841,5.45955164 35.8758022,5.39616135 C38.5803298,5.38094141 38.5992553,0.934040573 35.8947277,0.949221539 C24.6305096,1.01265081 13.3384097,1.07619801 2.07419161,1.1395883 C-0.602454276,1.15465133 -0.649261501,5.60170907 2.05526612,5.58652811 L2.05526612,5.58652811 Z" id="Path" transform="translate(18.980200, 3.267875) rotate(359.000000) translate(-18.980200, -3.267875) "></path>
                        </g>
                        <g id="Group" transform="translate(32.194888, 27.765287) rotate(359.000000) translate(-32.194888, -27.765287) translate(9.194888, 24.265287)" fill="#FFFFFF" fill-rule="nonzero">
                            <path d="M2.05406294,3.50327854 C15.9357734,3.4237928 29.8174839,3.34430706 43.6991943,3.26482132" id="Path" transform="translate(22.876629, 3.384050) rotate(359.000000) translate(-22.876629, -3.384050) "></path>
                            <path d="M2.04440722,5.72691865 C15.9261233,5.64739288 29.8078394,5.56790712 43.6895555,5.48842136 C46.3826084,5.47300112 46.401783,1.02610464 43.70873,1.04148486 C29.827014,1.12101063 15.9452979,1.20049639 2.06358178,1.27998215 C-0.601707714,1.29524342 -0.648645699,5.74229888 2.04440722,5.72691865 L2.04440722,5.72691865 Z" id="Path" transform="translate(22.881749, 3.384202) rotate(359.000000) translate(-22.881749, -3.384202) "></path>
                        </g>
                        <g id="Group" transform="translate(38.326252, 36.340805) rotate(359.000000) translate(-38.326252, -36.340805) translate(9.326252, 33.340805)" fill="#FFFFFF" fill-rule="nonzero">
                            <path d="M2.035578,2.75298272 C19.9468995,2.71594547 37.8307496,2.67896503 55.742071,2.64192778" id="Path" transform="translate(28.888825, 2.697455) rotate(359.000000) translate(-28.888825, -2.697455) "></path>
                            <path d="M2.03209502,4.60605425 C19.9434226,4.56901084 37.8272788,4.53203037 55.7386064,4.4949931 C58.4033284,4.48948295 58.4101801,0.783576567 55.7454581,0.789080575 C37.8341305,0.826123984 19.9502743,0.86310445 2.0389467,0.900141721 C-0.598303986,0.905595062 -0.632627031,4.61155825 2.03209502,4.60605425 L2.03209502,4.60605425 Z" id="Path" transform="translate(28.893914, 2.697567) rotate(359.000000) translate(-28.893914, -2.697567) "></path>
                        </g>
                        <path d="M138.186613,186.643536 C135.8649,187.678287 132.831693,188.988971 129.086994,190.748047 C124.89293,192.748566 106.843479,189.126938 107.217949,186.022685 C107.592419,182.918433 110.475838,143.011544 109.989027,145.253504 C109.464769,147.529956 101.750688,168.500905 102.799204,172.88135 C103.84772,177.296287 112.160952,196.50816 112.160952,196.50816 C112.160952,196.50816 102.611969,207.51101 99.2417393,207.649181 C95.8715098,207.752452 90.6663776,168.362938 91.3029765,164.637835 C91.9395754,160.947224 101.750688,120.764401 101.863029,115.901073 C101.97537,111.003252 122.496323,102.966688 122.496323,102.966688 L122.383982,104.070422 C122.383982,104.070422 117.141403,108.071458 118.639282,108.761292 C121.185678,109.899518 125.454635,107.312641 125.454635,107.312641 L127.439326,115.383697 L127.064856,107.002216 C127.064856,107.002216 133.018928,103.41508 132.344882,103.104654 C131.595942,102.759737 128.675077,103.104654 128.675077,103.104654 C128.675077,103.104654 134.292126,99.3450598 135.715112,101.000661 C137.138097,102.656262 135.602771,127.214348 135.602771,135.216421 C135.602771,143.218494 146.986657,183.228858 147.248786,185.263868 C147.32368,186.609044 142.418124,184.746493 138.186613,186.643536 Z" id="Path" fill="#F9B17C" fill-rule="nonzero"></path>
                        <path d="M138.174773,186.821299 C129.774681,184.129317 127.470232,115.518277 127.470232,115.518277 L127.098546,107.131717 C127.098546,107.131717 133.008345,103.542407 132.339311,103.231793 C131.59594,102.886667 128.696794,103.300818 128.696794,103.300818 L129.105648,100.988475 C130.629558,100.022122 134.569424,99.8150463 135.68448,101.126525 C137.096885,102.78313 139.51284,128.736601 139.51284,136.709011 C139.51284,144.715933 146.835044,183.404552 147.095223,185.440795 C147.243898,186.786786 142.374818,184.923106 138.174773,186.821299 Z" id="Path" fill="#F48A77" fill-rule="nonzero"></path>
                        <ellipse id="Oval" fill="#171338" fill-rule="nonzero" cx="127.661076" cy="147.921633" rx="1" ry="1"></ellipse>
                        <ellipse id="Oval" fill="#171338" fill-rule="nonzero" cx="128.800543" cy="157.523414" rx="1" ry="1"></ellipse>
                        <ellipse id="Oval" fill="#171338" fill-rule="nonzero" cx="129.94001" cy="167.125194" rx="1" ry="1"></ellipse>
                        <ellipse id="Oval" fill="#171338" fill-rule="nonzero" cx="132.096777" cy="177.908827" rx="1" ry="1"></ellipse>
                        <ellipse id="Oval" fill="#171338" fill-rule="nonzero" cx="134.201187" cy="185.083917" rx="1" ry="1"></ellipse>
                        <path d="M101.623557,66.1776406 C99.7682394,66.9098794 97.8415629,67.123449 95.843528,66.9098794 C94.7017938,66.7878396 94.7017938,68.313337 95.843528,68.4353768 C98.1626756,68.6794564 100.410465,68.313337 102.551216,67.4895684 C103.550234,67.0929391 102.658254,65.7810113 101.623557,66.1776406 L101.623557,66.1776406 Z" id="Path" fill="#171338" fill-rule="nonzero"></path>
                        <path d="M99.7481684,69.3234244 C100.574157,68.2229986 100.987151,66.9339284 100.987151,65.6448582 C100.987151,64.6387546 99.1099045,64.6387546 99.1099045,65.6448582 C99.1099045,66.6824025 98.809545,67.6570653 98.1337362,68.537406 C97.4954724,69.3863059 99.1099045,70.2037651 99.7481684,69.3234244 L99.7481684,69.3234244 Z" id="Path" fill="#171338" fill-rule="nonzero"></path>
                    </g>
                </g>
            </g>
        </g>
    </g>
</svg>